M48
; DRILL file {KiCad 8.0.4} date 2024-11-26T16:04:48+0630
; FORMAT={-:-/ absolute / metric / decimal}
; #@! TF.CreationDate,2024-11-26T16:04:48+06:30
; #@! TF.GenerationSoftware,Kicad,Pcbnew,8.0.4
; #@! TF.FileFunction,Plated,1,4,PTH
FMAT,2
METRIC
; #@! TA.AperFunction,Plated,PTH,ViaDrill
T1C0.300
; #@! TA.AperFunction,Plated,PTH,ComponentDrill
T2C0.600
; #@! TA.AperFunction,Plated,PTH,ComponentDrill
T3C1.000
; #@! TA.AperFunction,Plated,PTH,ComponentDrill
T4C1.100
%
G90
G05
T1
X1.535Y56.608
X1.535Y3.268
X2.794Y5.08
X3.48Y44.348
X3.683Y30.226
X4.075Y23.588
X4.075Y15.968
X4.826Y32.766
X5.131Y11.684
X5.131Y9.144
X6.615Y54.068
X6.615Y41.368
X6.615Y5.808
X8.049Y39.599
X9.398Y11.303
X9.754Y37.135
X10.541Y51.943
X10.998Y26.365
X11.049Y44.45
X11.611Y29.923
X11.695Y29.018
X11.695Y56.608
X11.695Y48.988
X11.695Y8.348
X12.41Y29.971
X12.668Y31.629
X12.7Y13.208
X13.259Y30.015
X13.97Y51.181
X14.122Y31.445
X14.235Y13.428
X14.235Y3.268
X15.342Y50.038
X15.625Y13.387
X15.875Y46.736
X16.002Y51.181
X16.002Y29.413
X16.002Y25.857
X16.053Y27.635
X16.371Y20.049
X16.775Y41.368
X16.794Y24.971
X17.355Y44.78
X17.776Y51.173
X17.78Y29.413
X17.78Y27.635
X17.78Y27.635
X17.78Y27.635
X17.78Y25.857
X17.958Y34.135
X17.983Y22.758
X18.186Y31.75
X18.205Y44.78
X18.466Y20.472
X18.784Y34.583
X19.315Y56.608
X19.315Y10.888
X19.431Y51.435
X19.507Y49.276
X19.558Y29.362
X19.558Y27.635
X19.558Y25.857
X19.583Y34.62
X19.685Y47.752
X19.901Y18.923
X20.168Y33.96
X20.523Y21.996
X20.828Y13.208
X21.336Y31.445
X21.53Y32.845
X21.59Y13.97
X21.717Y50.927
X21.855Y43.908
X21.855Y3.268
X22.682Y26.455
X23.126Y31.022
X23.698Y19.914
X24.395Y54.068
X24.395Y8.348
X24.79Y16.815
X25.019Y26.746
X26.935Y26.128
X26.935Y15.968
X29.475Y21.048
X29.475Y10.888
X29.475Y3.268
X32.015Y56.608
X32.015Y48.988
X32.015Y41.368
X32.715Y30.48
X32.817Y10.16
T3
X1.27Y53.34
X1.27Y50.8
X1.27Y48.26
X1.27Y45.72
X1.27Y43.18
X1.27Y40.64
X1.27Y38.1
X1.27Y35.56
X1.27Y33.02
X1.27Y30.48
X1.27Y27.94
X1.27Y25.4
X1.27Y22.86
X1.27Y20.32
X1.27Y17.78
X1.27Y15.24
X1.27Y12.7
X1.27Y10.16
X1.27Y7.62
X1.27Y5.08
X34.29Y53.34
X34.29Y50.8
X34.29Y48.26
X34.29Y45.72
X34.29Y43.18
X34.29Y40.64
X34.29Y38.1
X34.29Y35.56
X34.29Y33.02
X34.29Y30.48
X34.29Y27.94
X34.29Y25.4
X34.29Y22.86
X34.29Y20.32
X34.29Y17.78
X34.29Y15.24
X34.29Y12.7
X34.29Y10.16
X34.29Y7.62
X34.29Y5.08
T4
X9.755Y6.045
X9.755Y1.545
X16.255Y6.045
X16.255Y1.545
X19.305Y6.06
X19.305Y1.56
X25.805Y6.06
X25.805Y1.56
T2
G00X13.46Y57.9
M15
G01X13.46Y58.5
M16
G05
G00X13.46Y53.47
M15
G01X13.46Y54.57
M16
G05
G00X22.1Y57.9
M15
G01X22.1Y58.5
M16
G05
G00X22.1Y53.47
M15
G01X22.1Y54.57
M16
G05
M30
