%TF.GenerationSoftware,KiCad,Pcbnew,8.0.4*%
%TF.CreationDate,2024-11-26T16:04:44+06:30*%
%TF.ProjectId,RP2040_DevBoard,52503230-3430-45f4-9465-76426f617264,1.0*%
%TF.SameCoordinates,PX791ddc0PY791ddc0*%
%TF.FileFunction,Drillmap*%
%TF.FilePolarity,Positive*%
%FSLAX45Y45*%
G04 Gerber Fmt 4.5, Leading zero omitted, Abs format (unit mm)*
G04 Created by KiCad (PCBNEW 8.0.4) date 2024-11-26 16:04:44*
%MOMM*%
%LPD*%
G01*
G04 APERTURE LIST*
%ADD10C,0.100000*%
%ADD11C,0.200000*%
%ADD12C,0.110000*%
G04 APERTURE END LIST*
D10*
X381000Y0D02*
X3175000Y0D01*
X0Y5461000D02*
G75*
G02*
X508000Y5969000I508000J0D01*
G01*
X3556000Y381000D02*
X3556000Y5461000D01*
X3048000Y5969000D02*
G75*
G02*
X3556000Y5461000I0J-508000D01*
G01*
X381000Y0D02*
G75*
G02*
X0Y381000I0J381000D01*
G01*
X3556000Y381000D02*
G75*
G02*
X3175000Y0I-381000J0D01*
G01*
X0Y5461000D02*
X0Y381000D01*
X3048000Y5969000D02*
X508000Y5969000D01*
D11*
D10*
X138548Y5675825D02*
X168548Y5645825D01*
X168548Y5675825D02*
X138548Y5645825D01*
X138548Y341825D02*
X168548Y311825D01*
X168548Y341825D02*
X138548Y311825D01*
X264400Y523000D02*
X294400Y493000D01*
X294400Y523000D02*
X264400Y493000D01*
X332980Y4449840D02*
X362980Y4419840D01*
X362980Y4449840D02*
X332980Y4419840D01*
X353300Y3037600D02*
X383300Y3007600D01*
X383300Y3037600D02*
X353300Y3007600D01*
X392548Y2373825D02*
X422548Y2343825D01*
X422548Y2373825D02*
X392548Y2343825D01*
X392548Y1611825D02*
X422548Y1581825D01*
X422548Y1611825D02*
X392548Y1581825D01*
X467600Y3291600D02*
X497600Y3261600D01*
X497600Y3291600D02*
X467600Y3261600D01*
X498080Y1183400D02*
X528080Y1153400D01*
X528080Y1183400D02*
X498080Y1153400D01*
X498080Y929400D02*
X528080Y899400D01*
X528080Y929400D02*
X498080Y899400D01*
X646548Y5421825D02*
X676548Y5391825D01*
X676548Y5421825D02*
X646548Y5391825D01*
X646548Y4151825D02*
X676548Y4121825D01*
X676548Y4151825D02*
X646548Y4121825D01*
X646548Y595825D02*
X676548Y565825D01*
X676548Y595825D02*
X646548Y565825D01*
X789920Y3974860D02*
X819920Y3944860D01*
X819920Y3974860D02*
X789920Y3944860D01*
X924800Y1145300D02*
X954800Y1115300D01*
X954800Y1145300D02*
X924800Y1115300D01*
X960360Y3728480D02*
X990360Y3698480D01*
X990360Y3728480D02*
X960360Y3698480D01*
X1039100Y5209300D02*
X1069100Y5179300D01*
X1069100Y5209300D02*
X1039100Y5179300D01*
X1084820Y2651520D02*
X1114820Y2621520D01*
X1114820Y2651520D02*
X1084820Y2621520D01*
X1089900Y4460000D02*
X1119900Y4430000D01*
X1119900Y4460000D02*
X1089900Y4430000D01*
X1146113Y3007282D02*
X1176113Y2977282D01*
X1176113Y3007282D02*
X1146113Y2977282D01*
X1154545Y2916825D02*
X1184545Y2886825D01*
X1184545Y2916825D02*
X1154545Y2886825D01*
X1154548Y5675825D02*
X1184548Y5645825D01*
X1184548Y5675825D02*
X1154548Y5645825D01*
X1154548Y4913825D02*
X1184548Y4883825D01*
X1184548Y4913825D02*
X1154548Y4883825D01*
X1154548Y849825D02*
X1184548Y819825D01*
X1184548Y849825D02*
X1154548Y819825D01*
X1225966Y3012129D02*
X1255966Y2982129D01*
X1255966Y3012129D02*
X1225966Y2982129D01*
X1251850Y3177869D02*
X1281850Y3147869D01*
X1281850Y3177869D02*
X1251850Y3147869D01*
X1255000Y1335800D02*
X1285000Y1305800D01*
X1285000Y1335800D02*
X1255000Y1305800D01*
X1310880Y3016520D02*
X1340880Y2986520D01*
X1340880Y3016520D02*
X1310880Y2986520D01*
X1382000Y5133100D02*
X1412000Y5103100D01*
X1412000Y5133100D02*
X1382000Y5103100D01*
X1397240Y3159520D02*
X1427240Y3129520D01*
X1427240Y3159520D02*
X1397240Y3129520D01*
X1408548Y1357825D02*
X1438548Y1327825D01*
X1438548Y1357825D02*
X1408548Y1327825D01*
X1408548Y341825D02*
X1438548Y311825D01*
X1438548Y341825D02*
X1408548Y311825D01*
X1519160Y5018800D02*
X1549160Y4988800D01*
X1549160Y5018800D02*
X1519160Y4988800D01*
X1547543Y1353733D02*
X1577543Y1323733D01*
X1577543Y1353733D02*
X1547543Y1323733D01*
X1572500Y4688600D02*
X1602500Y4658600D01*
X1602500Y4688600D02*
X1572500Y4658600D01*
X1585200Y5133100D02*
X1615200Y5103100D01*
X1615200Y5133100D02*
X1585200Y5103100D01*
X1585200Y2956320D02*
X1615200Y2926320D01*
X1615200Y2956320D02*
X1585200Y2926320D01*
X1585200Y2600720D02*
X1615200Y2570720D01*
X1615200Y2600720D02*
X1585200Y2570720D01*
X1590280Y2778520D02*
X1620280Y2748520D01*
X1620280Y2778520D02*
X1590280Y2748520D01*
X1622063Y2019882D02*
X1652063Y1989882D01*
X1652063Y2019882D02*
X1622063Y1989882D01*
X1662548Y4151825D02*
X1692548Y4121825D01*
X1692548Y4151825D02*
X1662548Y4121825D01*
X1664418Y2512142D02*
X1694418Y2482142D01*
X1694418Y2512142D02*
X1664418Y2482142D01*
X1720500Y4493020D02*
X1750500Y4463020D01*
X1750500Y4493020D02*
X1720500Y4463020D01*
X1762550Y5132293D02*
X1792550Y5102293D01*
X1792550Y5132293D02*
X1762550Y5102293D01*
X1763000Y2956320D02*
X1793000Y2926320D01*
X1793000Y2956320D02*
X1763000Y2926320D01*
X1763000Y2778520D02*
X1793000Y2748520D01*
X1793000Y2778520D02*
X1763000Y2748520D01*
X1763000Y2778520D02*
X1793000Y2748520D01*
X1793000Y2778520D02*
X1763000Y2748520D01*
X1763000Y2778520D02*
X1793000Y2748520D01*
X1793000Y2778520D02*
X1763000Y2748520D01*
X1763000Y2600720D02*
X1793000Y2570720D01*
X1793000Y2600720D02*
X1763000Y2570720D01*
X1780780Y3428500D02*
X1810780Y3398500D01*
X1810780Y3428500D02*
X1780780Y3398500D01*
X1783320Y2290840D02*
X1813320Y2260840D01*
X1813320Y2290840D02*
X1783320Y2260840D01*
X1803640Y3190000D02*
X1833640Y3160000D01*
X1833640Y3190000D02*
X1803640Y3160000D01*
X1805500Y4493020D02*
X1835500Y4463020D01*
X1835500Y4493020D02*
X1805500Y4463020D01*
X1831580Y2062240D02*
X1861580Y2032240D01*
X1861580Y2062240D02*
X1831580Y2032240D01*
X1863425Y3473305D02*
X1893425Y3443305D01*
X1893425Y3473305D02*
X1863425Y3443305D01*
X1916548Y5675825D02*
X1946548Y5645825D01*
X1946548Y5675825D02*
X1916548Y5645825D01*
X1916548Y1103825D02*
X1946548Y1073825D01*
X1946548Y1103825D02*
X1916548Y1073825D01*
X1928100Y5158500D02*
X1958100Y5128500D01*
X1958100Y5158500D02*
X1928100Y5128500D01*
X1935720Y4942600D02*
X1965720Y4912600D01*
X1965720Y4942600D02*
X1935720Y4912600D01*
X1940800Y2951240D02*
X1970800Y2921240D01*
X1970800Y2951240D02*
X1940800Y2921240D01*
X1940800Y2778520D02*
X1970800Y2748520D01*
X1970800Y2778520D02*
X1940800Y2748520D01*
X1940800Y2600720D02*
X1970800Y2570720D01*
X1970800Y2600720D02*
X1940800Y2570720D01*
X1943338Y3477035D02*
X1973338Y3447035D01*
X1973338Y3477035D02*
X1943338Y3447035D01*
X1953500Y4790200D02*
X1983500Y4760200D01*
X1983500Y4790200D02*
X1953500Y4760200D01*
X1975090Y1907300D02*
X2005090Y1877300D01*
X2005090Y1907300D02*
X1975090Y1877300D01*
X2001760Y3410980D02*
X2031760Y3380980D01*
X2031760Y3410980D02*
X2001760Y3380980D01*
X2037320Y2214640D02*
X2067320Y2184640D01*
X2067320Y2214640D02*
X2037320Y2184640D01*
X2067800Y1335800D02*
X2097800Y1305800D01*
X2097800Y1335800D02*
X2067800Y1305800D01*
X2118600Y3159520D02*
X2148600Y3129520D01*
X2148600Y3159520D02*
X2118600Y3129520D01*
X2138000Y3299520D02*
X2168000Y3269520D01*
X2168000Y3299520D02*
X2138000Y3269520D01*
X2144000Y1412000D02*
X2174000Y1382000D01*
X2174000Y1412000D02*
X2144000Y1382000D01*
X2156700Y5107700D02*
X2186700Y5077700D01*
X2186700Y5107700D02*
X2156700Y5077700D01*
X2170548Y4405825D02*
X2200548Y4375825D01*
X2200548Y4405825D02*
X2170548Y4375825D01*
X2170548Y341825D02*
X2200548Y311825D01*
X2200548Y341825D02*
X2170548Y311825D01*
X2253192Y2660520D02*
X2283192Y2630520D01*
X2283192Y2660520D02*
X2253192Y2630520D01*
X2297626Y3117226D02*
X2327626Y3087226D01*
X2327626Y3117226D02*
X2297626Y3087226D01*
X2354820Y2006360D02*
X2384820Y1976360D01*
X2384820Y2006360D02*
X2354820Y1976360D01*
X2424548Y5421825D02*
X2454548Y5391825D01*
X2454548Y5421825D02*
X2424548Y5391825D01*
X2424548Y849825D02*
X2454548Y819825D01*
X2454548Y849825D02*
X2424548Y819825D01*
X2464040Y1696480D02*
X2494040Y1666480D01*
X2494040Y1696480D02*
X2464040Y1666480D01*
X2486900Y2689620D02*
X2516900Y2659620D01*
X2516900Y2689620D02*
X2486900Y2659620D01*
X2678548Y2627825D02*
X2708548Y2597825D01*
X2708548Y2627825D02*
X2678548Y2597825D01*
X2678548Y1611825D02*
X2708548Y1581825D01*
X2708548Y1611825D02*
X2678548Y1581825D01*
X2932548Y2119825D02*
X2962548Y2089825D01*
X2962548Y2119825D02*
X2932548Y2089825D01*
X2932548Y1103825D02*
X2962548Y1073825D01*
X2962548Y1103825D02*
X2932548Y1073825D01*
X2932548Y341825D02*
X2962548Y311825D01*
X2962548Y341825D02*
X2932548Y311825D01*
X3186548Y5675825D02*
X3216548Y5645825D01*
X3216548Y5675825D02*
X3186548Y5645825D01*
X3186548Y4913825D02*
X3216548Y4883825D01*
X3216548Y4913825D02*
X3186548Y4883825D01*
X3186548Y4151825D02*
X3216548Y4121825D01*
X3216548Y4151825D02*
X3186548Y4121825D01*
X3256520Y3063000D02*
X3286520Y3033000D01*
X3286520Y3063000D02*
X3256520Y3033000D01*
X3266680Y1031000D02*
X3296680Y1001000D01*
X3296680Y1031000D02*
X3266680Y1001000D01*
X1376000Y5820000D02*
G75*
G02*
X1316000Y5820000I-30000J0D01*
G01*
X1316000Y5820000D02*
G75*
G02*
X1376000Y5820000I30000J0D01*
G01*
X1376000Y5790000D02*
X1376000Y5850000D01*
X1316000Y5850000D02*
G75*
G02*
X1376000Y5850000I30000J0D01*
G01*
X1316000Y5850000D02*
X1316000Y5790000D01*
X1316000Y5790000D02*
G75*
G03*
X1376000Y5790000I30000J0D01*
G01*
X1376000Y5402000D02*
G75*
G02*
X1316000Y5402000I-30000J0D01*
G01*
X1316000Y5402000D02*
G75*
G02*
X1376000Y5402000I30000J0D01*
G01*
X1376000Y5347000D02*
X1376000Y5457000D01*
X1316000Y5457000D02*
G75*
G02*
X1376000Y5457000I30000J0D01*
G01*
X1316000Y5457000D02*
X1316000Y5347000D01*
X1316000Y5347000D02*
G75*
G03*
X1376000Y5347000I30000J0D01*
G01*
X2240000Y5820000D02*
G75*
G02*
X2180000Y5820000I-30000J0D01*
G01*
X2180000Y5820000D02*
G75*
G02*
X2240000Y5820000I30000J0D01*
G01*
X2240000Y5790000D02*
X2240000Y5850000D01*
X2180000Y5850000D02*
G75*
G02*
X2240000Y5850000I30000J0D01*
G01*
X2180000Y5850000D02*
X2180000Y5790000D01*
X2180000Y5790000D02*
G75*
G03*
X2240000Y5790000I30000J0D01*
G01*
X2240000Y5402000D02*
G75*
G02*
X2180000Y5402000I-30000J0D01*
G01*
X2180000Y5402000D02*
G75*
G02*
X2240000Y5402000I30000J0D01*
G01*
X2240000Y5347000D02*
X2240000Y5457000D01*
X2180000Y5457000D02*
G75*
G02*
X2240000Y5457000I30000J0D01*
G01*
X2180000Y5457000D02*
X2180000Y5347000D01*
X2180000Y5347000D02*
G75*
G03*
X2240000Y5347000I30000J0D01*
G01*
X127000Y5384000D02*
X127000Y5284000D01*
X77000Y5334000D02*
X177000Y5334000D01*
X127000Y5130000D02*
X127000Y5030000D01*
X77000Y5080000D02*
X177000Y5080000D01*
X127000Y4876000D02*
X127000Y4776000D01*
X77000Y4826000D02*
X177000Y4826000D01*
X127000Y4622000D02*
X127000Y4522000D01*
X77000Y4572000D02*
X177000Y4572000D01*
X127000Y4368000D02*
X127000Y4268000D01*
X77000Y4318000D02*
X177000Y4318000D01*
X127000Y4114000D02*
X127000Y4014000D01*
X77000Y4064000D02*
X177000Y4064000D01*
X127000Y3860000D02*
X127000Y3760000D01*
X77000Y3810000D02*
X177000Y3810000D01*
X127000Y3606000D02*
X127000Y3506000D01*
X77000Y3556000D02*
X177000Y3556000D01*
X127000Y3352000D02*
X127000Y3252000D01*
X77000Y3302000D02*
X177000Y3302000D01*
X127000Y3098000D02*
X127000Y2998000D01*
X77000Y3048000D02*
X177000Y3048000D01*
X127000Y2844000D02*
X127000Y2744000D01*
X77000Y2794000D02*
X177000Y2794000D01*
X127000Y2590000D02*
X127000Y2490000D01*
X77000Y2540000D02*
X177000Y2540000D01*
X127000Y2336000D02*
X127000Y2236000D01*
X77000Y2286000D02*
X177000Y2286000D01*
X127000Y2082000D02*
X127000Y1982000D01*
X77000Y2032000D02*
X177000Y2032000D01*
X127000Y1828000D02*
X127000Y1728000D01*
X77000Y1778000D02*
X177000Y1778000D01*
X127000Y1574000D02*
X127000Y1474000D01*
X77000Y1524000D02*
X177000Y1524000D01*
X127000Y1320000D02*
X127000Y1220000D01*
X77000Y1270000D02*
X177000Y1270000D01*
X127000Y1066000D02*
X127000Y966000D01*
X77000Y1016000D02*
X177000Y1016000D01*
X127000Y812000D02*
X127000Y712000D01*
X77000Y762000D02*
X177000Y762000D01*
X127000Y558000D02*
X127000Y458000D01*
X77000Y508000D02*
X177000Y508000D01*
X3429000Y5384000D02*
X3429000Y5284000D01*
X3379000Y5334000D02*
X3479000Y5334000D01*
X3429000Y5130000D02*
X3429000Y5030000D01*
X3379000Y5080000D02*
X3479000Y5080000D01*
X3429000Y4876000D02*
X3429000Y4776000D01*
X3379000Y4826000D02*
X3479000Y4826000D01*
X3429000Y4622000D02*
X3429000Y4522000D01*
X3379000Y4572000D02*
X3479000Y4572000D01*
X3429000Y4368000D02*
X3429000Y4268000D01*
X3379000Y4318000D02*
X3479000Y4318000D01*
X3429000Y4114000D02*
X3429000Y4014000D01*
X3379000Y4064000D02*
X3479000Y4064000D01*
X3429000Y3860000D02*
X3429000Y3760000D01*
X3379000Y3810000D02*
X3479000Y3810000D01*
X3429000Y3606000D02*
X3429000Y3506000D01*
X3379000Y3556000D02*
X3479000Y3556000D01*
X3429000Y3352000D02*
X3429000Y3252000D01*
X3379000Y3302000D02*
X3479000Y3302000D01*
X3429000Y3098000D02*
X3429000Y2998000D01*
X3379000Y3048000D02*
X3479000Y3048000D01*
X3429000Y2844000D02*
X3429000Y2744000D01*
X3379000Y2794000D02*
X3479000Y2794000D01*
X3429000Y2590000D02*
X3429000Y2490000D01*
X3379000Y2540000D02*
X3479000Y2540000D01*
X3429000Y2336000D02*
X3429000Y2236000D01*
X3379000Y2286000D02*
X3479000Y2286000D01*
X3429000Y2082000D02*
X3429000Y1982000D01*
X3379000Y2032000D02*
X3479000Y2032000D01*
X3429000Y1828000D02*
X3429000Y1728000D01*
X3379000Y1778000D02*
X3479000Y1778000D01*
X3429000Y1574000D02*
X3429000Y1474000D01*
X3379000Y1524000D02*
X3479000Y1524000D01*
X3429000Y1320000D02*
X3429000Y1220000D01*
X3379000Y1270000D02*
X3479000Y1270000D01*
X3429000Y1066000D02*
X3429000Y966000D01*
X3379000Y1016000D02*
X3479000Y1016000D01*
X3429000Y812000D02*
X3429000Y712000D01*
X3379000Y762000D02*
X3479000Y762000D01*
X3429000Y558000D02*
X3429000Y458000D01*
X3379000Y508000D02*
X3479000Y508000D01*
D12*
X1014371Y565629D02*
X1014371Y643411D01*
X936589Y643411D01*
X936589Y565629D01*
X1014371Y565629D01*
X1014371Y115629D02*
X1014371Y193411D01*
X936589Y193411D01*
X936589Y115629D01*
X1014371Y115629D01*
X1664371Y565629D02*
X1664371Y643411D01*
X1586589Y643411D01*
X1586589Y565629D01*
X1664371Y565629D01*
X1664371Y115629D02*
X1664371Y193411D01*
X1586589Y193411D01*
X1586589Y115629D01*
X1664371Y115629D01*
X1969411Y567109D02*
X1969411Y644891D01*
X1891629Y644891D01*
X1891629Y567109D01*
X1969411Y567109D01*
X1969411Y117109D02*
X1969411Y194891D01*
X1891629Y194891D01*
X1891629Y117109D01*
X1969411Y117109D01*
X2619411Y567109D02*
X2619411Y644891D01*
X2541629Y644891D01*
X2541629Y567109D01*
X2619411Y567109D01*
X2619411Y117109D02*
X2619411Y194891D01*
X2541629Y194891D01*
X2541629Y117109D01*
X2619411Y117109D01*
D11*
X255777Y-316484D02*
X255777Y-116484D01*
X255777Y-116484D02*
X303396Y-116484D01*
X303396Y-116484D02*
X331967Y-126008D01*
X331967Y-126008D02*
X351015Y-145055D01*
X351015Y-145055D02*
X360539Y-164103D01*
X360539Y-164103D02*
X370062Y-202198D01*
X370062Y-202198D02*
X370062Y-230769D01*
X370062Y-230769D02*
X360539Y-268865D01*
X360539Y-268865D02*
X351015Y-287912D01*
X351015Y-287912D02*
X331967Y-306960D01*
X331967Y-306960D02*
X303396Y-316484D01*
X303396Y-316484D02*
X255777Y-316484D01*
X455777Y-316484D02*
X455777Y-183150D01*
X455777Y-221246D02*
X465301Y-202198D01*
X465301Y-202198D02*
X474824Y-192674D01*
X474824Y-192674D02*
X493872Y-183150D01*
X493872Y-183150D02*
X512920Y-183150D01*
X579586Y-316484D02*
X579586Y-183150D01*
X579586Y-116484D02*
X570063Y-126008D01*
X570063Y-126008D02*
X579586Y-135531D01*
X579586Y-135531D02*
X589110Y-126008D01*
X589110Y-126008D02*
X579586Y-116484D01*
X579586Y-116484D02*
X579586Y-135531D01*
X703396Y-316484D02*
X684348Y-306960D01*
X684348Y-306960D02*
X674824Y-287912D01*
X674824Y-287912D02*
X674824Y-116484D01*
X808158Y-316484D02*
X789110Y-306960D01*
X789110Y-306960D02*
X779586Y-287912D01*
X779586Y-287912D02*
X779586Y-116484D01*
X1036729Y-316484D02*
X1036729Y-116484D01*
X1036729Y-116484D02*
X1103396Y-259341D01*
X1103396Y-259341D02*
X1170063Y-116484D01*
X1170063Y-116484D02*
X1170063Y-316484D01*
X1351015Y-316484D02*
X1351015Y-211722D01*
X1351015Y-211722D02*
X1341491Y-192674D01*
X1341491Y-192674D02*
X1322444Y-183150D01*
X1322444Y-183150D02*
X1284348Y-183150D01*
X1284348Y-183150D02*
X1265301Y-192674D01*
X1351015Y-306960D02*
X1331967Y-316484D01*
X1331967Y-316484D02*
X1284348Y-316484D01*
X1284348Y-316484D02*
X1265301Y-306960D01*
X1265301Y-306960D02*
X1255777Y-287912D01*
X1255777Y-287912D02*
X1255777Y-268865D01*
X1255777Y-268865D02*
X1265301Y-249817D01*
X1265301Y-249817D02*
X1284348Y-240293D01*
X1284348Y-240293D02*
X1331967Y-240293D01*
X1331967Y-240293D02*
X1351015Y-230769D01*
X1446253Y-183150D02*
X1446253Y-383150D01*
X1446253Y-192674D02*
X1465301Y-183150D01*
X1465301Y-183150D02*
X1503396Y-183150D01*
X1503396Y-183150D02*
X1522443Y-192674D01*
X1522443Y-192674D02*
X1531967Y-202198D01*
X1531967Y-202198D02*
X1541491Y-221246D01*
X1541491Y-221246D02*
X1541491Y-278389D01*
X1541491Y-278389D02*
X1531967Y-297436D01*
X1531967Y-297436D02*
X1522443Y-306960D01*
X1522443Y-306960D02*
X1503396Y-316484D01*
X1503396Y-316484D02*
X1465301Y-316484D01*
X1465301Y-316484D02*
X1446253Y-306960D01*
X1627205Y-297436D02*
X1636729Y-306960D01*
X1636729Y-306960D02*
X1627205Y-316484D01*
X1627205Y-316484D02*
X1617682Y-306960D01*
X1617682Y-306960D02*
X1627205Y-297436D01*
X1627205Y-297436D02*
X1627205Y-316484D01*
X1627205Y-192674D02*
X1636729Y-202198D01*
X1636729Y-202198D02*
X1627205Y-211722D01*
X1627205Y-211722D02*
X1617682Y-202198D01*
X1617682Y-202198D02*
X1627205Y-192674D01*
X1627205Y-192674D02*
X1627205Y-211722D01*
D10*
X-35000Y-630000D02*
X-5000Y-660000D01*
X-5000Y-630000D02*
X-35000Y-660000D01*
D11*
X293872Y-536484D02*
X312920Y-536484D01*
X312920Y-536484D02*
X331967Y-546008D01*
X331967Y-546008D02*
X341491Y-555531D01*
X341491Y-555531D02*
X351015Y-574579D01*
X351015Y-574579D02*
X360539Y-612674D01*
X360539Y-612674D02*
X360539Y-660293D01*
X360539Y-660293D02*
X351015Y-698389D01*
X351015Y-698389D02*
X341491Y-717436D01*
X341491Y-717436D02*
X331967Y-726960D01*
X331967Y-726960D02*
X312920Y-736484D01*
X312920Y-736484D02*
X293872Y-736484D01*
X293872Y-736484D02*
X274824Y-726960D01*
X274824Y-726960D02*
X265301Y-717436D01*
X265301Y-717436D02*
X255777Y-698389D01*
X255777Y-698389D02*
X246253Y-660293D01*
X246253Y-660293D02*
X246253Y-612674D01*
X246253Y-612674D02*
X255777Y-574579D01*
X255777Y-574579D02*
X265301Y-555531D01*
X265301Y-555531D02*
X274824Y-546008D01*
X274824Y-546008D02*
X293872Y-536484D01*
X446253Y-717436D02*
X455777Y-726960D01*
X455777Y-726960D02*
X446253Y-736484D01*
X446253Y-736484D02*
X436729Y-726960D01*
X436729Y-726960D02*
X446253Y-717436D01*
X446253Y-717436D02*
X446253Y-736484D01*
X522443Y-536484D02*
X646253Y-536484D01*
X646253Y-536484D02*
X579586Y-612674D01*
X579586Y-612674D02*
X608158Y-612674D01*
X608158Y-612674D02*
X627205Y-622198D01*
X627205Y-622198D02*
X636729Y-631722D01*
X636729Y-631722D02*
X646253Y-650770D01*
X646253Y-650770D02*
X646253Y-698389D01*
X646253Y-698389D02*
X636729Y-717436D01*
X636729Y-717436D02*
X627205Y-726960D01*
X627205Y-726960D02*
X608158Y-736484D01*
X608158Y-736484D02*
X551015Y-736484D01*
X551015Y-736484D02*
X531967Y-726960D01*
X531967Y-726960D02*
X522443Y-717436D01*
X770062Y-536484D02*
X789110Y-536484D01*
X789110Y-536484D02*
X808158Y-546008D01*
X808158Y-546008D02*
X817682Y-555531D01*
X817682Y-555531D02*
X827205Y-574579D01*
X827205Y-574579D02*
X836729Y-612674D01*
X836729Y-612674D02*
X836729Y-660293D01*
X836729Y-660293D02*
X827205Y-698389D01*
X827205Y-698389D02*
X817682Y-717436D01*
X817682Y-717436D02*
X808158Y-726960D01*
X808158Y-726960D02*
X789110Y-736484D01*
X789110Y-736484D02*
X770062Y-736484D01*
X770062Y-736484D02*
X751015Y-726960D01*
X751015Y-726960D02*
X741491Y-717436D01*
X741491Y-717436D02*
X731967Y-698389D01*
X731967Y-698389D02*
X722443Y-660293D01*
X722443Y-660293D02*
X722443Y-612674D01*
X722443Y-612674D02*
X731967Y-574579D01*
X731967Y-574579D02*
X741491Y-555531D01*
X741491Y-555531D02*
X751015Y-546008D01*
X751015Y-546008D02*
X770062Y-536484D01*
X960539Y-536484D02*
X979586Y-536484D01*
X979586Y-536484D02*
X998634Y-546008D01*
X998634Y-546008D02*
X1008158Y-555531D01*
X1008158Y-555531D02*
X1017682Y-574579D01*
X1017682Y-574579D02*
X1027205Y-612674D01*
X1027205Y-612674D02*
X1027205Y-660293D01*
X1027205Y-660293D02*
X1017682Y-698389D01*
X1017682Y-698389D02*
X1008158Y-717436D01*
X1008158Y-717436D02*
X998634Y-726960D01*
X998634Y-726960D02*
X979586Y-736484D01*
X979586Y-736484D02*
X960539Y-736484D01*
X960539Y-736484D02*
X941491Y-726960D01*
X941491Y-726960D02*
X931967Y-717436D01*
X931967Y-717436D02*
X922443Y-698389D01*
X922443Y-698389D02*
X912920Y-660293D01*
X912920Y-660293D02*
X912920Y-612674D01*
X912920Y-612674D02*
X922443Y-574579D01*
X922443Y-574579D02*
X931967Y-555531D01*
X931967Y-555531D02*
X941491Y-546008D01*
X941491Y-546008D02*
X960539Y-536484D01*
X1112920Y-736484D02*
X1112920Y-603150D01*
X1112920Y-622198D02*
X1122444Y-612674D01*
X1122444Y-612674D02*
X1141491Y-603150D01*
X1141491Y-603150D02*
X1170063Y-603150D01*
X1170063Y-603150D02*
X1189110Y-612674D01*
X1189110Y-612674D02*
X1198634Y-631722D01*
X1198634Y-631722D02*
X1198634Y-736484D01*
X1198634Y-631722D02*
X1208158Y-612674D01*
X1208158Y-612674D02*
X1227205Y-603150D01*
X1227205Y-603150D02*
X1255777Y-603150D01*
X1255777Y-603150D02*
X1274825Y-612674D01*
X1274825Y-612674D02*
X1284348Y-631722D01*
X1284348Y-631722D02*
X1284348Y-736484D01*
X1379586Y-736484D02*
X1379586Y-603150D01*
X1379586Y-622198D02*
X1389110Y-612674D01*
X1389110Y-612674D02*
X1408158Y-603150D01*
X1408158Y-603150D02*
X1436729Y-603150D01*
X1436729Y-603150D02*
X1455777Y-612674D01*
X1455777Y-612674D02*
X1465301Y-631722D01*
X1465301Y-631722D02*
X1465301Y-736484D01*
X1465301Y-631722D02*
X1474824Y-612674D01*
X1474824Y-612674D02*
X1493872Y-603150D01*
X1493872Y-603150D02*
X1522443Y-603150D01*
X1522443Y-603150D02*
X1541491Y-612674D01*
X1541491Y-612674D02*
X1551015Y-631722D01*
X1551015Y-631722D02*
X1551015Y-736484D01*
X1941491Y-526960D02*
X1770063Y-784103D01*
X2198634Y-536484D02*
X2217682Y-536484D01*
X2217682Y-536484D02*
X2236729Y-546008D01*
X2236729Y-546008D02*
X2246253Y-555531D01*
X2246253Y-555531D02*
X2255777Y-574579D01*
X2255777Y-574579D02*
X2265301Y-612674D01*
X2265301Y-612674D02*
X2265301Y-660293D01*
X2265301Y-660293D02*
X2255777Y-698389D01*
X2255777Y-698389D02*
X2246253Y-717436D01*
X2246253Y-717436D02*
X2236729Y-726960D01*
X2236729Y-726960D02*
X2217682Y-736484D01*
X2217682Y-736484D02*
X2198634Y-736484D01*
X2198634Y-736484D02*
X2179587Y-726960D01*
X2179587Y-726960D02*
X2170063Y-717436D01*
X2170063Y-717436D02*
X2160539Y-698389D01*
X2160539Y-698389D02*
X2151015Y-660293D01*
X2151015Y-660293D02*
X2151015Y-612674D01*
X2151015Y-612674D02*
X2160539Y-574579D01*
X2160539Y-574579D02*
X2170063Y-555531D01*
X2170063Y-555531D02*
X2179587Y-546008D01*
X2179587Y-546008D02*
X2198634Y-536484D01*
X2351015Y-717436D02*
X2360539Y-726960D01*
X2360539Y-726960D02*
X2351015Y-736484D01*
X2351015Y-736484D02*
X2341491Y-726960D01*
X2341491Y-726960D02*
X2351015Y-717436D01*
X2351015Y-717436D02*
X2351015Y-736484D01*
X2484348Y-536484D02*
X2503396Y-536484D01*
X2503396Y-536484D02*
X2522444Y-546008D01*
X2522444Y-546008D02*
X2531968Y-555531D01*
X2531968Y-555531D02*
X2541491Y-574579D01*
X2541491Y-574579D02*
X2551015Y-612674D01*
X2551015Y-612674D02*
X2551015Y-660293D01*
X2551015Y-660293D02*
X2541491Y-698389D01*
X2541491Y-698389D02*
X2531968Y-717436D01*
X2531968Y-717436D02*
X2522444Y-726960D01*
X2522444Y-726960D02*
X2503396Y-736484D01*
X2503396Y-736484D02*
X2484348Y-736484D01*
X2484348Y-736484D02*
X2465301Y-726960D01*
X2465301Y-726960D02*
X2455777Y-717436D01*
X2455777Y-717436D02*
X2446253Y-698389D01*
X2446253Y-698389D02*
X2436729Y-660293D01*
X2436729Y-660293D02*
X2436729Y-612674D01*
X2436729Y-612674D02*
X2446253Y-574579D01*
X2446253Y-574579D02*
X2455777Y-555531D01*
X2455777Y-555531D02*
X2465301Y-546008D01*
X2465301Y-546008D02*
X2484348Y-536484D01*
X2741491Y-736484D02*
X2627206Y-736484D01*
X2684348Y-736484D02*
X2684348Y-536484D01*
X2684348Y-536484D02*
X2665301Y-565055D01*
X2665301Y-565055D02*
X2646253Y-584103D01*
X2646253Y-584103D02*
X2627206Y-593627D01*
X2931967Y-736484D02*
X2817682Y-736484D01*
X2874825Y-736484D02*
X2874825Y-536484D01*
X2874825Y-536484D02*
X2855777Y-565055D01*
X2855777Y-565055D02*
X2836729Y-584103D01*
X2836729Y-584103D02*
X2817682Y-593627D01*
X3046253Y-622198D02*
X3027206Y-612674D01*
X3027206Y-612674D02*
X3017682Y-603150D01*
X3017682Y-603150D02*
X3008158Y-584103D01*
X3008158Y-584103D02*
X3008158Y-574579D01*
X3008158Y-574579D02*
X3017682Y-555531D01*
X3017682Y-555531D02*
X3027206Y-546008D01*
X3027206Y-546008D02*
X3046253Y-536484D01*
X3046253Y-536484D02*
X3084348Y-536484D01*
X3084348Y-536484D02*
X3103396Y-546008D01*
X3103396Y-546008D02*
X3112920Y-555531D01*
X3112920Y-555531D02*
X3122444Y-574579D01*
X3122444Y-574579D02*
X3122444Y-584103D01*
X3122444Y-584103D02*
X3112920Y-603150D01*
X3112920Y-603150D02*
X3103396Y-612674D01*
X3103396Y-612674D02*
X3084348Y-622198D01*
X3084348Y-622198D02*
X3046253Y-622198D01*
X3046253Y-622198D02*
X3027206Y-631722D01*
X3027206Y-631722D02*
X3017682Y-641246D01*
X3017682Y-641246D02*
X3008158Y-660293D01*
X3008158Y-660293D02*
X3008158Y-698389D01*
X3008158Y-698389D02*
X3017682Y-717436D01*
X3017682Y-717436D02*
X3027206Y-726960D01*
X3027206Y-726960D02*
X3046253Y-736484D01*
X3046253Y-736484D02*
X3084348Y-736484D01*
X3084348Y-736484D02*
X3103396Y-726960D01*
X3103396Y-726960D02*
X3112920Y-717436D01*
X3112920Y-717436D02*
X3122444Y-698389D01*
X3122444Y-698389D02*
X3122444Y-660293D01*
X3122444Y-660293D02*
X3112920Y-641246D01*
X3112920Y-641246D02*
X3103396Y-631722D01*
X3103396Y-631722D02*
X3084348Y-622198D01*
X3198634Y-536484D02*
X3198634Y-574579D01*
X3274825Y-536484D02*
X3274825Y-574579D01*
X3570063Y-812674D02*
X3560539Y-803150D01*
X3560539Y-803150D02*
X3541491Y-774579D01*
X3541491Y-774579D02*
X3531968Y-755531D01*
X3531968Y-755531D02*
X3522444Y-726960D01*
X3522444Y-726960D02*
X3512920Y-679341D01*
X3512920Y-679341D02*
X3512920Y-641246D01*
X3512920Y-641246D02*
X3522444Y-593627D01*
X3522444Y-593627D02*
X3531968Y-565055D01*
X3531968Y-565055D02*
X3541491Y-546008D01*
X3541491Y-546008D02*
X3560539Y-517436D01*
X3560539Y-517436D02*
X3570063Y-507912D01*
X3655777Y-736484D02*
X3693872Y-736484D01*
X3693872Y-736484D02*
X3712920Y-726960D01*
X3712920Y-726960D02*
X3722444Y-717436D01*
X3722444Y-717436D02*
X3741491Y-688865D01*
X3741491Y-688865D02*
X3751015Y-650770D01*
X3751015Y-650770D02*
X3751015Y-574579D01*
X3751015Y-574579D02*
X3741491Y-555531D01*
X3741491Y-555531D02*
X3731968Y-546008D01*
X3731968Y-546008D02*
X3712920Y-536484D01*
X3712920Y-536484D02*
X3674825Y-536484D01*
X3674825Y-536484D02*
X3655777Y-546008D01*
X3655777Y-546008D02*
X3646253Y-555531D01*
X3646253Y-555531D02*
X3636729Y-574579D01*
X3636729Y-574579D02*
X3636729Y-622198D01*
X3636729Y-622198D02*
X3646253Y-641246D01*
X3646253Y-641246D02*
X3655777Y-650770D01*
X3655777Y-650770D02*
X3674825Y-660293D01*
X3674825Y-660293D02*
X3712920Y-660293D01*
X3712920Y-660293D02*
X3731968Y-650770D01*
X3731968Y-650770D02*
X3741491Y-641246D01*
X3741491Y-641246D02*
X3751015Y-622198D01*
X3941491Y-736484D02*
X3827206Y-736484D01*
X3884348Y-736484D02*
X3884348Y-536484D01*
X3884348Y-536484D02*
X3865301Y-565055D01*
X3865301Y-565055D02*
X3846253Y-584103D01*
X3846253Y-584103D02*
X3827206Y-593627D01*
X4179587Y-736484D02*
X4179587Y-536484D01*
X4265301Y-736484D02*
X4265301Y-631722D01*
X4265301Y-631722D02*
X4255777Y-612674D01*
X4255777Y-612674D02*
X4236730Y-603150D01*
X4236730Y-603150D02*
X4208158Y-603150D01*
X4208158Y-603150D02*
X4189110Y-612674D01*
X4189110Y-612674D02*
X4179587Y-622198D01*
X4389111Y-736484D02*
X4370063Y-726960D01*
X4370063Y-726960D02*
X4360539Y-717436D01*
X4360539Y-717436D02*
X4351015Y-698389D01*
X4351015Y-698389D02*
X4351015Y-641246D01*
X4351015Y-641246D02*
X4360539Y-622198D01*
X4360539Y-622198D02*
X4370063Y-612674D01*
X4370063Y-612674D02*
X4389111Y-603150D01*
X4389111Y-603150D02*
X4417682Y-603150D01*
X4417682Y-603150D02*
X4436730Y-612674D01*
X4436730Y-612674D02*
X4446253Y-622198D01*
X4446253Y-622198D02*
X4455777Y-641246D01*
X4455777Y-641246D02*
X4455777Y-698389D01*
X4455777Y-698389D02*
X4446253Y-717436D01*
X4446253Y-717436D02*
X4436730Y-726960D01*
X4436730Y-726960D02*
X4417682Y-736484D01*
X4417682Y-736484D02*
X4389111Y-736484D01*
X4570063Y-736484D02*
X4551015Y-726960D01*
X4551015Y-726960D02*
X4541492Y-707912D01*
X4541492Y-707912D02*
X4541492Y-536484D01*
X4722444Y-726960D02*
X4703396Y-736484D01*
X4703396Y-736484D02*
X4665301Y-736484D01*
X4665301Y-736484D02*
X4646253Y-726960D01*
X4646253Y-726960D02*
X4636730Y-707912D01*
X4636730Y-707912D02*
X4636730Y-631722D01*
X4636730Y-631722D02*
X4646253Y-612674D01*
X4646253Y-612674D02*
X4665301Y-603150D01*
X4665301Y-603150D02*
X4703396Y-603150D01*
X4703396Y-603150D02*
X4722444Y-612674D01*
X4722444Y-612674D02*
X4731968Y-631722D01*
X4731968Y-631722D02*
X4731968Y-650770D01*
X4731968Y-650770D02*
X4636730Y-669817D01*
X4808158Y-726960D02*
X4827206Y-736484D01*
X4827206Y-736484D02*
X4865301Y-736484D01*
X4865301Y-736484D02*
X4884349Y-726960D01*
X4884349Y-726960D02*
X4893873Y-707912D01*
X4893873Y-707912D02*
X4893873Y-698389D01*
X4893873Y-698389D02*
X4884349Y-679341D01*
X4884349Y-679341D02*
X4865301Y-669817D01*
X4865301Y-669817D02*
X4836730Y-669817D01*
X4836730Y-669817D02*
X4817682Y-660293D01*
X4817682Y-660293D02*
X4808158Y-641246D01*
X4808158Y-641246D02*
X4808158Y-631722D01*
X4808158Y-631722D02*
X4817682Y-612674D01*
X4817682Y-612674D02*
X4836730Y-603150D01*
X4836730Y-603150D02*
X4865301Y-603150D01*
X4865301Y-603150D02*
X4884349Y-612674D01*
X4960539Y-812674D02*
X4970063Y-803150D01*
X4970063Y-803150D02*
X4989111Y-774579D01*
X4989111Y-774579D02*
X4998634Y-755531D01*
X4998634Y-755531D02*
X5008158Y-726960D01*
X5008158Y-726960D02*
X5017682Y-679341D01*
X5017682Y-679341D02*
X5017682Y-641246D01*
X5017682Y-641246D02*
X5008158Y-593627D01*
X5008158Y-593627D02*
X4998634Y-565055D01*
X4998634Y-565055D02*
X4989111Y-546008D01*
X4989111Y-546008D02*
X4970063Y-517436D01*
X4970063Y-517436D02*
X4960539Y-507912D01*
D10*
X-5000Y-909000D02*
G75*
G02*
X-65000Y-909000I-30000J0D01*
G01*
X-65000Y-909000D02*
G75*
G02*
X-5000Y-909000I30000J0D01*
G01*
D11*
X293872Y-800484D02*
X312920Y-800484D01*
X312920Y-800484D02*
X331967Y-810008D01*
X331967Y-810008D02*
X341491Y-819531D01*
X341491Y-819531D02*
X351015Y-838579D01*
X351015Y-838579D02*
X360539Y-876674D01*
X360539Y-876674D02*
X360539Y-924293D01*
X360539Y-924293D02*
X351015Y-962388D01*
X351015Y-962388D02*
X341491Y-981436D01*
X341491Y-981436D02*
X331967Y-990960D01*
X331967Y-990960D02*
X312920Y-1000484D01*
X312920Y-1000484D02*
X293872Y-1000484D01*
X293872Y-1000484D02*
X274824Y-990960D01*
X274824Y-990960D02*
X265301Y-981436D01*
X265301Y-981436D02*
X255777Y-962388D01*
X255777Y-962388D02*
X246253Y-924293D01*
X246253Y-924293D02*
X246253Y-876674D01*
X246253Y-876674D02*
X255777Y-838579D01*
X255777Y-838579D02*
X265301Y-819531D01*
X265301Y-819531D02*
X274824Y-810008D01*
X274824Y-810008D02*
X293872Y-800484D01*
X446253Y-981436D02*
X455777Y-990960D01*
X455777Y-990960D02*
X446253Y-1000484D01*
X446253Y-1000484D02*
X436729Y-990960D01*
X436729Y-990960D02*
X446253Y-981436D01*
X446253Y-981436D02*
X446253Y-1000484D01*
X627205Y-800484D02*
X589110Y-800484D01*
X589110Y-800484D02*
X570063Y-810008D01*
X570063Y-810008D02*
X560539Y-819531D01*
X560539Y-819531D02*
X541491Y-848103D01*
X541491Y-848103D02*
X531967Y-886198D01*
X531967Y-886198D02*
X531967Y-962388D01*
X531967Y-962388D02*
X541491Y-981436D01*
X541491Y-981436D02*
X551015Y-990960D01*
X551015Y-990960D02*
X570063Y-1000484D01*
X570063Y-1000484D02*
X608158Y-1000484D01*
X608158Y-1000484D02*
X627205Y-990960D01*
X627205Y-990960D02*
X636729Y-981436D01*
X636729Y-981436D02*
X646253Y-962388D01*
X646253Y-962388D02*
X646253Y-914769D01*
X646253Y-914769D02*
X636729Y-895722D01*
X636729Y-895722D02*
X627205Y-886198D01*
X627205Y-886198D02*
X608158Y-876674D01*
X608158Y-876674D02*
X570063Y-876674D01*
X570063Y-876674D02*
X551015Y-886198D01*
X551015Y-886198D02*
X541491Y-895722D01*
X541491Y-895722D02*
X531967Y-914769D01*
X770062Y-800484D02*
X789110Y-800484D01*
X789110Y-800484D02*
X808158Y-810008D01*
X808158Y-810008D02*
X817682Y-819531D01*
X817682Y-819531D02*
X827205Y-838579D01*
X827205Y-838579D02*
X836729Y-876674D01*
X836729Y-876674D02*
X836729Y-924293D01*
X836729Y-924293D02*
X827205Y-962388D01*
X827205Y-962388D02*
X817682Y-981436D01*
X817682Y-981436D02*
X808158Y-990960D01*
X808158Y-990960D02*
X789110Y-1000484D01*
X789110Y-1000484D02*
X770062Y-1000484D01*
X770062Y-1000484D02*
X751015Y-990960D01*
X751015Y-990960D02*
X741491Y-981436D01*
X741491Y-981436D02*
X731967Y-962388D01*
X731967Y-962388D02*
X722443Y-924293D01*
X722443Y-924293D02*
X722443Y-876674D01*
X722443Y-876674D02*
X731967Y-838579D01*
X731967Y-838579D02*
X741491Y-819531D01*
X741491Y-819531D02*
X751015Y-810008D01*
X751015Y-810008D02*
X770062Y-800484D01*
X960539Y-800484D02*
X979586Y-800484D01*
X979586Y-800484D02*
X998634Y-810008D01*
X998634Y-810008D02*
X1008158Y-819531D01*
X1008158Y-819531D02*
X1017682Y-838579D01*
X1017682Y-838579D02*
X1027205Y-876674D01*
X1027205Y-876674D02*
X1027205Y-924293D01*
X1027205Y-924293D02*
X1017682Y-962388D01*
X1017682Y-962388D02*
X1008158Y-981436D01*
X1008158Y-981436D02*
X998634Y-990960D01*
X998634Y-990960D02*
X979586Y-1000484D01*
X979586Y-1000484D02*
X960539Y-1000484D01*
X960539Y-1000484D02*
X941491Y-990960D01*
X941491Y-990960D02*
X931967Y-981436D01*
X931967Y-981436D02*
X922443Y-962388D01*
X922443Y-962388D02*
X912920Y-924293D01*
X912920Y-924293D02*
X912920Y-876674D01*
X912920Y-876674D02*
X922443Y-838579D01*
X922443Y-838579D02*
X931967Y-819531D01*
X931967Y-819531D02*
X941491Y-810008D01*
X941491Y-810008D02*
X960539Y-800484D01*
X1112920Y-1000484D02*
X1112920Y-867150D01*
X1112920Y-886198D02*
X1122444Y-876674D01*
X1122444Y-876674D02*
X1141491Y-867150D01*
X1141491Y-867150D02*
X1170063Y-867150D01*
X1170063Y-867150D02*
X1189110Y-876674D01*
X1189110Y-876674D02*
X1198634Y-895722D01*
X1198634Y-895722D02*
X1198634Y-1000484D01*
X1198634Y-895722D02*
X1208158Y-876674D01*
X1208158Y-876674D02*
X1227205Y-867150D01*
X1227205Y-867150D02*
X1255777Y-867150D01*
X1255777Y-867150D02*
X1274825Y-876674D01*
X1274825Y-876674D02*
X1284348Y-895722D01*
X1284348Y-895722D02*
X1284348Y-1000484D01*
X1379586Y-1000484D02*
X1379586Y-867150D01*
X1379586Y-886198D02*
X1389110Y-876674D01*
X1389110Y-876674D02*
X1408158Y-867150D01*
X1408158Y-867150D02*
X1436729Y-867150D01*
X1436729Y-867150D02*
X1455777Y-876674D01*
X1455777Y-876674D02*
X1465301Y-895722D01*
X1465301Y-895722D02*
X1465301Y-1000484D01*
X1465301Y-895722D02*
X1474824Y-876674D01*
X1474824Y-876674D02*
X1493872Y-867150D01*
X1493872Y-867150D02*
X1522443Y-867150D01*
X1522443Y-867150D02*
X1541491Y-876674D01*
X1541491Y-876674D02*
X1551015Y-895722D01*
X1551015Y-895722D02*
X1551015Y-1000484D01*
X1941491Y-790960D02*
X1770063Y-1048103D01*
X2198634Y-800484D02*
X2217682Y-800484D01*
X2217682Y-800484D02*
X2236729Y-810008D01*
X2236729Y-810008D02*
X2246253Y-819531D01*
X2246253Y-819531D02*
X2255777Y-838579D01*
X2255777Y-838579D02*
X2265301Y-876674D01*
X2265301Y-876674D02*
X2265301Y-924293D01*
X2265301Y-924293D02*
X2255777Y-962388D01*
X2255777Y-962388D02*
X2246253Y-981436D01*
X2246253Y-981436D02*
X2236729Y-990960D01*
X2236729Y-990960D02*
X2217682Y-1000484D01*
X2217682Y-1000484D02*
X2198634Y-1000484D01*
X2198634Y-1000484D02*
X2179587Y-990960D01*
X2179587Y-990960D02*
X2170063Y-981436D01*
X2170063Y-981436D02*
X2160539Y-962388D01*
X2160539Y-962388D02*
X2151015Y-924293D01*
X2151015Y-924293D02*
X2151015Y-876674D01*
X2151015Y-876674D02*
X2160539Y-838579D01*
X2160539Y-838579D02*
X2170063Y-819531D01*
X2170063Y-819531D02*
X2179587Y-810008D01*
X2179587Y-810008D02*
X2198634Y-800484D01*
X2351015Y-981436D02*
X2360539Y-990960D01*
X2360539Y-990960D02*
X2351015Y-1000484D01*
X2351015Y-1000484D02*
X2341491Y-990960D01*
X2341491Y-990960D02*
X2351015Y-981436D01*
X2351015Y-981436D02*
X2351015Y-1000484D01*
X2484348Y-800484D02*
X2503396Y-800484D01*
X2503396Y-800484D02*
X2522444Y-810008D01*
X2522444Y-810008D02*
X2531968Y-819531D01*
X2531968Y-819531D02*
X2541491Y-838579D01*
X2541491Y-838579D02*
X2551015Y-876674D01*
X2551015Y-876674D02*
X2551015Y-924293D01*
X2551015Y-924293D02*
X2541491Y-962388D01*
X2541491Y-962388D02*
X2531968Y-981436D01*
X2531968Y-981436D02*
X2522444Y-990960D01*
X2522444Y-990960D02*
X2503396Y-1000484D01*
X2503396Y-1000484D02*
X2484348Y-1000484D01*
X2484348Y-1000484D02*
X2465301Y-990960D01*
X2465301Y-990960D02*
X2455777Y-981436D01*
X2455777Y-981436D02*
X2446253Y-962388D01*
X2446253Y-962388D02*
X2436729Y-924293D01*
X2436729Y-924293D02*
X2436729Y-876674D01*
X2436729Y-876674D02*
X2446253Y-838579D01*
X2446253Y-838579D02*
X2455777Y-819531D01*
X2455777Y-819531D02*
X2465301Y-810008D01*
X2465301Y-810008D02*
X2484348Y-800484D01*
X2627206Y-819531D02*
X2636729Y-810008D01*
X2636729Y-810008D02*
X2655777Y-800484D01*
X2655777Y-800484D02*
X2703396Y-800484D01*
X2703396Y-800484D02*
X2722444Y-810008D01*
X2722444Y-810008D02*
X2731968Y-819531D01*
X2731968Y-819531D02*
X2741491Y-838579D01*
X2741491Y-838579D02*
X2741491Y-857627D01*
X2741491Y-857627D02*
X2731968Y-886198D01*
X2731968Y-886198D02*
X2617682Y-1000484D01*
X2617682Y-1000484D02*
X2741491Y-1000484D01*
X2808158Y-800484D02*
X2931967Y-800484D01*
X2931967Y-800484D02*
X2865301Y-876674D01*
X2865301Y-876674D02*
X2893872Y-876674D01*
X2893872Y-876674D02*
X2912920Y-886198D01*
X2912920Y-886198D02*
X2922444Y-895722D01*
X2922444Y-895722D02*
X2931967Y-914769D01*
X2931967Y-914769D02*
X2931967Y-962388D01*
X2931967Y-962388D02*
X2922444Y-981436D01*
X2922444Y-981436D02*
X2912920Y-990960D01*
X2912920Y-990960D02*
X2893872Y-1000484D01*
X2893872Y-1000484D02*
X2836729Y-1000484D01*
X2836729Y-1000484D02*
X2817682Y-990960D01*
X2817682Y-990960D02*
X2808158Y-981436D01*
X3103396Y-800484D02*
X3065301Y-800484D01*
X3065301Y-800484D02*
X3046253Y-810008D01*
X3046253Y-810008D02*
X3036729Y-819531D01*
X3036729Y-819531D02*
X3017682Y-848103D01*
X3017682Y-848103D02*
X3008158Y-886198D01*
X3008158Y-886198D02*
X3008158Y-962388D01*
X3008158Y-962388D02*
X3017682Y-981436D01*
X3017682Y-981436D02*
X3027206Y-990960D01*
X3027206Y-990960D02*
X3046253Y-1000484D01*
X3046253Y-1000484D02*
X3084348Y-1000484D01*
X3084348Y-1000484D02*
X3103396Y-990960D01*
X3103396Y-990960D02*
X3112920Y-981436D01*
X3112920Y-981436D02*
X3122444Y-962388D01*
X3122444Y-962388D02*
X3122444Y-914769D01*
X3122444Y-914769D02*
X3112920Y-895722D01*
X3112920Y-895722D02*
X3103396Y-886198D01*
X3103396Y-886198D02*
X3084348Y-876674D01*
X3084348Y-876674D02*
X3046253Y-876674D01*
X3046253Y-876674D02*
X3027206Y-886198D01*
X3027206Y-886198D02*
X3017682Y-895722D01*
X3017682Y-895722D02*
X3008158Y-914769D01*
X3198634Y-800484D02*
X3198634Y-838579D01*
X3274825Y-800484D02*
X3274825Y-838579D01*
X3570063Y-1076674D02*
X3560539Y-1067150D01*
X3560539Y-1067150D02*
X3541491Y-1038579D01*
X3541491Y-1038579D02*
X3531968Y-1019531D01*
X3531968Y-1019531D02*
X3522444Y-990960D01*
X3522444Y-990960D02*
X3512920Y-943341D01*
X3512920Y-943341D02*
X3512920Y-905246D01*
X3512920Y-905246D02*
X3522444Y-857627D01*
X3522444Y-857627D02*
X3531968Y-829055D01*
X3531968Y-829055D02*
X3541491Y-810008D01*
X3541491Y-810008D02*
X3560539Y-781436D01*
X3560539Y-781436D02*
X3570063Y-771912D01*
X3684348Y-800484D02*
X3703396Y-800484D01*
X3703396Y-800484D02*
X3722444Y-810008D01*
X3722444Y-810008D02*
X3731968Y-819531D01*
X3731968Y-819531D02*
X3741491Y-838579D01*
X3741491Y-838579D02*
X3751015Y-876674D01*
X3751015Y-876674D02*
X3751015Y-924293D01*
X3751015Y-924293D02*
X3741491Y-962388D01*
X3741491Y-962388D02*
X3731968Y-981436D01*
X3731968Y-981436D02*
X3722444Y-990960D01*
X3722444Y-990960D02*
X3703396Y-1000484D01*
X3703396Y-1000484D02*
X3684348Y-1000484D01*
X3684348Y-1000484D02*
X3665301Y-990960D01*
X3665301Y-990960D02*
X3655777Y-981436D01*
X3655777Y-981436D02*
X3646253Y-962388D01*
X3646253Y-962388D02*
X3636729Y-924293D01*
X3636729Y-924293D02*
X3636729Y-876674D01*
X3636729Y-876674D02*
X3646253Y-838579D01*
X3646253Y-838579D02*
X3655777Y-819531D01*
X3655777Y-819531D02*
X3665301Y-810008D01*
X3665301Y-810008D02*
X3684348Y-800484D01*
X3989110Y-1000484D02*
X3989110Y-800484D01*
X4074825Y-1000484D02*
X4074825Y-895722D01*
X4074825Y-895722D02*
X4065301Y-876674D01*
X4065301Y-876674D02*
X4046253Y-867150D01*
X4046253Y-867150D02*
X4017682Y-867150D01*
X4017682Y-867150D02*
X3998634Y-876674D01*
X3998634Y-876674D02*
X3989110Y-886198D01*
X4198634Y-1000484D02*
X4179587Y-990960D01*
X4179587Y-990960D02*
X4170063Y-981436D01*
X4170063Y-981436D02*
X4160539Y-962388D01*
X4160539Y-962388D02*
X4160539Y-905246D01*
X4160539Y-905246D02*
X4170063Y-886198D01*
X4170063Y-886198D02*
X4179587Y-876674D01*
X4179587Y-876674D02*
X4198634Y-867150D01*
X4198634Y-867150D02*
X4227206Y-867150D01*
X4227206Y-867150D02*
X4246253Y-876674D01*
X4246253Y-876674D02*
X4255777Y-886198D01*
X4255777Y-886198D02*
X4265301Y-905246D01*
X4265301Y-905246D02*
X4265301Y-962388D01*
X4265301Y-962388D02*
X4255777Y-981436D01*
X4255777Y-981436D02*
X4246253Y-990960D01*
X4246253Y-990960D02*
X4227206Y-1000484D01*
X4227206Y-1000484D02*
X4198634Y-1000484D01*
X4379587Y-1000484D02*
X4360539Y-990960D01*
X4360539Y-990960D02*
X4351015Y-971912D01*
X4351015Y-971912D02*
X4351015Y-800484D01*
X4531968Y-990960D02*
X4512920Y-1000484D01*
X4512920Y-1000484D02*
X4474825Y-1000484D01*
X4474825Y-1000484D02*
X4455777Y-990960D01*
X4455777Y-990960D02*
X4446253Y-971912D01*
X4446253Y-971912D02*
X4446253Y-895722D01*
X4446253Y-895722D02*
X4455777Y-876674D01*
X4455777Y-876674D02*
X4474825Y-867150D01*
X4474825Y-867150D02*
X4512920Y-867150D01*
X4512920Y-867150D02*
X4531968Y-876674D01*
X4531968Y-876674D02*
X4541492Y-895722D01*
X4541492Y-895722D02*
X4541492Y-914769D01*
X4541492Y-914769D02*
X4446253Y-933817D01*
X4617682Y-990960D02*
X4636730Y-1000484D01*
X4636730Y-1000484D02*
X4674825Y-1000484D01*
X4674825Y-1000484D02*
X4693873Y-990960D01*
X4693873Y-990960D02*
X4703396Y-971912D01*
X4703396Y-971912D02*
X4703396Y-962388D01*
X4703396Y-962388D02*
X4693873Y-943341D01*
X4693873Y-943341D02*
X4674825Y-933817D01*
X4674825Y-933817D02*
X4646253Y-933817D01*
X4646253Y-933817D02*
X4627206Y-924293D01*
X4627206Y-924293D02*
X4617682Y-905246D01*
X4617682Y-905246D02*
X4617682Y-895722D01*
X4617682Y-895722D02*
X4627206Y-876674D01*
X4627206Y-876674D02*
X4646253Y-867150D01*
X4646253Y-867150D02*
X4674825Y-867150D01*
X4674825Y-867150D02*
X4693873Y-876674D01*
X4941492Y-924293D02*
X5093873Y-924293D01*
X5017682Y-1000484D02*
X5017682Y-848103D01*
X5427206Y-867150D02*
X5427206Y-1000484D01*
X5379587Y-790960D02*
X5331968Y-933817D01*
X5331968Y-933817D02*
X5455777Y-933817D01*
X5674825Y-990960D02*
X5693873Y-1000484D01*
X5693873Y-1000484D02*
X5731968Y-1000484D01*
X5731968Y-1000484D02*
X5751015Y-990960D01*
X5751015Y-990960D02*
X5760539Y-971912D01*
X5760539Y-971912D02*
X5760539Y-962388D01*
X5760539Y-962388D02*
X5751015Y-943341D01*
X5751015Y-943341D02*
X5731968Y-933817D01*
X5731968Y-933817D02*
X5703396Y-933817D01*
X5703396Y-933817D02*
X5684349Y-924293D01*
X5684349Y-924293D02*
X5674825Y-905246D01*
X5674825Y-905246D02*
X5674825Y-895722D01*
X5674825Y-895722D02*
X5684349Y-876674D01*
X5684349Y-876674D02*
X5703396Y-867150D01*
X5703396Y-867150D02*
X5731968Y-867150D01*
X5731968Y-867150D02*
X5751015Y-876674D01*
X5874825Y-1000484D02*
X5855777Y-990960D01*
X5855777Y-990960D02*
X5846254Y-971912D01*
X5846254Y-971912D02*
X5846254Y-800484D01*
X5979587Y-1000484D02*
X5960539Y-990960D01*
X5960539Y-990960D02*
X5951015Y-981436D01*
X5951015Y-981436D02*
X5941492Y-962388D01*
X5941492Y-962388D02*
X5941492Y-905246D01*
X5941492Y-905246D02*
X5951015Y-886198D01*
X5951015Y-886198D02*
X5960539Y-876674D01*
X5960539Y-876674D02*
X5979587Y-867150D01*
X5979587Y-867150D02*
X6008158Y-867150D01*
X6008158Y-867150D02*
X6027206Y-876674D01*
X6027206Y-876674D02*
X6036730Y-886198D01*
X6036730Y-886198D02*
X6046254Y-905246D01*
X6046254Y-905246D02*
X6046254Y-962388D01*
X6046254Y-962388D02*
X6036730Y-981436D01*
X6036730Y-981436D02*
X6027206Y-990960D01*
X6027206Y-990960D02*
X6008158Y-1000484D01*
X6008158Y-1000484D02*
X5979587Y-1000484D01*
X6103396Y-867150D02*
X6179587Y-867150D01*
X6131968Y-800484D02*
X6131968Y-971912D01*
X6131968Y-971912D02*
X6141492Y-990960D01*
X6141492Y-990960D02*
X6160539Y-1000484D01*
X6160539Y-1000484D02*
X6179587Y-1000484D01*
X6236730Y-990960D02*
X6255777Y-1000484D01*
X6255777Y-1000484D02*
X6293873Y-1000484D01*
X6293873Y-1000484D02*
X6312920Y-990960D01*
X6312920Y-990960D02*
X6322444Y-971912D01*
X6322444Y-971912D02*
X6322444Y-962388D01*
X6322444Y-962388D02*
X6312920Y-943341D01*
X6312920Y-943341D02*
X6293873Y-933817D01*
X6293873Y-933817D02*
X6265301Y-933817D01*
X6265301Y-933817D02*
X6246254Y-924293D01*
X6246254Y-924293D02*
X6236730Y-905246D01*
X6236730Y-905246D02*
X6236730Y-895722D01*
X6236730Y-895722D02*
X6246254Y-876674D01*
X6246254Y-876674D02*
X6265301Y-867150D01*
X6265301Y-867150D02*
X6293873Y-867150D01*
X6293873Y-867150D02*
X6312920Y-876674D01*
X6389111Y-1076674D02*
X6398635Y-1067150D01*
X6398635Y-1067150D02*
X6417682Y-1038579D01*
X6417682Y-1038579D02*
X6427206Y-1019531D01*
X6427206Y-1019531D02*
X6436730Y-990960D01*
X6436730Y-990960D02*
X6446254Y-943341D01*
X6446254Y-943341D02*
X6446254Y-905246D01*
X6446254Y-905246D02*
X6436730Y-857627D01*
X6436730Y-857627D02*
X6427206Y-829055D01*
X6427206Y-829055D02*
X6417682Y-810008D01*
X6417682Y-810008D02*
X6398635Y-781436D01*
X6398635Y-781436D02*
X6389111Y-771912D01*
D10*
X-55000Y-1123000D02*
X-55000Y-1223000D01*
X-105000Y-1173000D02*
X-5000Y-1173000D01*
D11*
X360539Y-1264484D02*
X246253Y-1264484D01*
X303396Y-1264484D02*
X303396Y-1064484D01*
X303396Y-1064484D02*
X284348Y-1093055D01*
X284348Y-1093055D02*
X265301Y-1112103D01*
X265301Y-1112103D02*
X246253Y-1121627D01*
X446253Y-1245436D02*
X455777Y-1254960D01*
X455777Y-1254960D02*
X446253Y-1264484D01*
X446253Y-1264484D02*
X436729Y-1254960D01*
X436729Y-1254960D02*
X446253Y-1245436D01*
X446253Y-1245436D02*
X446253Y-1264484D01*
X579586Y-1064484D02*
X598634Y-1064484D01*
X598634Y-1064484D02*
X617682Y-1074008D01*
X617682Y-1074008D02*
X627205Y-1083531D01*
X627205Y-1083531D02*
X636729Y-1102579D01*
X636729Y-1102579D02*
X646253Y-1140674D01*
X646253Y-1140674D02*
X646253Y-1188293D01*
X646253Y-1188293D02*
X636729Y-1226389D01*
X636729Y-1226389D02*
X627205Y-1245436D01*
X627205Y-1245436D02*
X617682Y-1254960D01*
X617682Y-1254960D02*
X598634Y-1264484D01*
X598634Y-1264484D02*
X579586Y-1264484D01*
X579586Y-1264484D02*
X560539Y-1254960D01*
X560539Y-1254960D02*
X551015Y-1245436D01*
X551015Y-1245436D02*
X541491Y-1226389D01*
X541491Y-1226389D02*
X531967Y-1188293D01*
X531967Y-1188293D02*
X531967Y-1140674D01*
X531967Y-1140674D02*
X541491Y-1102579D01*
X541491Y-1102579D02*
X551015Y-1083531D01*
X551015Y-1083531D02*
X560539Y-1074008D01*
X560539Y-1074008D02*
X579586Y-1064484D01*
X770062Y-1064484D02*
X789110Y-1064484D01*
X789110Y-1064484D02*
X808158Y-1074008D01*
X808158Y-1074008D02*
X817682Y-1083531D01*
X817682Y-1083531D02*
X827205Y-1102579D01*
X827205Y-1102579D02*
X836729Y-1140674D01*
X836729Y-1140674D02*
X836729Y-1188293D01*
X836729Y-1188293D02*
X827205Y-1226389D01*
X827205Y-1226389D02*
X817682Y-1245436D01*
X817682Y-1245436D02*
X808158Y-1254960D01*
X808158Y-1254960D02*
X789110Y-1264484D01*
X789110Y-1264484D02*
X770062Y-1264484D01*
X770062Y-1264484D02*
X751015Y-1254960D01*
X751015Y-1254960D02*
X741491Y-1245436D01*
X741491Y-1245436D02*
X731967Y-1226389D01*
X731967Y-1226389D02*
X722443Y-1188293D01*
X722443Y-1188293D02*
X722443Y-1140674D01*
X722443Y-1140674D02*
X731967Y-1102579D01*
X731967Y-1102579D02*
X741491Y-1083531D01*
X741491Y-1083531D02*
X751015Y-1074008D01*
X751015Y-1074008D02*
X770062Y-1064484D01*
X960539Y-1064484D02*
X979586Y-1064484D01*
X979586Y-1064484D02*
X998634Y-1074008D01*
X998634Y-1074008D02*
X1008158Y-1083531D01*
X1008158Y-1083531D02*
X1017682Y-1102579D01*
X1017682Y-1102579D02*
X1027205Y-1140674D01*
X1027205Y-1140674D02*
X1027205Y-1188293D01*
X1027205Y-1188293D02*
X1017682Y-1226389D01*
X1017682Y-1226389D02*
X1008158Y-1245436D01*
X1008158Y-1245436D02*
X998634Y-1254960D01*
X998634Y-1254960D02*
X979586Y-1264484D01*
X979586Y-1264484D02*
X960539Y-1264484D01*
X960539Y-1264484D02*
X941491Y-1254960D01*
X941491Y-1254960D02*
X931967Y-1245436D01*
X931967Y-1245436D02*
X922443Y-1226389D01*
X922443Y-1226389D02*
X912920Y-1188293D01*
X912920Y-1188293D02*
X912920Y-1140674D01*
X912920Y-1140674D02*
X922443Y-1102579D01*
X922443Y-1102579D02*
X931967Y-1083531D01*
X931967Y-1083531D02*
X941491Y-1074008D01*
X941491Y-1074008D02*
X960539Y-1064484D01*
X1112920Y-1264484D02*
X1112920Y-1131150D01*
X1112920Y-1150198D02*
X1122444Y-1140674D01*
X1122444Y-1140674D02*
X1141491Y-1131150D01*
X1141491Y-1131150D02*
X1170063Y-1131150D01*
X1170063Y-1131150D02*
X1189110Y-1140674D01*
X1189110Y-1140674D02*
X1198634Y-1159722D01*
X1198634Y-1159722D02*
X1198634Y-1264484D01*
X1198634Y-1159722D02*
X1208158Y-1140674D01*
X1208158Y-1140674D02*
X1227205Y-1131150D01*
X1227205Y-1131150D02*
X1255777Y-1131150D01*
X1255777Y-1131150D02*
X1274825Y-1140674D01*
X1274825Y-1140674D02*
X1284348Y-1159722D01*
X1284348Y-1159722D02*
X1284348Y-1264484D01*
X1379586Y-1264484D02*
X1379586Y-1131150D01*
X1379586Y-1150198D02*
X1389110Y-1140674D01*
X1389110Y-1140674D02*
X1408158Y-1131150D01*
X1408158Y-1131150D02*
X1436729Y-1131150D01*
X1436729Y-1131150D02*
X1455777Y-1140674D01*
X1455777Y-1140674D02*
X1465301Y-1159722D01*
X1465301Y-1159722D02*
X1465301Y-1264484D01*
X1465301Y-1159722D02*
X1474824Y-1140674D01*
X1474824Y-1140674D02*
X1493872Y-1131150D01*
X1493872Y-1131150D02*
X1522443Y-1131150D01*
X1522443Y-1131150D02*
X1541491Y-1140674D01*
X1541491Y-1140674D02*
X1551015Y-1159722D01*
X1551015Y-1159722D02*
X1551015Y-1264484D01*
X1941491Y-1054960D02*
X1770063Y-1312103D01*
X2198634Y-1064484D02*
X2217682Y-1064484D01*
X2217682Y-1064484D02*
X2236729Y-1074008D01*
X2236729Y-1074008D02*
X2246253Y-1083531D01*
X2246253Y-1083531D02*
X2255777Y-1102579D01*
X2255777Y-1102579D02*
X2265301Y-1140674D01*
X2265301Y-1140674D02*
X2265301Y-1188293D01*
X2265301Y-1188293D02*
X2255777Y-1226389D01*
X2255777Y-1226389D02*
X2246253Y-1245436D01*
X2246253Y-1245436D02*
X2236729Y-1254960D01*
X2236729Y-1254960D02*
X2217682Y-1264484D01*
X2217682Y-1264484D02*
X2198634Y-1264484D01*
X2198634Y-1264484D02*
X2179587Y-1254960D01*
X2179587Y-1254960D02*
X2170063Y-1245436D01*
X2170063Y-1245436D02*
X2160539Y-1226389D01*
X2160539Y-1226389D02*
X2151015Y-1188293D01*
X2151015Y-1188293D02*
X2151015Y-1140674D01*
X2151015Y-1140674D02*
X2160539Y-1102579D01*
X2160539Y-1102579D02*
X2170063Y-1083531D01*
X2170063Y-1083531D02*
X2179587Y-1074008D01*
X2179587Y-1074008D02*
X2198634Y-1064484D01*
X2351015Y-1245436D02*
X2360539Y-1254960D01*
X2360539Y-1254960D02*
X2351015Y-1264484D01*
X2351015Y-1264484D02*
X2341491Y-1254960D01*
X2341491Y-1254960D02*
X2351015Y-1245436D01*
X2351015Y-1245436D02*
X2351015Y-1264484D01*
X2484348Y-1064484D02*
X2503396Y-1064484D01*
X2503396Y-1064484D02*
X2522444Y-1074008D01*
X2522444Y-1074008D02*
X2531968Y-1083531D01*
X2531968Y-1083531D02*
X2541491Y-1102579D01*
X2541491Y-1102579D02*
X2551015Y-1140674D01*
X2551015Y-1140674D02*
X2551015Y-1188293D01*
X2551015Y-1188293D02*
X2541491Y-1226389D01*
X2541491Y-1226389D02*
X2531968Y-1245436D01*
X2531968Y-1245436D02*
X2522444Y-1254960D01*
X2522444Y-1254960D02*
X2503396Y-1264484D01*
X2503396Y-1264484D02*
X2484348Y-1264484D01*
X2484348Y-1264484D02*
X2465301Y-1254960D01*
X2465301Y-1254960D02*
X2455777Y-1245436D01*
X2455777Y-1245436D02*
X2446253Y-1226389D01*
X2446253Y-1226389D02*
X2436729Y-1188293D01*
X2436729Y-1188293D02*
X2436729Y-1140674D01*
X2436729Y-1140674D02*
X2446253Y-1102579D01*
X2446253Y-1102579D02*
X2455777Y-1083531D01*
X2455777Y-1083531D02*
X2465301Y-1074008D01*
X2465301Y-1074008D02*
X2484348Y-1064484D01*
X2617682Y-1064484D02*
X2741491Y-1064484D01*
X2741491Y-1064484D02*
X2674825Y-1140674D01*
X2674825Y-1140674D02*
X2703396Y-1140674D01*
X2703396Y-1140674D02*
X2722444Y-1150198D01*
X2722444Y-1150198D02*
X2731968Y-1159722D01*
X2731968Y-1159722D02*
X2741491Y-1178770D01*
X2741491Y-1178770D02*
X2741491Y-1226389D01*
X2741491Y-1226389D02*
X2731968Y-1245436D01*
X2731968Y-1245436D02*
X2722444Y-1254960D01*
X2722444Y-1254960D02*
X2703396Y-1264484D01*
X2703396Y-1264484D02*
X2646253Y-1264484D01*
X2646253Y-1264484D02*
X2627206Y-1254960D01*
X2627206Y-1254960D02*
X2617682Y-1245436D01*
X2836729Y-1264484D02*
X2874825Y-1264484D01*
X2874825Y-1264484D02*
X2893872Y-1254960D01*
X2893872Y-1254960D02*
X2903396Y-1245436D01*
X2903396Y-1245436D02*
X2922444Y-1216865D01*
X2922444Y-1216865D02*
X2931967Y-1178770D01*
X2931967Y-1178770D02*
X2931967Y-1102579D01*
X2931967Y-1102579D02*
X2922444Y-1083531D01*
X2922444Y-1083531D02*
X2912920Y-1074008D01*
X2912920Y-1074008D02*
X2893872Y-1064484D01*
X2893872Y-1064484D02*
X2855777Y-1064484D01*
X2855777Y-1064484D02*
X2836729Y-1074008D01*
X2836729Y-1074008D02*
X2827206Y-1083531D01*
X2827206Y-1083531D02*
X2817682Y-1102579D01*
X2817682Y-1102579D02*
X2817682Y-1150198D01*
X2817682Y-1150198D02*
X2827206Y-1169246D01*
X2827206Y-1169246D02*
X2836729Y-1178770D01*
X2836729Y-1178770D02*
X2855777Y-1188293D01*
X2855777Y-1188293D02*
X2893872Y-1188293D01*
X2893872Y-1188293D02*
X2912920Y-1178770D01*
X2912920Y-1178770D02*
X2922444Y-1169246D01*
X2922444Y-1169246D02*
X2931967Y-1150198D01*
X3103396Y-1131150D02*
X3103396Y-1264484D01*
X3055777Y-1054960D02*
X3008158Y-1197817D01*
X3008158Y-1197817D02*
X3131967Y-1197817D01*
X3198634Y-1064484D02*
X3198634Y-1102579D01*
X3274825Y-1064484D02*
X3274825Y-1102579D01*
X3570063Y-1340674D02*
X3560539Y-1331150D01*
X3560539Y-1331150D02*
X3541491Y-1302579D01*
X3541491Y-1302579D02*
X3531968Y-1283531D01*
X3531968Y-1283531D02*
X3522444Y-1254960D01*
X3522444Y-1254960D02*
X3512920Y-1207341D01*
X3512920Y-1207341D02*
X3512920Y-1169246D01*
X3512920Y-1169246D02*
X3522444Y-1121627D01*
X3522444Y-1121627D02*
X3531968Y-1093055D01*
X3531968Y-1093055D02*
X3541491Y-1074008D01*
X3541491Y-1074008D02*
X3560539Y-1045436D01*
X3560539Y-1045436D02*
X3570063Y-1035912D01*
X3731968Y-1131150D02*
X3731968Y-1264484D01*
X3684348Y-1054960D02*
X3636729Y-1197817D01*
X3636729Y-1197817D02*
X3760539Y-1197817D01*
X3874825Y-1064484D02*
X3893872Y-1064484D01*
X3893872Y-1064484D02*
X3912920Y-1074008D01*
X3912920Y-1074008D02*
X3922444Y-1083531D01*
X3922444Y-1083531D02*
X3931968Y-1102579D01*
X3931968Y-1102579D02*
X3941491Y-1140674D01*
X3941491Y-1140674D02*
X3941491Y-1188293D01*
X3941491Y-1188293D02*
X3931968Y-1226389D01*
X3931968Y-1226389D02*
X3922444Y-1245436D01*
X3922444Y-1245436D02*
X3912920Y-1254960D01*
X3912920Y-1254960D02*
X3893872Y-1264484D01*
X3893872Y-1264484D02*
X3874825Y-1264484D01*
X3874825Y-1264484D02*
X3855777Y-1254960D01*
X3855777Y-1254960D02*
X3846253Y-1245436D01*
X3846253Y-1245436D02*
X3836729Y-1226389D01*
X3836729Y-1226389D02*
X3827206Y-1188293D01*
X3827206Y-1188293D02*
X3827206Y-1140674D01*
X3827206Y-1140674D02*
X3836729Y-1102579D01*
X3836729Y-1102579D02*
X3846253Y-1083531D01*
X3846253Y-1083531D02*
X3855777Y-1074008D01*
X3855777Y-1074008D02*
X3874825Y-1064484D01*
X4179587Y-1264484D02*
X4179587Y-1064484D01*
X4265301Y-1264484D02*
X4265301Y-1159722D01*
X4265301Y-1159722D02*
X4255777Y-1140674D01*
X4255777Y-1140674D02*
X4236730Y-1131150D01*
X4236730Y-1131150D02*
X4208158Y-1131150D01*
X4208158Y-1131150D02*
X4189110Y-1140674D01*
X4189110Y-1140674D02*
X4179587Y-1150198D01*
X4389111Y-1264484D02*
X4370063Y-1254960D01*
X4370063Y-1254960D02*
X4360539Y-1245436D01*
X4360539Y-1245436D02*
X4351015Y-1226389D01*
X4351015Y-1226389D02*
X4351015Y-1169246D01*
X4351015Y-1169246D02*
X4360539Y-1150198D01*
X4360539Y-1150198D02*
X4370063Y-1140674D01*
X4370063Y-1140674D02*
X4389111Y-1131150D01*
X4389111Y-1131150D02*
X4417682Y-1131150D01*
X4417682Y-1131150D02*
X4436730Y-1140674D01*
X4436730Y-1140674D02*
X4446253Y-1150198D01*
X4446253Y-1150198D02*
X4455777Y-1169246D01*
X4455777Y-1169246D02*
X4455777Y-1226389D01*
X4455777Y-1226389D02*
X4446253Y-1245436D01*
X4446253Y-1245436D02*
X4436730Y-1254960D01*
X4436730Y-1254960D02*
X4417682Y-1264484D01*
X4417682Y-1264484D02*
X4389111Y-1264484D01*
X4570063Y-1264484D02*
X4551015Y-1254960D01*
X4551015Y-1254960D02*
X4541492Y-1235912D01*
X4541492Y-1235912D02*
X4541492Y-1064484D01*
X4722444Y-1254960D02*
X4703396Y-1264484D01*
X4703396Y-1264484D02*
X4665301Y-1264484D01*
X4665301Y-1264484D02*
X4646253Y-1254960D01*
X4646253Y-1254960D02*
X4636730Y-1235912D01*
X4636730Y-1235912D02*
X4636730Y-1159722D01*
X4636730Y-1159722D02*
X4646253Y-1140674D01*
X4646253Y-1140674D02*
X4665301Y-1131150D01*
X4665301Y-1131150D02*
X4703396Y-1131150D01*
X4703396Y-1131150D02*
X4722444Y-1140674D01*
X4722444Y-1140674D02*
X4731968Y-1159722D01*
X4731968Y-1159722D02*
X4731968Y-1178770D01*
X4731968Y-1178770D02*
X4636730Y-1197817D01*
X4808158Y-1254960D02*
X4827206Y-1264484D01*
X4827206Y-1264484D02*
X4865301Y-1264484D01*
X4865301Y-1264484D02*
X4884349Y-1254960D01*
X4884349Y-1254960D02*
X4893873Y-1235912D01*
X4893873Y-1235912D02*
X4893873Y-1226389D01*
X4893873Y-1226389D02*
X4884349Y-1207341D01*
X4884349Y-1207341D02*
X4865301Y-1197817D01*
X4865301Y-1197817D02*
X4836730Y-1197817D01*
X4836730Y-1197817D02*
X4817682Y-1188293D01*
X4817682Y-1188293D02*
X4808158Y-1169246D01*
X4808158Y-1169246D02*
X4808158Y-1159722D01*
X4808158Y-1159722D02*
X4817682Y-1140674D01*
X4817682Y-1140674D02*
X4836730Y-1131150D01*
X4836730Y-1131150D02*
X4865301Y-1131150D01*
X4865301Y-1131150D02*
X4884349Y-1140674D01*
X4960539Y-1340674D02*
X4970063Y-1331150D01*
X4970063Y-1331150D02*
X4989111Y-1302579D01*
X4989111Y-1302579D02*
X4998634Y-1283531D01*
X4998634Y-1283531D02*
X5008158Y-1254960D01*
X5008158Y-1254960D02*
X5017682Y-1207341D01*
X5017682Y-1207341D02*
X5017682Y-1169246D01*
X5017682Y-1169246D02*
X5008158Y-1121627D01*
X5008158Y-1121627D02*
X4998634Y-1093055D01*
X4998634Y-1093055D02*
X4989111Y-1074008D01*
X4989111Y-1074008D02*
X4970063Y-1045436D01*
X4970063Y-1045436D02*
X4960539Y-1035912D01*
D12*
X-21109Y-1475891D02*
X-21109Y-1398109D01*
X-98891Y-1398109D01*
X-98891Y-1475891D01*
X-21109Y-1475891D01*
D11*
X360539Y-1528484D02*
X246253Y-1528484D01*
X303396Y-1528484D02*
X303396Y-1328484D01*
X303396Y-1328484D02*
X284348Y-1357055D01*
X284348Y-1357055D02*
X265301Y-1376103D01*
X265301Y-1376103D02*
X246253Y-1385627D01*
X446253Y-1509436D02*
X455777Y-1518960D01*
X455777Y-1518960D02*
X446253Y-1528484D01*
X446253Y-1528484D02*
X436729Y-1518960D01*
X436729Y-1518960D02*
X446253Y-1509436D01*
X446253Y-1509436D02*
X446253Y-1528484D01*
X646253Y-1528484D02*
X531967Y-1528484D01*
X589110Y-1528484D02*
X589110Y-1328484D01*
X589110Y-1328484D02*
X570063Y-1357055D01*
X570063Y-1357055D02*
X551015Y-1376103D01*
X551015Y-1376103D02*
X531967Y-1385627D01*
X770062Y-1328484D02*
X789110Y-1328484D01*
X789110Y-1328484D02*
X808158Y-1338008D01*
X808158Y-1338008D02*
X817682Y-1347531D01*
X817682Y-1347531D02*
X827205Y-1366579D01*
X827205Y-1366579D02*
X836729Y-1404674D01*
X836729Y-1404674D02*
X836729Y-1452293D01*
X836729Y-1452293D02*
X827205Y-1490388D01*
X827205Y-1490388D02*
X817682Y-1509436D01*
X817682Y-1509436D02*
X808158Y-1518960D01*
X808158Y-1518960D02*
X789110Y-1528484D01*
X789110Y-1528484D02*
X770062Y-1528484D01*
X770062Y-1528484D02*
X751015Y-1518960D01*
X751015Y-1518960D02*
X741491Y-1509436D01*
X741491Y-1509436D02*
X731967Y-1490388D01*
X731967Y-1490388D02*
X722443Y-1452293D01*
X722443Y-1452293D02*
X722443Y-1404674D01*
X722443Y-1404674D02*
X731967Y-1366579D01*
X731967Y-1366579D02*
X741491Y-1347531D01*
X741491Y-1347531D02*
X751015Y-1338008D01*
X751015Y-1338008D02*
X770062Y-1328484D01*
X960539Y-1328484D02*
X979586Y-1328484D01*
X979586Y-1328484D02*
X998634Y-1338008D01*
X998634Y-1338008D02*
X1008158Y-1347531D01*
X1008158Y-1347531D02*
X1017682Y-1366579D01*
X1017682Y-1366579D02*
X1027205Y-1404674D01*
X1027205Y-1404674D02*
X1027205Y-1452293D01*
X1027205Y-1452293D02*
X1017682Y-1490388D01*
X1017682Y-1490388D02*
X1008158Y-1509436D01*
X1008158Y-1509436D02*
X998634Y-1518960D01*
X998634Y-1518960D02*
X979586Y-1528484D01*
X979586Y-1528484D02*
X960539Y-1528484D01*
X960539Y-1528484D02*
X941491Y-1518960D01*
X941491Y-1518960D02*
X931967Y-1509436D01*
X931967Y-1509436D02*
X922443Y-1490388D01*
X922443Y-1490388D02*
X912920Y-1452293D01*
X912920Y-1452293D02*
X912920Y-1404674D01*
X912920Y-1404674D02*
X922443Y-1366579D01*
X922443Y-1366579D02*
X931967Y-1347531D01*
X931967Y-1347531D02*
X941491Y-1338008D01*
X941491Y-1338008D02*
X960539Y-1328484D01*
X1112920Y-1528484D02*
X1112920Y-1395150D01*
X1112920Y-1414198D02*
X1122444Y-1404674D01*
X1122444Y-1404674D02*
X1141491Y-1395150D01*
X1141491Y-1395150D02*
X1170063Y-1395150D01*
X1170063Y-1395150D02*
X1189110Y-1404674D01*
X1189110Y-1404674D02*
X1198634Y-1423722D01*
X1198634Y-1423722D02*
X1198634Y-1528484D01*
X1198634Y-1423722D02*
X1208158Y-1404674D01*
X1208158Y-1404674D02*
X1227205Y-1395150D01*
X1227205Y-1395150D02*
X1255777Y-1395150D01*
X1255777Y-1395150D02*
X1274825Y-1404674D01*
X1274825Y-1404674D02*
X1284348Y-1423722D01*
X1284348Y-1423722D02*
X1284348Y-1528484D01*
X1379586Y-1528484D02*
X1379586Y-1395150D01*
X1379586Y-1414198D02*
X1389110Y-1404674D01*
X1389110Y-1404674D02*
X1408158Y-1395150D01*
X1408158Y-1395150D02*
X1436729Y-1395150D01*
X1436729Y-1395150D02*
X1455777Y-1404674D01*
X1455777Y-1404674D02*
X1465301Y-1423722D01*
X1465301Y-1423722D02*
X1465301Y-1528484D01*
X1465301Y-1423722D02*
X1474824Y-1404674D01*
X1474824Y-1404674D02*
X1493872Y-1395150D01*
X1493872Y-1395150D02*
X1522443Y-1395150D01*
X1522443Y-1395150D02*
X1541491Y-1404674D01*
X1541491Y-1404674D02*
X1551015Y-1423722D01*
X1551015Y-1423722D02*
X1551015Y-1528484D01*
X1941491Y-1318960D02*
X1770063Y-1576103D01*
X2198634Y-1328484D02*
X2217682Y-1328484D01*
X2217682Y-1328484D02*
X2236729Y-1338008D01*
X2236729Y-1338008D02*
X2246253Y-1347531D01*
X2246253Y-1347531D02*
X2255777Y-1366579D01*
X2255777Y-1366579D02*
X2265301Y-1404674D01*
X2265301Y-1404674D02*
X2265301Y-1452293D01*
X2265301Y-1452293D02*
X2255777Y-1490388D01*
X2255777Y-1490388D02*
X2246253Y-1509436D01*
X2246253Y-1509436D02*
X2236729Y-1518960D01*
X2236729Y-1518960D02*
X2217682Y-1528484D01*
X2217682Y-1528484D02*
X2198634Y-1528484D01*
X2198634Y-1528484D02*
X2179587Y-1518960D01*
X2179587Y-1518960D02*
X2170063Y-1509436D01*
X2170063Y-1509436D02*
X2160539Y-1490388D01*
X2160539Y-1490388D02*
X2151015Y-1452293D01*
X2151015Y-1452293D02*
X2151015Y-1404674D01*
X2151015Y-1404674D02*
X2160539Y-1366579D01*
X2160539Y-1366579D02*
X2170063Y-1347531D01*
X2170063Y-1347531D02*
X2179587Y-1338008D01*
X2179587Y-1338008D02*
X2198634Y-1328484D01*
X2351015Y-1509436D02*
X2360539Y-1518960D01*
X2360539Y-1518960D02*
X2351015Y-1528484D01*
X2351015Y-1528484D02*
X2341491Y-1518960D01*
X2341491Y-1518960D02*
X2351015Y-1509436D01*
X2351015Y-1509436D02*
X2351015Y-1528484D01*
X2484348Y-1328484D02*
X2503396Y-1328484D01*
X2503396Y-1328484D02*
X2522444Y-1338008D01*
X2522444Y-1338008D02*
X2531968Y-1347531D01*
X2531968Y-1347531D02*
X2541491Y-1366579D01*
X2541491Y-1366579D02*
X2551015Y-1404674D01*
X2551015Y-1404674D02*
X2551015Y-1452293D01*
X2551015Y-1452293D02*
X2541491Y-1490388D01*
X2541491Y-1490388D02*
X2531968Y-1509436D01*
X2531968Y-1509436D02*
X2522444Y-1518960D01*
X2522444Y-1518960D02*
X2503396Y-1528484D01*
X2503396Y-1528484D02*
X2484348Y-1528484D01*
X2484348Y-1528484D02*
X2465301Y-1518960D01*
X2465301Y-1518960D02*
X2455777Y-1509436D01*
X2455777Y-1509436D02*
X2446253Y-1490388D01*
X2446253Y-1490388D02*
X2436729Y-1452293D01*
X2436729Y-1452293D02*
X2436729Y-1404674D01*
X2436729Y-1404674D02*
X2446253Y-1366579D01*
X2446253Y-1366579D02*
X2455777Y-1347531D01*
X2455777Y-1347531D02*
X2465301Y-1338008D01*
X2465301Y-1338008D02*
X2484348Y-1328484D01*
X2722444Y-1395150D02*
X2722444Y-1528484D01*
X2674825Y-1318960D02*
X2627206Y-1461817D01*
X2627206Y-1461817D02*
X2751015Y-1461817D01*
X2808158Y-1328484D02*
X2931967Y-1328484D01*
X2931967Y-1328484D02*
X2865301Y-1404674D01*
X2865301Y-1404674D02*
X2893872Y-1404674D01*
X2893872Y-1404674D02*
X2912920Y-1414198D01*
X2912920Y-1414198D02*
X2922444Y-1423722D01*
X2922444Y-1423722D02*
X2931967Y-1442769D01*
X2931967Y-1442769D02*
X2931967Y-1490388D01*
X2931967Y-1490388D02*
X2922444Y-1509436D01*
X2922444Y-1509436D02*
X2912920Y-1518960D01*
X2912920Y-1518960D02*
X2893872Y-1528484D01*
X2893872Y-1528484D02*
X2836729Y-1528484D01*
X2836729Y-1528484D02*
X2817682Y-1518960D01*
X2817682Y-1518960D02*
X2808158Y-1509436D01*
X2998634Y-1328484D02*
X3122444Y-1328484D01*
X3122444Y-1328484D02*
X3055777Y-1404674D01*
X3055777Y-1404674D02*
X3084348Y-1404674D01*
X3084348Y-1404674D02*
X3103396Y-1414198D01*
X3103396Y-1414198D02*
X3112920Y-1423722D01*
X3112920Y-1423722D02*
X3122444Y-1442769D01*
X3122444Y-1442769D02*
X3122444Y-1490388D01*
X3122444Y-1490388D02*
X3112920Y-1509436D01*
X3112920Y-1509436D02*
X3103396Y-1518960D01*
X3103396Y-1518960D02*
X3084348Y-1528484D01*
X3084348Y-1528484D02*
X3027206Y-1528484D01*
X3027206Y-1528484D02*
X3008158Y-1518960D01*
X3008158Y-1518960D02*
X2998634Y-1509436D01*
X3198634Y-1328484D02*
X3198634Y-1366579D01*
X3274825Y-1328484D02*
X3274825Y-1366579D01*
X3570063Y-1604674D02*
X3560539Y-1595150D01*
X3560539Y-1595150D02*
X3541491Y-1566579D01*
X3541491Y-1566579D02*
X3531968Y-1547531D01*
X3531968Y-1547531D02*
X3522444Y-1518960D01*
X3522444Y-1518960D02*
X3512920Y-1471341D01*
X3512920Y-1471341D02*
X3512920Y-1433246D01*
X3512920Y-1433246D02*
X3522444Y-1385627D01*
X3522444Y-1385627D02*
X3531968Y-1357055D01*
X3531968Y-1357055D02*
X3541491Y-1338008D01*
X3541491Y-1338008D02*
X3560539Y-1309436D01*
X3560539Y-1309436D02*
X3570063Y-1299912D01*
X3674825Y-1414198D02*
X3655777Y-1404674D01*
X3655777Y-1404674D02*
X3646253Y-1395150D01*
X3646253Y-1395150D02*
X3636729Y-1376103D01*
X3636729Y-1376103D02*
X3636729Y-1366579D01*
X3636729Y-1366579D02*
X3646253Y-1347531D01*
X3646253Y-1347531D02*
X3655777Y-1338008D01*
X3655777Y-1338008D02*
X3674825Y-1328484D01*
X3674825Y-1328484D02*
X3712920Y-1328484D01*
X3712920Y-1328484D02*
X3731968Y-1338008D01*
X3731968Y-1338008D02*
X3741491Y-1347531D01*
X3741491Y-1347531D02*
X3751015Y-1366579D01*
X3751015Y-1366579D02*
X3751015Y-1376103D01*
X3751015Y-1376103D02*
X3741491Y-1395150D01*
X3741491Y-1395150D02*
X3731968Y-1404674D01*
X3731968Y-1404674D02*
X3712920Y-1414198D01*
X3712920Y-1414198D02*
X3674825Y-1414198D01*
X3674825Y-1414198D02*
X3655777Y-1423722D01*
X3655777Y-1423722D02*
X3646253Y-1433246D01*
X3646253Y-1433246D02*
X3636729Y-1452293D01*
X3636729Y-1452293D02*
X3636729Y-1490388D01*
X3636729Y-1490388D02*
X3646253Y-1509436D01*
X3646253Y-1509436D02*
X3655777Y-1518960D01*
X3655777Y-1518960D02*
X3674825Y-1528484D01*
X3674825Y-1528484D02*
X3712920Y-1528484D01*
X3712920Y-1528484D02*
X3731968Y-1518960D01*
X3731968Y-1518960D02*
X3741491Y-1509436D01*
X3741491Y-1509436D02*
X3751015Y-1490388D01*
X3751015Y-1490388D02*
X3751015Y-1452293D01*
X3751015Y-1452293D02*
X3741491Y-1433246D01*
X3741491Y-1433246D02*
X3731968Y-1423722D01*
X3731968Y-1423722D02*
X3712920Y-1414198D01*
X3989110Y-1528484D02*
X3989110Y-1328484D01*
X4074825Y-1528484D02*
X4074825Y-1423722D01*
X4074825Y-1423722D02*
X4065301Y-1404674D01*
X4065301Y-1404674D02*
X4046253Y-1395150D01*
X4046253Y-1395150D02*
X4017682Y-1395150D01*
X4017682Y-1395150D02*
X3998634Y-1404674D01*
X3998634Y-1404674D02*
X3989110Y-1414198D01*
X4198634Y-1528484D02*
X4179587Y-1518960D01*
X4179587Y-1518960D02*
X4170063Y-1509436D01*
X4170063Y-1509436D02*
X4160539Y-1490388D01*
X4160539Y-1490388D02*
X4160539Y-1433246D01*
X4160539Y-1433246D02*
X4170063Y-1414198D01*
X4170063Y-1414198D02*
X4179587Y-1404674D01*
X4179587Y-1404674D02*
X4198634Y-1395150D01*
X4198634Y-1395150D02*
X4227206Y-1395150D01*
X4227206Y-1395150D02*
X4246253Y-1404674D01*
X4246253Y-1404674D02*
X4255777Y-1414198D01*
X4255777Y-1414198D02*
X4265301Y-1433246D01*
X4265301Y-1433246D02*
X4265301Y-1490388D01*
X4265301Y-1490388D02*
X4255777Y-1509436D01*
X4255777Y-1509436D02*
X4246253Y-1518960D01*
X4246253Y-1518960D02*
X4227206Y-1528484D01*
X4227206Y-1528484D02*
X4198634Y-1528484D01*
X4379587Y-1528484D02*
X4360539Y-1518960D01*
X4360539Y-1518960D02*
X4351015Y-1499912D01*
X4351015Y-1499912D02*
X4351015Y-1328484D01*
X4531968Y-1518960D02*
X4512920Y-1528484D01*
X4512920Y-1528484D02*
X4474825Y-1528484D01*
X4474825Y-1528484D02*
X4455777Y-1518960D01*
X4455777Y-1518960D02*
X4446253Y-1499912D01*
X4446253Y-1499912D02*
X4446253Y-1423722D01*
X4446253Y-1423722D02*
X4455777Y-1404674D01*
X4455777Y-1404674D02*
X4474825Y-1395150D01*
X4474825Y-1395150D02*
X4512920Y-1395150D01*
X4512920Y-1395150D02*
X4531968Y-1404674D01*
X4531968Y-1404674D02*
X4541492Y-1423722D01*
X4541492Y-1423722D02*
X4541492Y-1442769D01*
X4541492Y-1442769D02*
X4446253Y-1461817D01*
X4617682Y-1518960D02*
X4636730Y-1528484D01*
X4636730Y-1528484D02*
X4674825Y-1528484D01*
X4674825Y-1528484D02*
X4693873Y-1518960D01*
X4693873Y-1518960D02*
X4703396Y-1499912D01*
X4703396Y-1499912D02*
X4703396Y-1490388D01*
X4703396Y-1490388D02*
X4693873Y-1471341D01*
X4693873Y-1471341D02*
X4674825Y-1461817D01*
X4674825Y-1461817D02*
X4646253Y-1461817D01*
X4646253Y-1461817D02*
X4627206Y-1452293D01*
X4627206Y-1452293D02*
X4617682Y-1433246D01*
X4617682Y-1433246D02*
X4617682Y-1423722D01*
X4617682Y-1423722D02*
X4627206Y-1404674D01*
X4627206Y-1404674D02*
X4646253Y-1395150D01*
X4646253Y-1395150D02*
X4674825Y-1395150D01*
X4674825Y-1395150D02*
X4693873Y-1404674D01*
X4770063Y-1604674D02*
X4779587Y-1595150D01*
X4779587Y-1595150D02*
X4798634Y-1566579D01*
X4798634Y-1566579D02*
X4808158Y-1547531D01*
X4808158Y-1547531D02*
X4817682Y-1518960D01*
X4817682Y-1518960D02*
X4827206Y-1471341D01*
X4827206Y-1471341D02*
X4827206Y-1433246D01*
X4827206Y-1433246D02*
X4817682Y-1385627D01*
X4817682Y-1385627D02*
X4808158Y-1357055D01*
X4808158Y-1357055D02*
X4798634Y-1338008D01*
X4798634Y-1338008D02*
X4779587Y-1309436D01*
X4779587Y-1309436D02*
X4770063Y-1299912D01*
M02*
