%TF.GenerationSoftware,KiCad,Pcbnew,8.0.4*%
%TF.CreationDate,2024-11-26T16:04:15+06:30*%
%TF.ProjectId,RP2040_DevBoard,52503230-3430-45f4-9465-76426f617264,1.0*%
%TF.SameCoordinates,PX791ddc0PY791ddc0*%
%TF.FileFunction,Paste,Top*%
%TF.FilePolarity,Positive*%
%FSLAX46Y46*%
G04 Gerber Fmt 4.6, Leading zero omitted, Abs format (unit mm)*
G04 Created by KiCad (PCBNEW 8.0.4) date 2024-11-26 16:04:15*
%MOMM*%
%LPD*%
G01*
G04 APERTURE LIST*
G04 Aperture macros list*
%AMRoundRect*
0 Rectangle with rounded corners*
0 $1 Rounding radius*
0 $2 $3 $4 $5 $6 $7 $8 $9 X,Y pos of 4 corners*
0 Add a 4 corners polygon primitive as box body*
4,1,4,$2,$3,$4,$5,$6,$7,$8,$9,$2,$3,0*
0 Add four circle primitives for the rounded corners*
1,1,$1+$1,$2,$3*
1,1,$1+$1,$4,$5*
1,1,$1+$1,$6,$7*
1,1,$1+$1,$8,$9*
0 Add four rect primitives between the rounded corners*
20,1,$1+$1,$2,$3,$4,$5,0*
20,1,$1+$1,$4,$5,$6,$7,0*
20,1,$1+$1,$6,$7,$8,$9,0*
20,1,$1+$1,$8,$9,$2,$3,0*%
G04 Aperture macros list end*
%ADD10RoundRect,0.115000X-0.115000X-0.145000X0.115000X-0.145000X0.115000X0.145000X-0.115000X0.145000X0*%
%ADD11RoundRect,0.110000X0.110000X0.160000X-0.110000X0.160000X-0.110000X-0.160000X0.110000X-0.160000X0*%
%ADD12RoundRect,0.200000X-0.200000X-0.225000X0.200000X-0.225000X0.200000X0.225000X-0.200000X0.225000X0*%
%ADD13RoundRect,0.115000X-0.145000X0.115000X-0.145000X-0.115000X0.145000X-0.115000X0.145000X0.115000X0*%
%ADD14RoundRect,0.110000X0.160000X-0.110000X0.160000X0.110000X-0.160000X0.110000X-0.160000X-0.110000X0*%
%ADD15RoundRect,0.110000X-0.160000X0.110000X-0.160000X-0.110000X0.160000X-0.110000X0.160000X0.110000X0*%
%ADD16RoundRect,0.175000X-0.250000X0.175000X-0.250000X-0.175000X0.250000X-0.175000X0.250000X0.175000X0*%
%ADD17RoundRect,0.125000X0.175000X-0.125000X0.175000X0.125000X-0.175000X0.125000X-0.175000X-0.125000X0*%
%ADD18R,1.100000X1.300000*%
%ADD19RoundRect,0.115000X0.115000X0.145000X-0.115000X0.145000X-0.115000X-0.145000X0.115000X-0.145000X0*%
%ADD20RoundRect,0.175000X-0.175000X-0.250000X0.175000X-0.250000X0.175000X0.250000X-0.175000X0.250000X0*%
%ADD21RoundRect,0.125000X-0.625000X-0.125000X0.625000X-0.125000X0.625000X0.125000X-0.625000X0.125000X0*%
%ADD22RoundRect,0.193750X-0.231250X0.193750X-0.231250X-0.193750X0.231250X-0.193750X0.231250X0.193750X0*%
%ADD23RoundRect,0.225000X-0.450000X0.225000X-0.450000X-0.225000X0.450000X-0.225000X0.450000X0.225000X0*%
%ADD24RoundRect,0.110000X-0.110000X-0.160000X0.110000X-0.160000X0.110000X0.160000X-0.110000X0.160000X0*%
%ADD25R,0.500000X1.350000*%
%ADD26R,0.200000X1.350000*%
%ADD27RoundRect,0.115000X0.145000X-0.115000X0.145000X0.115000X-0.145000X0.115000X-0.145000X-0.115000X0*%
%ADD28RoundRect,0.350000X-0.600000X-0.350000X0.600000X-0.350000X0.600000X0.350000X-0.600000X0.350000X0*%
%ADD29RoundRect,0.475000X-0.475000X-1.375000X0.475000X-1.375000X0.475000X1.375000X-0.475000X1.375000X0*%
%ADD30RoundRect,0.231481X0.393519X-0.418519X0.393519X0.418519X-0.393519X0.418519X-0.393519X-0.418519X0*%
%ADD31RoundRect,0.060000X-0.060000X0.240000X-0.060000X-0.240000X0.060000X-0.240000X0.060000X0.240000X0*%
%ADD32RoundRect,0.250000X-0.285000X-0.285000X0.285000X-0.285000X0.285000X0.285000X-0.285000X0.285000X0*%
%ADD33RoundRect,0.025000X-0.325000X-0.025000X0.325000X-0.025000X0.325000X0.025000X-0.325000X0.025000X0*%
%ADD34RoundRect,0.025000X-0.025000X-0.325000X0.025000X-0.325000X0.025000X0.325000X-0.025000X0.325000X0*%
G04 APERTURE END LIST*
D10*
%TO.C,C13*%
X11585000Y26365200D03*
X12545000Y26365200D03*
%TD*%
D11*
%TO.C,R9*%
X10543000Y51181000D03*
X9523000Y51181000D03*
%TD*%
D12*
%TO.C,C14*%
X20815000Y49276000D03*
X22365000Y49276000D03*
%TD*%
D13*
%TO.C,C1*%
X25808400Y18491200D03*
X25808400Y17531200D03*
%TD*%
D11*
%TO.C,R8*%
X20957000Y35941000D03*
X19937000Y35941000D03*
%TD*%
D14*
%TO.C,R11*%
X7239000Y9142000D03*
X7239000Y10162000D03*
%TD*%
D15*
%TO.C,R5*%
X13970000Y34927000D03*
X13970000Y33907000D03*
%TD*%
D14*
%TO.C,R1*%
X24790400Y17471200D03*
X24790400Y18491200D03*
%TD*%
D16*
%TO.C,R12*%
X12700000Y12255000D03*
X12700000Y10605000D03*
%TD*%
D17*
%TO.C,D2*%
X8509000Y12702000D03*
X8509000Y11302000D03*
%TD*%
D15*
%TO.C,R2*%
X17272000Y47246000D03*
X17272000Y46226000D03*
%TD*%
D18*
%TO.C,Y1*%
X16852000Y15613200D03*
X16852000Y17813200D03*
X15152000Y17813200D03*
X15152000Y15613200D03*
%TD*%
D15*
%TO.C,R6*%
X14986000Y34927000D03*
X14986000Y33907000D03*
%TD*%
D19*
%TO.C,C2*%
X16852000Y19337200D03*
X15892000Y19337200D03*
%TD*%
D11*
%TO.C,R4*%
X22862000Y36576000D03*
X21842000Y36576000D03*
%TD*%
D19*
%TO.C,C11*%
X24330600Y26416000D03*
X23370600Y26416000D03*
%TD*%
D16*
%TO.C,R13*%
X20828000Y12255000D03*
X20828000Y10605000D03*
%TD*%
D19*
%TO.C,C19*%
X24991000Y41910000D03*
X24031000Y41910000D03*
%TD*%
D20*
%TO.C,R16*%
X20765000Y47752000D03*
X22415000Y47752000D03*
%TD*%
D21*
%TO.C,U4*%
X15196000Y41910000D03*
X15196000Y40640000D03*
X15196000Y39370000D03*
X15196000Y38100000D03*
X22396000Y38100000D03*
X22396000Y39370000D03*
X22396000Y40640000D03*
X22396000Y41910000D03*
%TD*%
D22*
%TO.C,D3*%
X24511000Y49301500D03*
X24511000Y47726500D03*
%TD*%
D23*
%TO.C,C16*%
X5588000Y44436000D03*
X5588000Y42536000D03*
%TD*%
D13*
%TO.C,C8*%
X20830000Y33246000D03*
X20830000Y32286000D03*
%TD*%
D15*
%TO.C,R3*%
X18288000Y47246000D03*
X18288000Y46226000D03*
%TD*%
D13*
%TO.C,C5*%
X19830000Y33246000D03*
X19830000Y32286000D03*
%TD*%
%TO.C,C7*%
X18135600Y33500000D03*
X18135600Y32540000D03*
%TD*%
D24*
%TO.C,R15*%
X12571000Y42418000D03*
X13591000Y42418000D03*
%TD*%
D25*
%TO.C,J1*%
X21030000Y53105000D03*
X20230000Y53105000D03*
D26*
X19030000Y53105000D03*
X18030000Y53105000D03*
X17530000Y53105000D03*
X16530000Y53105000D03*
D25*
X15330000Y53105000D03*
X14530000Y53105000D03*
X14530000Y53105000D03*
X15330000Y53105000D03*
D26*
X16030000Y53105000D03*
X17030000Y53105000D03*
X18530000Y53105000D03*
X19530000Y53105000D03*
D25*
X20230000Y53105000D03*
X21030000Y53105000D03*
%TD*%
D10*
%TO.C,C12*%
X12220000Y30937200D03*
X13180000Y30937200D03*
%TD*%
D27*
%TO.C,C4*%
X18948400Y21313200D03*
X18948400Y22273200D03*
%TD*%
D14*
%TO.C,R14*%
X7239000Y11682000D03*
X7239000Y12702000D03*
%TD*%
D11*
%TO.C,R10*%
X12829000Y51181000D03*
X11809000Y51181000D03*
%TD*%
D17*
%TO.C,D1*%
X8509000Y10162000D03*
X8509000Y8762000D03*
%TD*%
D28*
%TO.C,U3*%
X7899000Y49036000D03*
X7899000Y46736000D03*
D29*
X14199000Y46736000D03*
D28*
X7899000Y44436000D03*
%TD*%
D13*
%TO.C,C6*%
X17145000Y34135000D03*
X17145000Y33175000D03*
%TD*%
D30*
%TO.C,C17*%
X5537200Y46736000D03*
X5537200Y49436000D03*
%TD*%
D27*
%TO.C,C9*%
X17983200Y21313200D03*
X17983200Y22273200D03*
%TD*%
D10*
%TO.C,C3*%
X15152800Y14104800D03*
X16112800Y14104800D03*
%TD*%
D31*
%TO.C,U2*%
X18280000Y50026000D03*
X17780000Y50026000D03*
X17280000Y50026000D03*
X17280000Y48526000D03*
X17780000Y48526000D03*
X18280000Y48526000D03*
%TD*%
D13*
%TO.C,C10*%
X22402800Y31518800D03*
X22402800Y30558800D03*
%TD*%
D32*
%TO.C,U1*%
X16450000Y28965200D03*
X16450000Y27635200D03*
X16450000Y26305200D03*
X17780000Y28965200D03*
X17780000Y27635200D03*
X17780000Y26305200D03*
X19110000Y28965200D03*
X19110000Y27635200D03*
X19110000Y26305200D03*
D33*
X14330000Y30235200D03*
X14330000Y29835200D03*
X14330000Y29435200D03*
X14330000Y29035200D03*
X14330000Y28635200D03*
X14330000Y28235200D03*
X14330000Y27835200D03*
X14330000Y27435200D03*
X14330000Y27035200D03*
X14330000Y26635200D03*
X14330000Y26235200D03*
X14330000Y25835200D03*
X14330000Y25435200D03*
X14330000Y25035200D03*
D34*
X15180000Y24185200D03*
X15580000Y24185200D03*
X15980000Y24185200D03*
X16380000Y24185200D03*
X16780000Y24185200D03*
X17180000Y24185200D03*
X17580000Y24185200D03*
X17980000Y24185200D03*
X18380000Y24185200D03*
X18780000Y24185200D03*
X19180000Y24185200D03*
X19580000Y24185200D03*
X19980000Y24185200D03*
X20380000Y24185200D03*
D33*
X21230000Y25035200D03*
X21230000Y25435200D03*
X21230000Y25835200D03*
X21230000Y26235200D03*
X21230000Y26635200D03*
X21230000Y27035200D03*
X21230000Y27435200D03*
X21230000Y27835200D03*
X21230000Y28235200D03*
X21230000Y28635200D03*
X21230000Y29035200D03*
X21230000Y29435200D03*
X21230000Y29835200D03*
X21230000Y30235200D03*
D34*
X20380000Y31085200D03*
X19980000Y31085200D03*
X19580000Y31085200D03*
X19180000Y31085200D03*
X18780000Y31085200D03*
X18380000Y31085200D03*
X17980000Y31085200D03*
X17580000Y31085200D03*
X17180000Y31085200D03*
X16780000Y31085200D03*
X16380000Y31085200D03*
X15980000Y31085200D03*
X15580000Y31085200D03*
X15180000Y31085200D03*
%TD*%
D11*
%TO.C,R7*%
X22862000Y35306000D03*
X21842000Y35306000D03*
%TD*%
D10*
%TO.C,C18*%
X24031000Y43180000D03*
X24991000Y43180000D03*
%TD*%
D19*
%TO.C,C15*%
X8049200Y42595800D03*
X7089200Y42595800D03*
%TD*%
M02*
