%TF.GenerationSoftware,KiCad,Pcbnew,8.0.4*%
%TF.CreationDate,2024-11-26T16:04:15+06:30*%
%TF.ProjectId,RP2040_DevBoard,52503230-3430-45f4-9465-76426f617264,1.0*%
%TF.SameCoordinates,PX791ddc0PY791ddc0*%
%TF.FileFunction,OtherDrawing,Comment*%
%FSLAX46Y46*%
G04 Gerber Fmt 4.6, Leading zero omitted, Abs format (unit mm)*
G04 Created by KiCad (PCBNEW 8.0.4) date 2024-11-26 16:04:15*
%MOMM*%
%LPD*%
G01*
G04 APERTURE LIST*
%ADD10C,0.150000*%
G04 APERTURE END LIST*
D10*
X49104819Y53594525D02*
X49104819Y54213572D01*
X49104819Y54213572D02*
X49485771Y53880239D01*
X49485771Y53880239D02*
X49485771Y54023096D01*
X49485771Y54023096D02*
X49533390Y54118334D01*
X49533390Y54118334D02*
X49581009Y54165953D01*
X49581009Y54165953D02*
X49676247Y54213572D01*
X49676247Y54213572D02*
X49914342Y54213572D01*
X49914342Y54213572D02*
X50009580Y54165953D01*
X50009580Y54165953D02*
X50057200Y54118334D01*
X50057200Y54118334D02*
X50104819Y54023096D01*
X50104819Y54023096D02*
X50104819Y53737382D01*
X50104819Y53737382D02*
X50057200Y53642144D01*
X50057200Y53642144D02*
X50009580Y53594525D01*
X50009580Y54642144D02*
X50057200Y54689763D01*
X50057200Y54689763D02*
X50104819Y54642144D01*
X50104819Y54642144D02*
X50057200Y54594525D01*
X50057200Y54594525D02*
X50009580Y54642144D01*
X50009580Y54642144D02*
X50104819Y54642144D01*
X49533390Y55261191D02*
X49485771Y55165953D01*
X49485771Y55165953D02*
X49438152Y55118334D01*
X49438152Y55118334D02*
X49342914Y55070715D01*
X49342914Y55070715D02*
X49295295Y55070715D01*
X49295295Y55070715D02*
X49200057Y55118334D01*
X49200057Y55118334D02*
X49152438Y55165953D01*
X49152438Y55165953D02*
X49104819Y55261191D01*
X49104819Y55261191D02*
X49104819Y55451667D01*
X49104819Y55451667D02*
X49152438Y55546905D01*
X49152438Y55546905D02*
X49200057Y55594524D01*
X49200057Y55594524D02*
X49295295Y55642143D01*
X49295295Y55642143D02*
X49342914Y55642143D01*
X49342914Y55642143D02*
X49438152Y55594524D01*
X49438152Y55594524D02*
X49485771Y55546905D01*
X49485771Y55546905D02*
X49533390Y55451667D01*
X49533390Y55451667D02*
X49533390Y55261191D01*
X49533390Y55261191D02*
X49581009Y55165953D01*
X49581009Y55165953D02*
X49628628Y55118334D01*
X49628628Y55118334D02*
X49723866Y55070715D01*
X49723866Y55070715D02*
X49914342Y55070715D01*
X49914342Y55070715D02*
X50009580Y55118334D01*
X50009580Y55118334D02*
X50057200Y55165953D01*
X50057200Y55165953D02*
X50104819Y55261191D01*
X50104819Y55261191D02*
X50104819Y55451667D01*
X50104819Y55451667D02*
X50057200Y55546905D01*
X50057200Y55546905D02*
X50009580Y55594524D01*
X50009580Y55594524D02*
X49914342Y55642143D01*
X49914342Y55642143D02*
X49723866Y55642143D01*
X49723866Y55642143D02*
X49628628Y55594524D01*
X49628628Y55594524D02*
X49581009Y55546905D01*
X49581009Y55546905D02*
X49533390Y55451667D01*
X50104819Y56594524D02*
X50104819Y56023096D01*
X50104819Y56308810D02*
X49104819Y56308810D01*
X49104819Y56308810D02*
X49247676Y56213572D01*
X49247676Y56213572D02*
X49342914Y56118334D01*
X49342914Y56118334D02*
X49390533Y56023096D01*
X49104819Y57213572D02*
X49104819Y57308810D01*
X49104819Y57308810D02*
X49152438Y57404048D01*
X49152438Y57404048D02*
X49200057Y57451667D01*
X49200057Y57451667D02*
X49295295Y57499286D01*
X49295295Y57499286D02*
X49485771Y57546905D01*
X49485771Y57546905D02*
X49723866Y57546905D01*
X49723866Y57546905D02*
X49914342Y57499286D01*
X49914342Y57499286D02*
X50009580Y57451667D01*
X50009580Y57451667D02*
X50057200Y57404048D01*
X50057200Y57404048D02*
X50104819Y57308810D01*
X50104819Y57308810D02*
X50104819Y57213572D01*
X50104819Y57213572D02*
X50057200Y57118334D01*
X50057200Y57118334D02*
X50009580Y57070715D01*
X50009580Y57070715D02*
X49914342Y57023096D01*
X49914342Y57023096D02*
X49723866Y56975477D01*
X49723866Y56975477D02*
X49485771Y56975477D01*
X49485771Y56975477D02*
X49295295Y57023096D01*
X49295295Y57023096D02*
X49200057Y57070715D01*
X49200057Y57070715D02*
X49152438Y57118334D01*
X49152438Y57118334D02*
X49104819Y57213572D01*
X49104819Y58165953D02*
X49104819Y58261191D01*
X49104819Y58261191D02*
X49152438Y58356429D01*
X49152438Y58356429D02*
X49200057Y58404048D01*
X49200057Y58404048D02*
X49295295Y58451667D01*
X49295295Y58451667D02*
X49485771Y58499286D01*
X49485771Y58499286D02*
X49723866Y58499286D01*
X49723866Y58499286D02*
X49914342Y58451667D01*
X49914342Y58451667D02*
X50009580Y58404048D01*
X50009580Y58404048D02*
X50057200Y58356429D01*
X50057200Y58356429D02*
X50104819Y58261191D01*
X50104819Y58261191D02*
X50104819Y58165953D01*
X50104819Y58165953D02*
X50057200Y58070715D01*
X50057200Y58070715D02*
X50009580Y58023096D01*
X50009580Y58023096D02*
X49914342Y57975477D01*
X49914342Y57975477D02*
X49723866Y57927858D01*
X49723866Y57927858D02*
X49485771Y57927858D01*
X49485771Y57927858D02*
X49295295Y57975477D01*
X49295295Y57975477D02*
X49200057Y58023096D01*
X49200057Y58023096D02*
X49152438Y58070715D01*
X49152438Y58070715D02*
X49104819Y58165953D01*
X50104819Y59689763D02*
X49438152Y59689763D01*
X49533390Y59689763D02*
X49485771Y59737382D01*
X49485771Y59737382D02*
X49438152Y59832620D01*
X49438152Y59832620D02*
X49438152Y59975477D01*
X49438152Y59975477D02*
X49485771Y60070715D01*
X49485771Y60070715D02*
X49581009Y60118334D01*
X49581009Y60118334D02*
X50104819Y60118334D01*
X49581009Y60118334D02*
X49485771Y60165953D01*
X49485771Y60165953D02*
X49438152Y60261191D01*
X49438152Y60261191D02*
X49438152Y60404048D01*
X49438152Y60404048D02*
X49485771Y60499287D01*
X49485771Y60499287D02*
X49581009Y60546906D01*
X49581009Y60546906D02*
X50104819Y60546906D01*
X50104819Y61023096D02*
X49438152Y61023096D01*
X49533390Y61023096D02*
X49485771Y61070715D01*
X49485771Y61070715D02*
X49438152Y61165953D01*
X49438152Y61165953D02*
X49438152Y61308810D01*
X49438152Y61308810D02*
X49485771Y61404048D01*
X49485771Y61404048D02*
X49581009Y61451667D01*
X49581009Y61451667D02*
X50104819Y61451667D01*
X49581009Y61451667D02*
X49485771Y61499286D01*
X49485771Y61499286D02*
X49438152Y61594524D01*
X49438152Y61594524D02*
X49438152Y61737381D01*
X49438152Y61737381D02*
X49485771Y61832620D01*
X49485771Y61832620D02*
X49581009Y61880239D01*
X49581009Y61880239D02*
X50104819Y61880239D01*
X38600000Y55880000D02*
X51386420Y55880000D01*
X38600000Y59690000D02*
X51386420Y59690000D01*
X50800000Y55880000D02*
X50800000Y59690000D01*
X50800000Y55880000D02*
X50800000Y59690000D01*
X50800000Y55880000D02*
X50213579Y57006504D01*
X50800000Y55880000D02*
X51386421Y57006504D01*
X50800000Y59690000D02*
X51386421Y58563496D01*
X50800000Y59690000D02*
X50213579Y58563496D01*
X21780952Y70275181D02*
X21304762Y70275181D01*
X21304762Y70275181D02*
X21257143Y69798991D01*
X21257143Y69798991D02*
X21304762Y69846610D01*
X21304762Y69846610D02*
X21400000Y69894229D01*
X21400000Y69894229D02*
X21638095Y69894229D01*
X21638095Y69894229D02*
X21733333Y69846610D01*
X21733333Y69846610D02*
X21780952Y69798991D01*
X21780952Y69798991D02*
X21828571Y69703753D01*
X21828571Y69703753D02*
X21828571Y69465658D01*
X21828571Y69465658D02*
X21780952Y69370420D01*
X21780952Y69370420D02*
X21733333Y69322800D01*
X21733333Y69322800D02*
X21638095Y69275181D01*
X21638095Y69275181D02*
X21400000Y69275181D01*
X21400000Y69275181D02*
X21304762Y69322800D01*
X21304762Y69322800D02*
X21257143Y69370420D01*
X22257143Y69370420D02*
X22304762Y69322800D01*
X22304762Y69322800D02*
X22257143Y69275181D01*
X22257143Y69275181D02*
X22209524Y69322800D01*
X22209524Y69322800D02*
X22257143Y69370420D01*
X22257143Y69370420D02*
X22257143Y69275181D01*
X22923809Y70275181D02*
X23019047Y70275181D01*
X23019047Y70275181D02*
X23114285Y70227562D01*
X23114285Y70227562D02*
X23161904Y70179943D01*
X23161904Y70179943D02*
X23209523Y70084705D01*
X23209523Y70084705D02*
X23257142Y69894229D01*
X23257142Y69894229D02*
X23257142Y69656134D01*
X23257142Y69656134D02*
X23209523Y69465658D01*
X23209523Y69465658D02*
X23161904Y69370420D01*
X23161904Y69370420D02*
X23114285Y69322800D01*
X23114285Y69322800D02*
X23019047Y69275181D01*
X23019047Y69275181D02*
X22923809Y69275181D01*
X22923809Y69275181D02*
X22828571Y69322800D01*
X22828571Y69322800D02*
X22780952Y69370420D01*
X22780952Y69370420D02*
X22733333Y69465658D01*
X22733333Y69465658D02*
X22685714Y69656134D01*
X22685714Y69656134D02*
X22685714Y69894229D01*
X22685714Y69894229D02*
X22733333Y70084705D01*
X22733333Y70084705D02*
X22780952Y70179943D01*
X22780952Y70179943D02*
X22828571Y70227562D01*
X22828571Y70227562D02*
X22923809Y70275181D01*
X23828571Y69846610D02*
X23733333Y69894229D01*
X23733333Y69894229D02*
X23685714Y69941848D01*
X23685714Y69941848D02*
X23638095Y70037086D01*
X23638095Y70037086D02*
X23638095Y70084705D01*
X23638095Y70084705D02*
X23685714Y70179943D01*
X23685714Y70179943D02*
X23733333Y70227562D01*
X23733333Y70227562D02*
X23828571Y70275181D01*
X23828571Y70275181D02*
X24019047Y70275181D01*
X24019047Y70275181D02*
X24114285Y70227562D01*
X24114285Y70227562D02*
X24161904Y70179943D01*
X24161904Y70179943D02*
X24209523Y70084705D01*
X24209523Y70084705D02*
X24209523Y70037086D01*
X24209523Y70037086D02*
X24161904Y69941848D01*
X24161904Y69941848D02*
X24114285Y69894229D01*
X24114285Y69894229D02*
X24019047Y69846610D01*
X24019047Y69846610D02*
X23828571Y69846610D01*
X23828571Y69846610D02*
X23733333Y69798991D01*
X23733333Y69798991D02*
X23685714Y69751372D01*
X23685714Y69751372D02*
X23638095Y69656134D01*
X23638095Y69656134D02*
X23638095Y69465658D01*
X23638095Y69465658D02*
X23685714Y69370420D01*
X23685714Y69370420D02*
X23733333Y69322800D01*
X23733333Y69322800D02*
X23828571Y69275181D01*
X23828571Y69275181D02*
X24019047Y69275181D01*
X24019047Y69275181D02*
X24114285Y69322800D01*
X24114285Y69322800D02*
X24161904Y69370420D01*
X24161904Y69370420D02*
X24209523Y69465658D01*
X24209523Y69465658D02*
X24209523Y69656134D01*
X24209523Y69656134D02*
X24161904Y69751372D01*
X24161904Y69751372D02*
X24114285Y69798991D01*
X24114285Y69798991D02*
X24019047Y69846610D01*
X24828571Y70275181D02*
X24923809Y70275181D01*
X24923809Y70275181D02*
X25019047Y70227562D01*
X25019047Y70227562D02*
X25066666Y70179943D01*
X25066666Y70179943D02*
X25114285Y70084705D01*
X25114285Y70084705D02*
X25161904Y69894229D01*
X25161904Y69894229D02*
X25161904Y69656134D01*
X25161904Y69656134D02*
X25114285Y69465658D01*
X25114285Y69465658D02*
X25066666Y69370420D01*
X25066666Y69370420D02*
X25019047Y69322800D01*
X25019047Y69322800D02*
X24923809Y69275181D01*
X24923809Y69275181D02*
X24828571Y69275181D01*
X24828571Y69275181D02*
X24733333Y69322800D01*
X24733333Y69322800D02*
X24685714Y69370420D01*
X24685714Y69370420D02*
X24638095Y69465658D01*
X24638095Y69465658D02*
X24590476Y69656134D01*
X24590476Y69656134D02*
X24590476Y69894229D01*
X24590476Y69894229D02*
X24638095Y70084705D01*
X24638095Y70084705D02*
X24685714Y70179943D01*
X24685714Y70179943D02*
X24733333Y70227562D01*
X24733333Y70227562D02*
X24828571Y70275181D01*
X25780952Y70275181D02*
X25876190Y70275181D01*
X25876190Y70275181D02*
X25971428Y70227562D01*
X25971428Y70227562D02*
X26019047Y70179943D01*
X26019047Y70179943D02*
X26066666Y70084705D01*
X26066666Y70084705D02*
X26114285Y69894229D01*
X26114285Y69894229D02*
X26114285Y69656134D01*
X26114285Y69656134D02*
X26066666Y69465658D01*
X26066666Y69465658D02*
X26019047Y69370420D01*
X26019047Y69370420D02*
X25971428Y69322800D01*
X25971428Y69322800D02*
X25876190Y69275181D01*
X25876190Y69275181D02*
X25780952Y69275181D01*
X25780952Y69275181D02*
X25685714Y69322800D01*
X25685714Y69322800D02*
X25638095Y69370420D01*
X25638095Y69370420D02*
X25590476Y69465658D01*
X25590476Y69465658D02*
X25542857Y69656134D01*
X25542857Y69656134D02*
X25542857Y69894229D01*
X25542857Y69894229D02*
X25590476Y70084705D01*
X25590476Y70084705D02*
X25638095Y70179943D01*
X25638095Y70179943D02*
X25685714Y70227562D01*
X25685714Y70227562D02*
X25780952Y70275181D01*
X27304762Y69275181D02*
X27304762Y69941848D01*
X27304762Y69846610D02*
X27352381Y69894229D01*
X27352381Y69894229D02*
X27447619Y69941848D01*
X27447619Y69941848D02*
X27590476Y69941848D01*
X27590476Y69941848D02*
X27685714Y69894229D01*
X27685714Y69894229D02*
X27733333Y69798991D01*
X27733333Y69798991D02*
X27733333Y69275181D01*
X27733333Y69798991D02*
X27780952Y69894229D01*
X27780952Y69894229D02*
X27876190Y69941848D01*
X27876190Y69941848D02*
X28019047Y69941848D01*
X28019047Y69941848D02*
X28114286Y69894229D01*
X28114286Y69894229D02*
X28161905Y69798991D01*
X28161905Y69798991D02*
X28161905Y69275181D01*
X28638095Y69275181D02*
X28638095Y69941848D01*
X28638095Y69846610D02*
X28685714Y69894229D01*
X28685714Y69894229D02*
X28780952Y69941848D01*
X28780952Y69941848D02*
X28923809Y69941848D01*
X28923809Y69941848D02*
X29019047Y69894229D01*
X29019047Y69894229D02*
X29066666Y69798991D01*
X29066666Y69798991D02*
X29066666Y69275181D01*
X29066666Y69798991D02*
X29114285Y69894229D01*
X29114285Y69894229D02*
X29209523Y69941848D01*
X29209523Y69941848D02*
X29352380Y69941848D01*
X29352380Y69941848D02*
X29447619Y69894229D01*
X29447619Y69894229D02*
X29495238Y69798991D01*
X29495238Y69798991D02*
X29495238Y69275181D01*
X22860000Y56380000D02*
X22860000Y69166420D01*
X27940000Y56380000D02*
X27940000Y69166420D01*
X22860000Y68580000D02*
X27940000Y68580000D01*
X22860000Y68580000D02*
X27940000Y68580000D01*
X22860000Y68580000D02*
X23986504Y69166421D01*
X22860000Y68580000D02*
X23986504Y67993579D01*
X27940000Y68580000D02*
X26813496Y67993579D01*
X27940000Y68580000D02*
X26813496Y69166421D01*
X13190953Y77799943D02*
X13238572Y77847562D01*
X13238572Y77847562D02*
X13333810Y77895181D01*
X13333810Y77895181D02*
X13571905Y77895181D01*
X13571905Y77895181D02*
X13667143Y77847562D01*
X13667143Y77847562D02*
X13714762Y77799943D01*
X13714762Y77799943D02*
X13762381Y77704705D01*
X13762381Y77704705D02*
X13762381Y77609467D01*
X13762381Y77609467D02*
X13714762Y77466610D01*
X13714762Y77466610D02*
X13143334Y76895181D01*
X13143334Y76895181D02*
X13762381Y76895181D01*
X14381429Y77895181D02*
X14476667Y77895181D01*
X14476667Y77895181D02*
X14571905Y77847562D01*
X14571905Y77847562D02*
X14619524Y77799943D01*
X14619524Y77799943D02*
X14667143Y77704705D01*
X14667143Y77704705D02*
X14714762Y77514229D01*
X14714762Y77514229D02*
X14714762Y77276134D01*
X14714762Y77276134D02*
X14667143Y77085658D01*
X14667143Y77085658D02*
X14619524Y76990420D01*
X14619524Y76990420D02*
X14571905Y76942800D01*
X14571905Y76942800D02*
X14476667Y76895181D01*
X14476667Y76895181D02*
X14381429Y76895181D01*
X14381429Y76895181D02*
X14286191Y76942800D01*
X14286191Y76942800D02*
X14238572Y76990420D01*
X14238572Y76990420D02*
X14190953Y77085658D01*
X14190953Y77085658D02*
X14143334Y77276134D01*
X14143334Y77276134D02*
X14143334Y77514229D01*
X14143334Y77514229D02*
X14190953Y77704705D01*
X14190953Y77704705D02*
X14238572Y77799943D01*
X14238572Y77799943D02*
X14286191Y77847562D01*
X14286191Y77847562D02*
X14381429Y77895181D01*
X15143334Y76990420D02*
X15190953Y76942800D01*
X15190953Y76942800D02*
X15143334Y76895181D01*
X15143334Y76895181D02*
X15095715Y76942800D01*
X15095715Y76942800D02*
X15143334Y76990420D01*
X15143334Y76990420D02*
X15143334Y76895181D01*
X15524286Y77895181D02*
X16143333Y77895181D01*
X16143333Y77895181D02*
X15810000Y77514229D01*
X15810000Y77514229D02*
X15952857Y77514229D01*
X15952857Y77514229D02*
X16048095Y77466610D01*
X16048095Y77466610D02*
X16095714Y77418991D01*
X16095714Y77418991D02*
X16143333Y77323753D01*
X16143333Y77323753D02*
X16143333Y77085658D01*
X16143333Y77085658D02*
X16095714Y76990420D01*
X16095714Y76990420D02*
X16048095Y76942800D01*
X16048095Y76942800D02*
X15952857Y76895181D01*
X15952857Y76895181D02*
X15667143Y76895181D01*
X15667143Y76895181D02*
X15571905Y76942800D01*
X15571905Y76942800D02*
X15524286Y76990420D01*
X16714762Y77466610D02*
X16619524Y77514229D01*
X16619524Y77514229D02*
X16571905Y77561848D01*
X16571905Y77561848D02*
X16524286Y77657086D01*
X16524286Y77657086D02*
X16524286Y77704705D01*
X16524286Y77704705D02*
X16571905Y77799943D01*
X16571905Y77799943D02*
X16619524Y77847562D01*
X16619524Y77847562D02*
X16714762Y77895181D01*
X16714762Y77895181D02*
X16905238Y77895181D01*
X16905238Y77895181D02*
X17000476Y77847562D01*
X17000476Y77847562D02*
X17048095Y77799943D01*
X17048095Y77799943D02*
X17095714Y77704705D01*
X17095714Y77704705D02*
X17095714Y77657086D01*
X17095714Y77657086D02*
X17048095Y77561848D01*
X17048095Y77561848D02*
X17000476Y77514229D01*
X17000476Y77514229D02*
X16905238Y77466610D01*
X16905238Y77466610D02*
X16714762Y77466610D01*
X16714762Y77466610D02*
X16619524Y77418991D01*
X16619524Y77418991D02*
X16571905Y77371372D01*
X16571905Y77371372D02*
X16524286Y77276134D01*
X16524286Y77276134D02*
X16524286Y77085658D01*
X16524286Y77085658D02*
X16571905Y76990420D01*
X16571905Y76990420D02*
X16619524Y76942800D01*
X16619524Y76942800D02*
X16714762Y76895181D01*
X16714762Y76895181D02*
X16905238Y76895181D01*
X16905238Y76895181D02*
X17000476Y76942800D01*
X17000476Y76942800D02*
X17048095Y76990420D01*
X17048095Y76990420D02*
X17095714Y77085658D01*
X17095714Y77085658D02*
X17095714Y77276134D01*
X17095714Y77276134D02*
X17048095Y77371372D01*
X17048095Y77371372D02*
X17000476Y77418991D01*
X17000476Y77418991D02*
X16905238Y77466610D01*
X17714762Y77895181D02*
X17810000Y77895181D01*
X17810000Y77895181D02*
X17905238Y77847562D01*
X17905238Y77847562D02*
X17952857Y77799943D01*
X17952857Y77799943D02*
X18000476Y77704705D01*
X18000476Y77704705D02*
X18048095Y77514229D01*
X18048095Y77514229D02*
X18048095Y77276134D01*
X18048095Y77276134D02*
X18000476Y77085658D01*
X18000476Y77085658D02*
X17952857Y76990420D01*
X17952857Y76990420D02*
X17905238Y76942800D01*
X17905238Y76942800D02*
X17810000Y76895181D01*
X17810000Y76895181D02*
X17714762Y76895181D01*
X17714762Y76895181D02*
X17619524Y76942800D01*
X17619524Y76942800D02*
X17571905Y76990420D01*
X17571905Y76990420D02*
X17524286Y77085658D01*
X17524286Y77085658D02*
X17476667Y77276134D01*
X17476667Y77276134D02*
X17476667Y77514229D01*
X17476667Y77514229D02*
X17524286Y77704705D01*
X17524286Y77704705D02*
X17571905Y77799943D01*
X17571905Y77799943D02*
X17619524Y77847562D01*
X17619524Y77847562D02*
X17714762Y77895181D01*
X18667143Y77895181D02*
X18762381Y77895181D01*
X18762381Y77895181D02*
X18857619Y77847562D01*
X18857619Y77847562D02*
X18905238Y77799943D01*
X18905238Y77799943D02*
X18952857Y77704705D01*
X18952857Y77704705D02*
X19000476Y77514229D01*
X19000476Y77514229D02*
X19000476Y77276134D01*
X19000476Y77276134D02*
X18952857Y77085658D01*
X18952857Y77085658D02*
X18905238Y76990420D01*
X18905238Y76990420D02*
X18857619Y76942800D01*
X18857619Y76942800D02*
X18762381Y76895181D01*
X18762381Y76895181D02*
X18667143Y76895181D01*
X18667143Y76895181D02*
X18571905Y76942800D01*
X18571905Y76942800D02*
X18524286Y76990420D01*
X18524286Y76990420D02*
X18476667Y77085658D01*
X18476667Y77085658D02*
X18429048Y77276134D01*
X18429048Y77276134D02*
X18429048Y77514229D01*
X18429048Y77514229D02*
X18476667Y77704705D01*
X18476667Y77704705D02*
X18524286Y77799943D01*
X18524286Y77799943D02*
X18571905Y77847562D01*
X18571905Y77847562D02*
X18667143Y77895181D01*
X20190953Y76895181D02*
X20190953Y77561848D01*
X20190953Y77466610D02*
X20238572Y77514229D01*
X20238572Y77514229D02*
X20333810Y77561848D01*
X20333810Y77561848D02*
X20476667Y77561848D01*
X20476667Y77561848D02*
X20571905Y77514229D01*
X20571905Y77514229D02*
X20619524Y77418991D01*
X20619524Y77418991D02*
X20619524Y76895181D01*
X20619524Y77418991D02*
X20667143Y77514229D01*
X20667143Y77514229D02*
X20762381Y77561848D01*
X20762381Y77561848D02*
X20905238Y77561848D01*
X20905238Y77561848D02*
X21000477Y77514229D01*
X21000477Y77514229D02*
X21048096Y77418991D01*
X21048096Y77418991D02*
X21048096Y76895181D01*
X21524286Y76895181D02*
X21524286Y77561848D01*
X21524286Y77466610D02*
X21571905Y77514229D01*
X21571905Y77514229D02*
X21667143Y77561848D01*
X21667143Y77561848D02*
X21810000Y77561848D01*
X21810000Y77561848D02*
X21905238Y77514229D01*
X21905238Y77514229D02*
X21952857Y77418991D01*
X21952857Y77418991D02*
X21952857Y76895181D01*
X21952857Y77418991D02*
X22000476Y77514229D01*
X22000476Y77514229D02*
X22095714Y77561848D01*
X22095714Y77561848D02*
X22238571Y77561848D01*
X22238571Y77561848D02*
X22333810Y77514229D01*
X22333810Y77514229D02*
X22381429Y77418991D01*
X22381429Y77418991D02*
X22381429Y76895181D01*
X7620000Y56380000D02*
X7620000Y76786420D01*
X28000000Y56380000D02*
X28000000Y76786420D01*
X7620000Y76200000D02*
X28000000Y76200000D01*
X7620000Y76200000D02*
X28000000Y76200000D01*
X7620000Y76200000D02*
X8746504Y76786421D01*
X7620000Y76200000D02*
X8746504Y75613579D01*
X28000000Y76200000D02*
X26873496Y75613579D01*
X28000000Y76200000D02*
X26873496Y76786421D01*
X-27095181Y25749763D02*
X-27095181Y25273573D01*
X-27095181Y25273573D02*
X-26618991Y25225954D01*
X-26618991Y25225954D02*
X-26666610Y25273573D01*
X-26666610Y25273573D02*
X-26714229Y25368811D01*
X-26714229Y25368811D02*
X-26714229Y25606906D01*
X-26714229Y25606906D02*
X-26666610Y25702144D01*
X-26666610Y25702144D02*
X-26618991Y25749763D01*
X-26618991Y25749763D02*
X-26523753Y25797382D01*
X-26523753Y25797382D02*
X-26285658Y25797382D01*
X-26285658Y25797382D02*
X-26190420Y25749763D01*
X-26190420Y25749763D02*
X-26142800Y25702144D01*
X-26142800Y25702144D02*
X-26095181Y25606906D01*
X-26095181Y25606906D02*
X-26095181Y25368811D01*
X-26095181Y25368811D02*
X-26142800Y25273573D01*
X-26142800Y25273573D02*
X-26190420Y25225954D01*
X-26095181Y26273573D02*
X-26095181Y26464049D01*
X-26095181Y26464049D02*
X-26142800Y26559287D01*
X-26142800Y26559287D02*
X-26190420Y26606906D01*
X-26190420Y26606906D02*
X-26333277Y26702144D01*
X-26333277Y26702144D02*
X-26523753Y26749763D01*
X-26523753Y26749763D02*
X-26904705Y26749763D01*
X-26904705Y26749763D02*
X-26999943Y26702144D01*
X-26999943Y26702144D02*
X-27047562Y26654525D01*
X-27047562Y26654525D02*
X-27095181Y26559287D01*
X-27095181Y26559287D02*
X-27095181Y26368811D01*
X-27095181Y26368811D02*
X-27047562Y26273573D01*
X-27047562Y26273573D02*
X-26999943Y26225954D01*
X-26999943Y26225954D02*
X-26904705Y26178335D01*
X-26904705Y26178335D02*
X-26666610Y26178335D01*
X-26666610Y26178335D02*
X-26571372Y26225954D01*
X-26571372Y26225954D02*
X-26523753Y26273573D01*
X-26523753Y26273573D02*
X-26476134Y26368811D01*
X-26476134Y26368811D02*
X-26476134Y26559287D01*
X-26476134Y26559287D02*
X-26523753Y26654525D01*
X-26523753Y26654525D02*
X-26571372Y26702144D01*
X-26571372Y26702144D02*
X-26666610Y26749763D01*
X-26190420Y27178335D02*
X-26142800Y27225954D01*
X-26142800Y27225954D02*
X-26095181Y27178335D01*
X-26095181Y27178335D02*
X-26142800Y27130716D01*
X-26142800Y27130716D02*
X-26190420Y27178335D01*
X-26190420Y27178335D02*
X-26095181Y27178335D01*
X-27095181Y28083096D02*
X-27095181Y27892620D01*
X-27095181Y27892620D02*
X-27047562Y27797382D01*
X-27047562Y27797382D02*
X-26999943Y27749763D01*
X-26999943Y27749763D02*
X-26857086Y27654525D01*
X-26857086Y27654525D02*
X-26666610Y27606906D01*
X-26666610Y27606906D02*
X-26285658Y27606906D01*
X-26285658Y27606906D02*
X-26190420Y27654525D01*
X-26190420Y27654525D02*
X-26142800Y27702144D01*
X-26142800Y27702144D02*
X-26095181Y27797382D01*
X-26095181Y27797382D02*
X-26095181Y27987858D01*
X-26095181Y27987858D02*
X-26142800Y28083096D01*
X-26142800Y28083096D02*
X-26190420Y28130715D01*
X-26190420Y28130715D02*
X-26285658Y28178334D01*
X-26285658Y28178334D02*
X-26523753Y28178334D01*
X-26523753Y28178334D02*
X-26618991Y28130715D01*
X-26618991Y28130715D02*
X-26666610Y28083096D01*
X-26666610Y28083096D02*
X-26714229Y27987858D01*
X-26714229Y27987858D02*
X-26714229Y27797382D01*
X-26714229Y27797382D02*
X-26666610Y27702144D01*
X-26666610Y27702144D02*
X-26618991Y27654525D01*
X-26618991Y27654525D02*
X-26523753Y27606906D01*
X-26095181Y28654525D02*
X-26095181Y28845001D01*
X-26095181Y28845001D02*
X-26142800Y28940239D01*
X-26142800Y28940239D02*
X-26190420Y28987858D01*
X-26190420Y28987858D02*
X-26333277Y29083096D01*
X-26333277Y29083096D02*
X-26523753Y29130715D01*
X-26523753Y29130715D02*
X-26904705Y29130715D01*
X-26904705Y29130715D02*
X-26999943Y29083096D01*
X-26999943Y29083096D02*
X-27047562Y29035477D01*
X-27047562Y29035477D02*
X-27095181Y28940239D01*
X-27095181Y28940239D02*
X-27095181Y28749763D01*
X-27095181Y28749763D02*
X-27047562Y28654525D01*
X-27047562Y28654525D02*
X-26999943Y28606906D01*
X-26999943Y28606906D02*
X-26904705Y28559287D01*
X-26904705Y28559287D02*
X-26666610Y28559287D01*
X-26666610Y28559287D02*
X-26571372Y28606906D01*
X-26571372Y28606906D02*
X-26523753Y28654525D01*
X-26523753Y28654525D02*
X-26476134Y28749763D01*
X-26476134Y28749763D02*
X-26476134Y28940239D01*
X-26476134Y28940239D02*
X-26523753Y29035477D01*
X-26523753Y29035477D02*
X-26571372Y29083096D01*
X-26571372Y29083096D02*
X-26666610Y29130715D01*
X-27095181Y29749763D02*
X-27095181Y29845001D01*
X-27095181Y29845001D02*
X-27047562Y29940239D01*
X-27047562Y29940239D02*
X-26999943Y29987858D01*
X-26999943Y29987858D02*
X-26904705Y30035477D01*
X-26904705Y30035477D02*
X-26714229Y30083096D01*
X-26714229Y30083096D02*
X-26476134Y30083096D01*
X-26476134Y30083096D02*
X-26285658Y30035477D01*
X-26285658Y30035477D02*
X-26190420Y29987858D01*
X-26190420Y29987858D02*
X-26142800Y29940239D01*
X-26142800Y29940239D02*
X-26095181Y29845001D01*
X-26095181Y29845001D02*
X-26095181Y29749763D01*
X-26095181Y29749763D02*
X-26142800Y29654525D01*
X-26142800Y29654525D02*
X-26190420Y29606906D01*
X-26190420Y29606906D02*
X-26285658Y29559287D01*
X-26285658Y29559287D02*
X-26476134Y29511668D01*
X-26476134Y29511668D02*
X-26714229Y29511668D01*
X-26714229Y29511668D02*
X-26904705Y29559287D01*
X-26904705Y29559287D02*
X-26999943Y29606906D01*
X-26999943Y29606906D02*
X-27047562Y29654525D01*
X-27047562Y29654525D02*
X-27095181Y29749763D01*
X-27095181Y30702144D02*
X-27095181Y30797382D01*
X-27095181Y30797382D02*
X-27047562Y30892620D01*
X-27047562Y30892620D02*
X-26999943Y30940239D01*
X-26999943Y30940239D02*
X-26904705Y30987858D01*
X-26904705Y30987858D02*
X-26714229Y31035477D01*
X-26714229Y31035477D02*
X-26476134Y31035477D01*
X-26476134Y31035477D02*
X-26285658Y30987858D01*
X-26285658Y30987858D02*
X-26190420Y30940239D01*
X-26190420Y30940239D02*
X-26142800Y30892620D01*
X-26142800Y30892620D02*
X-26095181Y30797382D01*
X-26095181Y30797382D02*
X-26095181Y30702144D01*
X-26095181Y30702144D02*
X-26142800Y30606906D01*
X-26142800Y30606906D02*
X-26190420Y30559287D01*
X-26190420Y30559287D02*
X-26285658Y30511668D01*
X-26285658Y30511668D02*
X-26476134Y30464049D01*
X-26476134Y30464049D02*
X-26714229Y30464049D01*
X-26714229Y30464049D02*
X-26904705Y30511668D01*
X-26904705Y30511668D02*
X-26999943Y30559287D01*
X-26999943Y30559287D02*
X-27047562Y30606906D01*
X-27047562Y30606906D02*
X-27095181Y30702144D01*
X-26095181Y32225954D02*
X-26761848Y32225954D01*
X-26666610Y32225954D02*
X-26714229Y32273573D01*
X-26714229Y32273573D02*
X-26761848Y32368811D01*
X-26761848Y32368811D02*
X-26761848Y32511668D01*
X-26761848Y32511668D02*
X-26714229Y32606906D01*
X-26714229Y32606906D02*
X-26618991Y32654525D01*
X-26618991Y32654525D02*
X-26095181Y32654525D01*
X-26618991Y32654525D02*
X-26714229Y32702144D01*
X-26714229Y32702144D02*
X-26761848Y32797382D01*
X-26761848Y32797382D02*
X-26761848Y32940239D01*
X-26761848Y32940239D02*
X-26714229Y33035478D01*
X-26714229Y33035478D02*
X-26618991Y33083097D01*
X-26618991Y33083097D02*
X-26095181Y33083097D01*
X-26095181Y33559287D02*
X-26761848Y33559287D01*
X-26666610Y33559287D02*
X-26714229Y33606906D01*
X-26714229Y33606906D02*
X-26761848Y33702144D01*
X-26761848Y33702144D02*
X-26761848Y33845001D01*
X-26761848Y33845001D02*
X-26714229Y33940239D01*
X-26714229Y33940239D02*
X-26618991Y33987858D01*
X-26618991Y33987858D02*
X-26095181Y33987858D01*
X-26618991Y33987858D02*
X-26714229Y34035477D01*
X-26714229Y34035477D02*
X-26761848Y34130715D01*
X-26761848Y34130715D02*
X-26761848Y34273572D01*
X-26761848Y34273572D02*
X-26714229Y34368811D01*
X-26714229Y34368811D02*
X-26618991Y34416430D01*
X-26618991Y34416430D02*
X-26095181Y34416430D01*
X-13200000Y0D02*
X-25986420Y0D01*
X-13200000Y59690000D02*
X-25986420Y59690000D01*
X-25400000Y0D02*
X-25400000Y59690000D01*
X-25400000Y0D02*
X-25400000Y59690000D01*
X-25400000Y0D02*
X-25986421Y1126504D01*
X-25400000Y0D02*
X-24813579Y1126504D01*
X-25400000Y59690000D02*
X-24813579Y58563496D01*
X-25400000Y59690000D02*
X-25986421Y58563496D01*
X13113334Y84245181D02*
X13732381Y84245181D01*
X13732381Y84245181D02*
X13399048Y83864229D01*
X13399048Y83864229D02*
X13541905Y83864229D01*
X13541905Y83864229D02*
X13637143Y83816610D01*
X13637143Y83816610D02*
X13684762Y83768991D01*
X13684762Y83768991D02*
X13732381Y83673753D01*
X13732381Y83673753D02*
X13732381Y83435658D01*
X13732381Y83435658D02*
X13684762Y83340420D01*
X13684762Y83340420D02*
X13637143Y83292800D01*
X13637143Y83292800D02*
X13541905Y83245181D01*
X13541905Y83245181D02*
X13256191Y83245181D01*
X13256191Y83245181D02*
X13160953Y83292800D01*
X13160953Y83292800D02*
X13113334Y83340420D01*
X14637143Y84245181D02*
X14160953Y84245181D01*
X14160953Y84245181D02*
X14113334Y83768991D01*
X14113334Y83768991D02*
X14160953Y83816610D01*
X14160953Y83816610D02*
X14256191Y83864229D01*
X14256191Y83864229D02*
X14494286Y83864229D01*
X14494286Y83864229D02*
X14589524Y83816610D01*
X14589524Y83816610D02*
X14637143Y83768991D01*
X14637143Y83768991D02*
X14684762Y83673753D01*
X14684762Y83673753D02*
X14684762Y83435658D01*
X14684762Y83435658D02*
X14637143Y83340420D01*
X14637143Y83340420D02*
X14589524Y83292800D01*
X14589524Y83292800D02*
X14494286Y83245181D01*
X14494286Y83245181D02*
X14256191Y83245181D01*
X14256191Y83245181D02*
X14160953Y83292800D01*
X14160953Y83292800D02*
X14113334Y83340420D01*
X15113334Y83340420D02*
X15160953Y83292800D01*
X15160953Y83292800D02*
X15113334Y83245181D01*
X15113334Y83245181D02*
X15065715Y83292800D01*
X15065715Y83292800D02*
X15113334Y83340420D01*
X15113334Y83340420D02*
X15113334Y83245181D01*
X16065714Y84245181D02*
X15589524Y84245181D01*
X15589524Y84245181D02*
X15541905Y83768991D01*
X15541905Y83768991D02*
X15589524Y83816610D01*
X15589524Y83816610D02*
X15684762Y83864229D01*
X15684762Y83864229D02*
X15922857Y83864229D01*
X15922857Y83864229D02*
X16018095Y83816610D01*
X16018095Y83816610D02*
X16065714Y83768991D01*
X16065714Y83768991D02*
X16113333Y83673753D01*
X16113333Y83673753D02*
X16113333Y83435658D01*
X16113333Y83435658D02*
X16065714Y83340420D01*
X16065714Y83340420D02*
X16018095Y83292800D01*
X16018095Y83292800D02*
X15922857Y83245181D01*
X15922857Y83245181D02*
X15684762Y83245181D01*
X15684762Y83245181D02*
X15589524Y83292800D01*
X15589524Y83292800D02*
X15541905Y83340420D01*
X16970476Y84245181D02*
X16780000Y84245181D01*
X16780000Y84245181D02*
X16684762Y84197562D01*
X16684762Y84197562D02*
X16637143Y84149943D01*
X16637143Y84149943D02*
X16541905Y84007086D01*
X16541905Y84007086D02*
X16494286Y83816610D01*
X16494286Y83816610D02*
X16494286Y83435658D01*
X16494286Y83435658D02*
X16541905Y83340420D01*
X16541905Y83340420D02*
X16589524Y83292800D01*
X16589524Y83292800D02*
X16684762Y83245181D01*
X16684762Y83245181D02*
X16875238Y83245181D01*
X16875238Y83245181D02*
X16970476Y83292800D01*
X16970476Y83292800D02*
X17018095Y83340420D01*
X17018095Y83340420D02*
X17065714Y83435658D01*
X17065714Y83435658D02*
X17065714Y83673753D01*
X17065714Y83673753D02*
X17018095Y83768991D01*
X17018095Y83768991D02*
X16970476Y83816610D01*
X16970476Y83816610D02*
X16875238Y83864229D01*
X16875238Y83864229D02*
X16684762Y83864229D01*
X16684762Y83864229D02*
X16589524Y83816610D01*
X16589524Y83816610D02*
X16541905Y83768991D01*
X16541905Y83768991D02*
X16494286Y83673753D01*
X17684762Y84245181D02*
X17780000Y84245181D01*
X17780000Y84245181D02*
X17875238Y84197562D01*
X17875238Y84197562D02*
X17922857Y84149943D01*
X17922857Y84149943D02*
X17970476Y84054705D01*
X17970476Y84054705D02*
X18018095Y83864229D01*
X18018095Y83864229D02*
X18018095Y83626134D01*
X18018095Y83626134D02*
X17970476Y83435658D01*
X17970476Y83435658D02*
X17922857Y83340420D01*
X17922857Y83340420D02*
X17875238Y83292800D01*
X17875238Y83292800D02*
X17780000Y83245181D01*
X17780000Y83245181D02*
X17684762Y83245181D01*
X17684762Y83245181D02*
X17589524Y83292800D01*
X17589524Y83292800D02*
X17541905Y83340420D01*
X17541905Y83340420D02*
X17494286Y83435658D01*
X17494286Y83435658D02*
X17446667Y83626134D01*
X17446667Y83626134D02*
X17446667Y83864229D01*
X17446667Y83864229D02*
X17494286Y84054705D01*
X17494286Y84054705D02*
X17541905Y84149943D01*
X17541905Y84149943D02*
X17589524Y84197562D01*
X17589524Y84197562D02*
X17684762Y84245181D01*
X18637143Y84245181D02*
X18732381Y84245181D01*
X18732381Y84245181D02*
X18827619Y84197562D01*
X18827619Y84197562D02*
X18875238Y84149943D01*
X18875238Y84149943D02*
X18922857Y84054705D01*
X18922857Y84054705D02*
X18970476Y83864229D01*
X18970476Y83864229D02*
X18970476Y83626134D01*
X18970476Y83626134D02*
X18922857Y83435658D01*
X18922857Y83435658D02*
X18875238Y83340420D01*
X18875238Y83340420D02*
X18827619Y83292800D01*
X18827619Y83292800D02*
X18732381Y83245181D01*
X18732381Y83245181D02*
X18637143Y83245181D01*
X18637143Y83245181D02*
X18541905Y83292800D01*
X18541905Y83292800D02*
X18494286Y83340420D01*
X18494286Y83340420D02*
X18446667Y83435658D01*
X18446667Y83435658D02*
X18399048Y83626134D01*
X18399048Y83626134D02*
X18399048Y83864229D01*
X18399048Y83864229D02*
X18446667Y84054705D01*
X18446667Y84054705D02*
X18494286Y84149943D01*
X18494286Y84149943D02*
X18541905Y84197562D01*
X18541905Y84197562D02*
X18637143Y84245181D01*
X20160953Y83245181D02*
X20160953Y83911848D01*
X20160953Y83816610D02*
X20208572Y83864229D01*
X20208572Y83864229D02*
X20303810Y83911848D01*
X20303810Y83911848D02*
X20446667Y83911848D01*
X20446667Y83911848D02*
X20541905Y83864229D01*
X20541905Y83864229D02*
X20589524Y83768991D01*
X20589524Y83768991D02*
X20589524Y83245181D01*
X20589524Y83768991D02*
X20637143Y83864229D01*
X20637143Y83864229D02*
X20732381Y83911848D01*
X20732381Y83911848D02*
X20875238Y83911848D01*
X20875238Y83911848D02*
X20970477Y83864229D01*
X20970477Y83864229D02*
X21018096Y83768991D01*
X21018096Y83768991D02*
X21018096Y83245181D01*
X21494286Y83245181D02*
X21494286Y83911848D01*
X21494286Y83816610D02*
X21541905Y83864229D01*
X21541905Y83864229D02*
X21637143Y83911848D01*
X21637143Y83911848D02*
X21780000Y83911848D01*
X21780000Y83911848D02*
X21875238Y83864229D01*
X21875238Y83864229D02*
X21922857Y83768991D01*
X21922857Y83768991D02*
X21922857Y83245181D01*
X21922857Y83768991D02*
X21970476Y83864229D01*
X21970476Y83864229D02*
X22065714Y83911848D01*
X22065714Y83911848D02*
X22208571Y83911848D01*
X22208571Y83911848D02*
X22303810Y83864229D01*
X22303810Y83864229D02*
X22351429Y83768991D01*
X22351429Y83768991D02*
X22351429Y83245181D01*
X0Y70350000D02*
X0Y83136420D01*
X35560000Y70350000D02*
X35560000Y83136420D01*
X0Y82550000D02*
X35560000Y82550000D01*
X0Y82550000D02*
X35560000Y82550000D01*
X0Y82550000D02*
X1126504Y83136421D01*
X0Y82550000D02*
X1126504Y81963579D01*
X35560000Y82550000D02*
X34433496Y81963579D01*
X35560000Y82550000D02*
X34433496Y83136421D01*
M02*
