%TF.GenerationSoftware,KiCad,Pcbnew,8.0.4*%
%TF.CreationDate,2024-11-26T16:04:15+06:30*%
%TF.ProjectId,RP2040_DevBoard,52503230-3430-45f4-9465-76426f617264,1.0*%
%TF.SameCoordinates,PX791ddc0PY791ddc0*%
%TF.FileFunction,Legend,Bot*%
%TF.FilePolarity,Positive*%
%FSLAX46Y46*%
G04 Gerber Fmt 4.6, Leading zero omitted, Abs format (unit mm)*
G04 Created by KiCad (PCBNEW 8.0.4) date 2024-11-26 16:04:15*
%MOMM*%
%LPD*%
G01*
G04 APERTURE LIST*
%ADD10C,0.000000*%
%ADD11C,0.300000*%
%ADD12C,0.120000*%
G04 APERTURE END LIST*
D10*
G36*
X18199906Y48108118D02*
G01*
X18201783Y48107978D01*
X18203652Y48107747D01*
X18205509Y48107429D01*
X18207351Y48107024D01*
X18209176Y48106536D01*
X18210981Y48105967D01*
X18212763Y48105319D01*
X18214518Y48104594D01*
X18216246Y48103795D01*
X18219603Y48101983D01*
X18222812Y48099901D01*
X18225850Y48097567D01*
X18228696Y48095001D01*
X18231326Y48092221D01*
X18233717Y48089244D01*
X18234817Y48087688D01*
X18235849Y48086090D01*
X18236810Y48084452D01*
X18237698Y48082777D01*
X18238509Y48081066D01*
X18239241Y48079323D01*
X18239891Y48077549D01*
X18240457Y48075747D01*
X18240935Y48073919D01*
X18241322Y48072067D01*
X18397719Y47231883D01*
X18398588Y47228158D01*
X18399786Y47224418D01*
X18401291Y47220689D01*
X18403082Y47216995D01*
X18405138Y47213360D01*
X18407437Y47209810D01*
X18409960Y47206369D01*
X18412684Y47203061D01*
X18415588Y47199912D01*
X18418651Y47196945D01*
X18421853Y47194185D01*
X18425172Y47191658D01*
X18428587Y47189387D01*
X18432077Y47187397D01*
X18435621Y47185714D01*
X18439198Y47184360D01*
X19002191Y46953864D01*
X19005691Y46952317D01*
X19009401Y46951024D01*
X19013289Y46949985D01*
X19017322Y46949197D01*
X19021469Y46948657D01*
X19025696Y46948363D01*
X19029971Y46948313D01*
X19034263Y46948504D01*
X19038537Y46948933D01*
X19042763Y46949599D01*
X19046908Y46950498D01*
X19050939Y46951629D01*
X19054824Y46952989D01*
X19058531Y46954575D01*
X19062026Y46956386D01*
X19065279Y46958418D01*
X19767033Y47440108D01*
X19768610Y47441139D01*
X19770235Y47442090D01*
X19771903Y47442960D01*
X19773611Y47443752D01*
X19775356Y47444464D01*
X19777134Y47445097D01*
X19780774Y47446127D01*
X19784502Y47446846D01*
X19788289Y47447255D01*
X19792108Y47447358D01*
X19795927Y47447156D01*
X19799720Y47446652D01*
X19803457Y47445849D01*
X19807109Y47444750D01*
X19810647Y47443356D01*
X19814042Y47441671D01*
X19815677Y47440720D01*
X19817266Y47439697D01*
X19818805Y47438602D01*
X19820289Y47437436D01*
X19821717Y47436200D01*
X19823084Y47434892D01*
X20414143Y46843750D01*
X20415443Y46842376D01*
X20416672Y46840941D01*
X20417831Y46839449D01*
X20418918Y46837905D01*
X20419934Y46836310D01*
X20420878Y46834670D01*
X20421750Y46832987D01*
X20422549Y46831265D01*
X20423277Y46829508D01*
X20423931Y46827719D01*
X20425021Y46824060D01*
X20425816Y46820318D01*
X20426314Y46816521D01*
X20426513Y46812698D01*
X20426412Y46808877D01*
X20426007Y46805088D01*
X20425297Y46801359D01*
X20424827Y46799525D01*
X20424280Y46797718D01*
X20423655Y46795940D01*
X20422952Y46794195D01*
X20422172Y46792486D01*
X20421313Y46790818D01*
X20420376Y46789193D01*
X20419360Y46787616D01*
X19946197Y46097702D01*
X19944154Y46094438D01*
X19942341Y46090937D01*
X19940762Y46087232D01*
X19939417Y46083354D01*
X19938308Y46079335D01*
X19937437Y46075207D01*
X19936806Y46071000D01*
X19936417Y46066748D01*
X19936271Y46062481D01*
X19936371Y46058231D01*
X19936718Y46054029D01*
X19937314Y46049908D01*
X19938160Y46045900D01*
X19939260Y46042034D01*
X19940613Y46038345D01*
X19942223Y46034862D01*
X20191182Y45453986D01*
X20191854Y45452202D01*
X20192610Y45450424D01*
X20194363Y45446893D01*
X20196416Y45443414D01*
X20198744Y45440010D01*
X20201325Y45436700D01*
X20204131Y45433506D01*
X20207141Y45430451D01*
X20210328Y45427554D01*
X20213668Y45424838D01*
X20217137Y45422324D01*
X20220710Y45420033D01*
X20224364Y45417987D01*
X20228072Y45416206D01*
X20231811Y45414713D01*
X20233685Y45414080D01*
X20235557Y45413528D01*
X20237425Y45413057D01*
X20239284Y45412673D01*
X21051401Y45261575D01*
X21051318Y45261658D01*
X21053162Y45261263D01*
X21054983Y45260779D01*
X21056779Y45260208D01*
X21058547Y45259553D01*
X21060284Y45258816D01*
X21061989Y45258001D01*
X21063659Y45257111D01*
X21065292Y45256147D01*
X21066885Y45255113D01*
X21068437Y45254011D01*
X21069944Y45252845D01*
X21071405Y45251616D01*
X21072816Y45250328D01*
X21074177Y45248983D01*
X21075484Y45247584D01*
X21076735Y45246134D01*
X21077928Y45244636D01*
X21079061Y45243091D01*
X21080130Y45241504D01*
X21081135Y45239876D01*
X21082071Y45238211D01*
X21082938Y45236511D01*
X21083733Y45234779D01*
X21084453Y45233017D01*
X21085096Y45231228D01*
X21085660Y45229416D01*
X21086143Y45227582D01*
X21086541Y45225730D01*
X21086854Y45223862D01*
X21087078Y45221982D01*
X21087210Y45220090D01*
X21087250Y45218192D01*
X21087168Y44382148D01*
X21087121Y44380263D01*
X21086981Y44378384D01*
X21086750Y44376513D01*
X21086432Y44374653D01*
X21086027Y44372807D01*
X21085540Y44370978D01*
X21084971Y44369169D01*
X21084323Y44367382D01*
X21082800Y44363888D01*
X21080990Y44360518D01*
X21078910Y44357297D01*
X21076580Y44354246D01*
X21074019Y44351390D01*
X21071244Y44348751D01*
X21068274Y44346352D01*
X21066722Y44345249D01*
X21065128Y44344216D01*
X21063494Y44343253D01*
X21061824Y44342366D01*
X21060119Y44341555D01*
X21058381Y44340825D01*
X21056614Y44340178D01*
X21054818Y44339617D01*
X21052997Y44339145D01*
X21051153Y44338764D01*
X20258989Y44191310D01*
X20257123Y44190924D01*
X20255254Y44190453D01*
X20251515Y44189262D01*
X20247795Y44187760D01*
X20244120Y44185967D01*
X20240511Y44183906D01*
X20236993Y44181597D01*
X20233589Y44179063D01*
X20230322Y44176324D01*
X20227216Y44173404D01*
X20224295Y44170322D01*
X20221582Y44167102D01*
X20219101Y44163763D01*
X20216875Y44160329D01*
X20214927Y44156820D01*
X20213282Y44153258D01*
X20211963Y44149665D01*
X19964660Y43531698D01*
X19963142Y43528184D01*
X19961875Y43524464D01*
X19960857Y43520569D01*
X19960087Y43516531D01*
X19959562Y43512383D01*
X19959280Y43508156D01*
X19959238Y43503883D01*
X19959434Y43499595D01*
X19959866Y43495325D01*
X19960531Y43491104D01*
X19961428Y43486964D01*
X19962553Y43482938D01*
X19963905Y43479058D01*
X19965481Y43475355D01*
X19967279Y43471861D01*
X19969297Y43468610D01*
X20419276Y42812806D01*
X20420307Y42811221D01*
X20421258Y42809590D01*
X20422129Y42807915D01*
X20422920Y42806200D01*
X20423632Y42804449D01*
X20424265Y42802666D01*
X20425296Y42799016D01*
X20426014Y42795278D01*
X20426424Y42791482D01*
X20426526Y42787656D01*
X20426324Y42783828D01*
X20425820Y42780028D01*
X20425018Y42776283D01*
X20423918Y42772623D01*
X20422525Y42769076D01*
X20420840Y42765670D01*
X20419888Y42764030D01*
X20418865Y42762435D01*
X20417771Y42760890D01*
X20416605Y42759399D01*
X20415368Y42757964D01*
X20414060Y42756590D01*
X19822918Y42165447D01*
X19821559Y42164155D01*
X19820138Y42162932D01*
X19818660Y42161779D01*
X19817127Y42160696D01*
X19815544Y42159685D01*
X19813914Y42158744D01*
X19812241Y42157874D01*
X19810527Y42157076D01*
X19808778Y42156350D01*
X19806996Y42155696D01*
X19803349Y42154606D01*
X19799616Y42153809D01*
X19795824Y42153308D01*
X19792003Y42153104D01*
X19788182Y42153201D01*
X19784390Y42153600D01*
X19780655Y42154305D01*
X19778818Y42154773D01*
X19777006Y42155318D01*
X19775223Y42155941D01*
X19773473Y42156642D01*
X19771758Y42157421D01*
X19770083Y42158279D01*
X19768452Y42159215D01*
X19766867Y42160231D01*
X19122737Y42602429D01*
X19119506Y42604447D01*
X19116043Y42606216D01*
X19112379Y42607735D01*
X19108546Y42609004D01*
X19104577Y42610023D01*
X19100503Y42610790D01*
X19096355Y42611305D01*
X19092166Y42611567D01*
X19087967Y42611576D01*
X19083791Y42611331D01*
X19079668Y42610832D01*
X19075631Y42610078D01*
X19071711Y42609068D01*
X19067940Y42607802D01*
X19064351Y42606279D01*
X19060974Y42604499D01*
X18776911Y42452821D01*
X18775211Y42452016D01*
X18773497Y42451308D01*
X18771771Y42450696D01*
X18770038Y42450179D01*
X18768300Y42449756D01*
X18766559Y42449425D01*
X18764819Y42449186D01*
X18763083Y42449038D01*
X18761354Y42448979D01*
X18759634Y42449009D01*
X18757926Y42449126D01*
X18756235Y42449330D01*
X18754561Y42449620D01*
X18752910Y42449993D01*
X18751282Y42450451D01*
X18749682Y42450990D01*
X18748113Y42451611D01*
X18746576Y42452311D01*
X18745076Y42453092D01*
X18743615Y42453950D01*
X18742196Y42454885D01*
X18740822Y42455896D01*
X18739497Y42456982D01*
X18738222Y42458143D01*
X18737001Y42459376D01*
X18735837Y42460681D01*
X18734733Y42462056D01*
X18733692Y42463502D01*
X18732717Y42465016D01*
X18731810Y42466598D01*
X18730976Y42468246D01*
X18730216Y42469960D01*
X18144537Y43885637D01*
X18143861Y43887398D01*
X18143274Y43889186D01*
X18142775Y43890997D01*
X18142364Y43892828D01*
X18142039Y43894675D01*
X18141799Y43896536D01*
X18141570Y43900284D01*
X18141668Y43904044D01*
X18142084Y43907791D01*
X18142809Y43911496D01*
X18143834Y43915132D01*
X18145150Y43918674D01*
X18146748Y43922094D01*
X18148619Y43925365D01*
X18150755Y43928460D01*
X18153145Y43931352D01*
X18154433Y43932713D01*
X18155782Y43934014D01*
X18157190Y43935251D01*
X18158656Y43936420D01*
X18160179Y43937518D01*
X18161758Y43938542D01*
X18232877Y43982091D01*
X18237991Y43985361D01*
X18243452Y43989091D01*
X18249157Y43993200D01*
X18255004Y43997605D01*
X18260890Y44002223D01*
X18266711Y44006972D01*
X18272366Y44011770D01*
X18277751Y44016533D01*
X18324811Y44048754D01*
X18369725Y44083736D01*
X18412369Y44121359D01*
X18452620Y44161500D01*
X18490358Y44204038D01*
X18525457Y44248852D01*
X18557796Y44295819D01*
X18587252Y44344818D01*
X18613703Y44395728D01*
X18625762Y44421861D01*
X18637024Y44448426D01*
X18647474Y44475408D01*
X18657095Y44502791D01*
X18665873Y44530561D01*
X18673792Y44558702D01*
X18680836Y44587199D01*
X18686992Y44616037D01*
X18692242Y44645200D01*
X18696572Y44674674D01*
X18699967Y44704443D01*
X18702410Y44734491D01*
X18703888Y44764805D01*
X18704384Y44795368D01*
X18703181Y44842950D01*
X18699611Y44889907D01*
X18693732Y44936181D01*
X18685603Y44981715D01*
X18675280Y45026450D01*
X18662823Y45070327D01*
X18648290Y45113290D01*
X18631738Y45155279D01*
X18613226Y45196237D01*
X18592811Y45236105D01*
X18570552Y45274826D01*
X18546508Y45312341D01*
X18520735Y45348593D01*
X18493292Y45383522D01*
X18464238Y45417072D01*
X18433630Y45449184D01*
X18401526Y45479799D01*
X18367985Y45508861D01*
X18333064Y45536310D01*
X18296822Y45562089D01*
X18259317Y45586139D01*
X18220607Y45608403D01*
X18180749Y45628822D01*
X18139803Y45647339D01*
X18097825Y45663894D01*
X18054875Y45678431D01*
X18011011Y45690890D01*
X17966289Y45701215D01*
X17920769Y45709346D01*
X17874509Y45715226D01*
X17827567Y45718797D01*
X17780000Y45720000D01*
X17732433Y45718797D01*
X17685490Y45715226D01*
X17639230Y45709346D01*
X17593710Y45701215D01*
X17548989Y45690890D01*
X17505124Y45678431D01*
X17462174Y45663894D01*
X17420197Y45647339D01*
X17379250Y45628822D01*
X17339393Y45608403D01*
X17300683Y45586139D01*
X17263177Y45562089D01*
X17226935Y45536310D01*
X17192015Y45508861D01*
X17158473Y45479799D01*
X17126370Y45449184D01*
X17095761Y45417072D01*
X17066707Y45383522D01*
X17039264Y45348593D01*
X17013492Y45312341D01*
X16989447Y45274826D01*
X16967188Y45236105D01*
X16946774Y45196237D01*
X16928261Y45155279D01*
X16911709Y45113290D01*
X16897176Y45070327D01*
X16884719Y45026450D01*
X16874397Y44981715D01*
X16866267Y44936181D01*
X16860388Y44889907D01*
X16856818Y44842950D01*
X16855616Y44795368D01*
X16857589Y44734491D01*
X16863427Y44674674D01*
X16873008Y44616037D01*
X16886208Y44558702D01*
X16902904Y44502791D01*
X16922975Y44448426D01*
X16946297Y44395728D01*
X16972747Y44344818D01*
X17002203Y44295819D01*
X17034542Y44248852D01*
X17069642Y44204038D01*
X17107379Y44161500D01*
X17147631Y44121359D01*
X17190275Y44083736D01*
X17235188Y44048754D01*
X17282248Y44016533D01*
X17287657Y44011746D01*
X17293324Y44006937D01*
X17299150Y44002187D01*
X17305037Y43997574D01*
X17310884Y43993178D01*
X17316594Y43989080D01*
X17322067Y43985358D01*
X17327205Y43982091D01*
X17398324Y43938542D01*
X17399910Y43937518D01*
X17401440Y43936420D01*
X17402911Y43935251D01*
X17404324Y43934014D01*
X17405676Y43932713D01*
X17406968Y43931352D01*
X17408197Y43929933D01*
X17409362Y43928460D01*
X17410464Y43926936D01*
X17411500Y43925365D01*
X17412469Y43923750D01*
X17413371Y43922094D01*
X17414204Y43920401D01*
X17414967Y43918674D01*
X17415659Y43916917D01*
X17416280Y43915133D01*
X17416827Y43913324D01*
X17417300Y43911496D01*
X17417698Y43909650D01*
X17418020Y43907791D01*
X17418265Y43905921D01*
X17418431Y43904045D01*
X17418518Y43902164D01*
X17418524Y43900284D01*
X17418449Y43898407D01*
X17418291Y43896536D01*
X17418049Y43894675D01*
X17417722Y43892828D01*
X17417309Y43890997D01*
X17416810Y43889186D01*
X17416222Y43887398D01*
X17415545Y43885637D01*
X16829784Y42470043D01*
X16829024Y42468328D01*
X16828188Y42466678D01*
X16827281Y42465094D01*
X16826304Y42463578D01*
X16825261Y42462129D01*
X16824155Y42460749D01*
X16822989Y42459440D01*
X16821766Y42458202D01*
X16820489Y42457037D01*
X16819161Y42455946D01*
X16817784Y42454929D01*
X16816363Y42453989D01*
X16814899Y42453126D01*
X16813397Y42452341D01*
X16811858Y42451636D01*
X16810286Y42451011D01*
X16808684Y42450468D01*
X16807056Y42450008D01*
X16805403Y42449632D01*
X16803728Y42449341D01*
X16802036Y42449136D01*
X16800329Y42449019D01*
X16798610Y42448990D01*
X16796882Y42449051D01*
X16795147Y42449203D01*
X16793410Y42449447D01*
X16791672Y42449783D01*
X16789938Y42450215D01*
X16788209Y42450741D01*
X16786489Y42451364D01*
X16784781Y42452085D01*
X16783089Y42452904D01*
X16499026Y42604581D01*
X16495664Y42606347D01*
X16492087Y42607857D01*
X16488327Y42609112D01*
X16484416Y42610113D01*
X16480385Y42610859D01*
X16476267Y42611351D01*
X16472093Y42611591D01*
X16467896Y42611577D01*
X16463706Y42611312D01*
X16459555Y42610794D01*
X16455476Y42610025D01*
X16451500Y42609006D01*
X16447659Y42607736D01*
X16443984Y42606216D01*
X16440508Y42604447D01*
X16437262Y42602429D01*
X15793133Y42160231D01*
X15791548Y42159208D01*
X15789916Y42158264D01*
X15788241Y42157400D01*
X15786527Y42156615D01*
X15784776Y42155908D01*
X15782993Y42155280D01*
X15779344Y42154259D01*
X15775607Y42153547D01*
X15771813Y42153142D01*
X15767990Y42153043D01*
X15764165Y42153246D01*
X15760369Y42153748D01*
X15756630Y42154548D01*
X15752976Y42155643D01*
X15749437Y42157029D01*
X15746041Y42158706D01*
X15744406Y42159652D01*
X15742817Y42160669D01*
X15741278Y42161758D01*
X15739793Y42162917D01*
X15738366Y42164147D01*
X15736999Y42165447D01*
X15145857Y42756590D01*
X15144557Y42757964D01*
X15143327Y42759399D01*
X15142167Y42760890D01*
X15141079Y42762435D01*
X15140061Y42764030D01*
X15139115Y42765670D01*
X15138241Y42767354D01*
X15137439Y42769076D01*
X15136709Y42770834D01*
X15136052Y42772623D01*
X15134958Y42776283D01*
X15134158Y42780028D01*
X15133655Y42783829D01*
X15133452Y42787656D01*
X15133552Y42791483D01*
X15133956Y42795279D01*
X15134273Y42797156D01*
X15134668Y42799016D01*
X15135140Y42800854D01*
X15135690Y42802666D01*
X15136318Y42804449D01*
X15137024Y42806200D01*
X15137809Y42807915D01*
X15138674Y42809590D01*
X15139617Y42811221D01*
X15140641Y42812806D01*
X15590621Y43468693D01*
X15592653Y43471931D01*
X15594464Y43475414D01*
X15596051Y43479110D01*
X15597411Y43482986D01*
X15598543Y43487010D01*
X15599445Y43491150D01*
X15600113Y43495373D01*
X15600546Y43499647D01*
X15600741Y43503939D01*
X15600696Y43508217D01*
X15600409Y43512449D01*
X15599877Y43516602D01*
X15599098Y43520645D01*
X15598070Y43524543D01*
X15596791Y43528266D01*
X15595257Y43531781D01*
X15347954Y44149748D01*
X15347344Y44151547D01*
X15346648Y44153342D01*
X15345869Y44155129D01*
X15345010Y44156906D01*
X15343066Y44160419D01*
X15340839Y44163858D01*
X15338355Y44167201D01*
X15335636Y44170427D01*
X15332708Y44173513D01*
X15329595Y44176438D01*
X15326321Y44179180D01*
X15322910Y44181716D01*
X15319386Y44184025D01*
X15315774Y44186085D01*
X15312098Y44187873D01*
X15308382Y44189369D01*
X15306517Y44190000D01*
X15304651Y44190549D01*
X15302787Y44191014D01*
X15300928Y44191393D01*
X14508764Y44338847D01*
X14506920Y44339235D01*
X14505099Y44339713D01*
X14503303Y44340278D01*
X14501536Y44340929D01*
X14499798Y44341661D01*
X14498093Y44342472D01*
X14496422Y44343360D01*
X14494789Y44344322D01*
X14493195Y44345354D01*
X14491643Y44346454D01*
X14490135Y44347620D01*
X14488673Y44348848D01*
X14487260Y44350136D01*
X14485898Y44351481D01*
X14484590Y44352879D01*
X14483337Y44354329D01*
X14482142Y44355828D01*
X14481007Y44357372D01*
X14479935Y44358959D01*
X14478927Y44360587D01*
X14477987Y44362251D01*
X14477117Y44363951D01*
X14476318Y44365682D01*
X14475594Y44367442D01*
X14474946Y44369228D01*
X14474377Y44371037D01*
X14473890Y44372868D01*
X14473485Y44374716D01*
X14473167Y44376579D01*
X14472936Y44378454D01*
X14472797Y44380339D01*
X14472749Y44382231D01*
X14472749Y45218275D01*
X14472796Y45220159D01*
X14472936Y45222036D01*
X14473165Y45223905D01*
X14473482Y45225762D01*
X14473885Y45227605D01*
X14474370Y45229430D01*
X14474937Y45231235D01*
X14475583Y45233017D01*
X14476304Y45234773D01*
X14477100Y45236501D01*
X14478906Y45239860D01*
X14480980Y45243072D01*
X14483306Y45246114D01*
X14485864Y45248963D01*
X14488637Y45251599D01*
X14491606Y45253997D01*
X14493159Y45255101D01*
X14494754Y45256137D01*
X14496389Y45257102D01*
X14498062Y45257995D01*
X14499770Y45258812D01*
X14501512Y45259549D01*
X14503284Y45260206D01*
X14505085Y45260778D01*
X14506913Y45261263D01*
X14508764Y45261658D01*
X15320881Y45412755D01*
X15324622Y45413624D01*
X15328378Y45414819D01*
X15332124Y45416320D01*
X15335836Y45418105D01*
X15339489Y45420153D01*
X15343061Y45422444D01*
X15346525Y45424956D01*
X15349859Y45427668D01*
X15353037Y45430561D01*
X15356036Y45433611D01*
X15358831Y45436799D01*
X15361398Y45440104D01*
X15363713Y45443504D01*
X15365751Y45446979D01*
X15367489Y45450508D01*
X15368901Y45454069D01*
X15617860Y46034945D01*
X15619469Y46038427D01*
X15620820Y46042117D01*
X15621916Y46045982D01*
X15622759Y46049991D01*
X15623351Y46054112D01*
X15623694Y46058313D01*
X15623791Y46062563D01*
X15623645Y46066830D01*
X15623257Y46071083D01*
X15622629Y46075289D01*
X15621765Y46079418D01*
X15620666Y46083437D01*
X15619334Y46087315D01*
X15617773Y46091020D01*
X15615983Y46094520D01*
X15613968Y46097785D01*
X15140723Y46787616D01*
X15139693Y46789193D01*
X15138743Y46790818D01*
X15137873Y46792486D01*
X15137083Y46794195D01*
X15136373Y46795940D01*
X15135742Y46797718D01*
X15134716Y46801359D01*
X15134002Y46805088D01*
X15133598Y46808877D01*
X15133501Y46812698D01*
X15133707Y46816521D01*
X15134214Y46820318D01*
X15135019Y46824060D01*
X15136118Y46827719D01*
X15137510Y46831265D01*
X15139191Y46834670D01*
X15140139Y46836310D01*
X15141158Y46837905D01*
X15142248Y46839449D01*
X15143409Y46840941D01*
X15144639Y46842376D01*
X15145939Y46843750D01*
X15736999Y47434892D01*
X15738366Y47436192D01*
X15739793Y47437422D01*
X15741278Y47438581D01*
X15742817Y47439670D01*
X15744406Y47440687D01*
X15746041Y47441633D01*
X15747720Y47442508D01*
X15749437Y47443310D01*
X15751191Y47444040D01*
X15752976Y47444697D01*
X15756630Y47445791D01*
X15760369Y47446591D01*
X15764165Y47447094D01*
X15767990Y47447297D01*
X15771813Y47447197D01*
X15775607Y47446793D01*
X15777485Y47446475D01*
X15779344Y47446081D01*
X15781181Y47445609D01*
X15782993Y47445059D01*
X15784776Y47444431D01*
X15786527Y47443725D01*
X15788241Y47442939D01*
X15789916Y47442075D01*
X15791548Y47441131D01*
X15793133Y47440108D01*
X16494886Y46958418D01*
X16498124Y46956387D01*
X16501608Y46954579D01*
X16505303Y46952996D01*
X16509180Y46951641D01*
X16513204Y46950515D01*
X16517344Y46949621D01*
X16521567Y46948960D01*
X16525841Y46948535D01*
X16530133Y46948347D01*
X16534411Y46948400D01*
X16538643Y46948694D01*
X16542796Y46949232D01*
X16546838Y46950016D01*
X16550737Y46951048D01*
X16554460Y46952330D01*
X16557974Y46953865D01*
X17121050Y47184360D01*
X17122841Y47184994D01*
X17124626Y47185714D01*
X17126404Y47186516D01*
X17128170Y47187397D01*
X17131660Y47189387D01*
X17135075Y47191658D01*
X17138395Y47194185D01*
X17141596Y47196945D01*
X17144660Y47199912D01*
X17147564Y47203061D01*
X17150288Y47206369D01*
X17152810Y47209810D01*
X17155110Y47213361D01*
X17157166Y47216995D01*
X17158957Y47220689D01*
X17160462Y47224418D01*
X17161660Y47228158D01*
X17162137Y47230024D01*
X17162529Y47231884D01*
X17318843Y48072150D01*
X17319230Y48073994D01*
X17319708Y48075815D01*
X17320274Y48077611D01*
X17320924Y48079379D01*
X17321656Y48081116D01*
X17322467Y48082821D01*
X17323355Y48084492D01*
X17324316Y48086125D01*
X17325348Y48087719D01*
X17326447Y48089271D01*
X17327612Y48090779D01*
X17328839Y48092241D01*
X17330126Y48093654D01*
X17331469Y48095016D01*
X17332866Y48096325D01*
X17334314Y48097578D01*
X17335811Y48098773D01*
X17337353Y48099908D01*
X17338937Y48100980D01*
X17340562Y48101987D01*
X17342223Y48102927D01*
X17343919Y48103797D01*
X17345646Y48104596D01*
X17347402Y48105320D01*
X17349184Y48105968D01*
X17350989Y48106537D01*
X17352813Y48107025D01*
X17354656Y48107429D01*
X17356513Y48107747D01*
X17358382Y48107978D01*
X17360259Y48108118D01*
X17362143Y48108165D01*
X18198022Y48108165D01*
X18199906Y48108118D01*
G37*
D11*
X3574632Y43380458D02*
X3574632Y42580458D01*
X3860346Y43837600D02*
X4146060Y42980458D01*
X4146060Y42980458D02*
X3403203Y42980458D01*
X4476346Y17180458D02*
X5162060Y17180458D01*
X4819203Y17180458D02*
X4819203Y18380458D01*
X4819203Y18380458D02*
X4933489Y18209029D01*
X4933489Y18209029D02*
X5047774Y18094743D01*
X5047774Y18094743D02*
X5162060Y18037600D01*
X4019203Y18266172D02*
X3962060Y18323315D01*
X3962060Y18323315D02*
X3847775Y18380458D01*
X3847775Y18380458D02*
X3562060Y18380458D01*
X3562060Y18380458D02*
X3447775Y18323315D01*
X3447775Y18323315D02*
X3390632Y18266172D01*
X3390632Y18266172D02*
X3333489Y18151886D01*
X3333489Y18151886D02*
X3333489Y18037600D01*
X3333489Y18037600D02*
X3390632Y17866172D01*
X3390632Y17866172D02*
X4076346Y17180458D01*
X4076346Y17180458D02*
X3333489Y17180458D01*
X4146060Y48746172D02*
X4088917Y48803315D01*
X4088917Y48803315D02*
X3974632Y48860458D01*
X3974632Y48860458D02*
X3688917Y48860458D01*
X3688917Y48860458D02*
X3574632Y48803315D01*
X3574632Y48803315D02*
X3517489Y48746172D01*
X3517489Y48746172D02*
X3460346Y48631886D01*
X3460346Y48631886D02*
X3460346Y48517600D01*
X3460346Y48517600D02*
X3517489Y48346172D01*
X3517489Y48346172D02*
X4203203Y47660458D01*
X4203203Y47660458D02*
X3460346Y47660458D01*
X31273346Y17180458D02*
X31959060Y17180458D01*
X31616203Y17180458D02*
X31616203Y18380458D01*
X31616203Y18380458D02*
X31730489Y18209029D01*
X31730489Y18209029D02*
X31844774Y18094743D01*
X31844774Y18094743D02*
X31959060Y18037600D01*
X30873346Y18380458D02*
X30073346Y18380458D01*
X30073346Y18380458D02*
X30587632Y17180458D01*
X4476346Y14640458D02*
X5162060Y14640458D01*
X4819203Y14640458D02*
X4819203Y15840458D01*
X4819203Y15840458D02*
X4933489Y15669029D01*
X4933489Y15669029D02*
X5047774Y15554743D01*
X5047774Y15554743D02*
X5162060Y15497600D01*
X4076346Y15840458D02*
X3333489Y15840458D01*
X3333489Y15840458D02*
X3733489Y15383315D01*
X3733489Y15383315D02*
X3562060Y15383315D01*
X3562060Y15383315D02*
X3447775Y15326172D01*
X3447775Y15326172D02*
X3390632Y15269029D01*
X3390632Y15269029D02*
X3333489Y15154743D01*
X3333489Y15154743D02*
X3333489Y14869029D01*
X3333489Y14869029D02*
X3390632Y14754743D01*
X3390632Y14754743D02*
X3447775Y14697600D01*
X3447775Y14697600D02*
X3562060Y14640458D01*
X3562060Y14640458D02*
X3904917Y14640458D01*
X3904917Y14640458D02*
X4019203Y14697600D01*
X4019203Y14697600D02*
X4076346Y14754743D01*
X3517489Y41240458D02*
X4088917Y41240458D01*
X4088917Y41240458D02*
X4146060Y40669029D01*
X4146060Y40669029D02*
X4088917Y40726172D01*
X4088917Y40726172D02*
X3974632Y40783315D01*
X3974632Y40783315D02*
X3688917Y40783315D01*
X3688917Y40783315D02*
X3574632Y40726172D01*
X3574632Y40726172D02*
X3517489Y40669029D01*
X3517489Y40669029D02*
X3460346Y40554743D01*
X3460346Y40554743D02*
X3460346Y40269029D01*
X3460346Y40269029D02*
X3517489Y40154743D01*
X3517489Y40154743D02*
X3574632Y40097600D01*
X3574632Y40097600D02*
X3688917Y40040458D01*
X3688917Y40040458D02*
X3974632Y40040458D01*
X3974632Y40040458D02*
X4088917Y40097600D01*
X4088917Y40097600D02*
X4146060Y40154743D01*
X4476346Y12100458D02*
X5162060Y12100458D01*
X4819203Y12100458D02*
X4819203Y13300458D01*
X4819203Y13300458D02*
X4933489Y13129029D01*
X4933489Y13129029D02*
X5047774Y13014743D01*
X5047774Y13014743D02*
X5162060Y12957600D01*
X3447775Y12900458D02*
X3447775Y12100458D01*
X3733489Y13357600D02*
X4019203Y12500458D01*
X4019203Y12500458D02*
X3276346Y12500458D01*
X5746346Y5623315D02*
X5860632Y5680458D01*
X5860632Y5680458D02*
X6032060Y5680458D01*
X6032060Y5680458D02*
X6203489Y5623315D01*
X6203489Y5623315D02*
X6317774Y5509029D01*
X6317774Y5509029D02*
X6374917Y5394743D01*
X6374917Y5394743D02*
X6432060Y5166172D01*
X6432060Y5166172D02*
X6432060Y4994743D01*
X6432060Y4994743D02*
X6374917Y4766172D01*
X6374917Y4766172D02*
X6317774Y4651886D01*
X6317774Y4651886D02*
X6203489Y4537600D01*
X6203489Y4537600D02*
X6032060Y4480458D01*
X6032060Y4480458D02*
X5917774Y4480458D01*
X5917774Y4480458D02*
X5746346Y4537600D01*
X5746346Y4537600D02*
X5689203Y4594743D01*
X5689203Y4594743D02*
X5689203Y4994743D01*
X5689203Y4994743D02*
X5917774Y4994743D01*
X5174917Y4480458D02*
X5174917Y5680458D01*
X5174917Y5680458D02*
X4489203Y4480458D01*
X4489203Y4480458D02*
X4489203Y5680458D01*
X3917774Y4480458D02*
X3917774Y5680458D01*
X3917774Y5680458D02*
X3632060Y5680458D01*
X3632060Y5680458D02*
X3460631Y5623315D01*
X3460631Y5623315D02*
X3346346Y5509029D01*
X3346346Y5509029D02*
X3289203Y5394743D01*
X3289203Y5394743D02*
X3232060Y5166172D01*
X3232060Y5166172D02*
X3232060Y4994743D01*
X3232060Y4994743D02*
X3289203Y4766172D01*
X3289203Y4766172D02*
X3346346Y4651886D01*
X3346346Y4651886D02*
X3460631Y4537600D01*
X3460631Y4537600D02*
X3632060Y4480458D01*
X3632060Y4480458D02*
X3917774Y4480458D01*
X31273346Y22260458D02*
X31959060Y22260458D01*
X31616203Y22260458D02*
X31616203Y23460458D01*
X31616203Y23460458D02*
X31730489Y23289029D01*
X31730489Y23289029D02*
X31844774Y23174743D01*
X31844774Y23174743D02*
X31959060Y23117600D01*
X30701917Y22260458D02*
X30473346Y22260458D01*
X30473346Y22260458D02*
X30359060Y22317600D01*
X30359060Y22317600D02*
X30301917Y22374743D01*
X30301917Y22374743D02*
X30187632Y22546172D01*
X30187632Y22546172D02*
X30130489Y22774743D01*
X30130489Y22774743D02*
X30130489Y23231886D01*
X30130489Y23231886D02*
X30187632Y23346172D01*
X30187632Y23346172D02*
X30244775Y23403315D01*
X30244775Y23403315D02*
X30359060Y23460458D01*
X30359060Y23460458D02*
X30587632Y23460458D01*
X30587632Y23460458D02*
X30701917Y23403315D01*
X30701917Y23403315D02*
X30759060Y23346172D01*
X30759060Y23346172D02*
X30816203Y23231886D01*
X30816203Y23231886D02*
X30816203Y22946172D01*
X30816203Y22946172D02*
X30759060Y22831886D01*
X30759060Y22831886D02*
X30701917Y22774743D01*
X30701917Y22774743D02*
X30587632Y22717600D01*
X30587632Y22717600D02*
X30359060Y22717600D01*
X30359060Y22717600D02*
X30244775Y22774743D01*
X30244775Y22774743D02*
X30187632Y22831886D01*
X30187632Y22831886D02*
X30130489Y22946172D01*
X6235203Y8220458D02*
X5492346Y8220458D01*
X5492346Y8220458D02*
X5892346Y7763315D01*
X5892346Y7763315D02*
X5720917Y7763315D01*
X5720917Y7763315D02*
X5606632Y7706172D01*
X5606632Y7706172D02*
X5549489Y7649029D01*
X5549489Y7649029D02*
X5492346Y7534743D01*
X5492346Y7534743D02*
X5492346Y7249029D01*
X5492346Y7249029D02*
X5549489Y7134743D01*
X5549489Y7134743D02*
X5606632Y7077600D01*
X5606632Y7077600D02*
X5720917Y7020458D01*
X5720917Y7020458D02*
X6063774Y7020458D01*
X6063774Y7020458D02*
X6178060Y7077600D01*
X6178060Y7077600D02*
X6235203Y7134743D01*
X5149489Y8220458D02*
X4749489Y7020458D01*
X4749489Y7020458D02*
X4349489Y8220458D01*
X4063775Y8220458D02*
X3320918Y8220458D01*
X3320918Y8220458D02*
X3720918Y7763315D01*
X3720918Y7763315D02*
X3549489Y7763315D01*
X3549489Y7763315D02*
X3435204Y7706172D01*
X3435204Y7706172D02*
X3378061Y7649029D01*
X3378061Y7649029D02*
X3320918Y7534743D01*
X3320918Y7534743D02*
X3320918Y7249029D01*
X3320918Y7249029D02*
X3378061Y7134743D01*
X3378061Y7134743D02*
X3435204Y7077600D01*
X3435204Y7077600D02*
X3549489Y7020458D01*
X3549489Y7020458D02*
X3892346Y7020458D01*
X3892346Y7020458D02*
X4006632Y7077600D01*
X4006632Y7077600D02*
X4063775Y7134743D01*
X31400346Y31023315D02*
X31514632Y31080458D01*
X31514632Y31080458D02*
X31686060Y31080458D01*
X31686060Y31080458D02*
X31857489Y31023315D01*
X31857489Y31023315D02*
X31971774Y30909029D01*
X31971774Y30909029D02*
X32028917Y30794743D01*
X32028917Y30794743D02*
X32086060Y30566172D01*
X32086060Y30566172D02*
X32086060Y30394743D01*
X32086060Y30394743D02*
X32028917Y30166172D01*
X32028917Y30166172D02*
X31971774Y30051886D01*
X31971774Y30051886D02*
X31857489Y29937600D01*
X31857489Y29937600D02*
X31686060Y29880458D01*
X31686060Y29880458D02*
X31571774Y29880458D01*
X31571774Y29880458D02*
X31400346Y29937600D01*
X31400346Y29937600D02*
X31343203Y29994743D01*
X31343203Y29994743D02*
X31343203Y30394743D01*
X31343203Y30394743D02*
X31571774Y30394743D01*
X30828917Y29880458D02*
X30828917Y31080458D01*
X30828917Y31080458D02*
X30143203Y29880458D01*
X30143203Y29880458D02*
X30143203Y31080458D01*
X29571774Y29880458D02*
X29571774Y31080458D01*
X29571774Y31080458D02*
X29286060Y31080458D01*
X29286060Y31080458D02*
X29114631Y31023315D01*
X29114631Y31023315D02*
X29000346Y30909029D01*
X29000346Y30909029D02*
X28943203Y30794743D01*
X28943203Y30794743D02*
X28886060Y30566172D01*
X28886060Y30566172D02*
X28886060Y30394743D01*
X28886060Y30394743D02*
X28943203Y30166172D01*
X28943203Y30166172D02*
X29000346Y30051886D01*
X29000346Y30051886D02*
X29114631Y29937600D01*
X29114631Y29937600D02*
X29286060Y29880458D01*
X29286060Y29880458D02*
X29571774Y29880458D01*
X4476346Y22260458D02*
X5162060Y22260458D01*
X4819203Y22260458D02*
X4819203Y23460458D01*
X4819203Y23460458D02*
X4933489Y23289029D01*
X4933489Y23289029D02*
X5047774Y23174743D01*
X5047774Y23174743D02*
X5162060Y23117600D01*
X3733489Y23460458D02*
X3619203Y23460458D01*
X3619203Y23460458D02*
X3504917Y23403315D01*
X3504917Y23403315D02*
X3447775Y23346172D01*
X3447775Y23346172D02*
X3390632Y23231886D01*
X3390632Y23231886D02*
X3333489Y23003315D01*
X3333489Y23003315D02*
X3333489Y22717600D01*
X3333489Y22717600D02*
X3390632Y22489029D01*
X3390632Y22489029D02*
X3447775Y22374743D01*
X3447775Y22374743D02*
X3504917Y22317600D01*
X3504917Y22317600D02*
X3619203Y22260458D01*
X3619203Y22260458D02*
X3733489Y22260458D01*
X3733489Y22260458D02*
X3847775Y22317600D01*
X3847775Y22317600D02*
X3904917Y22374743D01*
X3904917Y22374743D02*
X3962060Y22489029D01*
X3962060Y22489029D02*
X4019203Y22717600D01*
X4019203Y22717600D02*
X4019203Y23003315D01*
X4019203Y23003315D02*
X3962060Y23231886D01*
X3962060Y23231886D02*
X3904917Y23346172D01*
X3904917Y23346172D02*
X3847775Y23403315D01*
X3847775Y23403315D02*
X3733489Y23460458D01*
X31959060Y48746172D02*
X31901917Y48803315D01*
X31901917Y48803315D02*
X31787632Y48860458D01*
X31787632Y48860458D02*
X31501917Y48860458D01*
X31501917Y48860458D02*
X31387632Y48803315D01*
X31387632Y48803315D02*
X31330489Y48746172D01*
X31330489Y48746172D02*
X31273346Y48631886D01*
X31273346Y48631886D02*
X31273346Y48517600D01*
X31273346Y48517600D02*
X31330489Y48346172D01*
X31330489Y48346172D02*
X32016203Y47660458D01*
X32016203Y47660458D02*
X31273346Y47660458D01*
X30873346Y48860458D02*
X30073346Y48860458D01*
X30073346Y48860458D02*
X30587632Y47660458D01*
X31959060Y51286172D02*
X31901917Y51343315D01*
X31901917Y51343315D02*
X31787632Y51400458D01*
X31787632Y51400458D02*
X31501917Y51400458D01*
X31501917Y51400458D02*
X31387632Y51343315D01*
X31387632Y51343315D02*
X31330489Y51286172D01*
X31330489Y51286172D02*
X31273346Y51171886D01*
X31273346Y51171886D02*
X31273346Y51057600D01*
X31273346Y51057600D02*
X31330489Y50886172D01*
X31330489Y50886172D02*
X32016203Y50200458D01*
X32016203Y50200458D02*
X31273346Y50200458D01*
X30587632Y50886172D02*
X30701917Y50943315D01*
X30701917Y50943315D02*
X30759060Y51000458D01*
X30759060Y51000458D02*
X30816203Y51114743D01*
X30816203Y51114743D02*
X30816203Y51171886D01*
X30816203Y51171886D02*
X30759060Y51286172D01*
X30759060Y51286172D02*
X30701917Y51343315D01*
X30701917Y51343315D02*
X30587632Y51400458D01*
X30587632Y51400458D02*
X30359060Y51400458D01*
X30359060Y51400458D02*
X30244775Y51343315D01*
X30244775Y51343315D02*
X30187632Y51286172D01*
X30187632Y51286172D02*
X30130489Y51171886D01*
X30130489Y51171886D02*
X30130489Y51114743D01*
X30130489Y51114743D02*
X30187632Y51000458D01*
X30187632Y51000458D02*
X30244775Y50943315D01*
X30244775Y50943315D02*
X30359060Y50886172D01*
X30359060Y50886172D02*
X30587632Y50886172D01*
X30587632Y50886172D02*
X30701917Y50829029D01*
X30701917Y50829029D02*
X30759060Y50771886D01*
X30759060Y50771886D02*
X30816203Y50657600D01*
X30816203Y50657600D02*
X30816203Y50429029D01*
X30816203Y50429029D02*
X30759060Y50314743D01*
X30759060Y50314743D02*
X30701917Y50257600D01*
X30701917Y50257600D02*
X30587632Y50200458D01*
X30587632Y50200458D02*
X30359060Y50200458D01*
X30359060Y50200458D02*
X30244775Y50257600D01*
X30244775Y50257600D02*
X30187632Y50314743D01*
X30187632Y50314743D02*
X30130489Y50429029D01*
X30130489Y50429029D02*
X30130489Y50657600D01*
X30130489Y50657600D02*
X30187632Y50771886D01*
X30187632Y50771886D02*
X30244775Y50829029D01*
X30244775Y50829029D02*
X30359060Y50886172D01*
X31959060Y46206172D02*
X31901917Y46263315D01*
X31901917Y46263315D02*
X31787632Y46320458D01*
X31787632Y46320458D02*
X31501917Y46320458D01*
X31501917Y46320458D02*
X31387632Y46263315D01*
X31387632Y46263315D02*
X31330489Y46206172D01*
X31330489Y46206172D02*
X31273346Y46091886D01*
X31273346Y46091886D02*
X31273346Y45977600D01*
X31273346Y45977600D02*
X31330489Y45806172D01*
X31330489Y45806172D02*
X32016203Y45120458D01*
X32016203Y45120458D02*
X31273346Y45120458D01*
X30244775Y46320458D02*
X30473346Y46320458D01*
X30473346Y46320458D02*
X30587632Y46263315D01*
X30587632Y46263315D02*
X30644775Y46206172D01*
X30644775Y46206172D02*
X30759060Y46034743D01*
X30759060Y46034743D02*
X30816203Y45806172D01*
X30816203Y45806172D02*
X30816203Y45349029D01*
X30816203Y45349029D02*
X30759060Y45234743D01*
X30759060Y45234743D02*
X30701917Y45177600D01*
X30701917Y45177600D02*
X30587632Y45120458D01*
X30587632Y45120458D02*
X30359060Y45120458D01*
X30359060Y45120458D02*
X30244775Y45177600D01*
X30244775Y45177600D02*
X30187632Y45234743D01*
X30187632Y45234743D02*
X30130489Y45349029D01*
X30130489Y45349029D02*
X30130489Y45634743D01*
X30130489Y45634743D02*
X30187632Y45749029D01*
X30187632Y45749029D02*
X30244775Y45806172D01*
X30244775Y45806172D02*
X30359060Y45863315D01*
X30359060Y45863315D02*
X30587632Y45863315D01*
X30587632Y45863315D02*
X30701917Y45806172D01*
X30701917Y45806172D02*
X30759060Y45749029D01*
X30759060Y45749029D02*
X30816203Y45634743D01*
X31216203Y12100458D02*
X31616203Y12671886D01*
X31901917Y12100458D02*
X31901917Y13300458D01*
X31901917Y13300458D02*
X31444774Y13300458D01*
X31444774Y13300458D02*
X31330489Y13243315D01*
X31330489Y13243315D02*
X31273346Y13186172D01*
X31273346Y13186172D02*
X31216203Y13071886D01*
X31216203Y13071886D02*
X31216203Y12900458D01*
X31216203Y12900458D02*
X31273346Y12786172D01*
X31273346Y12786172D02*
X31330489Y12729029D01*
X31330489Y12729029D02*
X31444774Y12671886D01*
X31444774Y12671886D02*
X31901917Y12671886D01*
X30759060Y12157600D02*
X30587632Y12100458D01*
X30587632Y12100458D02*
X30301917Y12100458D01*
X30301917Y12100458D02*
X30187632Y12157600D01*
X30187632Y12157600D02*
X30130489Y12214743D01*
X30130489Y12214743D02*
X30073346Y12329029D01*
X30073346Y12329029D02*
X30073346Y12443315D01*
X30073346Y12443315D02*
X30130489Y12557600D01*
X30130489Y12557600D02*
X30187632Y12614743D01*
X30187632Y12614743D02*
X30301917Y12671886D01*
X30301917Y12671886D02*
X30530489Y12729029D01*
X30530489Y12729029D02*
X30644774Y12786172D01*
X30644774Y12786172D02*
X30701917Y12843315D01*
X30701917Y12843315D02*
X30759060Y12957600D01*
X30759060Y12957600D02*
X30759060Y13071886D01*
X30759060Y13071886D02*
X30701917Y13186172D01*
X30701917Y13186172D02*
X30644774Y13243315D01*
X30644774Y13243315D02*
X30530489Y13300458D01*
X30530489Y13300458D02*
X30244774Y13300458D01*
X30244774Y13300458D02*
X30073346Y13243315D01*
X29730489Y13300458D02*
X29044775Y13300458D01*
X29387632Y12100458D02*
X29387632Y13300458D01*
X32067632Y13633600D02*
X29050489Y13633600D01*
X31273346Y14640458D02*
X31959060Y14640458D01*
X31616203Y14640458D02*
X31616203Y15840458D01*
X31616203Y15840458D02*
X31730489Y15669029D01*
X31730489Y15669029D02*
X31844774Y15554743D01*
X31844774Y15554743D02*
X31959060Y15497600D01*
X30244775Y15840458D02*
X30473346Y15840458D01*
X30473346Y15840458D02*
X30587632Y15783315D01*
X30587632Y15783315D02*
X30644775Y15726172D01*
X30644775Y15726172D02*
X30759060Y15554743D01*
X30759060Y15554743D02*
X30816203Y15326172D01*
X30816203Y15326172D02*
X30816203Y14869029D01*
X30816203Y14869029D02*
X30759060Y14754743D01*
X30759060Y14754743D02*
X30701917Y14697600D01*
X30701917Y14697600D02*
X30587632Y14640458D01*
X30587632Y14640458D02*
X30359060Y14640458D01*
X30359060Y14640458D02*
X30244775Y14697600D01*
X30244775Y14697600D02*
X30187632Y14754743D01*
X30187632Y14754743D02*
X30130489Y14869029D01*
X30130489Y14869029D02*
X30130489Y15154743D01*
X30130489Y15154743D02*
X30187632Y15269029D01*
X30187632Y15269029D02*
X30244775Y15326172D01*
X30244775Y15326172D02*
X30359060Y15383315D01*
X30359060Y15383315D02*
X30587632Y15383315D01*
X30587632Y15383315D02*
X30701917Y15326172D01*
X30701917Y15326172D02*
X30759060Y15269029D01*
X30759060Y15269029D02*
X30816203Y15154743D01*
X6235203Y31080458D02*
X5492346Y31080458D01*
X5492346Y31080458D02*
X5892346Y30623315D01*
X5892346Y30623315D02*
X5720917Y30623315D01*
X5720917Y30623315D02*
X5606632Y30566172D01*
X5606632Y30566172D02*
X5549489Y30509029D01*
X5549489Y30509029D02*
X5492346Y30394743D01*
X5492346Y30394743D02*
X5492346Y30109029D01*
X5492346Y30109029D02*
X5549489Y29994743D01*
X5549489Y29994743D02*
X5606632Y29937600D01*
X5606632Y29937600D02*
X5720917Y29880458D01*
X5720917Y29880458D02*
X6063774Y29880458D01*
X6063774Y29880458D02*
X6178060Y29937600D01*
X6178060Y29937600D02*
X6235203Y29994743D01*
X5149489Y31080458D02*
X4749489Y29880458D01*
X4749489Y29880458D02*
X4349489Y31080458D01*
X4063775Y31080458D02*
X3320918Y31080458D01*
X3320918Y31080458D02*
X3720918Y30623315D01*
X3720918Y30623315D02*
X3549489Y30623315D01*
X3549489Y30623315D02*
X3435204Y30566172D01*
X3435204Y30566172D02*
X3378061Y30509029D01*
X3378061Y30509029D02*
X3320918Y30394743D01*
X3320918Y30394743D02*
X3320918Y30109029D01*
X3320918Y30109029D02*
X3378061Y29994743D01*
X3378061Y29994743D02*
X3435204Y29937600D01*
X3435204Y29937600D02*
X3549489Y29880458D01*
X3549489Y29880458D02*
X3892346Y29880458D01*
X3892346Y29880458D02*
X4006632Y29937600D01*
X4006632Y29937600D02*
X4063775Y29994743D01*
X3574632Y38700458D02*
X3803203Y38700458D01*
X3803203Y38700458D02*
X3917489Y38643315D01*
X3917489Y38643315D02*
X3974632Y38586172D01*
X3974632Y38586172D02*
X4088917Y38414743D01*
X4088917Y38414743D02*
X4146060Y38186172D01*
X4146060Y38186172D02*
X4146060Y37729029D01*
X4146060Y37729029D02*
X4088917Y37614743D01*
X4088917Y37614743D02*
X4031774Y37557600D01*
X4031774Y37557600D02*
X3917489Y37500458D01*
X3917489Y37500458D02*
X3688917Y37500458D01*
X3688917Y37500458D02*
X3574632Y37557600D01*
X3574632Y37557600D02*
X3517489Y37614743D01*
X3517489Y37614743D02*
X3460346Y37729029D01*
X3460346Y37729029D02*
X3460346Y38014743D01*
X3460346Y38014743D02*
X3517489Y38129029D01*
X3517489Y38129029D02*
X3574632Y38186172D01*
X3574632Y38186172D02*
X3688917Y38243315D01*
X3688917Y38243315D02*
X3917489Y38243315D01*
X3917489Y38243315D02*
X4031774Y38186172D01*
X4031774Y38186172D02*
X4088917Y38129029D01*
X4088917Y38129029D02*
X4146060Y38014743D01*
X31273346Y19847458D02*
X31959060Y19847458D01*
X31616203Y19847458D02*
X31616203Y21047458D01*
X31616203Y21047458D02*
X31730489Y20876029D01*
X31730489Y20876029D02*
X31844774Y20761743D01*
X31844774Y20761743D02*
X31959060Y20704600D01*
X30587632Y20533172D02*
X30701917Y20590315D01*
X30701917Y20590315D02*
X30759060Y20647458D01*
X30759060Y20647458D02*
X30816203Y20761743D01*
X30816203Y20761743D02*
X30816203Y20818886D01*
X30816203Y20818886D02*
X30759060Y20933172D01*
X30759060Y20933172D02*
X30701917Y20990315D01*
X30701917Y20990315D02*
X30587632Y21047458D01*
X30587632Y21047458D02*
X30359060Y21047458D01*
X30359060Y21047458D02*
X30244775Y20990315D01*
X30244775Y20990315D02*
X30187632Y20933172D01*
X30187632Y20933172D02*
X30130489Y20818886D01*
X30130489Y20818886D02*
X30130489Y20761743D01*
X30130489Y20761743D02*
X30187632Y20647458D01*
X30187632Y20647458D02*
X30244775Y20590315D01*
X30244775Y20590315D02*
X30359060Y20533172D01*
X30359060Y20533172D02*
X30587632Y20533172D01*
X30587632Y20533172D02*
X30701917Y20476029D01*
X30701917Y20476029D02*
X30759060Y20418886D01*
X30759060Y20418886D02*
X30816203Y20304600D01*
X30816203Y20304600D02*
X30816203Y20076029D01*
X30816203Y20076029D02*
X30759060Y19961743D01*
X30759060Y19961743D02*
X30701917Y19904600D01*
X30701917Y19904600D02*
X30587632Y19847458D01*
X30587632Y19847458D02*
X30359060Y19847458D01*
X30359060Y19847458D02*
X30244775Y19904600D01*
X30244775Y19904600D02*
X30187632Y19961743D01*
X30187632Y19961743D02*
X30130489Y20076029D01*
X30130489Y20076029D02*
X30130489Y20304600D01*
X30130489Y20304600D02*
X30187632Y20418886D01*
X30187632Y20418886D02*
X30244775Y20476029D01*
X30244775Y20476029D02*
X30359060Y20533172D01*
X4476346Y9560458D02*
X5162060Y9560458D01*
X4819203Y9560458D02*
X4819203Y10760458D01*
X4819203Y10760458D02*
X4933489Y10589029D01*
X4933489Y10589029D02*
X5047774Y10474743D01*
X5047774Y10474743D02*
X5162060Y10417600D01*
X3390632Y10760458D02*
X3962060Y10760458D01*
X3962060Y10760458D02*
X4019203Y10189029D01*
X4019203Y10189029D02*
X3962060Y10246172D01*
X3962060Y10246172D02*
X3847775Y10303315D01*
X3847775Y10303315D02*
X3562060Y10303315D01*
X3562060Y10303315D02*
X3447775Y10246172D01*
X3447775Y10246172D02*
X3390632Y10189029D01*
X3390632Y10189029D02*
X3333489Y10074743D01*
X3333489Y10074743D02*
X3333489Y9789029D01*
X3333489Y9789029D02*
X3390632Y9674743D01*
X3390632Y9674743D02*
X3447775Y9617600D01*
X3447775Y9617600D02*
X3562060Y9560458D01*
X3562060Y9560458D02*
X3847775Y9560458D01*
X3847775Y9560458D02*
X3962060Y9617600D01*
X3962060Y9617600D02*
X4019203Y9674743D01*
X31959060Y33506172D02*
X31901917Y33563315D01*
X31901917Y33563315D02*
X31787632Y33620458D01*
X31787632Y33620458D02*
X31501917Y33620458D01*
X31501917Y33620458D02*
X31387632Y33563315D01*
X31387632Y33563315D02*
X31330489Y33506172D01*
X31330489Y33506172D02*
X31273346Y33391886D01*
X31273346Y33391886D02*
X31273346Y33277600D01*
X31273346Y33277600D02*
X31330489Y33106172D01*
X31330489Y33106172D02*
X32016203Y32420458D01*
X32016203Y32420458D02*
X31273346Y32420458D01*
X30130489Y32420458D02*
X30816203Y32420458D01*
X30473346Y32420458D02*
X30473346Y33620458D01*
X30473346Y33620458D02*
X30587632Y33449029D01*
X30587632Y33449029D02*
X30701917Y33334743D01*
X30701917Y33334743D02*
X30816203Y33277600D01*
X31959060Y25886172D02*
X31901917Y25943315D01*
X31901917Y25943315D02*
X31787632Y26000458D01*
X31787632Y26000458D02*
X31501917Y26000458D01*
X31501917Y26000458D02*
X31387632Y25943315D01*
X31387632Y25943315D02*
X31330489Y25886172D01*
X31330489Y25886172D02*
X31273346Y25771886D01*
X31273346Y25771886D02*
X31273346Y25657600D01*
X31273346Y25657600D02*
X31330489Y25486172D01*
X31330489Y25486172D02*
X32016203Y24800458D01*
X32016203Y24800458D02*
X31273346Y24800458D01*
X30530489Y26000458D02*
X30416203Y26000458D01*
X30416203Y26000458D02*
X30301917Y25943315D01*
X30301917Y25943315D02*
X30244775Y25886172D01*
X30244775Y25886172D02*
X30187632Y25771886D01*
X30187632Y25771886D02*
X30130489Y25543315D01*
X30130489Y25543315D02*
X30130489Y25257600D01*
X30130489Y25257600D02*
X30187632Y25029029D01*
X30187632Y25029029D02*
X30244775Y24914743D01*
X30244775Y24914743D02*
X30301917Y24857600D01*
X30301917Y24857600D02*
X30416203Y24800458D01*
X30416203Y24800458D02*
X30530489Y24800458D01*
X30530489Y24800458D02*
X30644775Y24857600D01*
X30644775Y24857600D02*
X30701917Y24914743D01*
X30701917Y24914743D02*
X30759060Y25029029D01*
X30759060Y25029029D02*
X30816203Y25257600D01*
X30816203Y25257600D02*
X30816203Y25543315D01*
X30816203Y25543315D02*
X30759060Y25771886D01*
X30759060Y25771886D02*
X30701917Y25886172D01*
X30701917Y25886172D02*
X30644775Y25943315D01*
X30644775Y25943315D02*
X30530489Y26000458D01*
X31959060Y41126172D02*
X31901917Y41183315D01*
X31901917Y41183315D02*
X31787632Y41240458D01*
X31787632Y41240458D02*
X31501917Y41240458D01*
X31501917Y41240458D02*
X31387632Y41183315D01*
X31387632Y41183315D02*
X31330489Y41126172D01*
X31330489Y41126172D02*
X31273346Y41011886D01*
X31273346Y41011886D02*
X31273346Y40897600D01*
X31273346Y40897600D02*
X31330489Y40726172D01*
X31330489Y40726172D02*
X32016203Y40040458D01*
X32016203Y40040458D02*
X31273346Y40040458D01*
X30244775Y40840458D02*
X30244775Y40040458D01*
X30530489Y41297600D02*
X30816203Y40440458D01*
X30816203Y40440458D02*
X30073346Y40440458D01*
X3917489Y28026172D02*
X4031774Y28083315D01*
X4031774Y28083315D02*
X4088917Y28140458D01*
X4088917Y28140458D02*
X4146060Y28254743D01*
X4146060Y28254743D02*
X4146060Y28311886D01*
X4146060Y28311886D02*
X4088917Y28426172D01*
X4088917Y28426172D02*
X4031774Y28483315D01*
X4031774Y28483315D02*
X3917489Y28540458D01*
X3917489Y28540458D02*
X3688917Y28540458D01*
X3688917Y28540458D02*
X3574632Y28483315D01*
X3574632Y28483315D02*
X3517489Y28426172D01*
X3517489Y28426172D02*
X3460346Y28311886D01*
X3460346Y28311886D02*
X3460346Y28254743D01*
X3460346Y28254743D02*
X3517489Y28140458D01*
X3517489Y28140458D02*
X3574632Y28083315D01*
X3574632Y28083315D02*
X3688917Y28026172D01*
X3688917Y28026172D02*
X3917489Y28026172D01*
X3917489Y28026172D02*
X4031774Y27969029D01*
X4031774Y27969029D02*
X4088917Y27911886D01*
X4088917Y27911886D02*
X4146060Y27797600D01*
X4146060Y27797600D02*
X4146060Y27569029D01*
X4146060Y27569029D02*
X4088917Y27454743D01*
X4088917Y27454743D02*
X4031774Y27397600D01*
X4031774Y27397600D02*
X3917489Y27340458D01*
X3917489Y27340458D02*
X3688917Y27340458D01*
X3688917Y27340458D02*
X3574632Y27397600D01*
X3574632Y27397600D02*
X3517489Y27454743D01*
X3517489Y27454743D02*
X3460346Y27569029D01*
X3460346Y27569029D02*
X3460346Y27797600D01*
X3460346Y27797600D02*
X3517489Y27911886D01*
X3517489Y27911886D02*
X3574632Y27969029D01*
X3574632Y27969029D02*
X3688917Y28026172D01*
X4031774Y24800458D02*
X3803203Y24800458D01*
X3803203Y24800458D02*
X3688917Y24857600D01*
X3688917Y24857600D02*
X3631774Y24914743D01*
X3631774Y24914743D02*
X3517489Y25086172D01*
X3517489Y25086172D02*
X3460346Y25314743D01*
X3460346Y25314743D02*
X3460346Y25771886D01*
X3460346Y25771886D02*
X3517489Y25886172D01*
X3517489Y25886172D02*
X3574632Y25943315D01*
X3574632Y25943315D02*
X3688917Y26000458D01*
X3688917Y26000458D02*
X3917489Y26000458D01*
X3917489Y26000458D02*
X4031774Y25943315D01*
X4031774Y25943315D02*
X4088917Y25886172D01*
X4088917Y25886172D02*
X4146060Y25771886D01*
X4146060Y25771886D02*
X4146060Y25486172D01*
X4146060Y25486172D02*
X4088917Y25371886D01*
X4088917Y25371886D02*
X4031774Y25314743D01*
X4031774Y25314743D02*
X3917489Y25257600D01*
X3917489Y25257600D02*
X3688917Y25257600D01*
X3688917Y25257600D02*
X3574632Y25314743D01*
X3574632Y25314743D02*
X3517489Y25371886D01*
X3517489Y25371886D02*
X3460346Y25486172D01*
X31349546Y10703315D02*
X31463832Y10760458D01*
X31463832Y10760458D02*
X31635260Y10760458D01*
X31635260Y10760458D02*
X31806689Y10703315D01*
X31806689Y10703315D02*
X31920974Y10589029D01*
X31920974Y10589029D02*
X31978117Y10474743D01*
X31978117Y10474743D02*
X32035260Y10246172D01*
X32035260Y10246172D02*
X32035260Y10074743D01*
X32035260Y10074743D02*
X31978117Y9846172D01*
X31978117Y9846172D02*
X31920974Y9731886D01*
X31920974Y9731886D02*
X31806689Y9617600D01*
X31806689Y9617600D02*
X31635260Y9560458D01*
X31635260Y9560458D02*
X31520974Y9560458D01*
X31520974Y9560458D02*
X31349546Y9617600D01*
X31349546Y9617600D02*
X31292403Y9674743D01*
X31292403Y9674743D02*
X31292403Y10074743D01*
X31292403Y10074743D02*
X31520974Y10074743D01*
X30778117Y9560458D02*
X30778117Y10760458D01*
X30778117Y10760458D02*
X30092403Y9560458D01*
X30092403Y9560458D02*
X30092403Y10760458D01*
X29520974Y9560458D02*
X29520974Y10760458D01*
X29520974Y10760458D02*
X29235260Y10760458D01*
X29235260Y10760458D02*
X29063831Y10703315D01*
X29063831Y10703315D02*
X28949546Y10589029D01*
X28949546Y10589029D02*
X28892403Y10474743D01*
X28892403Y10474743D02*
X28835260Y10246172D01*
X28835260Y10246172D02*
X28835260Y10074743D01*
X28835260Y10074743D02*
X28892403Y9846172D01*
X28892403Y9846172D02*
X28949546Y9731886D01*
X28949546Y9731886D02*
X29063831Y9617600D01*
X29063831Y9617600D02*
X29235260Y9560458D01*
X29235260Y9560458D02*
X29520974Y9560458D01*
X32086060Y4664600D02*
X31914632Y4607458D01*
X31914632Y4607458D02*
X31628917Y4607458D01*
X31628917Y4607458D02*
X31514632Y4664600D01*
X31514632Y4664600D02*
X31457489Y4721743D01*
X31457489Y4721743D02*
X31400346Y4836029D01*
X31400346Y4836029D02*
X31400346Y4950315D01*
X31400346Y4950315D02*
X31457489Y5064600D01*
X31457489Y5064600D02*
X31514632Y5121743D01*
X31514632Y5121743D02*
X31628917Y5178886D01*
X31628917Y5178886D02*
X31857489Y5236029D01*
X31857489Y5236029D02*
X31971774Y5293172D01*
X31971774Y5293172D02*
X32028917Y5350315D01*
X32028917Y5350315D02*
X32086060Y5464600D01*
X32086060Y5464600D02*
X32086060Y5578886D01*
X32086060Y5578886D02*
X32028917Y5693172D01*
X32028917Y5693172D02*
X31971774Y5750315D01*
X31971774Y5750315D02*
X31857489Y5807458D01*
X31857489Y5807458D02*
X31571774Y5807458D01*
X31571774Y5807458D02*
X31400346Y5750315D01*
X31000346Y5807458D02*
X30714632Y4607458D01*
X30714632Y4607458D02*
X30486060Y5464600D01*
X30486060Y5464600D02*
X30257489Y4607458D01*
X30257489Y4607458D02*
X29971775Y5807458D01*
X29514631Y4607458D02*
X29514631Y5807458D01*
X29514631Y5807458D02*
X29228917Y5807458D01*
X29228917Y5807458D02*
X29057488Y5750315D01*
X29057488Y5750315D02*
X28943203Y5636029D01*
X28943203Y5636029D02*
X28886060Y5521743D01*
X28886060Y5521743D02*
X28828917Y5293172D01*
X28828917Y5293172D02*
X28828917Y5121743D01*
X28828917Y5121743D02*
X28886060Y4893172D01*
X28886060Y4893172D02*
X28943203Y4778886D01*
X28943203Y4778886D02*
X29057488Y4664600D01*
X29057488Y4664600D02*
X29228917Y4607458D01*
X29228917Y4607458D02*
X29514631Y4607458D01*
X4203203Y36160458D02*
X3403203Y36160458D01*
X3403203Y36160458D02*
X3917489Y34960458D01*
X3860346Y53940458D02*
X3746060Y53940458D01*
X3746060Y53940458D02*
X3631774Y53883315D01*
X3631774Y53883315D02*
X3574632Y53826172D01*
X3574632Y53826172D02*
X3517489Y53711886D01*
X3517489Y53711886D02*
X3460346Y53483315D01*
X3460346Y53483315D02*
X3460346Y53197600D01*
X3460346Y53197600D02*
X3517489Y52969029D01*
X3517489Y52969029D02*
X3574632Y52854743D01*
X3574632Y52854743D02*
X3631774Y52797600D01*
X3631774Y52797600D02*
X3746060Y52740458D01*
X3746060Y52740458D02*
X3860346Y52740458D01*
X3860346Y52740458D02*
X3974632Y52797600D01*
X3974632Y52797600D02*
X4031774Y52854743D01*
X4031774Y52854743D02*
X4088917Y52969029D01*
X4088917Y52969029D02*
X4146060Y53197600D01*
X4146060Y53197600D02*
X4146060Y53483315D01*
X4146060Y53483315D02*
X4088917Y53711886D01*
X4088917Y53711886D02*
X4031774Y53826172D01*
X4031774Y53826172D02*
X3974632Y53883315D01*
X3974632Y53883315D02*
X3860346Y53940458D01*
X23215203Y7528458D02*
X23615203Y8099886D01*
X23900917Y7528458D02*
X23900917Y8728458D01*
X23900917Y8728458D02*
X23443774Y8728458D01*
X23443774Y8728458D02*
X23329489Y8671315D01*
X23329489Y8671315D02*
X23272346Y8614172D01*
X23272346Y8614172D02*
X23215203Y8499886D01*
X23215203Y8499886D02*
X23215203Y8328458D01*
X23215203Y8328458D02*
X23272346Y8214172D01*
X23272346Y8214172D02*
X23329489Y8157029D01*
X23329489Y8157029D02*
X23443774Y8099886D01*
X23443774Y8099886D02*
X23900917Y8099886D01*
X22758060Y7585600D02*
X22586632Y7528458D01*
X22586632Y7528458D02*
X22300917Y7528458D01*
X22300917Y7528458D02*
X22186632Y7585600D01*
X22186632Y7585600D02*
X22129489Y7642743D01*
X22129489Y7642743D02*
X22072346Y7757029D01*
X22072346Y7757029D02*
X22072346Y7871315D01*
X22072346Y7871315D02*
X22129489Y7985600D01*
X22129489Y7985600D02*
X22186632Y8042743D01*
X22186632Y8042743D02*
X22300917Y8099886D01*
X22300917Y8099886D02*
X22529489Y8157029D01*
X22529489Y8157029D02*
X22643774Y8214172D01*
X22643774Y8214172D02*
X22700917Y8271315D01*
X22700917Y8271315D02*
X22758060Y8385600D01*
X22758060Y8385600D02*
X22758060Y8499886D01*
X22758060Y8499886D02*
X22700917Y8614172D01*
X22700917Y8614172D02*
X22643774Y8671315D01*
X22643774Y8671315D02*
X22529489Y8728458D01*
X22529489Y8728458D02*
X22243774Y8728458D01*
X22243774Y8728458D02*
X22072346Y8671315D01*
X21729489Y8728458D02*
X21043775Y8728458D01*
X21386632Y7528458D02*
X21386632Y8728458D01*
X24066632Y9061600D02*
X21049489Y9061600D01*
X32086060Y7077600D02*
X31914632Y7020458D01*
X31914632Y7020458D02*
X31628917Y7020458D01*
X31628917Y7020458D02*
X31514632Y7077600D01*
X31514632Y7077600D02*
X31457489Y7134743D01*
X31457489Y7134743D02*
X31400346Y7249029D01*
X31400346Y7249029D02*
X31400346Y7363315D01*
X31400346Y7363315D02*
X31457489Y7477600D01*
X31457489Y7477600D02*
X31514632Y7534743D01*
X31514632Y7534743D02*
X31628917Y7591886D01*
X31628917Y7591886D02*
X31857489Y7649029D01*
X31857489Y7649029D02*
X31971774Y7706172D01*
X31971774Y7706172D02*
X32028917Y7763315D01*
X32028917Y7763315D02*
X32086060Y7877600D01*
X32086060Y7877600D02*
X32086060Y7991886D01*
X32086060Y7991886D02*
X32028917Y8106172D01*
X32028917Y8106172D02*
X31971774Y8163315D01*
X31971774Y8163315D02*
X31857489Y8220458D01*
X31857489Y8220458D02*
X31571774Y8220458D01*
X31571774Y8220458D02*
X31400346Y8163315D01*
X31000346Y8220458D02*
X30714632Y7020458D01*
X30714632Y7020458D02*
X30486060Y7877600D01*
X30486060Y7877600D02*
X30257489Y7020458D01*
X30257489Y7020458D02*
X29971775Y8220458D01*
X28828917Y7134743D02*
X28886060Y7077600D01*
X28886060Y7077600D02*
X29057488Y7020458D01*
X29057488Y7020458D02*
X29171774Y7020458D01*
X29171774Y7020458D02*
X29343203Y7077600D01*
X29343203Y7077600D02*
X29457488Y7191886D01*
X29457488Y7191886D02*
X29514631Y7306172D01*
X29514631Y7306172D02*
X29571774Y7534743D01*
X29571774Y7534743D02*
X29571774Y7706172D01*
X29571774Y7706172D02*
X29514631Y7934743D01*
X29514631Y7934743D02*
X29457488Y8049029D01*
X29457488Y8049029D02*
X29343203Y8163315D01*
X29343203Y8163315D02*
X29171774Y8220458D01*
X29171774Y8220458D02*
X29057488Y8220458D01*
X29057488Y8220458D02*
X28886060Y8163315D01*
X28886060Y8163315D02*
X28828917Y8106172D01*
X27743203Y7020458D02*
X28314631Y7020458D01*
X28314631Y7020458D02*
X28314631Y8220458D01*
X27343202Y7020458D02*
X27343202Y8220458D01*
X26657488Y7020458D02*
X27171774Y7706172D01*
X26657488Y8220458D02*
X27343202Y7534743D01*
X32016203Y28540458D02*
X31273346Y28540458D01*
X31273346Y28540458D02*
X31673346Y28083315D01*
X31673346Y28083315D02*
X31501917Y28083315D01*
X31501917Y28083315D02*
X31387632Y28026172D01*
X31387632Y28026172D02*
X31330489Y27969029D01*
X31330489Y27969029D02*
X31273346Y27854743D01*
X31273346Y27854743D02*
X31273346Y27569029D01*
X31273346Y27569029D02*
X31330489Y27454743D01*
X31330489Y27454743D02*
X31387632Y27397600D01*
X31387632Y27397600D02*
X31501917Y27340458D01*
X31501917Y27340458D02*
X31844774Y27340458D01*
X31844774Y27340458D02*
X31959060Y27397600D01*
X31959060Y27397600D02*
X32016203Y27454743D01*
X30930489Y28540458D02*
X30530489Y27340458D01*
X30530489Y27340458D02*
X30130489Y28540458D01*
X29844775Y28540458D02*
X29101918Y28540458D01*
X29101918Y28540458D02*
X29501918Y28083315D01*
X29501918Y28083315D02*
X29330489Y28083315D01*
X29330489Y28083315D02*
X29216204Y28026172D01*
X29216204Y28026172D02*
X29159061Y27969029D01*
X29159061Y27969029D02*
X29101918Y27854743D01*
X29101918Y27854743D02*
X29101918Y27569029D01*
X29101918Y27569029D02*
X29159061Y27454743D01*
X29159061Y27454743D02*
X29216204Y27397600D01*
X29216204Y27397600D02*
X29330489Y27340458D01*
X29330489Y27340458D02*
X29673346Y27340458D01*
X29673346Y27340458D02*
X29787632Y27397600D01*
X29787632Y27397600D02*
X29844775Y27454743D01*
X4203203Y46320458D02*
X3460346Y46320458D01*
X3460346Y46320458D02*
X3860346Y45863315D01*
X3860346Y45863315D02*
X3688917Y45863315D01*
X3688917Y45863315D02*
X3574632Y45806172D01*
X3574632Y45806172D02*
X3517489Y45749029D01*
X3517489Y45749029D02*
X3460346Y45634743D01*
X3460346Y45634743D02*
X3460346Y45349029D01*
X3460346Y45349029D02*
X3517489Y45234743D01*
X3517489Y45234743D02*
X3574632Y45177600D01*
X3574632Y45177600D02*
X3688917Y45120458D01*
X3688917Y45120458D02*
X4031774Y45120458D01*
X4031774Y45120458D02*
X4146060Y45177600D01*
X4146060Y45177600D02*
X4203203Y45234743D01*
X4476346Y19720458D02*
X5162060Y19720458D01*
X4819203Y19720458D02*
X4819203Y20920458D01*
X4819203Y20920458D02*
X4933489Y20749029D01*
X4933489Y20749029D02*
X5047774Y20634743D01*
X5047774Y20634743D02*
X5162060Y20577600D01*
X3333489Y19720458D02*
X4019203Y19720458D01*
X3676346Y19720458D02*
X3676346Y20920458D01*
X3676346Y20920458D02*
X3790632Y20749029D01*
X3790632Y20749029D02*
X3904917Y20634743D01*
X3904917Y20634743D02*
X4019203Y20577600D01*
X31959060Y53826172D02*
X31901917Y53883315D01*
X31901917Y53883315D02*
X31787632Y53940458D01*
X31787632Y53940458D02*
X31501917Y53940458D01*
X31501917Y53940458D02*
X31387632Y53883315D01*
X31387632Y53883315D02*
X31330489Y53826172D01*
X31330489Y53826172D02*
X31273346Y53711886D01*
X31273346Y53711886D02*
X31273346Y53597600D01*
X31273346Y53597600D02*
X31330489Y53426172D01*
X31330489Y53426172D02*
X32016203Y52740458D01*
X32016203Y52740458D02*
X31273346Y52740458D01*
X30701917Y52740458D02*
X30473346Y52740458D01*
X30473346Y52740458D02*
X30359060Y52797600D01*
X30359060Y52797600D02*
X30301917Y52854743D01*
X30301917Y52854743D02*
X30187632Y53026172D01*
X30187632Y53026172D02*
X30130489Y53254743D01*
X30130489Y53254743D02*
X30130489Y53711886D01*
X30130489Y53711886D02*
X30187632Y53826172D01*
X30187632Y53826172D02*
X30244775Y53883315D01*
X30244775Y53883315D02*
X30359060Y53940458D01*
X30359060Y53940458D02*
X30587632Y53940458D01*
X30587632Y53940458D02*
X30701917Y53883315D01*
X30701917Y53883315D02*
X30759060Y53826172D01*
X30759060Y53826172D02*
X30816203Y53711886D01*
X30816203Y53711886D02*
X30816203Y53426172D01*
X30816203Y53426172D02*
X30759060Y53311886D01*
X30759060Y53311886D02*
X30701917Y53254743D01*
X30701917Y53254743D02*
X30587632Y53197600D01*
X30587632Y53197600D02*
X30359060Y53197600D01*
X30359060Y53197600D02*
X30244775Y53254743D01*
X30244775Y53254743D02*
X30187632Y53311886D01*
X30187632Y53311886D02*
X30130489Y53426172D01*
X3460346Y50200458D02*
X4146060Y50200458D01*
X3803203Y50200458D02*
X3803203Y51400458D01*
X3803203Y51400458D02*
X3917489Y51229029D01*
X3917489Y51229029D02*
X4031774Y51114743D01*
X4031774Y51114743D02*
X4146060Y51057600D01*
X13829917Y7414172D02*
X13944203Y7471315D01*
X13944203Y7471315D02*
X14058489Y7585600D01*
X14058489Y7585600D02*
X14229917Y7757029D01*
X14229917Y7757029D02*
X14344203Y7814172D01*
X14344203Y7814172D02*
X14458489Y7814172D01*
X14401346Y7528458D02*
X14515632Y7585600D01*
X14515632Y7585600D02*
X14629917Y7699886D01*
X14629917Y7699886D02*
X14687060Y7928458D01*
X14687060Y7928458D02*
X14687060Y8328458D01*
X14687060Y8328458D02*
X14629917Y8557029D01*
X14629917Y8557029D02*
X14515632Y8671315D01*
X14515632Y8671315D02*
X14401346Y8728458D01*
X14401346Y8728458D02*
X14172774Y8728458D01*
X14172774Y8728458D02*
X14058489Y8671315D01*
X14058489Y8671315D02*
X13944203Y8557029D01*
X13944203Y8557029D02*
X13887060Y8328458D01*
X13887060Y8328458D02*
X13887060Y7928458D01*
X13887060Y7928458D02*
X13944203Y7699886D01*
X13944203Y7699886D02*
X14058489Y7585600D01*
X14058489Y7585600D02*
X14172774Y7528458D01*
X14172774Y7528458D02*
X14401346Y7528458D01*
X13429917Y7585600D02*
X13258489Y7528458D01*
X13258489Y7528458D02*
X12972774Y7528458D01*
X12972774Y7528458D02*
X12858489Y7585600D01*
X12858489Y7585600D02*
X12801346Y7642743D01*
X12801346Y7642743D02*
X12744203Y7757029D01*
X12744203Y7757029D02*
X12744203Y7871315D01*
X12744203Y7871315D02*
X12801346Y7985600D01*
X12801346Y7985600D02*
X12858489Y8042743D01*
X12858489Y8042743D02*
X12972774Y8099886D01*
X12972774Y8099886D02*
X13201346Y8157029D01*
X13201346Y8157029D02*
X13315631Y8214172D01*
X13315631Y8214172D02*
X13372774Y8271315D01*
X13372774Y8271315D02*
X13429917Y8385600D01*
X13429917Y8385600D02*
X13429917Y8499886D01*
X13429917Y8499886D02*
X13372774Y8614172D01*
X13372774Y8614172D02*
X13315631Y8671315D01*
X13315631Y8671315D02*
X13201346Y8728458D01*
X13201346Y8728458D02*
X12915631Y8728458D01*
X12915631Y8728458D02*
X12744203Y8671315D01*
X12229917Y7528458D02*
X12229917Y8728458D01*
X12229917Y8728458D02*
X11772774Y8728458D01*
X11772774Y8728458D02*
X11658489Y8671315D01*
X11658489Y8671315D02*
X11601346Y8614172D01*
X11601346Y8614172D02*
X11544203Y8499886D01*
X11544203Y8499886D02*
X11544203Y8328458D01*
X11544203Y8328458D02*
X11601346Y8214172D01*
X11601346Y8214172D02*
X11658489Y8157029D01*
X11658489Y8157029D02*
X11772774Y8099886D01*
X11772774Y8099886D02*
X12229917Y8099886D01*
X11029917Y7528458D02*
X11029917Y8728458D01*
X14795632Y9061600D02*
X10864203Y9061600D01*
X4533489Y33620458D02*
X5104917Y33620458D01*
X5104917Y33620458D02*
X5162060Y33049029D01*
X5162060Y33049029D02*
X5104917Y33106172D01*
X5104917Y33106172D02*
X4990632Y33163315D01*
X4990632Y33163315D02*
X4704917Y33163315D01*
X4704917Y33163315D02*
X4590632Y33106172D01*
X4590632Y33106172D02*
X4533489Y33049029D01*
X4533489Y33049029D02*
X4476346Y32934743D01*
X4476346Y32934743D02*
X4476346Y32649029D01*
X4476346Y32649029D02*
X4533489Y32534743D01*
X4533489Y32534743D02*
X4590632Y32477600D01*
X4590632Y32477600D02*
X4704917Y32420458D01*
X4704917Y32420458D02*
X4990632Y32420458D01*
X4990632Y32420458D02*
X5104917Y32477600D01*
X5104917Y32477600D02*
X5162060Y32534743D01*
X4133489Y33620458D02*
X3733489Y32420458D01*
X3733489Y32420458D02*
X3333489Y33620458D01*
X31959060Y38586172D02*
X31901917Y38643315D01*
X31901917Y38643315D02*
X31787632Y38700458D01*
X31787632Y38700458D02*
X31501917Y38700458D01*
X31501917Y38700458D02*
X31387632Y38643315D01*
X31387632Y38643315D02*
X31330489Y38586172D01*
X31330489Y38586172D02*
X31273346Y38471886D01*
X31273346Y38471886D02*
X31273346Y38357600D01*
X31273346Y38357600D02*
X31330489Y38186172D01*
X31330489Y38186172D02*
X32016203Y37500458D01*
X32016203Y37500458D02*
X31273346Y37500458D01*
X30873346Y38700458D02*
X30130489Y38700458D01*
X30130489Y38700458D02*
X30530489Y38243315D01*
X30530489Y38243315D02*
X30359060Y38243315D01*
X30359060Y38243315D02*
X30244775Y38186172D01*
X30244775Y38186172D02*
X30187632Y38129029D01*
X30187632Y38129029D02*
X30130489Y38014743D01*
X30130489Y38014743D02*
X30130489Y37729029D01*
X30130489Y37729029D02*
X30187632Y37614743D01*
X30187632Y37614743D02*
X30244775Y37557600D01*
X30244775Y37557600D02*
X30359060Y37500458D01*
X30359060Y37500458D02*
X30701917Y37500458D01*
X30701917Y37500458D02*
X30816203Y37557600D01*
X30816203Y37557600D02*
X30873346Y37614743D01*
X31959060Y43666172D02*
X31901917Y43723315D01*
X31901917Y43723315D02*
X31787632Y43780458D01*
X31787632Y43780458D02*
X31501917Y43780458D01*
X31501917Y43780458D02*
X31387632Y43723315D01*
X31387632Y43723315D02*
X31330489Y43666172D01*
X31330489Y43666172D02*
X31273346Y43551886D01*
X31273346Y43551886D02*
X31273346Y43437600D01*
X31273346Y43437600D02*
X31330489Y43266172D01*
X31330489Y43266172D02*
X32016203Y42580458D01*
X32016203Y42580458D02*
X31273346Y42580458D01*
X30187632Y43780458D02*
X30759060Y43780458D01*
X30759060Y43780458D02*
X30816203Y43209029D01*
X30816203Y43209029D02*
X30759060Y43266172D01*
X30759060Y43266172D02*
X30644775Y43323315D01*
X30644775Y43323315D02*
X30359060Y43323315D01*
X30359060Y43323315D02*
X30244775Y43266172D01*
X30244775Y43266172D02*
X30187632Y43209029D01*
X30187632Y43209029D02*
X30130489Y43094743D01*
X30130489Y43094743D02*
X30130489Y42809029D01*
X30130489Y42809029D02*
X30187632Y42694743D01*
X30187632Y42694743D02*
X30244775Y42637600D01*
X30244775Y42637600D02*
X30359060Y42580458D01*
X30359060Y42580458D02*
X30644775Y42580458D01*
X30644775Y42580458D02*
X30759060Y42637600D01*
X30759060Y42637600D02*
X30816203Y42694743D01*
X31959060Y36046172D02*
X31901917Y36103315D01*
X31901917Y36103315D02*
X31787632Y36160458D01*
X31787632Y36160458D02*
X31501917Y36160458D01*
X31501917Y36160458D02*
X31387632Y36103315D01*
X31387632Y36103315D02*
X31330489Y36046172D01*
X31330489Y36046172D02*
X31273346Y35931886D01*
X31273346Y35931886D02*
X31273346Y35817600D01*
X31273346Y35817600D02*
X31330489Y35646172D01*
X31330489Y35646172D02*
X32016203Y34960458D01*
X32016203Y34960458D02*
X31273346Y34960458D01*
X30816203Y36046172D02*
X30759060Y36103315D01*
X30759060Y36103315D02*
X30644775Y36160458D01*
X30644775Y36160458D02*
X30359060Y36160458D01*
X30359060Y36160458D02*
X30244775Y36103315D01*
X30244775Y36103315D02*
X30187632Y36046172D01*
X30187632Y36046172D02*
X30130489Y35931886D01*
X30130489Y35931886D02*
X30130489Y35817600D01*
X30130489Y35817600D02*
X30187632Y35646172D01*
X30187632Y35646172D02*
X30873346Y34960458D01*
X30873346Y34960458D02*
X30130489Y34960458D01*
D12*
%TO.C,J2*%
X22606000Y21285200D02*
X23241000Y21285200D01*
X23241000Y21285200D02*
X23241000Y20650200D01*
%TD*%
M02*
