%TF.GenerationSoftware,KiCad,Pcbnew,8.0.4*%
%TF.CreationDate,2024-11-26T16:04:15+06:30*%
%TF.ProjectId,RP2040_DevBoard,52503230-3430-45f4-9465-76426f617264,1.0*%
%TF.SameCoordinates,PX791ddc0PY791ddc0*%
%TF.FileFunction,Copper,L4,Bot*%
%TF.FilePolarity,Positive*%
%FSLAX46Y46*%
G04 Gerber Fmt 4.6, Leading zero omitted, Abs format (unit mm)*
G04 Created by KiCad (PCBNEW 8.0.4) date 2024-11-26 16:04:15*
%MOMM*%
%LPD*%
G01*
G04 APERTURE LIST*
%TA.AperFunction,ComponentPad*%
%ADD10R,1.700000X1.700000*%
%TD*%
%TA.AperFunction,ComponentPad*%
%ADD11O,1.700000X1.700000*%
%TD*%
%TA.AperFunction,ComponentPad*%
%ADD12C,2.000000*%
%TD*%
%TA.AperFunction,ComponentPad*%
%ADD13O,1.000000X2.100000*%
%TD*%
%TA.AperFunction,ComponentPad*%
%ADD14O,1.000000X1.600000*%
%TD*%
%TA.AperFunction,ConnectorPad*%
%ADD15C,0.787400*%
%TD*%
%TA.AperFunction,ViaPad*%
%ADD16C,0.600000*%
%TD*%
%TA.AperFunction,ViaPad*%
%ADD17C,0.800000*%
%TD*%
%TA.AperFunction,Conductor*%
%ADD18C,0.254000*%
%TD*%
%TA.AperFunction,Conductor*%
%ADD19C,0.762000*%
%TD*%
%TA.AperFunction,Conductor*%
%ADD20C,0.160000*%
%TD*%
%TA.AperFunction,Conductor*%
%ADD21C,0.508000*%
%TD*%
%TA.AperFunction,Conductor*%
%ADD22C,0.250000*%
%TD*%
%TA.AperFunction,Conductor*%
%ADD23C,0.200000*%
%TD*%
G04 APERTURE END LIST*
D10*
%TO.P,J4,1,Pin_1*%
%TO.N,GPIO29_ADC3*%
X34290000Y53340000D03*
D11*
%TO.P,J4,2,Pin_2*%
%TO.N,GPIO28_ADC2*%
X34290000Y50800000D03*
%TO.P,J4,3,Pin_3*%
%TO.N,GPIO27_ADC1*%
X34290000Y48260000D03*
%TO.P,J4,4,Pin_4*%
%TO.N,GPIO26_ADC0*%
X34290000Y45720000D03*
%TO.P,J4,5,Pin_5*%
%TO.N,GPIO25*%
X34290000Y43180000D03*
%TO.P,J4,6,Pin_6*%
%TO.N,GPIO24*%
X34290000Y40640000D03*
%TO.P,J4,7,Pin_7*%
%TO.N,GPIO23*%
X34290000Y38100000D03*
%TO.P,J4,8,Pin_8*%
%TO.N,GPIO22*%
X34290000Y35560000D03*
%TO.P,J4,9,Pin_9*%
%TO.N,GPIO21*%
X34290000Y33020000D03*
%TO.P,J4,10,Pin_10*%
%TO.N,GND*%
X34290000Y30480000D03*
%TO.P,J4,11,Pin_11*%
%TO.N,+3V3*%
X34290000Y27940000D03*
%TO.P,J4,12,Pin_12*%
%TO.N,GPIO20*%
X34290000Y25400000D03*
%TO.P,J4,13,Pin_13*%
%TO.N,GPIO19*%
X34290000Y22860000D03*
%TO.P,J4,14,Pin_14*%
%TO.N,GPIO18*%
X34290000Y20320000D03*
%TO.P,J4,15,Pin_15*%
%TO.N,GPIO17*%
X34290000Y17780000D03*
%TO.P,J4,16,Pin_16*%
%TO.N,GPIO16*%
X34290000Y15240000D03*
%TO.P,J4,17,Pin_17*%
%TO.N,~{RST}*%
X34290000Y12700000D03*
%TO.P,J4,18,Pin_18*%
%TO.N,GND*%
X34290000Y10160000D03*
%TO.P,J4,19,Pin_19*%
%TO.N,SWCLK*%
X34290000Y7620000D03*
%TO.P,J4,20,Pin_20*%
%TO.N,SWD*%
X34290000Y5080000D03*
%TD*%
D12*
%TO.P,SW2,1,1*%
%TO.N,GND*%
X25805200Y1560000D03*
X19305200Y1560000D03*
%TO.P,SW2,2,2*%
%TO.N,Net-(R13-Pad2)*%
X25805200Y6060000D03*
X19305200Y6060000D03*
%TD*%
D10*
%TO.P,J3,1,Pin_1*%
%TO.N,GPIO0*%
X1270000Y53340000D03*
D11*
%TO.P,J3,2,Pin_2*%
%TO.N,GPIO1*%
X1270000Y50800000D03*
%TO.P,J3,3,Pin_3*%
%TO.N,GPIO2*%
X1270000Y48260000D03*
%TO.P,J3,4,Pin_4*%
%TO.N,GPIO3*%
X1270000Y45720000D03*
%TO.P,J3,5,Pin_5*%
%TO.N,GPIO4*%
X1270000Y43180000D03*
%TO.P,J3,6,Pin_6*%
%TO.N,GPIO5*%
X1270000Y40640000D03*
%TO.P,J3,7,Pin_7*%
%TO.N,GPIO6*%
X1270000Y38100000D03*
%TO.P,J3,8,Pin_8*%
%TO.N,GPIO7*%
X1270000Y35560000D03*
%TO.P,J3,9,Pin_9*%
%TO.N,+5V*%
X1270000Y33020000D03*
%TO.P,J3,10,Pin_10*%
%TO.N,+3V3*%
X1270000Y30480000D03*
%TO.P,J3,11,Pin_11*%
%TO.N,GPIO8*%
X1270000Y27940000D03*
%TO.P,J3,12,Pin_12*%
%TO.N,GPIO9*%
X1270000Y25400000D03*
%TO.P,J3,13,Pin_13*%
%TO.N,GPIO10*%
X1270000Y22860000D03*
%TO.P,J3,14,Pin_14*%
%TO.N,GPIO11*%
X1270000Y20320000D03*
%TO.P,J3,15,Pin_15*%
%TO.N,GPIO12*%
X1270000Y17780000D03*
%TO.P,J3,16,Pin_16*%
%TO.N,GPIO13*%
X1270000Y15240000D03*
%TO.P,J3,17,Pin_17*%
%TO.N,SCL*%
X1270000Y12700000D03*
%TO.P,J3,18,Pin_18*%
%TO.N,SDA*%
X1270000Y10160000D03*
%TO.P,J3,19,Pin_19*%
%TO.N,+3V3*%
X1270000Y7620000D03*
%TO.P,J3,20,Pin_20*%
%TO.N,GND*%
X1270000Y5080000D03*
%TD*%
D12*
%TO.P,SW1,1,1*%
%TO.N,GND*%
X16254800Y1545200D03*
X9754800Y1545200D03*
%TO.P,SW1,2,2*%
%TO.N,Net-(R12-Pad2)*%
X16254800Y6045200D03*
X9754800Y6045200D03*
%TD*%
D13*
%TO.P,J1,S1,SHIELD*%
%TO.N,unconnected-(J1-SHIELD-PadS1)_2*%
X22100000Y54020000D03*
D14*
%TO.N,unconnected-(J1-SHIELD-PadS1)_1*%
X22100000Y58200000D03*
D13*
%TO.N,unconnected-(J1-SHIELD-PadS1)_3*%
X13460000Y54020000D03*
D14*
%TO.N,unconnected-(J1-SHIELD-PadS1)*%
X13460000Y58200000D03*
%TD*%
D15*
%TO.P,J2,1,VCC*%
%TO.N,+3V3*%
X22606000Y20650200D03*
%TO.P,J2,2,SWDIO*%
%TO.N,SWD*%
X21336000Y20650200D03*
%TO.P,J2,3,~{RESET}*%
%TO.N,~{RST}*%
X22606000Y19380200D03*
%TO.P,J2,4,SWCLK*%
%TO.N,SWCLK*%
X21336000Y19380200D03*
%TO.P,J2,5,GND*%
%TO.N,GND*%
X22606000Y18110200D03*
%TO.P,J2,6,SWO*%
%TO.N,unconnected-(J2-SWO-Pad6)*%
X21336000Y18110200D03*
%TD*%
D16*
%TO.N,GND*%
X32015477Y41368250D03*
X32015477Y48988250D03*
X32015477Y56608250D03*
X29475477Y3268250D03*
X29475477Y10888250D03*
X29475477Y21048250D03*
X26935477Y15968250D03*
X26935477Y26128250D03*
X24395477Y8348250D03*
X24395477Y54068250D03*
X21855477Y3268250D03*
X21855477Y43908250D03*
X19315477Y10888250D03*
X19315477Y56608250D03*
X16775477Y41368250D03*
X14235477Y3268250D03*
X14235477Y13428250D03*
X11695477Y8348250D03*
X11695477Y48988250D03*
X11695477Y56608250D03*
X6615477Y5808250D03*
X6615477Y41368250D03*
X6615477Y54068250D03*
X4075477Y15968250D03*
X4075477Y23588250D03*
X1535477Y3268250D03*
X1535477Y56608250D03*
X21530000Y32845200D03*
X23126258Y31022257D03*
X19558000Y29362400D03*
X25019000Y26746200D03*
X17780000Y27635200D03*
X2794000Y5080000D03*
X18465800Y20472400D03*
X21717000Y50927000D03*
X17957800Y34135000D03*
X17780000Y27635200D03*
X19558000Y27635200D03*
X17780000Y25857200D03*
X12668497Y31628693D03*
X16370627Y20048824D03*
X15625431Y13387334D03*
X17780000Y27635200D03*
X16002000Y25857200D03*
X9398000Y11303000D03*
X10998200Y26365200D03*
X20167600Y33959800D03*
X16002000Y29413200D03*
X16052800Y27635200D03*
X19558000Y25857200D03*
X17775502Y51172925D03*
D17*
X32816800Y10160000D03*
D16*
X17780000Y29413200D03*
X16794184Y24971423D03*
D17*
X32715200Y30480000D03*
D16*
%TO.N,+3V3*%
X19685000Y47752000D03*
X21336000Y31445200D03*
X17983200Y22758400D03*
X5130800Y9144000D03*
X18186400Y31750000D03*
X15875000Y46736000D03*
X14122400Y31445200D03*
X3683000Y30226000D03*
X24790400Y16814800D03*
X22681915Y26455201D03*
X3479800Y44348400D03*
X5130800Y11684000D03*
%TO.N,+5V*%
X11049000Y44450000D03*
X19507200Y49276000D03*
X15341600Y50038000D03*
X4826000Y32766000D03*
X8049200Y39598600D03*
%TO.N,Net-(J1-CC1)*%
X19431000Y51435000D03*
X10541000Y51943000D03*
%TO.N,Net-(J1-CC2)*%
X16002000Y51181000D03*
X13970000Y51181000D03*
%TO.N,SWCLK*%
X19900900Y18923000D03*
%TO.N,SWD*%
X20523200Y21996400D03*
%TO.N,~{RST}*%
X21590000Y13970000D03*
X23698200Y19913600D03*
X20828000Y13208000D03*
%TO.N,GPIO2*%
X11611125Y29922823D03*
%TO.N,GPIO3*%
X11695452Y29018252D03*
%TO.N,GPIO1*%
X12409658Y29971294D03*
%TO.N,GPIO0*%
X13258800Y30015200D03*
%TO.N,/N_USB_D+*%
X17355000Y44780200D03*
X18784246Y34583046D03*
%TO.N,/N_USB_D-*%
X19583379Y34620347D03*
X18205000Y44780200D03*
%TO.N,QSPI_SS*%
X12700000Y13208000D03*
X9753600Y37134800D03*
%TD*%
D18*
%TO.N,+3V3*%
X5130800Y9144000D02*
X5130800Y11684000D01*
D19*
X19685000Y40360600D02*
X24384000Y35661600D01*
D20*
X21336000Y27801116D02*
X22681915Y26455201D01*
D18*
X3683000Y30226000D02*
X3479800Y30429200D01*
X3683000Y30226000D02*
X5130800Y28778200D01*
D19*
X17627600Y46736000D02*
X15875000Y46736000D01*
D20*
X18186400Y31750000D02*
X18389600Y31546800D01*
D18*
X3479800Y30429200D02*
X3479800Y44348400D01*
D20*
X18745200Y24079200D02*
X17983200Y23317200D01*
D18*
X24087200Y20667600D02*
X23926800Y20667600D01*
D20*
X17983200Y23317200D02*
X17983200Y22758400D01*
X20320000Y24079200D02*
X18745200Y24079200D01*
D19*
X24384000Y35661600D02*
X24968200Y35077400D01*
D20*
X18034000Y31445200D02*
X14122400Y31445200D01*
D18*
X23926800Y20667600D02*
X22623400Y20667600D01*
D20*
X18034000Y31597600D02*
X18186400Y31750000D01*
X18186400Y31445200D02*
X18034000Y31445200D01*
D18*
X24087200Y20667600D02*
X24087200Y21531200D01*
D19*
X25527000Y34518600D02*
X32105600Y27940000D01*
D21*
X24409400Y34518600D02*
X24409400Y35636200D01*
D20*
X22681915Y26441115D02*
X20320000Y24079200D01*
D18*
X24087200Y21531200D02*
X21539200Y24079200D01*
D21*
X21336000Y31445200D02*
X24409400Y34518600D01*
X24409400Y34518600D02*
X25527000Y34518600D01*
D20*
X18389600Y31445200D02*
X18186400Y31445200D01*
D19*
X19685000Y47752000D02*
X19685000Y40360600D01*
D21*
X24409400Y34518600D02*
X24968200Y35077400D01*
D19*
X18643600Y47752000D02*
X17627600Y46736000D01*
D20*
X22681915Y26455201D02*
X22681915Y26441115D01*
X18034000Y31445200D02*
X18034000Y31597600D01*
X21336000Y31445200D02*
X21336000Y27801116D01*
X18389600Y31546800D02*
X18389600Y31445200D01*
D18*
X24790400Y19964400D02*
X24087200Y20667600D01*
D20*
X18186400Y31750000D02*
X18186400Y31445200D01*
D18*
X24790400Y16814800D02*
X24790400Y19964400D01*
D19*
X32105600Y27940000D02*
X34290000Y27940000D01*
D18*
X5130800Y28778200D02*
X5130800Y11684000D01*
D21*
X24409400Y35636200D02*
X24384000Y35661600D01*
D20*
X21336000Y31445200D02*
X18389600Y31445200D01*
D19*
X19685000Y47752000D02*
X18643600Y47752000D01*
D18*
X21539200Y24079200D02*
X20320000Y24079200D01*
D19*
X24968200Y35077400D02*
X25527000Y34518600D01*
%TO.N,+5V*%
X11049000Y45720000D02*
X11049000Y44450000D01*
X15341600Y50038000D02*
X15341600Y50012600D01*
X18745200Y50038000D02*
X19507200Y49276000D01*
X15341600Y50012600D02*
X11049000Y45720000D01*
X15341600Y50038000D02*
X18745200Y50038000D01*
D18*
X4826000Y32766000D02*
X4826000Y33528000D01*
X8026400Y36728400D02*
X8026400Y39575800D01*
X8026400Y39575800D02*
X8049200Y39598600D01*
X4826000Y33528000D02*
X8026400Y36728400D01*
D22*
%TO.N,Net-(J1-CC1)*%
X18923695Y51942305D02*
X19431000Y51435000D01*
X10541000Y51943000D02*
X10541695Y51942305D01*
X10541695Y51942305D02*
X18923695Y51942305D01*
D18*
%TO.N,Net-(J1-CC2)*%
X16002000Y51181000D02*
X13970000Y51181000D01*
%TO.N,SWCLK*%
X20358100Y19380200D02*
X21336000Y19380200D01*
X29083000Y7620000D02*
X34290000Y7620000D01*
X19900900Y18923000D02*
X19900900Y16802100D01*
X19900900Y16802100D02*
X29083000Y7620000D01*
X19900900Y18923000D02*
X20358100Y19380200D01*
%TO.N,SWD*%
X20904200Y20650200D02*
X21336000Y20650200D01*
X20523200Y21031200D02*
X20904200Y20650200D01*
X20523200Y21996400D02*
X20523200Y21031200D01*
%TO.N,~{RST}*%
X23698200Y19913600D02*
X23164800Y19380200D01*
D20*
X21590000Y13970000D02*
X20828000Y13208000D01*
D18*
X23164800Y19380200D02*
X22606000Y19380200D01*
D20*
%TO.N,GPIO2*%
X11074400Y40259000D02*
X3073400Y48260000D01*
X3073400Y48260000D02*
X1270000Y48260000D01*
X11074400Y30459548D02*
X11074400Y40259000D01*
X11611125Y29922823D02*
X11074400Y30459548D01*
%TO.N,GPIO3*%
X11373377Y29342823D02*
X11370881Y29342823D01*
X5104284Y45720000D02*
X1270000Y45720000D01*
X11695452Y29018252D02*
X11695452Y29020748D01*
X11370881Y29342823D02*
X10714400Y29999304D01*
X10714400Y29999304D02*
X10714400Y40109884D01*
X11695452Y29020748D02*
X11373377Y29342823D01*
X10714400Y40109884D02*
X5104284Y45720000D01*
%TO.N,GPIO1*%
X2489200Y50800000D02*
X1270000Y50800000D01*
X11988800Y30392152D02*
X11988800Y41300400D01*
X11988800Y41300400D02*
X2489200Y50800000D01*
X12409658Y29971294D02*
X11988800Y30392152D01*
%TO.N,GPIO0*%
X13258800Y41046400D02*
X4191000Y50114200D01*
X4191000Y50114200D02*
X4191000Y51562000D01*
X2413000Y53340000D02*
X1270000Y53340000D01*
X4191000Y51562000D02*
X2413000Y53340000D01*
X13258800Y30015200D02*
X13258800Y41046400D01*
D23*
%TO.N,/N_USB_D+*%
X18332815Y35246609D02*
X18728796Y34850627D01*
X17554999Y36304550D02*
X17554999Y36024424D01*
X17554999Y35642588D02*
X17950978Y35246609D01*
X18728796Y34850627D02*
X18753799Y34825624D01*
X18784246Y34795177D02*
X18784246Y34583046D01*
X18753799Y34825624D02*
X18784246Y34795177D01*
X17554999Y44580201D02*
X17554999Y36304550D01*
X17355000Y44780200D02*
X17554999Y44580201D01*
X17554999Y36024424D02*
G75*
G02*
X17554964Y35833541I-95499J-95424D01*
G01*
X17554999Y35833506D02*
G75*
G03*
X17554952Y35642541I95501J-95506D01*
G01*
X18141897Y35246609D02*
G75*
G02*
X18332815Y35246609I95459J-95460D01*
G01*
X17950978Y35246609D02*
G75*
G03*
X18141897Y35246608I95460J95462D01*
G01*
%TO.N,/N_USB_D-*%
X19583379Y34632442D02*
X18005001Y36210820D01*
X18005001Y44580201D02*
X18205000Y44780200D01*
X19583379Y34620347D02*
X19583379Y34632442D01*
X18005001Y36210820D02*
X18005001Y44580201D01*
D18*
%TO.N,QSPI_SS*%
X12700000Y14097000D02*
X9753600Y17043400D01*
X12700000Y13208000D02*
X12700000Y14097000D01*
X9753600Y17043400D02*
X9753600Y37134800D01*
%TD*%
%TA.AperFunction,Conductor*%
%TO.N,GND*%
G36*
X4983063Y45369815D02*
G01*
X5003705Y45353181D01*
X10347581Y40009305D01*
X10381066Y39947982D01*
X10383900Y39921624D01*
X10383900Y37582964D01*
X10364215Y37515925D01*
X10311411Y37470170D01*
X10242253Y37460226D01*
X10178697Y37489251D01*
X10161525Y37507476D01*
X10155042Y37515925D01*
X10146221Y37527421D01*
X10031225Y37615661D01*
X10031224Y37615662D01*
X10031222Y37615663D01*
X9897312Y37671129D01*
X9897310Y37671130D01*
X9897309Y37671130D01*
X9825454Y37680590D01*
X9753601Y37690050D01*
X9753599Y37690050D01*
X9609891Y37671130D01*
X9609887Y37671129D01*
X9475977Y37615663D01*
X9360979Y37527421D01*
X9272737Y37412423D01*
X9217271Y37278513D01*
X9217270Y37278509D01*
X9198350Y37134801D01*
X9198350Y37134800D01*
X9217270Y36991092D01*
X9217271Y36991088D01*
X9272738Y36857177D01*
X9272739Y36857175D01*
X9350475Y36755867D01*
X9375670Y36690700D01*
X9376100Y36680382D01*
X9376100Y17093099D01*
X9376100Y16993701D01*
X9401826Y16897690D01*
X9451525Y16811610D01*
X9451527Y16811608D01*
X12286181Y13976954D01*
X12319666Y13915631D01*
X12322500Y13889273D01*
X12322500Y13881544D01*
X12316957Y13844883D01*
X12181899Y13408497D01*
X12181626Y13406365D01*
X12173200Y13374718D01*
X12163672Y13351713D01*
X12163670Y13351709D01*
X12144750Y13208000D01*
X12159067Y13099250D01*
X12163670Y13064292D01*
X12163671Y13064288D01*
X12219137Y12930378D01*
X12219138Y12930376D01*
X12219139Y12930375D01*
X12307379Y12815379D01*
X12422375Y12727139D01*
X12556291Y12671670D01*
X12683280Y12654952D01*
X12699999Y12652750D01*
X12700000Y12652750D01*
X12700001Y12652750D01*
X12714977Y12654722D01*
X12843709Y12671670D01*
X12977625Y12727139D01*
X13092621Y12815379D01*
X13180861Y12930375D01*
X13236330Y13064291D01*
X13255250Y13208000D01*
X13236330Y13351709D01*
X13226777Y13374771D01*
X13219721Y13402618D01*
X13219319Y13402535D01*
X13218099Y13408493D01*
X13218098Y13408502D01*
X13083043Y13844883D01*
X13077500Y13881543D01*
X13077500Y14146697D01*
X13077499Y14146701D01*
X13060983Y14208344D01*
X13060983Y14208345D01*
X13051774Y14242709D01*
X13051774Y14242710D01*
X13047186Y14250656D01*
X13002075Y14328790D01*
X10167419Y17163446D01*
X10133934Y17224769D01*
X10131100Y17251127D01*
X10131100Y36680382D01*
X10150785Y36747421D01*
X10156715Y36755856D01*
X10161528Y36762129D01*
X10217956Y36803328D01*
X10287703Y36807480D01*
X10348622Y36773265D01*
X10381372Y36711547D01*
X10383900Y36686637D01*
X10383900Y29955794D01*
X10406423Y29871737D01*
X10406423Y29871736D01*
X10449933Y29796374D01*
X10449935Y29796371D01*
X11102074Y29144233D01*
X11102095Y29144210D01*
X11107182Y29139123D01*
X11107838Y29137921D01*
X11109652Y29135935D01*
X11109662Y29135923D01*
X11109158Y29135504D01*
X11140667Y29077800D01*
X11142441Y29035260D01*
X11140202Y29018251D01*
X11142174Y29003270D01*
X11152622Y28923911D01*
X11159122Y28874544D01*
X11159123Y28874540D01*
X11214589Y28740630D01*
X11214590Y28740628D01*
X11214591Y28740627D01*
X11302831Y28625631D01*
X11417827Y28537391D01*
X11551743Y28481922D01*
X11678732Y28465204D01*
X11695451Y28463002D01*
X11695452Y28463002D01*
X11695453Y28463002D01*
X11710429Y28464974D01*
X11839161Y28481922D01*
X11973077Y28537391D01*
X12088073Y28625631D01*
X12176313Y28740627D01*
X12231782Y28874543D01*
X12250702Y29018252D01*
X12231782Y29161961D01*
X12192397Y29257045D01*
X12184929Y29326512D01*
X12216204Y29388991D01*
X12276293Y29424643D01*
X12323144Y29427434D01*
X12367109Y29421646D01*
X12409657Y29416044D01*
X12409658Y29416044D01*
X12409659Y29416044D01*
X12424635Y29418016D01*
X12553367Y29434964D01*
X12687283Y29490433D01*
X12787352Y29567220D01*
X12852520Y29592414D01*
X12920965Y29578376D01*
X12938318Y29567225D01*
X12981175Y29534339D01*
X12981176Y29534339D01*
X12981177Y29534338D01*
X13025813Y29515850D01*
X13115091Y29478870D01*
X13242080Y29462152D01*
X13258799Y29459950D01*
X13258800Y29459950D01*
X13258801Y29459950D01*
X13273777Y29461922D01*
X13402509Y29478870D01*
X13536425Y29534339D01*
X13651421Y29622579D01*
X13739661Y29737575D01*
X13795130Y29871491D01*
X13814050Y30015200D01*
X13795130Y30158909D01*
X13739661Y30292825D01*
X13651421Y30407821D01*
X13651419Y30407823D01*
X13651418Y30407824D01*
X13637812Y30418264D01*
X13596610Y30474693D01*
X13589300Y30516639D01*
X13589300Y30908926D01*
X13608985Y30975965D01*
X13661789Y31021720D01*
X13730947Y31031664D01*
X13788783Y31007303D01*
X13844775Y30964339D01*
X13978691Y30908870D01*
X14105680Y30892152D01*
X14122399Y30889950D01*
X14122400Y30889950D01*
X14122401Y30889950D01*
X14158327Y30894680D01*
X14266109Y30908870D01*
X14307765Y30926125D01*
X14331837Y30933338D01*
X14344125Y30935696D01*
X14762181Y31105578D01*
X14808863Y31114700D01*
X17990489Y31114700D01*
X18077511Y31114700D01*
X18142889Y31114700D01*
X18229911Y31114700D01*
X18346089Y31114700D01*
X18368100Y31114700D01*
X18377780Y31114305D01*
X18377904Y31114313D01*
X18377906Y31114312D01*
X18377907Y31114313D01*
X18381112Y31114496D01*
X18388222Y31114700D01*
X18548592Y31114700D01*
X18561847Y31113873D01*
X18561857Y31113970D01*
X18563368Y31113819D01*
X18563378Y31113817D01*
X18565701Y31113584D01*
X18586955Y31112521D01*
X18591205Y31112308D01*
X18591205Y31112309D01*
X18591206Y31112308D01*
X18591251Y31112318D01*
X18615445Y31114700D01*
X20649536Y31114700D01*
X20696217Y31105577D01*
X20861155Y31038553D01*
X20915852Y30995079D01*
X20929351Y30970358D01*
X20996377Y30805418D01*
X21005500Y30758736D01*
X21005500Y27844627D01*
X21005500Y27757605D01*
X21011044Y27736917D01*
X21028023Y27673549D01*
X21028023Y27673548D01*
X21071533Y27598186D01*
X21071535Y27598183D01*
X21962810Y26706908D01*
X21989369Y26667448D01*
X22061555Y26496434D01*
X22069490Y26427017D01*
X22062449Y26402167D01*
X21996510Y26237292D01*
X21969057Y26195657D01*
X20238881Y24465481D01*
X20183300Y24433389D01*
X20174297Y24430977D01*
X20174288Y24430973D01*
X20166218Y24426313D01*
X20104218Y24409700D01*
X18701689Y24409700D01*
X18617632Y24387177D01*
X18617631Y24387177D01*
X18542269Y24343667D01*
X18542266Y24343665D01*
X17718735Y23520134D01*
X17718733Y23520131D01*
X17675223Y23444769D01*
X17675223Y23444768D01*
X17652700Y23360711D01*
X17652700Y23259839D01*
X17633015Y23192800D01*
X17604188Y23161464D01*
X17590581Y23151024D01*
X17502337Y23036023D01*
X17446871Y22902113D01*
X17446870Y22902109D01*
X17427950Y22758401D01*
X17427950Y22758400D01*
X17446870Y22614692D01*
X17446871Y22614688D01*
X17502337Y22480778D01*
X17502338Y22480776D01*
X17502339Y22480775D01*
X17590579Y22365779D01*
X17705575Y22277539D01*
X17705576Y22277539D01*
X17705577Y22277538D01*
X17750213Y22259050D01*
X17839491Y22222070D01*
X17966480Y22205352D01*
X17983199Y22203150D01*
X17983200Y22203150D01*
X17983201Y22203150D01*
X17998177Y22205122D01*
X18126909Y22222070D01*
X18260825Y22277539D01*
X18375821Y22365779D01*
X18464061Y22480775D01*
X18519530Y22614691D01*
X18538450Y22758400D01*
X18519530Y22902109D01*
X18464061Y23036025D01*
X18464060Y23036026D01*
X18464060Y23036027D01*
X18402336Y23116466D01*
X18377141Y23181635D01*
X18391179Y23250080D01*
X18413026Y23279630D01*
X18845779Y23712381D01*
X18907102Y23745866D01*
X18933460Y23748700D01*
X20104218Y23748700D01*
X20166217Y23732088D01*
X20174291Y23727426D01*
X20270301Y23701700D01*
X21331473Y23701700D01*
X21398512Y23682015D01*
X21419154Y23665381D01*
X23673381Y21411154D01*
X23706866Y21349831D01*
X23709700Y21323473D01*
X23709700Y21169100D01*
X23690015Y21102061D01*
X23637211Y21056306D01*
X23585700Y21045100D01*
X23178741Y21045100D01*
X23111702Y21064785D01*
X23096514Y21076285D01*
X22974636Y21184260D01*
X22836112Y21256962D01*
X22684220Y21294400D01*
X22527780Y21294400D01*
X22527775Y21294400D01*
X22508459Y21289639D01*
X22438657Y21292709D01*
X22381595Y21333030D01*
X22355391Y21397800D01*
X22368364Y21466454D01*
X22391099Y21497711D01*
X22447759Y21554370D01*
X22526197Y21690230D01*
X22566800Y21841761D01*
X22566800Y21998639D01*
X22526197Y22150170D01*
X22447759Y22286030D01*
X22336830Y22396959D01*
X22200970Y22475397D01*
X22200971Y22475397D01*
X22163087Y22485548D01*
X22049439Y22516000D01*
X21892561Y22516000D01*
X21778912Y22485548D01*
X21741029Y22475397D01*
X21605171Y22396960D01*
X21605168Y22396958D01*
X21494242Y22286032D01*
X21494240Y22286029D01*
X21415803Y22150171D01*
X21415803Y22150170D01*
X21375200Y21998639D01*
X21375200Y21841761D01*
X21396306Y21762993D01*
X21415803Y21690230D01*
X21494240Y21554372D01*
X21494242Y21554369D01*
X21550894Y21497717D01*
X21584379Y21436394D01*
X21579395Y21366702D01*
X21537523Y21310769D01*
X21472059Y21286352D01*
X21433539Y21289639D01*
X21414222Y21294400D01*
X21414220Y21294400D01*
X21257780Y21294400D01*
X21105887Y21256962D01*
X21091559Y21249443D01*
X21082324Y21244595D01*
X21013817Y21230871D01*
X20948764Y21256363D01*
X20907820Y21312979D01*
X20900700Y21354392D01*
X20900700Y21541982D01*
X20920385Y21609021D01*
X20926316Y21617458D01*
X21004061Y21718775D01*
X21059530Y21852691D01*
X21078450Y21996400D01*
X21078155Y21998637D01*
X21066595Y22086445D01*
X21059530Y22140109D01*
X21004061Y22274025D01*
X20915821Y22389021D01*
X20800825Y22477261D01*
X20800824Y22477262D01*
X20800822Y22477263D01*
X20666912Y22532729D01*
X20666910Y22532730D01*
X20666909Y22532730D01*
X20595054Y22542190D01*
X20523201Y22551650D01*
X20523199Y22551650D01*
X20379491Y22532730D01*
X20379487Y22532729D01*
X20245577Y22477263D01*
X20130579Y22389021D01*
X20042337Y22274023D01*
X19986871Y22140113D01*
X19986870Y22140109D01*
X19967950Y21996401D01*
X19967950Y21996400D01*
X19986870Y21852692D01*
X19986871Y21852688D01*
X20024025Y21762990D01*
X20042339Y21718775D01*
X20120075Y21617467D01*
X20145270Y21552300D01*
X20145700Y21541982D01*
X20145700Y21080899D01*
X20145700Y20981501D01*
X20171426Y20885490D01*
X20221125Y20799410D01*
X20672409Y20348125D01*
X20721124Y20320000D01*
X20758491Y20298426D01*
X20760522Y20297882D01*
X20762043Y20296955D01*
X20765995Y20295318D01*
X20765739Y20294702D01*
X20820183Y20261518D01*
X20830478Y20248549D01*
X20850268Y20219879D01*
X20850270Y20219877D01*
X20850272Y20219875D01*
X20972979Y20111166D01*
X20971783Y20109817D01*
X21009751Y20062955D01*
X21017404Y19993506D01*
X20986294Y19930944D01*
X20972892Y19919332D01*
X20972979Y19919234D01*
X20850268Y19810522D01*
X20845294Y19804907D01*
X20844168Y19805904D01*
X20796493Y19767269D01*
X20748728Y19757700D01*
X20308401Y19757700D01*
X20212391Y19731974D01*
X20176008Y19710969D01*
X20176007Y19710969D01*
X20126312Y19682277D01*
X20126310Y19682276D01*
X19955289Y19511256D01*
X19893965Y19477772D01*
X19883795Y19475999D01*
X19757191Y19459330D01*
X19757187Y19459329D01*
X19623277Y19403863D01*
X19508279Y19315621D01*
X19420037Y19200623D01*
X19364571Y19066713D01*
X19364570Y19066709D01*
X19348628Y18945616D01*
X19345650Y18923000D01*
X19356601Y18839817D01*
X19364570Y18779292D01*
X19364571Y18779288D01*
X19420038Y18645377D01*
X19420039Y18645375D01*
X19497775Y18544067D01*
X19522970Y18478900D01*
X19523400Y18468582D01*
X19523400Y16851799D01*
X19523400Y16752401D01*
X19549126Y16656390D01*
X19598825Y16570310D01*
X19598827Y16570308D01*
X21468165Y14700970D01*
X21501650Y14639647D01*
X21496666Y14569955D01*
X21454794Y14514022D01*
X21427937Y14498728D01*
X21312376Y14450862D01*
X21312375Y14450861D01*
X21197379Y14362621D01*
X21171420Y14328790D01*
X21109137Y14247622D01*
X21091890Y14205985D01*
X21079970Y14183862D01*
X21072943Y14173497D01*
X21072941Y14173493D01*
X21027375Y14065547D01*
X21027376Y14065546D01*
X20959434Y13904587D01*
X20915228Y13850479D01*
X20893416Y13838569D01*
X20624504Y13725058D01*
X20613741Y13717800D01*
X20591871Y13706051D01*
X20550381Y13688865D01*
X20550378Y13688864D01*
X20435379Y13600621D01*
X20347137Y13485623D01*
X20291671Y13351713D01*
X20291670Y13351710D01*
X20291670Y13351709D01*
X20272750Y13208000D01*
X20287067Y13099250D01*
X20291670Y13064292D01*
X20291671Y13064288D01*
X20347137Y12930378D01*
X20347138Y12930376D01*
X20347139Y12930375D01*
X20435379Y12815379D01*
X20550375Y12727139D01*
X20684291Y12671670D01*
X20811280Y12654952D01*
X20827999Y12652750D01*
X20828000Y12652750D01*
X20828001Y12652750D01*
X20842977Y12654722D01*
X20971709Y12671670D01*
X21105625Y12727139D01*
X21220621Y12815379D01*
X21308861Y12930375D01*
X21326111Y12972024D01*
X21338034Y12994150D01*
X21345058Y13004509D01*
X21458566Y13273418D01*
X21502771Y13327524D01*
X21524579Y13339433D01*
X21793491Y13452942D01*
X21804246Y13460195D01*
X21826123Y13471950D01*
X21867625Y13489139D01*
X21982621Y13577379D01*
X22070861Y13692375D01*
X22118728Y13807940D01*
X22162567Y13862340D01*
X22228861Y13884406D01*
X22296560Y13867128D01*
X22320968Y13848167D01*
X28851209Y7317925D01*
X28851210Y7317924D01*
X28851212Y7317923D01*
X28900905Y7289234D01*
X28900907Y7289232D01*
X28900908Y7289232D01*
X28937291Y7268226D01*
X29033301Y7242500D01*
X33171810Y7242500D01*
X33238849Y7222815D01*
X33282810Y7173771D01*
X33350325Y7038181D01*
X33473237Y6875419D01*
X33623958Y6738020D01*
X33623960Y6738018D01*
X33705319Y6687643D01*
X33797363Y6630652D01*
X33987544Y6556976D01*
X34188024Y6519500D01*
X34188026Y6519500D01*
X34391974Y6519500D01*
X34391976Y6519500D01*
X34592456Y6556976D01*
X34782637Y6630652D01*
X34956041Y6738019D01*
X35101962Y6871043D01*
X35164766Y6901660D01*
X35234153Y6893462D01*
X35288093Y6849053D01*
X35309461Y6782530D01*
X35309500Y6779406D01*
X35309500Y5920595D01*
X35289815Y5853556D01*
X35237011Y5807801D01*
X35167853Y5797857D01*
X35104297Y5826882D01*
X35101962Y5828958D01*
X34956042Y5961981D01*
X34956039Y5961983D01*
X34782642Y6069345D01*
X34782635Y6069349D01*
X34629988Y6128484D01*
X34592456Y6143024D01*
X34391976Y6180500D01*
X34188024Y6180500D01*
X33987544Y6143024D01*
X33987541Y6143024D01*
X33987541Y6143023D01*
X33797364Y6069349D01*
X33797357Y6069345D01*
X33623960Y5961983D01*
X33623958Y5961981D01*
X33473237Y5824582D01*
X33350327Y5661822D01*
X33259422Y5479261D01*
X33259417Y5479248D01*
X33203602Y5283083D01*
X33184785Y5080001D01*
X33184785Y5080000D01*
X33203602Y4876918D01*
X33259417Y4680753D01*
X33259422Y4680740D01*
X33350327Y4498179D01*
X33473237Y4335419D01*
X33623958Y4198020D01*
X33623960Y4198018D01*
X33723141Y4136608D01*
X33797363Y4090652D01*
X33987544Y4016976D01*
X34188024Y3979500D01*
X34188026Y3979500D01*
X34391974Y3979500D01*
X34391976Y3979500D01*
X34592456Y4016976D01*
X34782637Y4090652D01*
X34956041Y4198019D01*
X35101962Y4331043D01*
X35164766Y4361660D01*
X35234153Y4353462D01*
X35288093Y4309053D01*
X35309461Y4242530D01*
X35309500Y4239406D01*
X35309500Y3813052D01*
X35309351Y3806967D01*
X35292658Y3467191D01*
X35291465Y3455081D01*
X35241998Y3121603D01*
X35239624Y3109669D01*
X35157707Y2782634D01*
X35154174Y2770989D01*
X35040604Y2453583D01*
X35035948Y2442340D01*
X34891801Y2137565D01*
X34886064Y2126833D01*
X34712750Y1837678D01*
X34705990Y1827560D01*
X34505156Y1556766D01*
X34497436Y1547360D01*
X34271038Y1297567D01*
X34262433Y1288962D01*
X34012640Y1062564D01*
X34003234Y1054844D01*
X33732440Y854010D01*
X33722322Y847250D01*
X33433167Y673936D01*
X33422435Y668199D01*
X33117660Y524052D01*
X33106417Y519396D01*
X32789011Y405826D01*
X32777366Y402293D01*
X32450331Y320376D01*
X32438397Y318002D01*
X32104919Y268535D01*
X32092809Y267342D01*
X31772559Y251609D01*
X31753031Y250649D01*
X31746949Y250500D01*
X26801862Y250500D01*
X26734823Y270185D01*
X26691729Y319918D01*
X25975434Y1036213D01*
X26017492Y1047482D01*
X26142908Y1119890D01*
X26245310Y1222292D01*
X26317718Y1347708D01*
X26328987Y1389765D01*
X27028634Y690118D01*
X27128931Y843631D01*
X27228787Y1071283D01*
X27289812Y1312262D01*
X27289814Y1312271D01*
X27310341Y1559995D01*
X27310341Y1560006D01*
X27289814Y1807730D01*
X27289812Y1807739D01*
X27228787Y2048718D01*
X27128931Y2276370D01*
X27028634Y2429884D01*
X26328987Y1730236D01*
X26317718Y1772292D01*
X26245310Y1897708D01*
X26142908Y2000110D01*
X26017492Y2072518D01*
X25975435Y2083788D01*
X26675257Y2783610D01*
X26675256Y2783611D01*
X26628429Y2820057D01*
X26409814Y2938365D01*
X26409803Y2938370D01*
X26174693Y3019084D01*
X25929493Y3060000D01*
X25680907Y3060000D01*
X25435706Y3019084D01*
X25200596Y2938370D01*
X25200590Y2938368D01*
X24981961Y2820051D01*
X24935142Y2783612D01*
X24935142Y2783610D01*
X25634965Y2083788D01*
X25592908Y2072518D01*
X25467492Y2000110D01*
X25365090Y1897708D01*
X25292682Y1772292D01*
X25281412Y1730236D01*
X24581764Y2429884D01*
X24481467Y2276368D01*
X24381612Y2048718D01*
X24320587Y1807739D01*
X24320585Y1807730D01*
X24300059Y1560006D01*
X24300059Y1559995D01*
X24320585Y1312271D01*
X24320587Y1312262D01*
X24381612Y1071283D01*
X24481466Y843636D01*
X24581764Y690118D01*
X25281412Y1389766D01*
X25292682Y1347708D01*
X25365090Y1222292D01*
X25467492Y1119890D01*
X25592908Y1047482D01*
X25634965Y1036213D01*
X24917982Y319231D01*
X24916804Y314049D01*
X24866934Y265112D01*
X24808537Y250500D01*
X20301862Y250500D01*
X20234823Y270185D01*
X20191729Y319918D01*
X19475434Y1036213D01*
X19517492Y1047482D01*
X19642908Y1119890D01*
X19745310Y1222292D01*
X19817718Y1347708D01*
X19828987Y1389765D01*
X20528634Y690118D01*
X20628931Y843631D01*
X20728787Y1071283D01*
X20789812Y1312262D01*
X20789814Y1312271D01*
X20810341Y1559995D01*
X20810341Y1560006D01*
X20789814Y1807730D01*
X20789812Y1807739D01*
X20728787Y2048718D01*
X20628931Y2276370D01*
X20528634Y2429884D01*
X19828987Y1730236D01*
X19817718Y1772292D01*
X19745310Y1897708D01*
X19642908Y2000110D01*
X19517492Y2072518D01*
X19475435Y2083788D01*
X20175257Y2783610D01*
X20175256Y2783611D01*
X20128429Y2820057D01*
X19909814Y2938365D01*
X19909803Y2938370D01*
X19674693Y3019084D01*
X19429493Y3060000D01*
X19180907Y3060000D01*
X18935706Y3019084D01*
X18700596Y2938370D01*
X18700590Y2938368D01*
X18481961Y2820051D01*
X18435142Y2783612D01*
X18435142Y2783610D01*
X19134965Y2083788D01*
X19092908Y2072518D01*
X18967492Y2000110D01*
X18865090Y1897708D01*
X18792682Y1772292D01*
X18781412Y1730236D01*
X18081764Y2429884D01*
X17981467Y2276368D01*
X17890310Y2068548D01*
X17845354Y2015062D01*
X17778618Y1994372D01*
X17711290Y2013047D01*
X17664747Y2065157D01*
X17663198Y2068548D01*
X17578531Y2261570D01*
X17478234Y2415084D01*
X16778587Y1715436D01*
X16767318Y1757492D01*
X16694910Y1882908D01*
X16592508Y1985310D01*
X16467092Y2057718D01*
X16425035Y2068988D01*
X17124857Y2768810D01*
X17124856Y2768811D01*
X17078029Y2805257D01*
X16859414Y2923565D01*
X16859403Y2923570D01*
X16624293Y3004284D01*
X16379093Y3045200D01*
X16130507Y3045200D01*
X15885306Y3004284D01*
X15650196Y2923570D01*
X15650190Y2923568D01*
X15431561Y2805251D01*
X15384742Y2768812D01*
X15384742Y2768810D01*
X16084565Y2068988D01*
X16042508Y2057718D01*
X15917092Y1985310D01*
X15814690Y1882908D01*
X15742282Y1757492D01*
X15731012Y1715436D01*
X15031364Y2415084D01*
X14931067Y2261568D01*
X14831212Y2033918D01*
X14770187Y1792939D01*
X14770185Y1792930D01*
X14749659Y1545206D01*
X14749659Y1545195D01*
X14770185Y1297471D01*
X14770187Y1297462D01*
X14831212Y1056483D01*
X14931066Y828836D01*
X15031364Y675318D01*
X15731012Y1374966D01*
X15742282Y1332908D01*
X15814690Y1207492D01*
X15917092Y1105090D01*
X16042508Y1032682D01*
X16084565Y1021413D01*
X15349971Y286819D01*
X15288648Y253334D01*
X15262290Y250500D01*
X10747309Y250500D01*
X10680270Y270185D01*
X10659628Y286819D01*
X9925034Y1021413D01*
X9967092Y1032682D01*
X10092508Y1105090D01*
X10194910Y1207492D01*
X10267318Y1332908D01*
X10278587Y1374965D01*
X10978234Y675318D01*
X11078531Y828831D01*
X11178387Y1056483D01*
X11239412Y1297462D01*
X11239414Y1297471D01*
X11259941Y1545195D01*
X11259941Y1545206D01*
X11239414Y1792930D01*
X11239412Y1792939D01*
X11178387Y2033918D01*
X11078531Y2261570D01*
X10978234Y2415084D01*
X10278587Y1715436D01*
X10267318Y1757492D01*
X10194910Y1882908D01*
X10092508Y1985310D01*
X9967092Y2057718D01*
X9925035Y2068988D01*
X10624857Y2768810D01*
X10624856Y2768811D01*
X10578029Y2805257D01*
X10359414Y2923565D01*
X10359403Y2923570D01*
X10124293Y3004284D01*
X9879093Y3045200D01*
X9630507Y3045200D01*
X9385306Y3004284D01*
X9150196Y2923570D01*
X9150190Y2923568D01*
X8931561Y2805251D01*
X8884742Y2768812D01*
X8884742Y2768810D01*
X9584565Y2068988D01*
X9542508Y2057718D01*
X9417092Y1985310D01*
X9314690Y1882908D01*
X9242282Y1757492D01*
X9231012Y1715436D01*
X8531364Y2415084D01*
X8431067Y2261568D01*
X8331212Y2033918D01*
X8270187Y1792939D01*
X8270185Y1792930D01*
X8249659Y1545206D01*
X8249659Y1545195D01*
X8270185Y1297471D01*
X8270187Y1297462D01*
X8331212Y1056483D01*
X8431066Y828836D01*
X8531364Y675318D01*
X9231012Y1374966D01*
X9242282Y1332908D01*
X9314690Y1207492D01*
X9417092Y1105090D01*
X9542508Y1032682D01*
X9584565Y1021413D01*
X8849971Y286819D01*
X8788648Y253334D01*
X8762290Y250500D01*
X3813051Y250500D01*
X3806968Y250649D01*
X3786300Y251665D01*
X3467190Y267342D01*
X3455080Y268535D01*
X3121602Y318002D01*
X3109668Y320376D01*
X2782633Y402293D01*
X2770992Y405825D01*
X2612285Y462611D01*
X2453582Y519396D01*
X2442339Y524052D01*
X2137564Y668199D01*
X2126837Y673934D01*
X1843715Y843631D01*
X1837677Y847250D01*
X1827559Y854010D01*
X1556765Y1054844D01*
X1547359Y1062564D01*
X1381166Y1213192D01*
X1297558Y1288970D01*
X1288969Y1297559D01*
X1062563Y1547360D01*
X1054843Y1556766D01*
X1009719Y1617609D01*
X854007Y1827563D01*
X847249Y1837678D01*
X820139Y1882908D01*
X673928Y2126845D01*
X668204Y2137553D01*
X524048Y2442346D01*
X519395Y2453583D01*
X496264Y2518230D01*
X405820Y2771006D01*
X402295Y2782623D01*
X320375Y3109669D01*
X318001Y3121603D01*
X268534Y3455081D01*
X267341Y3467192D01*
X259722Y3622272D01*
X250669Y3806567D01*
X250649Y3806968D01*
X250500Y3813052D01*
X250500Y3907615D01*
X270185Y3974654D01*
X322989Y4020409D01*
X392147Y4030353D01*
X445624Y4009189D01*
X592414Y3906405D01*
X592420Y3906401D01*
X806507Y3806571D01*
X806516Y3806567D01*
X1020000Y3749366D01*
X1020000Y4646988D01*
X1077007Y4614075D01*
X1204174Y4580000D01*
X1335826Y4580000D01*
X1462993Y4614075D01*
X1520000Y4646988D01*
X1520000Y3749367D01*
X1733483Y3806567D01*
X1733492Y3806571D01*
X1947578Y3906400D01*
X2141082Y4041895D01*
X2308105Y4208918D01*
X2443600Y4402422D01*
X2543429Y4616508D01*
X2543432Y4616514D01*
X2600636Y4830000D01*
X1703012Y4830000D01*
X1735925Y4887007D01*
X1770000Y5014174D01*
X1770000Y5145826D01*
X1735925Y5272993D01*
X1703012Y5330000D01*
X2600636Y5330000D01*
X2600635Y5330001D01*
X2543432Y5543487D01*
X2543429Y5543493D01*
X2443600Y5757578D01*
X2443599Y5757580D01*
X2308113Y5951074D01*
X2308108Y5951080D01*
X2213985Y6045203D01*
X8499523Y6045203D01*
X8499523Y6045198D01*
X8507757Y5951080D01*
X8517298Y5842021D01*
X8518593Y5827225D01*
X8518593Y5827221D01*
X8575222Y5615878D01*
X8575224Y5615874D01*
X8575225Y5615870D01*
X8607841Y5545925D01*
X8667697Y5417562D01*
X8667698Y5417561D01*
X8793202Y5238323D01*
X8947923Y5083602D01*
X9127161Y4958098D01*
X9325470Y4865625D01*
X9536823Y4808993D01*
X9719726Y4792992D01*
X9754798Y4789923D01*
X9754800Y4789923D01*
X9754802Y4789923D01*
X9783054Y4792395D01*
X9972777Y4808993D01*
X10184130Y4865625D01*
X10382439Y4958098D01*
X10561677Y5083602D01*
X10716398Y5238323D01*
X10841902Y5417561D01*
X10934375Y5615870D01*
X10991007Y5827223D01*
X11010077Y6045200D01*
X11010077Y6045203D01*
X14999523Y6045203D01*
X14999523Y6045198D01*
X15007757Y5951080D01*
X15017298Y5842021D01*
X15018593Y5827225D01*
X15018593Y5827221D01*
X15075222Y5615878D01*
X15075224Y5615874D01*
X15075225Y5615870D01*
X15107841Y5545925D01*
X15167697Y5417562D01*
X15167698Y5417561D01*
X15293202Y5238323D01*
X15447923Y5083602D01*
X15627161Y4958098D01*
X15825470Y4865625D01*
X16036823Y4808993D01*
X16219726Y4792992D01*
X16254798Y4789923D01*
X16254800Y4789923D01*
X16254802Y4789923D01*
X16283054Y4792395D01*
X16472777Y4808993D01*
X16684130Y4865625D01*
X16882439Y4958098D01*
X17061677Y5083602D01*
X17216398Y5238323D01*
X17341902Y5417561D01*
X17434375Y5615870D01*
X17491007Y5827223D01*
X17510077Y6045200D01*
X17508782Y6059998D01*
X17508782Y6060003D01*
X18049923Y6060003D01*
X18049923Y6059998D01*
X18068993Y5842025D01*
X18068993Y5842021D01*
X18125622Y5630678D01*
X18125624Y5630674D01*
X18125625Y5630670D01*
X18132527Y5615869D01*
X18218097Y5432362D01*
X18218098Y5432361D01*
X18343602Y5253123D01*
X18498323Y5098402D01*
X18677561Y4972898D01*
X18875870Y4880425D01*
X19087223Y4823793D01*
X19270126Y4807792D01*
X19305198Y4804723D01*
X19305200Y4804723D01*
X19305202Y4804723D01*
X19333454Y4807195D01*
X19523177Y4823793D01*
X19734530Y4880425D01*
X19932839Y4972898D01*
X20112077Y5098402D01*
X20266798Y5253123D01*
X20392302Y5432361D01*
X20484775Y5630670D01*
X20541407Y5842023D01*
X20559182Y6045200D01*
X20560477Y6059998D01*
X20560477Y6060003D01*
X24549923Y6060003D01*
X24549923Y6059998D01*
X24568993Y5842025D01*
X24568993Y5842021D01*
X24625622Y5630678D01*
X24625624Y5630674D01*
X24625625Y5630670D01*
X24632527Y5615869D01*
X24718097Y5432362D01*
X24718098Y5432361D01*
X24843602Y5253123D01*
X24998323Y5098402D01*
X25177561Y4972898D01*
X25375870Y4880425D01*
X25587223Y4823793D01*
X25770126Y4807792D01*
X25805198Y4804723D01*
X25805200Y4804723D01*
X25805202Y4804723D01*
X25833454Y4807195D01*
X26023177Y4823793D01*
X26234530Y4880425D01*
X26432839Y4972898D01*
X26612077Y5098402D01*
X26766798Y5253123D01*
X26892302Y5432361D01*
X26984775Y5630670D01*
X27041407Y5842023D01*
X27059182Y6045200D01*
X27060477Y6059998D01*
X27060477Y6060003D01*
X27056769Y6102382D01*
X27041407Y6277977D01*
X26984775Y6489330D01*
X26892302Y6687638D01*
X26892300Y6687641D01*
X26892299Y6687643D01*
X26766799Y6866876D01*
X26731531Y6902144D01*
X26612077Y7021598D01*
X26474178Y7118156D01*
X26432838Y7147103D01*
X26322626Y7198495D01*
X26234530Y7239575D01*
X26234526Y7239576D01*
X26234522Y7239578D01*
X26023177Y7296207D01*
X25805202Y7315277D01*
X25805198Y7315277D01*
X25659882Y7302564D01*
X25587223Y7296207D01*
X25587220Y7296207D01*
X25375877Y7239578D01*
X25375868Y7239574D01*
X25177561Y7147102D01*
X25177557Y7147100D01*
X24998321Y7021598D01*
X24843602Y6866879D01*
X24718100Y6687643D01*
X24718098Y6687639D01*
X24625626Y6489332D01*
X24625622Y6489323D01*
X24568993Y6277980D01*
X24568993Y6277977D01*
X24567698Y6263177D01*
X24549923Y6060003D01*
X20560477Y6060003D01*
X20556769Y6102382D01*
X20541407Y6277977D01*
X20484775Y6489330D01*
X20392302Y6687638D01*
X20392300Y6687641D01*
X20392299Y6687643D01*
X20266799Y6866876D01*
X20231531Y6902144D01*
X20112077Y7021598D01*
X19974178Y7118156D01*
X19932838Y7147103D01*
X19822626Y7198495D01*
X19734530Y7239575D01*
X19734526Y7239576D01*
X19734522Y7239578D01*
X19523177Y7296207D01*
X19305202Y7315277D01*
X19305198Y7315277D01*
X19159882Y7302564D01*
X19087223Y7296207D01*
X19087220Y7296207D01*
X18875877Y7239578D01*
X18875868Y7239574D01*
X18677561Y7147102D01*
X18677557Y7147100D01*
X18498321Y7021598D01*
X18343602Y6866879D01*
X18218100Y6687643D01*
X18218098Y6687639D01*
X18125626Y6489332D01*
X18125622Y6489323D01*
X18068993Y6277980D01*
X18068993Y6277977D01*
X18067698Y6263177D01*
X18049923Y6060003D01*
X17508782Y6060003D01*
X17502791Y6128484D01*
X17491007Y6263177D01*
X17456348Y6392525D01*
X17434377Y6474523D01*
X17434376Y6474524D01*
X17434375Y6474530D01*
X17341902Y6672838D01*
X17341900Y6672841D01*
X17341899Y6672843D01*
X17216399Y6852076D01*
X17166331Y6902144D01*
X17061677Y7006798D01*
X16882439Y7132302D01*
X16882440Y7132302D01*
X16882438Y7132303D01*
X16783284Y7178539D01*
X16684130Y7224775D01*
X16684126Y7224776D01*
X16684122Y7224778D01*
X16472777Y7281407D01*
X16254802Y7300477D01*
X16254798Y7300477D01*
X16109482Y7287764D01*
X16036823Y7281407D01*
X16036820Y7281407D01*
X15825477Y7224778D01*
X15825468Y7224774D01*
X15627161Y7132302D01*
X15627157Y7132300D01*
X15447921Y7006798D01*
X15293202Y6852079D01*
X15167700Y6672843D01*
X15167698Y6672839D01*
X15075226Y6474532D01*
X15075222Y6474523D01*
X15018593Y6263180D01*
X15018593Y6263176D01*
X14999523Y6045203D01*
X11010077Y6045203D01*
X11008782Y6059998D01*
X11002791Y6128484D01*
X10991007Y6263177D01*
X10956348Y6392525D01*
X10934377Y6474523D01*
X10934376Y6474524D01*
X10934375Y6474530D01*
X10841902Y6672838D01*
X10841900Y6672841D01*
X10841899Y6672843D01*
X10716399Y6852076D01*
X10666331Y6902144D01*
X10561677Y7006798D01*
X10382439Y7132302D01*
X10382440Y7132302D01*
X10382438Y7132303D01*
X10283284Y7178539D01*
X10184130Y7224775D01*
X10184126Y7224776D01*
X10184122Y7224778D01*
X9972777Y7281407D01*
X9754802Y7300477D01*
X9754798Y7300477D01*
X9609482Y7287764D01*
X9536823Y7281407D01*
X9536820Y7281407D01*
X9325477Y7224778D01*
X9325468Y7224774D01*
X9127161Y7132302D01*
X9127157Y7132300D01*
X8947921Y7006798D01*
X8793202Y6852079D01*
X8667700Y6672843D01*
X8667698Y6672839D01*
X8575226Y6474532D01*
X8575222Y6474523D01*
X8518593Y6263180D01*
X8518593Y6263176D01*
X8499523Y6045203D01*
X2213985Y6045203D01*
X2141082Y6118106D01*
X1947578Y6253601D01*
X1733492Y6353430D01*
X1733477Y6353436D01*
X1694414Y6363903D01*
X1634754Y6400268D01*
X1604226Y6463115D01*
X1612521Y6532491D01*
X1657007Y6586368D01*
X1681710Y6599302D01*
X1762637Y6630652D01*
X1936041Y6738019D01*
X2086764Y6875421D01*
X2209673Y7038179D01*
X2300582Y7220750D01*
X2356397Y7416917D01*
X2375215Y7620000D01*
X2356397Y7823083D01*
X2300582Y8019250D01*
X2277189Y8066229D01*
X2209673Y8201820D01*
X2209673Y8201821D01*
X2150704Y8279909D01*
X2086762Y8364582D01*
X1936041Y8501981D01*
X1936039Y8501983D01*
X1762642Y8609345D01*
X1762635Y8609349D01*
X1623785Y8663139D01*
X1572456Y8683024D01*
X1371976Y8720500D01*
X1168024Y8720500D01*
X967544Y8683024D01*
X967541Y8683024D01*
X967541Y8683023D01*
X777364Y8609349D01*
X777357Y8609345D01*
X603960Y8501983D01*
X603957Y8501981D01*
X458038Y8368958D01*
X395234Y8338341D01*
X325847Y8346539D01*
X271907Y8390949D01*
X250539Y8457471D01*
X250500Y8460595D01*
X250500Y9319406D01*
X270185Y9386445D01*
X322989Y9432200D01*
X392147Y9442144D01*
X455703Y9413119D01*
X458038Y9411043D01*
X568035Y9310768D01*
X593328Y9287710D01*
X603958Y9278020D01*
X603960Y9278018D01*
X703141Y9216608D01*
X777363Y9170652D01*
X967544Y9096976D01*
X1168024Y9059500D01*
X1168026Y9059500D01*
X1371974Y9059500D01*
X1371976Y9059500D01*
X1572456Y9096976D01*
X1762637Y9170652D01*
X1936041Y9278019D01*
X2086764Y9415421D01*
X2209673Y9578179D01*
X2300582Y9760750D01*
X2356397Y9956917D01*
X2375215Y10160000D01*
X2369115Y10225826D01*
X2356397Y10363083D01*
X2343048Y10410000D01*
X2300582Y10559250D01*
X2300159Y10560099D01*
X2250415Y10660000D01*
X2209673Y10741821D01*
X2086764Y10904579D01*
X2086762Y10904582D01*
X1936041Y11041981D01*
X1936039Y11041983D01*
X1762642Y11149345D01*
X1762635Y11149349D01*
X1636769Y11198109D01*
X1572456Y11223024D01*
X1371976Y11260500D01*
X1168024Y11260500D01*
X967544Y11223024D01*
X967541Y11223024D01*
X967541Y11223023D01*
X777364Y11149349D01*
X777357Y11149345D01*
X603960Y11041983D01*
X603957Y11041981D01*
X458038Y10908958D01*
X395234Y10878341D01*
X325847Y10886539D01*
X271907Y10930949D01*
X250539Y10997471D01*
X250500Y11000595D01*
X250500Y11859406D01*
X270185Y11926445D01*
X322989Y11972200D01*
X392147Y11982144D01*
X455703Y11953119D01*
X458038Y11951043D01*
X568035Y11850768D01*
X593328Y11827710D01*
X603958Y11818020D01*
X603960Y11818018D01*
X703141Y11756608D01*
X777363Y11710652D01*
X967544Y11636976D01*
X1168024Y11599500D01*
X1168026Y11599500D01*
X1371974Y11599500D01*
X1371976Y11599500D01*
X1572456Y11636976D01*
X1762637Y11710652D01*
X1936041Y11818019D01*
X2086764Y11955421D01*
X2209673Y12118179D01*
X2300582Y12300750D01*
X2356397Y12496917D01*
X2375215Y12700000D01*
X2356397Y12903083D01*
X2300582Y13099250D01*
X2209673Y13281821D01*
X2118514Y13402535D01*
X2086762Y13444582D01*
X1936041Y13581981D01*
X1936039Y13581983D01*
X1762642Y13689345D01*
X1762635Y13689349D01*
X1667546Y13726186D01*
X1572456Y13763024D01*
X1371976Y13800500D01*
X1168024Y13800500D01*
X967544Y13763024D01*
X967541Y13763024D01*
X967541Y13763023D01*
X777364Y13689349D01*
X777357Y13689345D01*
X603960Y13581983D01*
X603957Y13581981D01*
X458038Y13448958D01*
X395234Y13418341D01*
X325847Y13426539D01*
X271907Y13470949D01*
X250539Y13537471D01*
X250500Y13540595D01*
X250500Y14399406D01*
X270185Y14466445D01*
X322989Y14512200D01*
X392147Y14522144D01*
X455703Y14493119D01*
X458038Y14491043D01*
X603958Y14358020D01*
X603960Y14358018D01*
X703141Y14296608D01*
X777363Y14250652D01*
X967544Y14176976D01*
X1168024Y14139500D01*
X1168026Y14139500D01*
X1371974Y14139500D01*
X1371976Y14139500D01*
X1572456Y14176976D01*
X1762637Y14250652D01*
X1936041Y14358019D01*
X2086764Y14495421D01*
X2209673Y14658179D01*
X2300582Y14840750D01*
X2356397Y15036917D01*
X2375215Y15240000D01*
X2356397Y15443083D01*
X2300582Y15639250D01*
X2209673Y15821821D01*
X2150704Y15899909D01*
X2086762Y15984582D01*
X1936041Y16121981D01*
X1936039Y16121983D01*
X1762642Y16229345D01*
X1762635Y16229349D01*
X1651372Y16272452D01*
X1572456Y16303024D01*
X1371976Y16340500D01*
X1168024Y16340500D01*
X967544Y16303024D01*
X967541Y16303024D01*
X967541Y16303023D01*
X777364Y16229349D01*
X777357Y16229345D01*
X603960Y16121983D01*
X603957Y16121981D01*
X458038Y15988958D01*
X395234Y15958341D01*
X325847Y15966539D01*
X271907Y16010949D01*
X250539Y16077471D01*
X250500Y16080595D01*
X250500Y16939406D01*
X270185Y17006445D01*
X322989Y17052200D01*
X392147Y17062144D01*
X455703Y17033119D01*
X458038Y17031043D01*
X603958Y16898020D01*
X603960Y16898018D01*
X604490Y16897690D01*
X777363Y16790652D01*
X967544Y16716976D01*
X1168024Y16679500D01*
X1168026Y16679500D01*
X1371974Y16679500D01*
X1371976Y16679500D01*
X1572456Y16716976D01*
X1762637Y16790652D01*
X1936041Y16898019D01*
X2086764Y17035421D01*
X2209673Y17198179D01*
X2300582Y17380750D01*
X2356397Y17576917D01*
X2375215Y17780000D01*
X2372562Y17808626D01*
X2356397Y17983083D01*
X2321035Y18107366D01*
X2300582Y18179250D01*
X2209673Y18361821D01*
X2120858Y18479431D01*
X2086762Y18524582D01*
X1936041Y18661981D01*
X1936039Y18661983D01*
X1762642Y18769345D01*
X1762635Y18769349D01*
X1577252Y18841166D01*
X1572456Y18843024D01*
X1371976Y18880500D01*
X1168024Y18880500D01*
X967544Y18843024D01*
X967541Y18843024D01*
X967541Y18843023D01*
X777364Y18769349D01*
X777357Y18769345D01*
X603960Y18661983D01*
X603957Y18661981D01*
X458038Y18528958D01*
X395234Y18498341D01*
X325847Y18506539D01*
X271907Y18550949D01*
X250539Y18617471D01*
X250500Y18620595D01*
X250500Y19479406D01*
X270185Y19546445D01*
X322989Y19592200D01*
X392147Y19602144D01*
X455703Y19573119D01*
X458038Y19571043D01*
X603958Y19438020D01*
X603960Y19438018D01*
X612488Y19432738D01*
X777363Y19330652D01*
X967544Y19256976D01*
X1168024Y19219500D01*
X1168026Y19219500D01*
X1371974Y19219500D01*
X1371976Y19219500D01*
X1572456Y19256976D01*
X1762637Y19330652D01*
X1936041Y19438019D01*
X2086764Y19575421D01*
X2209673Y19738179D01*
X2300582Y19920750D01*
X2356397Y20116917D01*
X2375215Y20320000D01*
X2356397Y20523083D01*
X2300582Y20719250D01*
X2209673Y20901821D01*
X2149501Y20981502D01*
X2086762Y21064582D01*
X1936041Y21201981D01*
X1936039Y21201983D01*
X1762642Y21309345D01*
X1762635Y21309349D01*
X1593594Y21374835D01*
X1572456Y21383024D01*
X1371976Y21420500D01*
X1168024Y21420500D01*
X967544Y21383024D01*
X967541Y21383024D01*
X967541Y21383023D01*
X777364Y21309349D01*
X777357Y21309345D01*
X603960Y21201983D01*
X603957Y21201981D01*
X458038Y21068958D01*
X395234Y21038341D01*
X325847Y21046539D01*
X271907Y21090949D01*
X250539Y21157471D01*
X250500Y21160595D01*
X250500Y22019406D01*
X270185Y22086445D01*
X322989Y22132200D01*
X392147Y22142144D01*
X455703Y22113119D01*
X458038Y22111043D01*
X603958Y21978020D01*
X603960Y21978018D01*
X703141Y21916608D01*
X777363Y21870652D01*
X967544Y21796976D01*
X1168024Y21759500D01*
X1168026Y21759500D01*
X1371974Y21759500D01*
X1371976Y21759500D01*
X1572456Y21796976D01*
X1762637Y21870652D01*
X1936041Y21978019D01*
X2086764Y22115421D01*
X2209673Y22278179D01*
X2300582Y22460750D01*
X2356397Y22656917D01*
X2375215Y22860000D01*
X2356397Y23063083D01*
X2300582Y23259250D01*
X2209673Y23441821D01*
X2150534Y23520134D01*
X2086762Y23604582D01*
X1936041Y23741981D01*
X1936039Y23741983D01*
X1762642Y23849345D01*
X1762635Y23849349D01*
X1667546Y23886186D01*
X1572456Y23923024D01*
X1371976Y23960500D01*
X1168024Y23960500D01*
X967544Y23923024D01*
X967541Y23923024D01*
X967541Y23923023D01*
X777364Y23849349D01*
X777357Y23849345D01*
X603960Y23741983D01*
X603957Y23741981D01*
X458038Y23608958D01*
X395234Y23578341D01*
X325847Y23586539D01*
X271907Y23630949D01*
X250539Y23697471D01*
X250500Y23700595D01*
X250500Y24559406D01*
X270185Y24626445D01*
X322989Y24672200D01*
X392147Y24682144D01*
X455703Y24653119D01*
X458038Y24651043D01*
X603958Y24518020D01*
X603960Y24518018D01*
X671200Y24476385D01*
X777363Y24410652D01*
X967544Y24336976D01*
X1168024Y24299500D01*
X1168026Y24299500D01*
X1371974Y24299500D01*
X1371976Y24299500D01*
X1572456Y24336976D01*
X1762637Y24410652D01*
X1936041Y24518019D01*
X2086764Y24655421D01*
X2209673Y24818179D01*
X2300582Y25000750D01*
X2356397Y25196917D01*
X2375215Y25400000D01*
X2356397Y25603083D01*
X2300582Y25799250D01*
X2209673Y25981821D01*
X2148687Y26062580D01*
X2086762Y26144582D01*
X1936041Y26281981D01*
X1936039Y26281983D01*
X1762642Y26389345D01*
X1762635Y26389349D01*
X1607407Y26449484D01*
X1572456Y26463024D01*
X1371976Y26500500D01*
X1168024Y26500500D01*
X967544Y26463024D01*
X967541Y26463024D01*
X967541Y26463023D01*
X777364Y26389349D01*
X777357Y26389345D01*
X603960Y26281983D01*
X603957Y26281981D01*
X458038Y26148958D01*
X395234Y26118341D01*
X325847Y26126539D01*
X271907Y26170949D01*
X250539Y26237471D01*
X250500Y26240595D01*
X250500Y27099406D01*
X270185Y27166445D01*
X322989Y27212200D01*
X392147Y27222144D01*
X455703Y27193119D01*
X458038Y27191043D01*
X603958Y27058020D01*
X603960Y27058018D01*
X703141Y26996608D01*
X777363Y26950652D01*
X967544Y26876976D01*
X1168024Y26839500D01*
X1168026Y26839500D01*
X1371974Y26839500D01*
X1371976Y26839500D01*
X1572456Y26876976D01*
X1762637Y26950652D01*
X1936041Y27058019D01*
X2086764Y27195421D01*
X2209673Y27358179D01*
X2300582Y27540750D01*
X2356397Y27736917D01*
X2375215Y27940000D01*
X2356397Y28143083D01*
X2300582Y28339250D01*
X2209673Y28521821D01*
X2131279Y28625632D01*
X2086762Y28684582D01*
X1936041Y28821981D01*
X1936039Y28821983D01*
X1762642Y28929345D01*
X1762635Y28929349D01*
X1648321Y28973634D01*
X1572456Y29003024D01*
X1371976Y29040500D01*
X1168024Y29040500D01*
X967544Y29003024D01*
X967541Y29003024D01*
X967541Y29003023D01*
X777364Y28929349D01*
X777357Y28929345D01*
X603960Y28821983D01*
X603957Y28821981D01*
X458038Y28688958D01*
X395234Y28658341D01*
X325847Y28666539D01*
X271907Y28710949D01*
X250539Y28777471D01*
X250500Y28780595D01*
X250500Y29639406D01*
X270185Y29706445D01*
X322989Y29752200D01*
X392147Y29762144D01*
X455703Y29733119D01*
X458038Y29731043D01*
X603958Y29598020D01*
X603960Y29598018D01*
X703141Y29536608D01*
X777363Y29490652D01*
X967544Y29416976D01*
X1168024Y29379500D01*
X1168026Y29379500D01*
X1371974Y29379500D01*
X1371976Y29379500D01*
X1572456Y29416976D01*
X1762637Y29490652D01*
X1936041Y29598019D01*
X2086764Y29735421D01*
X2209673Y29898179D01*
X2300582Y30080750D01*
X2356397Y30276917D01*
X2375215Y30480000D01*
X2369115Y30545826D01*
X2356397Y30683083D01*
X2343048Y30730000D01*
X2300582Y30879250D01*
X2300159Y30880099D01*
X2242906Y30995079D01*
X2209673Y31061821D01*
X2086764Y31224579D01*
X2086762Y31224582D01*
X1936041Y31361981D01*
X1936039Y31361983D01*
X1762642Y31469345D01*
X1762635Y31469349D01*
X1636769Y31518109D01*
X1572456Y31543024D01*
X1371976Y31580500D01*
X1168024Y31580500D01*
X967544Y31543024D01*
X967541Y31543024D01*
X967541Y31543023D01*
X777364Y31469349D01*
X777357Y31469345D01*
X603960Y31361983D01*
X603957Y31361981D01*
X458038Y31228958D01*
X395234Y31198341D01*
X325847Y31206539D01*
X271907Y31250949D01*
X250539Y31317471D01*
X250500Y31320595D01*
X250500Y32179406D01*
X270185Y32246445D01*
X322989Y32292200D01*
X392147Y32302144D01*
X455703Y32273119D01*
X458038Y32271043D01*
X603958Y32138020D01*
X603960Y32138018D01*
X703141Y32076608D01*
X777363Y32030652D01*
X967544Y31956976D01*
X1168024Y31919500D01*
X1168026Y31919500D01*
X1371974Y31919500D01*
X1371976Y31919500D01*
X1572456Y31956976D01*
X1762637Y32030652D01*
X1936041Y32138019D01*
X2086764Y32275421D01*
X2209673Y32438179D01*
X2300582Y32620750D01*
X2356397Y32816917D01*
X2375215Y33020000D01*
X2356397Y33223083D01*
X2300582Y33419250D01*
X2292170Y33436143D01*
X2221684Y33577699D01*
X2209673Y33601821D01*
X2150704Y33679909D01*
X2086762Y33764582D01*
X1936041Y33901981D01*
X1936039Y33901983D01*
X1762642Y34009345D01*
X1762635Y34009349D01*
X1618731Y34065097D01*
X1572456Y34083024D01*
X1371976Y34120500D01*
X1168024Y34120500D01*
X967544Y34083024D01*
X967541Y34083024D01*
X967541Y34083023D01*
X777364Y34009349D01*
X777357Y34009345D01*
X603960Y33901983D01*
X603957Y33901981D01*
X458038Y33768958D01*
X395234Y33738341D01*
X325847Y33746539D01*
X271907Y33790949D01*
X250539Y33857471D01*
X250500Y33860595D01*
X250500Y34719406D01*
X270185Y34786445D01*
X322989Y34832200D01*
X392147Y34842144D01*
X455703Y34813119D01*
X458038Y34811043D01*
X603958Y34678020D01*
X603960Y34678018D01*
X697101Y34620348D01*
X777363Y34570652D01*
X967544Y34496976D01*
X1168024Y34459500D01*
X1168026Y34459500D01*
X1371974Y34459500D01*
X1371976Y34459500D01*
X1572456Y34496976D01*
X1762637Y34570652D01*
X1936041Y34678019D01*
X2086764Y34815421D01*
X2209673Y34978179D01*
X2300582Y35160750D01*
X2356397Y35356917D01*
X2375215Y35560000D01*
X2356397Y35763083D01*
X2300582Y35959250D01*
X2291106Y35978280D01*
X2249487Y36061863D01*
X2209673Y36141821D01*
X2150704Y36219909D01*
X2086762Y36304582D01*
X1936041Y36441981D01*
X1936039Y36441983D01*
X1762642Y36549345D01*
X1762635Y36549349D01*
X1667546Y36586186D01*
X1572456Y36623024D01*
X1371976Y36660500D01*
X1168024Y36660500D01*
X967544Y36623024D01*
X967541Y36623024D01*
X967541Y36623023D01*
X777364Y36549349D01*
X777357Y36549345D01*
X603960Y36441983D01*
X603957Y36441981D01*
X458038Y36308958D01*
X395234Y36278341D01*
X325847Y36286539D01*
X271907Y36330949D01*
X250539Y36397471D01*
X250500Y36400595D01*
X250500Y37259406D01*
X270185Y37326445D01*
X322989Y37372200D01*
X392147Y37382144D01*
X455703Y37353119D01*
X458038Y37351043D01*
X603958Y37218020D01*
X603960Y37218018D01*
X703141Y37156608D01*
X777363Y37110652D01*
X967544Y37036976D01*
X1168024Y36999500D01*
X1168026Y36999500D01*
X1371974Y36999500D01*
X1371976Y36999500D01*
X1572456Y37036976D01*
X1762637Y37110652D01*
X1936041Y37218019D01*
X2086764Y37355421D01*
X2209673Y37518179D01*
X2300582Y37700750D01*
X2356397Y37896917D01*
X2375215Y38100000D01*
X2356397Y38303083D01*
X2300582Y38499250D01*
X2209673Y38681821D01*
X2150704Y38759909D01*
X2086762Y38844582D01*
X1936041Y38981981D01*
X1936039Y38981983D01*
X1762642Y39089345D01*
X1762635Y39089349D01*
X1667546Y39126186D01*
X1572456Y39163024D01*
X1371976Y39200500D01*
X1168024Y39200500D01*
X967544Y39163024D01*
X967541Y39163024D01*
X967541Y39163023D01*
X777364Y39089349D01*
X777357Y39089345D01*
X603960Y38981983D01*
X603957Y38981981D01*
X458038Y38848958D01*
X395234Y38818341D01*
X325847Y38826539D01*
X271907Y38870949D01*
X250539Y38937471D01*
X250500Y38940595D01*
X250500Y39799406D01*
X270185Y39866445D01*
X322989Y39912200D01*
X392147Y39922144D01*
X455703Y39893119D01*
X458038Y39891043D01*
X603958Y39758020D01*
X603960Y39758018D01*
X703141Y39696608D01*
X777363Y39650652D01*
X967544Y39576976D01*
X1168024Y39539500D01*
X1168026Y39539500D01*
X1371974Y39539500D01*
X1371976Y39539500D01*
X1572456Y39576976D01*
X1762637Y39650652D01*
X1936041Y39758019D01*
X2086764Y39895421D01*
X2209673Y40058179D01*
X2300582Y40240750D01*
X2356397Y40436917D01*
X2375215Y40640000D01*
X2356397Y40843083D01*
X2300582Y41039250D01*
X2209673Y41221821D01*
X2117475Y41343911D01*
X2086762Y41384582D01*
X1936041Y41521981D01*
X1936039Y41521983D01*
X1762642Y41629345D01*
X1762635Y41629349D01*
X1667546Y41666186D01*
X1572456Y41703024D01*
X1371976Y41740500D01*
X1168024Y41740500D01*
X967544Y41703024D01*
X967541Y41703024D01*
X967541Y41703023D01*
X777364Y41629349D01*
X777357Y41629345D01*
X603960Y41521983D01*
X603957Y41521981D01*
X458038Y41388958D01*
X395234Y41358341D01*
X325847Y41366539D01*
X271907Y41410949D01*
X250539Y41477471D01*
X250500Y41480595D01*
X250500Y42339406D01*
X270185Y42406445D01*
X322989Y42452200D01*
X392147Y42462144D01*
X455703Y42433119D01*
X458038Y42431043D01*
X603958Y42298020D01*
X603960Y42298018D01*
X703141Y42236608D01*
X777363Y42190652D01*
X967544Y42116976D01*
X1168024Y42079500D01*
X1168026Y42079500D01*
X1371974Y42079500D01*
X1371976Y42079500D01*
X1572456Y42116976D01*
X1762637Y42190652D01*
X1936041Y42298019D01*
X2086764Y42435421D01*
X2209673Y42598179D01*
X2300582Y42780750D01*
X2356397Y42976917D01*
X2375215Y43180000D01*
X2356397Y43383083D01*
X2300582Y43579250D01*
X2276110Y43628396D01*
X2210873Y43759411D01*
X2209673Y43761821D01*
X2109870Y43893982D01*
X2086762Y43924582D01*
X1936041Y44061981D01*
X1936039Y44061983D01*
X1762642Y44169345D01*
X1762635Y44169349D01*
X1667546Y44206186D01*
X1572456Y44243024D01*
X1371976Y44280500D01*
X1168024Y44280500D01*
X967544Y44243024D01*
X967541Y44243024D01*
X967541Y44243023D01*
X777364Y44169349D01*
X777357Y44169345D01*
X603960Y44061983D01*
X603957Y44061981D01*
X458038Y43928958D01*
X395234Y43898341D01*
X325847Y43906539D01*
X271907Y43950949D01*
X250539Y44017471D01*
X250500Y44020595D01*
X250500Y44348401D01*
X2924550Y44348401D01*
X2924550Y44348400D01*
X2943470Y44204692D01*
X2943471Y44204688D01*
X2988329Y44096389D01*
X2998939Y44070775D01*
X3076675Y43969467D01*
X3101870Y43904300D01*
X3102300Y43893982D01*
X3102300Y30753097D01*
X3101120Y30736031D01*
X3098455Y30716852D01*
X3101914Y30657511D01*
X3102090Y30654490D01*
X3102300Y30647275D01*
X3102300Y30379499D01*
X3119237Y30316289D01*
X3123252Y30291413D01*
X3127292Y30222110D01*
X3127809Y30219991D01*
X3130276Y30206808D01*
X3146670Y30082292D01*
X3146671Y30082288D01*
X3202137Y29948378D01*
X3202138Y29948376D01*
X3202139Y29948375D01*
X3290379Y29833379D01*
X3405375Y29745139D01*
X3414619Y29741310D01*
X3428435Y29735587D01*
X3453123Y29720887D01*
X3453348Y29721226D01*
X3458420Y29717878D01*
X3458425Y29717874D01*
X3814330Y29530202D01*
X3862488Y29504808D01*
X3892331Y29482804D01*
X4716981Y28658154D01*
X4750466Y28596831D01*
X4753300Y28570473D01*
X4753300Y12357544D01*
X4747757Y12320883D01*
X4612699Y11884497D01*
X4612426Y11882365D01*
X4604000Y11850718D01*
X4594470Y11827710D01*
X4594470Y11827709D01*
X4575550Y11684001D01*
X4575550Y11684000D01*
X4594470Y11540292D01*
X4594470Y11540291D01*
X4604021Y11517231D01*
X4611080Y11489388D01*
X4611478Y11489469D01*
X4612698Y11483508D01*
X4747757Y11047120D01*
X4753300Y11010459D01*
X4753300Y9817544D01*
X4747757Y9780883D01*
X4612699Y9344497D01*
X4612426Y9342365D01*
X4604000Y9310718D01*
X4594971Y9288918D01*
X4594470Y9287709D01*
X4575550Y9144000D01*
X4588773Y9043560D01*
X4594470Y9000292D01*
X4594471Y9000288D01*
X4649937Y8866378D01*
X4649938Y8866376D01*
X4649939Y8866375D01*
X4738179Y8751379D01*
X4853175Y8663139D01*
X4987091Y8607670D01*
X5114080Y8590952D01*
X5130799Y8588750D01*
X5130800Y8588750D01*
X5130801Y8588750D01*
X5145777Y8590722D01*
X5274509Y8607670D01*
X5408425Y8663139D01*
X5523421Y8751379D01*
X5611661Y8866375D01*
X5667130Y9000291D01*
X5686050Y9144000D01*
X5667130Y9287709D01*
X5657577Y9310771D01*
X5650521Y9338618D01*
X5650119Y9338535D01*
X5648899Y9344493D01*
X5648898Y9344502D01*
X5513843Y9780883D01*
X5508300Y9817543D01*
X5508300Y11010459D01*
X5513843Y11047120D01*
X5545481Y11149345D01*
X5648898Y11483499D01*
X5649169Y11485615D01*
X5657599Y11517284D01*
X5667130Y11540291D01*
X5686050Y11684000D01*
X5667130Y11827709D01*
X5657577Y11850771D01*
X5650521Y11878618D01*
X5650119Y11878535D01*
X5648899Y11884493D01*
X5648898Y11884502D01*
X5513843Y12320883D01*
X5508300Y12357543D01*
X5508300Y28827897D01*
X5508300Y28827899D01*
X5482574Y28923909D01*
X5436897Y29003024D01*
X5432875Y29009991D01*
X4426195Y30016670D01*
X4404192Y30046512D01*
X4386136Y30080753D01*
X4191126Y30450575D01*
X4189815Y30452272D01*
X4173391Y30480617D01*
X4163861Y30503625D01*
X4163859Y30503628D01*
X4073444Y30621459D01*
X3891056Y30815005D01*
X3859405Y30877294D01*
X3857300Y30900046D01*
X3857300Y32766001D01*
X4270750Y32766001D01*
X4270750Y32766000D01*
X4289670Y32622292D01*
X4289671Y32622288D01*
X4345137Y32488378D01*
X4345138Y32488376D01*
X4345139Y32488375D01*
X4433379Y32373379D01*
X4548375Y32285139D01*
X4548376Y32285139D01*
X4548377Y32285138D01*
X4577394Y32273119D01*
X4682291Y32229670D01*
X4809280Y32212952D01*
X4825999Y32210750D01*
X4826000Y32210750D01*
X4826001Y32210750D01*
X4840977Y32212722D01*
X4969709Y32229670D01*
X5103625Y32285139D01*
X5218621Y32373379D01*
X5306861Y32488375D01*
X5362330Y32622291D01*
X5381250Y32766000D01*
X5362330Y32909709D01*
X5352777Y32932771D01*
X5345721Y32960618D01*
X5345319Y32960535D01*
X5344099Y32966491D01*
X5344098Y32966502D01*
X5237231Y33311801D01*
X5236214Y33381663D01*
X5268004Y33436141D01*
X8328475Y36496610D01*
X8378174Y36582690D01*
X8403900Y36678701D01*
X8403900Y36778099D01*
X8403900Y38923038D01*
X8411224Y38965023D01*
X8411794Y38966607D01*
X8563005Y39386817D01*
X8564370Y39395194D01*
X8572192Y39422694D01*
X8585530Y39454891D01*
X8604450Y39598600D01*
X8585530Y39742309D01*
X8530061Y39876225D01*
X8441821Y39991221D01*
X8326825Y40079461D01*
X8326824Y40079462D01*
X8326822Y40079463D01*
X8192912Y40134929D01*
X8192910Y40134930D01*
X8192909Y40134930D01*
X8121054Y40144390D01*
X8049201Y40153850D01*
X8049199Y40153850D01*
X7905491Y40134930D01*
X7905487Y40134929D01*
X7771577Y40079463D01*
X7656579Y39991221D01*
X7568337Y39876223D01*
X7512871Y39742313D01*
X7512870Y39742309D01*
X7493950Y39598601D01*
X7493950Y39598600D01*
X7512870Y39454890D01*
X7519302Y39439361D01*
X7527137Y39411778D01*
X7527669Y39408496D01*
X7638871Y38988830D01*
X7638875Y38988821D01*
X7644762Y38966607D01*
X7648900Y38934842D01*
X7648900Y36936127D01*
X7629215Y36869088D01*
X7612581Y36848446D01*
X4523927Y33759793D01*
X4523925Y33759790D01*
X4474226Y33673711D01*
X4448500Y33577699D01*
X4448500Y33439544D01*
X4442957Y33402883D01*
X4307899Y32966497D01*
X4307626Y32964365D01*
X4299200Y32932718D01*
X4289670Y32909710D01*
X4289670Y32909709D01*
X4270750Y32766001D01*
X3857300Y32766001D01*
X3857300Y43893982D01*
X3876985Y43961021D01*
X3882916Y43969458D01*
X3960661Y44070775D01*
X4016130Y44204691D01*
X4035050Y44348400D01*
X4016130Y44492109D01*
X3960661Y44626025D01*
X3872421Y44741021D01*
X3757425Y44829261D01*
X3757424Y44829262D01*
X3757422Y44829263D01*
X3623512Y44884729D01*
X3623510Y44884730D01*
X3623509Y44884730D01*
X3551654Y44894190D01*
X3479801Y44903650D01*
X3479799Y44903650D01*
X3336091Y44884730D01*
X3336087Y44884729D01*
X3202177Y44829263D01*
X3087179Y44741021D01*
X2998937Y44626023D01*
X2943471Y44492113D01*
X2943470Y44492109D01*
X2924550Y44348401D01*
X250500Y44348401D01*
X250500Y44879406D01*
X270185Y44946445D01*
X322989Y44992200D01*
X392147Y45002144D01*
X455703Y44973119D01*
X458038Y44971043D01*
X603958Y44838020D01*
X603960Y44838018D01*
X697338Y44780201D01*
X777363Y44730652D01*
X967544Y44656976D01*
X1168024Y44619500D01*
X1168026Y44619500D01*
X1371974Y44619500D01*
X1371976Y44619500D01*
X1572456Y44656976D01*
X1762637Y44730652D01*
X1936041Y44838019D01*
X2086764Y44975421D01*
X2209673Y45138179D01*
X2237839Y45194744D01*
X2300593Y45320771D01*
X2348096Y45372009D01*
X2411593Y45389500D01*
X4916024Y45389500D01*
X4983063Y45369815D01*
G37*
%TD.AperFunction*%
%TA.AperFunction,Conductor*%
G36*
X18792682Y1347708D02*
G01*
X18865090Y1222292D01*
X18967492Y1119890D01*
X19092908Y1047482D01*
X19134965Y1036213D01*
X18417982Y319231D01*
X18416804Y314049D01*
X18366934Y265112D01*
X18308537Y250500D01*
X17247309Y250500D01*
X17180270Y270185D01*
X17159628Y286819D01*
X16425034Y1021413D01*
X16467092Y1032682D01*
X16592508Y1105090D01*
X16694910Y1207492D01*
X16767318Y1332908D01*
X16778587Y1374965D01*
X17478234Y675318D01*
X17578532Y828833D01*
X17669689Y1036652D01*
X17714644Y1090138D01*
X17781380Y1110829D01*
X17848708Y1092155D01*
X17895252Y1040045D01*
X17896801Y1036653D01*
X17981466Y843636D01*
X18081764Y690118D01*
X18781412Y1389766D01*
X18792682Y1347708D01*
G37*
%TD.AperFunction*%
%TA.AperFunction,Conductor*%
G36*
X25154101Y33994415D02*
G01*
X25174743Y33977781D01*
X31615082Y27537442D01*
X31703042Y27449482D01*
X31703043Y27449481D01*
X31806465Y27380376D01*
X31806471Y27380373D01*
X31806472Y27380372D01*
X31921398Y27332768D01*
X32043398Y27308501D01*
X32043402Y27308500D01*
X32043403Y27308500D01*
X33326098Y27308500D01*
X33393137Y27288815D01*
X33425052Y27259227D01*
X33473237Y27195419D01*
X33623958Y27058020D01*
X33623960Y27058018D01*
X33723141Y26996608D01*
X33797363Y26950652D01*
X33987544Y26876976D01*
X34188024Y26839500D01*
X34188026Y26839500D01*
X34391974Y26839500D01*
X34391976Y26839500D01*
X34592456Y26876976D01*
X34782637Y26950652D01*
X34956041Y27058019D01*
X35101962Y27191043D01*
X35164766Y27221660D01*
X35234153Y27213462D01*
X35288093Y27169053D01*
X35309461Y27102530D01*
X35309500Y27099406D01*
X35309500Y26240595D01*
X35289815Y26173556D01*
X35237011Y26127801D01*
X35167853Y26117857D01*
X35104297Y26146882D01*
X35101962Y26148958D01*
X34956042Y26281981D01*
X34956039Y26281983D01*
X34782642Y26389345D01*
X34782635Y26389349D01*
X34627407Y26449484D01*
X34592456Y26463024D01*
X34391976Y26500500D01*
X34188024Y26500500D01*
X33987544Y26463024D01*
X33987541Y26463024D01*
X33987541Y26463023D01*
X33797364Y26389349D01*
X33797357Y26389345D01*
X33623960Y26281983D01*
X33623958Y26281981D01*
X33473237Y26144582D01*
X33350327Y25981822D01*
X33259422Y25799261D01*
X33259417Y25799248D01*
X33203602Y25603083D01*
X33184785Y25400001D01*
X33184785Y25400000D01*
X33203602Y25196918D01*
X33259417Y25000753D01*
X33259422Y25000740D01*
X33350327Y24818179D01*
X33473237Y24655419D01*
X33623958Y24518020D01*
X33623960Y24518018D01*
X33691200Y24476385D01*
X33797363Y24410652D01*
X33987544Y24336976D01*
X34188024Y24299500D01*
X34188026Y24299500D01*
X34391974Y24299500D01*
X34391976Y24299500D01*
X34592456Y24336976D01*
X34782637Y24410652D01*
X34956041Y24518019D01*
X35101962Y24651043D01*
X35164766Y24681660D01*
X35234153Y24673462D01*
X35288093Y24629053D01*
X35309461Y24562530D01*
X35309500Y24559406D01*
X35309500Y23700595D01*
X35289815Y23633556D01*
X35237011Y23587801D01*
X35167853Y23577857D01*
X35104297Y23606882D01*
X35101962Y23608958D01*
X34956042Y23741981D01*
X34956039Y23741983D01*
X34782642Y23849345D01*
X34782635Y23849349D01*
X34687546Y23886186D01*
X34592456Y23923024D01*
X34391976Y23960500D01*
X34188024Y23960500D01*
X33987544Y23923024D01*
X33987541Y23923024D01*
X33987541Y23923023D01*
X33797364Y23849349D01*
X33797357Y23849345D01*
X33623960Y23741983D01*
X33623958Y23741981D01*
X33473237Y23604582D01*
X33350327Y23441822D01*
X33259422Y23259261D01*
X33259417Y23259248D01*
X33203602Y23063083D01*
X33184785Y22860001D01*
X33184785Y22860000D01*
X33203602Y22656918D01*
X33259417Y22460753D01*
X33259422Y22460740D01*
X33350327Y22278179D01*
X33473237Y22115419D01*
X33623958Y21978020D01*
X33623960Y21978018D01*
X33723141Y21916608D01*
X33797363Y21870652D01*
X33987544Y21796976D01*
X34188024Y21759500D01*
X34188026Y21759500D01*
X34391974Y21759500D01*
X34391976Y21759500D01*
X34592456Y21796976D01*
X34782637Y21870652D01*
X34956041Y21978019D01*
X35101962Y22111043D01*
X35164766Y22141660D01*
X35234153Y22133462D01*
X35288093Y22089053D01*
X35309461Y22022530D01*
X35309500Y22019406D01*
X35309500Y21160595D01*
X35289815Y21093556D01*
X35237011Y21047801D01*
X35167853Y21037857D01*
X35104297Y21066882D01*
X35101962Y21068958D01*
X34956042Y21201981D01*
X34956039Y21201983D01*
X34782642Y21309345D01*
X34782635Y21309349D01*
X34613594Y21374835D01*
X34592456Y21383024D01*
X34391976Y21420500D01*
X34188024Y21420500D01*
X33987544Y21383024D01*
X33987541Y21383024D01*
X33987541Y21383023D01*
X33797364Y21309349D01*
X33797357Y21309345D01*
X33623960Y21201983D01*
X33623958Y21201981D01*
X33473237Y21064582D01*
X33350327Y20901822D01*
X33259422Y20719261D01*
X33259417Y20719248D01*
X33203602Y20523083D01*
X33184785Y20320001D01*
X33184785Y20320000D01*
X33203602Y20116918D01*
X33259417Y19920753D01*
X33259422Y19920740D01*
X33350327Y19738179D01*
X33473237Y19575419D01*
X33623958Y19438020D01*
X33623960Y19438018D01*
X33632488Y19432738D01*
X33797363Y19330652D01*
X33987544Y19256976D01*
X34188024Y19219500D01*
X34188026Y19219500D01*
X34391974Y19219500D01*
X34391976Y19219500D01*
X34592456Y19256976D01*
X34782637Y19330652D01*
X34956041Y19438019D01*
X35101962Y19571043D01*
X35164766Y19601660D01*
X35234153Y19593462D01*
X35288093Y19549053D01*
X35309461Y19482530D01*
X35309500Y19479406D01*
X35309500Y18620595D01*
X35289815Y18553556D01*
X35237011Y18507801D01*
X35167853Y18497857D01*
X35104297Y18526882D01*
X35101962Y18528958D01*
X34956042Y18661981D01*
X34956039Y18661983D01*
X34782642Y18769345D01*
X34782635Y18769349D01*
X34597252Y18841166D01*
X34592456Y18843024D01*
X34391976Y18880500D01*
X34188024Y18880500D01*
X33987544Y18843024D01*
X33987541Y18843024D01*
X33987541Y18843023D01*
X33797364Y18769349D01*
X33797357Y18769345D01*
X33623960Y18661983D01*
X33623958Y18661981D01*
X33473237Y18524582D01*
X33350327Y18361822D01*
X33259422Y18179261D01*
X33259417Y18179248D01*
X33203602Y17983083D01*
X33184785Y17780001D01*
X33184785Y17780000D01*
X33203602Y17576918D01*
X33259417Y17380753D01*
X33259422Y17380740D01*
X33350327Y17198179D01*
X33473237Y17035419D01*
X33623958Y16898020D01*
X33623960Y16898018D01*
X33624490Y16897690D01*
X33797363Y16790652D01*
X33987544Y16716976D01*
X34188024Y16679500D01*
X34188026Y16679500D01*
X34391974Y16679500D01*
X34391976Y16679500D01*
X34592456Y16716976D01*
X34782637Y16790652D01*
X34956041Y16898019D01*
X35078240Y17009418D01*
X35101962Y17031043D01*
X35164766Y17061660D01*
X35234153Y17053462D01*
X35288093Y17009053D01*
X35309461Y16942530D01*
X35309500Y16939406D01*
X35309500Y16080595D01*
X35289815Y16013556D01*
X35237011Y15967801D01*
X35167853Y15957857D01*
X35104297Y15986882D01*
X35101962Y15988958D01*
X34956042Y16121981D01*
X34956039Y16121983D01*
X34782642Y16229345D01*
X34782635Y16229349D01*
X34671372Y16272452D01*
X34592456Y16303024D01*
X34391976Y16340500D01*
X34188024Y16340500D01*
X33987544Y16303024D01*
X33987541Y16303024D01*
X33987541Y16303023D01*
X33797364Y16229349D01*
X33797357Y16229345D01*
X33623960Y16121983D01*
X33623958Y16121981D01*
X33473237Y15984582D01*
X33350327Y15821822D01*
X33259422Y15639261D01*
X33259417Y15639248D01*
X33203602Y15443083D01*
X33184785Y15240001D01*
X33184785Y15240000D01*
X33203602Y15036918D01*
X33259417Y14840753D01*
X33259422Y14840740D01*
X33350327Y14658179D01*
X33473237Y14495419D01*
X33623958Y14358020D01*
X33623960Y14358018D01*
X33723141Y14296608D01*
X33797363Y14250652D01*
X33987544Y14176976D01*
X34188024Y14139500D01*
X34188026Y14139500D01*
X34391974Y14139500D01*
X34391976Y14139500D01*
X34592456Y14176976D01*
X34782637Y14250652D01*
X34956041Y14358019D01*
X35101962Y14491043D01*
X35164766Y14521660D01*
X35234153Y14513462D01*
X35288093Y14469053D01*
X35309461Y14402530D01*
X35309500Y14399406D01*
X35309500Y13540595D01*
X35289815Y13473556D01*
X35237011Y13427801D01*
X35167853Y13417857D01*
X35104297Y13446882D01*
X35101962Y13448958D01*
X34956042Y13581981D01*
X34956039Y13581983D01*
X34782642Y13689345D01*
X34782635Y13689349D01*
X34687546Y13726186D01*
X34592456Y13763024D01*
X34391976Y13800500D01*
X34188024Y13800500D01*
X33987544Y13763024D01*
X33987541Y13763024D01*
X33987541Y13763023D01*
X33797364Y13689349D01*
X33797357Y13689345D01*
X33623960Y13581983D01*
X33623958Y13581981D01*
X33473237Y13444582D01*
X33350327Y13281822D01*
X33259422Y13099261D01*
X33259417Y13099248D01*
X33203602Y12903083D01*
X33184785Y12700001D01*
X33184785Y12700000D01*
X33203602Y12496918D01*
X33259417Y12300753D01*
X33259422Y12300740D01*
X33350327Y12118179D01*
X33473237Y11955419D01*
X33623958Y11818020D01*
X33623960Y11818018D01*
X33723141Y11756608D01*
X33797363Y11710652D01*
X33878283Y11679304D01*
X33933685Y11636731D01*
X33957276Y11570965D01*
X33941565Y11502884D01*
X33891542Y11454105D01*
X33865586Y11443903D01*
X33826519Y11433435D01*
X33826507Y11433430D01*
X33612422Y11333601D01*
X33612420Y11333600D01*
X33418926Y11198114D01*
X33418920Y11198109D01*
X33251891Y11031080D01*
X33251886Y11031074D01*
X33116400Y10837580D01*
X33116399Y10837578D01*
X33016570Y10623493D01*
X33016567Y10623487D01*
X32959364Y10410001D01*
X32959364Y10410000D01*
X33856988Y10410000D01*
X33824075Y10352993D01*
X33790000Y10225826D01*
X33790000Y10094174D01*
X33824075Y9967007D01*
X33856988Y9910000D01*
X32959364Y9910000D01*
X33016567Y9696514D01*
X33016570Y9696508D01*
X33116399Y9482422D01*
X33251894Y9288918D01*
X33418917Y9121895D01*
X33612421Y8986400D01*
X33826507Y8886571D01*
X33826516Y8886567D01*
X33865583Y8876099D01*
X33925244Y8839734D01*
X33955773Y8776887D01*
X33947479Y8707512D01*
X33902993Y8653634D01*
X33878284Y8640698D01*
X33797373Y8609353D01*
X33797357Y8609345D01*
X33623960Y8501983D01*
X33623958Y8501981D01*
X33473237Y8364582D01*
X33350325Y8201820D01*
X33282810Y8066229D01*
X33235307Y8014991D01*
X33171810Y7997500D01*
X29290728Y7997500D01*
X29223689Y8017185D01*
X29203047Y8033819D01*
X25254722Y11982144D01*
X21151360Y16085505D01*
X21117876Y16146827D01*
X21122860Y16216519D01*
X21164732Y16272452D01*
X21178358Y16280202D01*
X21177932Y16280940D01*
X21184968Y16285003D01*
X21184970Y16285003D01*
X21320830Y16363441D01*
X21431759Y16474370D01*
X21510197Y16610230D01*
X21550800Y16761761D01*
X21550800Y16918639D01*
X21510197Y17070170D01*
X21431759Y17206030D01*
X21375189Y17262600D01*
X21341704Y17323923D01*
X21341737Y17324382D01*
X22173733Y17324382D01*
X22173734Y17324381D01*
X22328305Y17255561D01*
X22328312Y17255559D01*
X22348882Y17251186D01*
X22410364Y17217994D01*
X22444141Y17156831D01*
X22439489Y17087117D01*
X22433703Y17074759D01*
X22431803Y17070172D01*
X22414728Y17006445D01*
X22391200Y16918639D01*
X22391200Y16761761D01*
X22431803Y16610230D01*
X22510241Y16474370D01*
X22621170Y16363441D01*
X22757030Y16285003D01*
X22908561Y16244400D01*
X22908564Y16244400D01*
X23065436Y16244400D01*
X23065439Y16244400D01*
X23216970Y16285003D01*
X23352830Y16363441D01*
X23463759Y16474370D01*
X23542197Y16610230D01*
X23582800Y16761761D01*
X23582800Y16918639D01*
X23542197Y17070170D01*
X23463759Y17206030D01*
X23352830Y17316959D01*
X23216970Y17395397D01*
X23216971Y17395397D01*
X23179087Y17405548D01*
X23065439Y17436000D01*
X22978008Y17436000D01*
X22910969Y17455685D01*
X22890326Y17472319D01*
X22606000Y17756647D01*
X22173733Y17324382D01*
X21341737Y17324382D01*
X21346688Y17393615D01*
X21388560Y17449548D01*
X21433190Y17470676D01*
X21566114Y17503439D01*
X21704635Y17576140D01*
X21779745Y17642683D01*
X21789523Y17647279D01*
X22216128Y18073881D01*
X22277451Y18107366D01*
X22303809Y18110200D01*
X22606000Y18110200D01*
X22606000Y18110201D01*
X22959553Y18110201D01*
X22959553Y18110200D01*
X23389642Y17680111D01*
X23389643Y17680112D01*
X23426932Y17744696D01*
X23484984Y17923363D01*
X23504622Y18110200D01*
X23484984Y18297038D01*
X23426934Y18475701D01*
X23389642Y18540291D01*
X22959553Y18110201D01*
X22606000Y18110201D01*
X22606000Y18412392D01*
X22625685Y18479431D01*
X22642319Y18500073D01*
X23084394Y18942148D01*
X23085039Y18941503D01*
X23086907Y18944139D01*
X23086761Y18944268D01*
X23087954Y18945616D01*
X23089703Y18948082D01*
X23091732Y18949879D01*
X23091737Y18949887D01*
X23096709Y18955496D01*
X23097835Y18954498D01*
X23145498Y18993127D01*
X23193272Y19002700D01*
X23214497Y19002700D01*
X23214499Y19002700D01*
X23310510Y19028426D01*
X23396590Y19078125D01*
X23643810Y19325346D01*
X23705131Y19358829D01*
X23715299Y19360602D01*
X23841909Y19377270D01*
X23975825Y19432739D01*
X24090821Y19520979D01*
X24179061Y19635975D01*
X24179063Y19635979D01*
X24181513Y19640222D01*
X24232080Y19688438D01*
X24300687Y19701660D01*
X24365552Y19675692D01*
X24406080Y19618778D01*
X24412900Y19578222D01*
X24412900Y17488344D01*
X24407357Y17451683D01*
X24272299Y17015297D01*
X24272026Y17013165D01*
X24263599Y16981518D01*
X24254070Y16958509D01*
X24235150Y16814800D01*
X24242132Y16761764D01*
X24254070Y16671092D01*
X24254071Y16671088D01*
X24309537Y16537178D01*
X24309538Y16537176D01*
X24309539Y16537175D01*
X24397779Y16422179D01*
X24512775Y16333939D01*
X24646691Y16278470D01*
X24773680Y16261752D01*
X24790399Y16259550D01*
X24790400Y16259550D01*
X24790401Y16259550D01*
X24805377Y16261522D01*
X24934109Y16278470D01*
X25068025Y16333939D01*
X25183021Y16422179D01*
X25271261Y16537175D01*
X25326730Y16671091D01*
X25345650Y16814800D01*
X25326730Y16958509D01*
X25317177Y16981571D01*
X25310121Y17009418D01*
X25309719Y17009335D01*
X25308499Y17015293D01*
X25308498Y17015302D01*
X25173443Y17451683D01*
X25167900Y17488343D01*
X25167900Y20014099D01*
X25167899Y20014105D01*
X25165141Y20024398D01*
X25165140Y20024399D01*
X25160038Y20043439D01*
X25142174Y20110110D01*
X25092475Y20196190D01*
X24501019Y20787646D01*
X24467534Y20848969D01*
X24464700Y20875327D01*
X24464700Y21580897D01*
X24464700Y21580899D01*
X24438974Y21676909D01*
X24389275Y21762990D01*
X24318990Y21833275D01*
X21770990Y24381275D01*
X21684910Y24430974D01*
X21588899Y24456700D01*
X21588898Y24456700D01*
X21464260Y24456700D01*
X21397221Y24476385D01*
X21351466Y24529189D01*
X21341522Y24598347D01*
X21370547Y24661903D01*
X21376579Y24668381D01*
X21526377Y24818179D01*
X22440509Y25732313D01*
X22478101Y25758063D01*
X22889485Y25939700D01*
X22889486Y25939700D01*
X22889487Y25939701D01*
X22889492Y25939703D01*
X22898815Y25946159D01*
X22921947Y25958769D01*
X22925822Y25960375D01*
X22959540Y25974340D01*
X23074536Y26062580D01*
X23162776Y26177576D01*
X23218245Y26311492D01*
X23237165Y26455201D01*
X23218245Y26598910D01*
X23162776Y26732826D01*
X23074536Y26847822D01*
X22959540Y26936062D01*
X22917891Y26953314D01*
X22895768Y26965235D01*
X22885406Y26972260D01*
X22469666Y27147748D01*
X22430207Y27174307D01*
X21702819Y27901695D01*
X21669334Y27963018D01*
X21666500Y27989376D01*
X21666500Y30758736D01*
X21675622Y30805417D01*
X21809995Y31136095D01*
X21830743Y31170131D01*
X22126761Y31515305D01*
X22128999Y31519111D01*
X22148204Y31543935D01*
X24582052Y33977781D01*
X24643375Y34011266D01*
X24669733Y34014100D01*
X25087062Y34014100D01*
X25154101Y33994415D01*
G37*
%TD.AperFunction*%
%TA.AperFunction,Conductor*%
G36*
X13210653Y59419815D02*
G01*
X13256408Y59367011D01*
X13266352Y59297853D01*
X13237327Y59234297D01*
X13191066Y59200939D01*
X13104511Y59165088D01*
X13104498Y59165081D01*
X12981584Y59082952D01*
X12981580Y59082949D01*
X12877051Y58978420D01*
X12877048Y58978416D01*
X12794919Y58855502D01*
X12794912Y58855489D01*
X12738343Y58718918D01*
X12738340Y58718908D01*
X12709500Y58573921D01*
X12709500Y58573918D01*
X12709500Y57826082D01*
X12709500Y57826080D01*
X12709499Y57826080D01*
X12738340Y57681093D01*
X12738343Y57681083D01*
X12794912Y57544512D01*
X12794919Y57544499D01*
X12877048Y57421585D01*
X12877051Y57421581D01*
X12981580Y57317052D01*
X12981584Y57317049D01*
X13104498Y57234920D01*
X13104511Y57234913D01*
X13241082Y57178344D01*
X13241087Y57178342D01*
X13241091Y57178342D01*
X13241092Y57178341D01*
X13386079Y57149500D01*
X13386082Y57149500D01*
X13533920Y57149500D01*
X13631462Y57168904D01*
X13678913Y57178342D01*
X13815495Y57234916D01*
X13938416Y57317049D01*
X14042951Y57421584D01*
X14125084Y57544505D01*
X14181658Y57681087D01*
X14210500Y57826082D01*
X14210500Y58573918D01*
X14210500Y58573921D01*
X14181659Y58718908D01*
X14181658Y58718909D01*
X14181658Y58718913D01*
X14150155Y58794969D01*
X14125087Y58855489D01*
X14125080Y58855502D01*
X14042951Y58978416D01*
X14042948Y58978420D01*
X13938419Y59082949D01*
X13938415Y59082952D01*
X13815501Y59165081D01*
X13815488Y59165088D01*
X13728934Y59200939D01*
X13674530Y59244780D01*
X13652465Y59311074D01*
X13669744Y59378773D01*
X13720881Y59426384D01*
X13776386Y59439500D01*
X21783614Y59439500D01*
X21850653Y59419815D01*
X21896408Y59367011D01*
X21906352Y59297853D01*
X21877327Y59234297D01*
X21831066Y59200939D01*
X21744511Y59165088D01*
X21744498Y59165081D01*
X21621584Y59082952D01*
X21621580Y59082949D01*
X21517051Y58978420D01*
X21517048Y58978416D01*
X21434919Y58855502D01*
X21434912Y58855489D01*
X21378343Y58718918D01*
X21378340Y58718908D01*
X21349500Y58573921D01*
X21349500Y58573918D01*
X21349500Y57826082D01*
X21349500Y57826080D01*
X21349499Y57826080D01*
X21378340Y57681093D01*
X21378343Y57681083D01*
X21434912Y57544512D01*
X21434919Y57544499D01*
X21517048Y57421585D01*
X21517051Y57421581D01*
X21621580Y57317052D01*
X21621584Y57317049D01*
X21744498Y57234920D01*
X21744511Y57234913D01*
X21881082Y57178344D01*
X21881087Y57178342D01*
X21881091Y57178342D01*
X21881092Y57178341D01*
X22026079Y57149500D01*
X22026082Y57149500D01*
X22173920Y57149500D01*
X22271462Y57168904D01*
X22318913Y57178342D01*
X22455495Y57234916D01*
X22578416Y57317049D01*
X22682951Y57421584D01*
X22765084Y57544505D01*
X22821658Y57681087D01*
X22850500Y57826082D01*
X22850500Y58573918D01*
X22850500Y58573921D01*
X22821659Y58718908D01*
X22821658Y58718909D01*
X22821658Y58718913D01*
X22790155Y58794969D01*
X22765087Y58855489D01*
X22765080Y58855502D01*
X22682951Y58978416D01*
X22682948Y58978420D01*
X22578419Y59082949D01*
X22578415Y59082952D01*
X22455501Y59165081D01*
X22455488Y59165088D01*
X22368934Y59200939D01*
X22314530Y59244780D01*
X22292465Y59311074D01*
X22309744Y59378773D01*
X22360881Y59426384D01*
X22416386Y59439500D01*
X30435830Y59439500D01*
X30477294Y59439500D01*
X30482702Y59439383D01*
X30895533Y59421358D01*
X30906268Y59420418D01*
X31313279Y59366834D01*
X31323898Y59364962D01*
X31724699Y59276107D01*
X31735111Y59273318D01*
X32126640Y59149869D01*
X32136775Y59146180D01*
X32516042Y58989081D01*
X32525834Y58984515D01*
X32889965Y58794961D01*
X32899305Y58789568D01*
X33223511Y58583026D01*
X33245516Y58569007D01*
X33254377Y58562803D01*
X33580050Y58312906D01*
X33588337Y58305952D01*
X33890980Y58028630D01*
X33898629Y58020981D01*
X34175951Y57718338D01*
X34182905Y57710051D01*
X34432802Y57384378D01*
X34439006Y57375517D01*
X34528577Y57234920D01*
X34645784Y57050941D01*
X34659559Y57029320D01*
X34664964Y57019958D01*
X34781711Y56795690D01*
X34854511Y56655841D01*
X34859083Y56646037D01*
X35016173Y56266791D01*
X35019872Y56256628D01*
X35059077Y56132285D01*
X35143311Y55865131D01*
X35146111Y55854681D01*
X35234958Y55453916D01*
X35236836Y55443263D01*
X35290415Y55036289D01*
X35291358Y55025513D01*
X35309382Y54612703D01*
X35309500Y54607294D01*
X35309500Y54562788D01*
X35289815Y54495749D01*
X35237011Y54449994D01*
X35170795Y54440474D01*
X35170739Y54439903D01*
X35168419Y54440132D01*
X35167853Y54440050D01*
X35165962Y54440374D01*
X35164677Y54440500D01*
X35164674Y54440500D01*
X33415326Y54440500D01*
X33415323Y54440500D01*
X33342264Y54425968D01*
X33342260Y54425967D01*
X33259399Y54370601D01*
X33204033Y54287740D01*
X33204032Y54287736D01*
X33189500Y54214679D01*
X33189500Y52465322D01*
X33204032Y52392265D01*
X33204033Y52392261D01*
X33204034Y52392260D01*
X33259399Y52309399D01*
X33342260Y52254034D01*
X33342264Y52254033D01*
X33415321Y52239501D01*
X33415324Y52239500D01*
X33415326Y52239500D01*
X35164676Y52239500D01*
X35170739Y52240097D01*
X35170948Y52237968D01*
X35230899Y52232603D01*
X35286077Y52189741D01*
X35309322Y52123852D01*
X35309500Y52117213D01*
X35309500Y51640595D01*
X35289815Y51573556D01*
X35237011Y51527801D01*
X35167853Y51517857D01*
X35104297Y51546882D01*
X35101962Y51548958D01*
X34956042Y51681981D01*
X34956039Y51681983D01*
X34782642Y51789345D01*
X34782635Y51789349D01*
X34683842Y51827621D01*
X34592456Y51863024D01*
X34391976Y51900500D01*
X34188024Y51900500D01*
X33987544Y51863024D01*
X33987541Y51863024D01*
X33987541Y51863023D01*
X33797364Y51789349D01*
X33797357Y51789345D01*
X33623960Y51681983D01*
X33623958Y51681981D01*
X33473237Y51544582D01*
X33350327Y51381822D01*
X33259422Y51199261D01*
X33259417Y51199248D01*
X33203602Y51003083D01*
X33184785Y50800001D01*
X33184785Y50800000D01*
X33203602Y50596918D01*
X33259417Y50400753D01*
X33259422Y50400740D01*
X33350327Y50218179D01*
X33473237Y50055419D01*
X33623958Y49918020D01*
X33623960Y49918018D01*
X33634862Y49911268D01*
X33797363Y49810652D01*
X33987544Y49736976D01*
X34188024Y49699500D01*
X34188026Y49699500D01*
X34391974Y49699500D01*
X34391976Y49699500D01*
X34592456Y49736976D01*
X34782637Y49810652D01*
X34956041Y49918019D01*
X35101962Y50051043D01*
X35164766Y50081660D01*
X35234153Y50073462D01*
X35288093Y50029053D01*
X35309461Y49962530D01*
X35309500Y49959406D01*
X35309500Y49100595D01*
X35289815Y49033556D01*
X35237011Y48987801D01*
X35167853Y48977857D01*
X35104297Y49006882D01*
X35101962Y49008958D01*
X34956042Y49141981D01*
X34956039Y49141983D01*
X34782642Y49249345D01*
X34782635Y49249349D01*
X34687546Y49286186D01*
X34592456Y49323024D01*
X34391976Y49360500D01*
X34188024Y49360500D01*
X33987544Y49323024D01*
X33987541Y49323024D01*
X33987541Y49323023D01*
X33797364Y49249349D01*
X33797357Y49249345D01*
X33623960Y49141983D01*
X33623958Y49141981D01*
X33473237Y49004582D01*
X33350327Y48841822D01*
X33259422Y48659261D01*
X33259417Y48659248D01*
X33203602Y48463083D01*
X33184785Y48260001D01*
X33203602Y48056918D01*
X33259417Y47860753D01*
X33259422Y47860740D01*
X33350327Y47678179D01*
X33473237Y47515419D01*
X33623958Y47378020D01*
X33623960Y47378018D01*
X33680139Y47343234D01*
X33797363Y47270652D01*
X33987544Y47196976D01*
X34188024Y47159500D01*
X34188026Y47159500D01*
X34391974Y47159500D01*
X34391976Y47159500D01*
X34592456Y47196976D01*
X34782637Y47270652D01*
X34956041Y47378019D01*
X35101962Y47511043D01*
X35164766Y47541660D01*
X35234153Y47533462D01*
X35288093Y47489053D01*
X35309461Y47422530D01*
X35309500Y47419406D01*
X35309500Y46560595D01*
X35289815Y46493556D01*
X35237011Y46447801D01*
X35167853Y46437857D01*
X35104297Y46466882D01*
X35101962Y46468958D01*
X34956042Y46601981D01*
X34956039Y46601983D01*
X34782642Y46709345D01*
X34782635Y46709349D01*
X34687546Y46746186D01*
X34592456Y46783024D01*
X34391976Y46820500D01*
X34188024Y46820500D01*
X33987544Y46783024D01*
X33987541Y46783024D01*
X33987541Y46783023D01*
X33797364Y46709349D01*
X33797357Y46709345D01*
X33623960Y46601983D01*
X33623958Y46601981D01*
X33473237Y46464582D01*
X33350327Y46301822D01*
X33259422Y46119261D01*
X33259417Y46119248D01*
X33203602Y45923083D01*
X33184785Y45720001D01*
X33184785Y45720000D01*
X33203602Y45516918D01*
X33259417Y45320753D01*
X33259422Y45320740D01*
X33350327Y45138179D01*
X33473237Y44975419D01*
X33623958Y44838020D01*
X33623960Y44838018D01*
X33717338Y44780201D01*
X33797363Y44730652D01*
X33987544Y44656976D01*
X34188024Y44619500D01*
X34188026Y44619500D01*
X34391974Y44619500D01*
X34391976Y44619500D01*
X34592456Y44656976D01*
X34782637Y44730652D01*
X34956041Y44838019D01*
X35101962Y44971043D01*
X35164766Y45001660D01*
X35234153Y44993462D01*
X35288093Y44949053D01*
X35309461Y44882530D01*
X35309500Y44879406D01*
X35309500Y44020595D01*
X35289815Y43953556D01*
X35237011Y43907801D01*
X35167853Y43897857D01*
X35104297Y43926882D01*
X35101962Y43928958D01*
X34956042Y44061981D01*
X34956039Y44061983D01*
X34782642Y44169345D01*
X34782635Y44169349D01*
X34687546Y44206186D01*
X34592456Y44243024D01*
X34391976Y44280500D01*
X34188024Y44280500D01*
X33987544Y44243024D01*
X33987541Y44243024D01*
X33987541Y44243023D01*
X33797364Y44169349D01*
X33797357Y44169345D01*
X33623960Y44061983D01*
X33623958Y44061981D01*
X33473237Y43924582D01*
X33350327Y43761822D01*
X33259422Y43579261D01*
X33259417Y43579248D01*
X33203602Y43383083D01*
X33184785Y43180001D01*
X33184785Y43180000D01*
X33203602Y42976918D01*
X33259417Y42780753D01*
X33259422Y42780740D01*
X33350327Y42598179D01*
X33473237Y42435419D01*
X33623958Y42298020D01*
X33623960Y42298018D01*
X33723141Y42236608D01*
X33797363Y42190652D01*
X33987544Y42116976D01*
X34188024Y42079500D01*
X34188026Y42079500D01*
X34391974Y42079500D01*
X34391976Y42079500D01*
X34592456Y42116976D01*
X34782637Y42190652D01*
X34956041Y42298019D01*
X35101962Y42431043D01*
X35164766Y42461660D01*
X35234153Y42453462D01*
X35288093Y42409053D01*
X35309461Y42342530D01*
X35309500Y42339406D01*
X35309500Y41480595D01*
X35289815Y41413556D01*
X35237011Y41367801D01*
X35167853Y41357857D01*
X35104297Y41386882D01*
X35101962Y41388958D01*
X34956042Y41521981D01*
X34956039Y41521983D01*
X34782642Y41629345D01*
X34782635Y41629349D01*
X34687546Y41666186D01*
X34592456Y41703024D01*
X34391976Y41740500D01*
X34188024Y41740500D01*
X33987544Y41703024D01*
X33987541Y41703024D01*
X33987541Y41703023D01*
X33797364Y41629349D01*
X33797357Y41629345D01*
X33623960Y41521983D01*
X33623958Y41521981D01*
X33473237Y41384582D01*
X33350327Y41221822D01*
X33259422Y41039261D01*
X33259417Y41039248D01*
X33203602Y40843083D01*
X33184785Y40640001D01*
X33184785Y40640000D01*
X33203602Y40436918D01*
X33259417Y40240753D01*
X33259422Y40240740D01*
X33350327Y40058179D01*
X33473237Y39895419D01*
X33623958Y39758020D01*
X33623960Y39758018D01*
X33723141Y39696608D01*
X33797363Y39650652D01*
X33987544Y39576976D01*
X34188024Y39539500D01*
X34188026Y39539500D01*
X34391974Y39539500D01*
X34391976Y39539500D01*
X34592456Y39576976D01*
X34782637Y39650652D01*
X34956041Y39758019D01*
X35101962Y39891043D01*
X35164766Y39921660D01*
X35234153Y39913462D01*
X35288093Y39869053D01*
X35309461Y39802530D01*
X35309500Y39799406D01*
X35309500Y38940595D01*
X35289815Y38873556D01*
X35237011Y38827801D01*
X35167853Y38817857D01*
X35104297Y38846882D01*
X35101962Y38848958D01*
X34956042Y38981981D01*
X34956039Y38981983D01*
X34782642Y39089345D01*
X34782635Y39089349D01*
X34687546Y39126186D01*
X34592456Y39163024D01*
X34391976Y39200500D01*
X34188024Y39200500D01*
X33987544Y39163024D01*
X33987541Y39163024D01*
X33987541Y39163023D01*
X33797364Y39089349D01*
X33797357Y39089345D01*
X33623960Y38981983D01*
X33623958Y38981981D01*
X33473237Y38844582D01*
X33350327Y38681822D01*
X33259422Y38499261D01*
X33259417Y38499248D01*
X33203602Y38303083D01*
X33184785Y38100001D01*
X33184785Y38100000D01*
X33203602Y37896918D01*
X33259417Y37700753D01*
X33259422Y37700740D01*
X33350327Y37518179D01*
X33473237Y37355419D01*
X33623958Y37218020D01*
X33623960Y37218018D01*
X33723141Y37156608D01*
X33797363Y37110652D01*
X33987544Y37036976D01*
X34188024Y36999500D01*
X34188026Y36999500D01*
X34391974Y36999500D01*
X34391976Y36999500D01*
X34592456Y37036976D01*
X34782637Y37110652D01*
X34956041Y37218019D01*
X35101962Y37351043D01*
X35164766Y37381660D01*
X35234153Y37373462D01*
X35288093Y37329053D01*
X35309461Y37262530D01*
X35309500Y37259406D01*
X35309500Y36400595D01*
X35289815Y36333556D01*
X35237011Y36287801D01*
X35167853Y36277857D01*
X35104297Y36306882D01*
X35101962Y36308958D01*
X34956042Y36441981D01*
X34956039Y36441983D01*
X34782642Y36549345D01*
X34782635Y36549349D01*
X34687546Y36586186D01*
X34592456Y36623024D01*
X34391976Y36660500D01*
X34188024Y36660500D01*
X33987544Y36623024D01*
X33987541Y36623024D01*
X33987541Y36623023D01*
X33797364Y36549349D01*
X33797357Y36549345D01*
X33623960Y36441983D01*
X33623958Y36441981D01*
X33473237Y36304582D01*
X33350327Y36141822D01*
X33259422Y35959261D01*
X33259417Y35959248D01*
X33203602Y35763083D01*
X33184785Y35560001D01*
X33184785Y35560000D01*
X33203602Y35356918D01*
X33259417Y35160753D01*
X33259422Y35160740D01*
X33350327Y34978179D01*
X33473237Y34815419D01*
X33623958Y34678020D01*
X33623960Y34678018D01*
X33717101Y34620348D01*
X33797363Y34570652D01*
X33987544Y34496976D01*
X34188024Y34459500D01*
X34188026Y34459500D01*
X34391974Y34459500D01*
X34391976Y34459500D01*
X34592456Y34496976D01*
X34782637Y34570652D01*
X34956041Y34678019D01*
X35101962Y34811043D01*
X35164766Y34841660D01*
X35234153Y34833462D01*
X35288093Y34789053D01*
X35309461Y34722530D01*
X35309500Y34719406D01*
X35309500Y33860595D01*
X35289815Y33793556D01*
X35237011Y33747801D01*
X35167853Y33737857D01*
X35104297Y33766882D01*
X35101962Y33768958D01*
X34956042Y33901981D01*
X34956039Y33901983D01*
X34782642Y34009345D01*
X34782635Y34009349D01*
X34638731Y34065097D01*
X34592456Y34083024D01*
X34391976Y34120500D01*
X34188024Y34120500D01*
X33987544Y34083024D01*
X33987541Y34083024D01*
X33987541Y34083023D01*
X33797364Y34009349D01*
X33797357Y34009345D01*
X33623960Y33901983D01*
X33623958Y33901981D01*
X33473237Y33764582D01*
X33350327Y33601822D01*
X33259422Y33419261D01*
X33259417Y33419248D01*
X33203602Y33223083D01*
X33184785Y33020001D01*
X33184785Y33020000D01*
X33203602Y32816918D01*
X33259417Y32620753D01*
X33259422Y32620740D01*
X33350327Y32438179D01*
X33473237Y32275419D01*
X33623958Y32138020D01*
X33623960Y32138018D01*
X33723141Y32076608D01*
X33797363Y32030652D01*
X33878283Y31999304D01*
X33933685Y31956731D01*
X33957276Y31890965D01*
X33941565Y31822884D01*
X33891542Y31774105D01*
X33865586Y31763903D01*
X33826519Y31753435D01*
X33826507Y31753430D01*
X33612422Y31653601D01*
X33612420Y31653600D01*
X33418926Y31518114D01*
X33418920Y31518109D01*
X33251891Y31351080D01*
X33251886Y31351074D01*
X33116400Y31157580D01*
X33116399Y31157578D01*
X33016570Y30943493D01*
X33016567Y30943487D01*
X32959364Y30730001D01*
X32959364Y30730000D01*
X33856988Y30730000D01*
X33824075Y30672993D01*
X33790000Y30545826D01*
X33790000Y30414174D01*
X33824075Y30287007D01*
X33856988Y30230000D01*
X32959364Y30230000D01*
X33016567Y30016514D01*
X33016570Y30016508D01*
X33116399Y29802422D01*
X33251894Y29608918D01*
X33418917Y29441895D01*
X33612421Y29306400D01*
X33826507Y29206571D01*
X33826516Y29206567D01*
X33865583Y29196099D01*
X33925244Y29159734D01*
X33955773Y29096887D01*
X33947479Y29027512D01*
X33902993Y28973634D01*
X33878284Y28960698D01*
X33797373Y28929353D01*
X33797357Y28929345D01*
X33623960Y28821983D01*
X33623958Y28821981D01*
X33473237Y28684582D01*
X33425052Y28620773D01*
X33368943Y28579137D01*
X33326098Y28571500D01*
X32418538Y28571500D01*
X32351499Y28591185D01*
X32330857Y28607819D01*
X20352819Y40585857D01*
X20319334Y40647180D01*
X20316500Y40673538D01*
X20316500Y47814198D01*
X20316499Y47814202D01*
X20307240Y47860750D01*
X20292232Y47936202D01*
X20244628Y48051128D01*
X20244627Y48051129D01*
X20244624Y48051135D01*
X20175518Y48154558D01*
X20175515Y48154562D01*
X20087561Y48242516D01*
X20087557Y48242519D01*
X19984134Y48311625D01*
X19984125Y48311630D01*
X19869202Y48359232D01*
X19869194Y48359234D01*
X19747201Y48383500D01*
X19747197Y48383500D01*
X18581403Y48383500D01*
X18581398Y48383500D01*
X18459405Y48359234D01*
X18459397Y48359232D01*
X18344473Y48311629D01*
X18267207Y48260002D01*
X18267206Y48260000D01*
X18241719Y48242971D01*
X18241036Y48242514D01*
X17402343Y47403819D01*
X17341020Y47370334D01*
X17314662Y47367500D01*
X15812798Y47367500D01*
X15690805Y47343234D01*
X15690797Y47343232D01*
X15575874Y47295630D01*
X15575865Y47295625D01*
X15472442Y47226519D01*
X15472438Y47226516D01*
X15384484Y47138562D01*
X15384481Y47138558D01*
X15315375Y47035135D01*
X15315370Y47035126D01*
X15267768Y46920203D01*
X15267766Y46920195D01*
X15243500Y46798202D01*
X15243500Y46673799D01*
X15267766Y46551806D01*
X15267768Y46551798D01*
X15315370Y46436875D01*
X15315375Y46436866D01*
X15384481Y46333443D01*
X15384484Y46333439D01*
X15472438Y46245485D01*
X15472442Y46245482D01*
X15575865Y46176376D01*
X15575871Y46176373D01*
X15575872Y46176372D01*
X15690798Y46128768D01*
X15812798Y46104501D01*
X15812802Y46104500D01*
X15812803Y46104500D01*
X17689798Y46104500D01*
X17689799Y46104501D01*
X17811802Y46128768D01*
X17926728Y46176372D01*
X18030158Y46245482D01*
X18118118Y46333442D01*
X18841819Y47057143D01*
X18903142Y47090628D01*
X18972834Y47085644D01*
X19028767Y47043772D01*
X19053184Y46978308D01*
X19053500Y46969462D01*
X19053500Y40298399D01*
X19077766Y40176406D01*
X19077768Y40176398D01*
X19125370Y40061475D01*
X19125375Y40061467D01*
X19176973Y39984246D01*
X19176974Y39984245D01*
X19194483Y39958040D01*
X19194484Y39958039D01*
X23868581Y35283943D01*
X23902066Y35222620D01*
X23904900Y35196262D01*
X23904900Y34778934D01*
X23885215Y34711895D01*
X23868581Y34691253D01*
X21434575Y32257248D01*
X21407712Y32236868D01*
X21406106Y32235965D01*
X21060931Y31939948D01*
X21026891Y31919198D01*
X20696214Y31784823D01*
X20649532Y31775700D01*
X18859447Y31775700D01*
X18792408Y31795385D01*
X18746653Y31848189D01*
X18744727Y31852632D01*
X18704396Y31950932D01*
X18704178Y31951462D01*
X18696716Y31962660D01*
X18685342Y31983972D01*
X18667261Y32027625D01*
X18667261Y32027626D01*
X18582551Y32138020D01*
X18579021Y32142621D01*
X18464025Y32230861D01*
X18464024Y32230862D01*
X18464022Y32230863D01*
X18330112Y32286329D01*
X18330110Y32286330D01*
X18330109Y32286330D01*
X18258254Y32295790D01*
X18186401Y32305250D01*
X18186399Y32305250D01*
X18042691Y32286330D01*
X18042687Y32286329D01*
X17908777Y32230863D01*
X17793779Y32142621D01*
X17705536Y32027622D01*
X17705536Y32027621D01*
X17682666Y31972409D01*
X17674308Y31955855D01*
X17664737Y31939976D01*
X17635039Y31857631D01*
X17593777Y31801246D01*
X17528582Y31776119D01*
X17518393Y31775700D01*
X14808866Y31775700D01*
X14762184Y31784823D01*
X14415106Y31925862D01*
X14415104Y31925864D01*
X14344129Y31954704D01*
X14344123Y31954706D01*
X14331386Y31957183D01*
X14307612Y31964340D01*
X14266111Y31981530D01*
X14266113Y31981530D01*
X14122401Y32000450D01*
X14122399Y32000450D01*
X13978691Y31981530D01*
X13978687Y31981529D01*
X13844777Y31926063D01*
X13835831Y31919198D01*
X13788785Y31883099D01*
X13723617Y31857905D01*
X13655173Y31871943D01*
X13605183Y31920757D01*
X13589300Y31981475D01*
X13589300Y41089909D01*
X13589300Y41089911D01*
X13566777Y41173968D01*
X13523266Y41249332D01*
X13461732Y41310866D01*
X11144202Y43628396D01*
X11110717Y43689719D01*
X11115701Y43759411D01*
X11157573Y43815344D01*
X11207692Y43837694D01*
X11233202Y43842768D01*
X11348128Y43890372D01*
X11451558Y43959482D01*
X11539518Y44047442D01*
X11608628Y44150872D01*
X11656232Y44265798D01*
X11680500Y44387803D01*
X11680500Y44780201D01*
X16799750Y44780201D01*
X16799750Y44780200D01*
X16818670Y44636492D01*
X16818671Y44636488D01*
X16874137Y44502578D01*
X16874138Y44502577D01*
X16874139Y44502575D01*
X16962379Y44387579D01*
X16962383Y44387576D01*
X16966532Y44383427D01*
X16969346Y44380342D01*
X17167609Y44184636D01*
X17201492Y44123532D01*
X17204499Y44096388D01*
X17204499Y36061863D01*
X17202965Y36042419D01*
X17200130Y36024564D01*
X17200130Y36024563D01*
X17202980Y36006523D01*
X17204499Y35987173D01*
X17204499Y35970153D01*
X17202237Y35970153D01*
X17197491Y35934035D01*
X17200220Y35933303D01*
X17165018Y35802021D01*
X17164987Y35674219D01*
X17198022Y35550772D01*
X17198025Y35550764D01*
X17261879Y35440067D01*
X17261880Y35440065D01*
X17268704Y35433236D01*
X17268951Y35432954D01*
X17308032Y35393873D01*
X17308062Y35393818D01*
X17308075Y35393830D01*
X17353058Y35348803D01*
X17353356Y35348549D01*
X17659545Y35042360D01*
X17659566Y35042337D01*
X17703139Y34998766D01*
X17742825Y34959080D01*
X17742844Y34959064D01*
X17748337Y34953571D01*
X17859044Y34889656D01*
X17982520Y34856570D01*
X17982522Y34856570D01*
X18118480Y34856570D01*
X18118480Y34854486D01*
X18176541Y34845436D01*
X18228801Y34799061D01*
X18247693Y34731794D01*
X18246641Y34717073D01*
X18233907Y34620348D01*
X18228996Y34583046D01*
X18245261Y34459500D01*
X18247916Y34439338D01*
X18247917Y34439334D01*
X18303383Y34305424D01*
X18303384Y34305422D01*
X18303385Y34305421D01*
X18391625Y34190425D01*
X18506621Y34102185D01*
X18640537Y34046716D01*
X18767526Y34029998D01*
X18784245Y34027796D01*
X18784246Y34027796D01*
X18784247Y34027796D01*
X18799223Y34029768D01*
X18927955Y34046716D01*
X19061871Y34102185D01*
X19132634Y34156485D01*
X19197798Y34181677D01*
X19266243Y34167640D01*
X19283604Y34156483D01*
X19305754Y34139486D01*
X19439670Y34084017D01*
X19566659Y34067299D01*
X19583378Y34065097D01*
X19583379Y34065097D01*
X19583380Y34065097D01*
X19598356Y34067069D01*
X19727088Y34084017D01*
X19861004Y34139486D01*
X19976000Y34227726D01*
X20064240Y34342722D01*
X20119709Y34476638D01*
X20138629Y34620347D01*
X20119709Y34764056D01*
X20081389Y34856570D01*
X20064241Y34897970D01*
X20064240Y34897971D01*
X20064240Y34897972D01*
X19976000Y35012968D01*
X19861004Y35101208D01*
X19861003Y35101209D01*
X19861001Y35101210D01*
X19727091Y35156676D01*
X19727089Y35156677D01*
X19727088Y35156677D01*
X19625322Y35170075D01*
X19575321Y35176658D01*
X19575631Y35179014D01*
X19520229Y35195282D01*
X19499587Y35211916D01*
X18391820Y36319683D01*
X18358335Y36381006D01*
X18355501Y36407364D01*
X18355501Y44096389D01*
X18375186Y44163428D01*
X18392383Y44184629D01*
X18588260Y44377980D01*
X18588258Y44377982D01*
X18589679Y44379383D01*
X18589855Y44379556D01*
X18593308Y44382952D01*
X18593428Y44383083D01*
X18606759Y44396242D01*
X18608017Y44400475D01*
X18613740Y44408586D01*
X18685860Y44502574D01*
X18685859Y44502574D01*
X18685861Y44502575D01*
X18741330Y44636491D01*
X18760250Y44780200D01*
X18741330Y44923909D01*
X18685861Y45057825D01*
X18597621Y45172821D01*
X18482625Y45261061D01*
X18482624Y45261062D01*
X18482622Y45261063D01*
X18348712Y45316529D01*
X18348710Y45316530D01*
X18348709Y45316530D01*
X18276854Y45325990D01*
X18205001Y45335450D01*
X18204999Y45335450D01*
X18061291Y45316530D01*
X18061287Y45316529D01*
X17927376Y45261062D01*
X17927374Y45261061D01*
X17855486Y45205899D01*
X17790317Y45180705D01*
X17721872Y45194744D01*
X17704514Y45205899D01*
X17632625Y45261061D01*
X17632623Y45261062D01*
X17498712Y45316529D01*
X17498710Y45316530D01*
X17498709Y45316530D01*
X17426854Y45325990D01*
X17355001Y45335450D01*
X17354999Y45335450D01*
X17211291Y45316530D01*
X17211287Y45316529D01*
X17077377Y45261063D01*
X16962379Y45172821D01*
X16874137Y45057823D01*
X16818671Y44923913D01*
X16818670Y44923909D01*
X16799750Y44780201D01*
X11680500Y44780201D01*
X11680500Y45407062D01*
X11700185Y45474101D01*
X11716819Y45494743D01*
X15592257Y49370181D01*
X15653580Y49403666D01*
X15679938Y49406500D01*
X18432262Y49406500D01*
X18499301Y49386815D01*
X18519943Y49370181D01*
X19104638Y48785485D01*
X19104642Y48785482D01*
X19208073Y48716371D01*
X19322999Y48668768D01*
X19323001Y48668768D01*
X19323006Y48668766D01*
X19444998Y48644501D01*
X19445002Y48644500D01*
X19445003Y48644500D01*
X19569398Y48644500D01*
X19569399Y48644501D01*
X19691402Y48668768D01*
X19806328Y48716371D01*
X19909758Y48785482D01*
X19909764Y48785488D01*
X19909765Y48785488D01*
X19997712Y48873435D01*
X19997712Y48873436D01*
X19997718Y48873442D01*
X20066829Y48976872D01*
X20114432Y49091798D01*
X20138700Y49213803D01*
X20138700Y49338197D01*
X20132338Y49370181D01*
X20114434Y49460194D01*
X20114431Y49460203D01*
X20066829Y49575127D01*
X19997718Y49678558D01*
X19997715Y49678562D01*
X19147765Y50528512D01*
X19147759Y50528517D01*
X19147756Y50528519D01*
X19137258Y50535534D01*
X19137255Y50535537D01*
X19044333Y50597625D01*
X19044325Y50597630D01*
X18929402Y50645232D01*
X18929394Y50645234D01*
X18807401Y50669500D01*
X18807397Y50669500D01*
X16554849Y50669500D01*
X16487810Y50689185D01*
X16442055Y50741989D01*
X16432111Y50811147D01*
X16456474Y50868987D01*
X16482860Y50903374D01*
X16482859Y50903374D01*
X16482861Y50903375D01*
X16538330Y51037291D01*
X16557250Y51181000D01*
X16538330Y51324709D01*
X16514674Y51381821D01*
X16509069Y51395353D01*
X16501600Y51464822D01*
X16532876Y51527301D01*
X16592965Y51562953D01*
X16623630Y51566805D01*
X18716796Y51566805D01*
X18783835Y51547120D01*
X18804477Y51530486D01*
X18842314Y51492649D01*
X18875799Y51431326D01*
X18877572Y51421155D01*
X18894670Y51291292D01*
X18894671Y51291288D01*
X18950137Y51157378D01*
X18950138Y51157376D01*
X18950139Y51157375D01*
X19038379Y51042379D01*
X19153375Y50954139D01*
X19287291Y50898670D01*
X19414280Y50881952D01*
X19430999Y50879750D01*
X19431000Y50879750D01*
X19431001Y50879750D01*
X19445977Y50881722D01*
X19574709Y50898670D01*
X19708625Y50954139D01*
X19823621Y51042379D01*
X19911861Y51157375D01*
X19967330Y51291291D01*
X19986250Y51435000D01*
X19967330Y51578709D01*
X19911861Y51712625D01*
X19823621Y51827621D01*
X19708625Y51915861D01*
X19708624Y51915862D01*
X19708622Y51915863D01*
X19574712Y51971329D01*
X19574710Y51971330D01*
X19574709Y51971330D01*
X19555590Y51973848D01*
X19444845Y51988428D01*
X19380949Y52016695D01*
X19373351Y52023686D01*
X19154259Y52242778D01*
X19154258Y52242779D01*
X19154257Y52242780D01*
X19097174Y52275737D01*
X19068632Y52292216D01*
X19004503Y52309400D01*
X19004503Y52309399D01*
X18973131Y52317805D01*
X18973130Y52317805D01*
X10998931Y52317805D01*
X10931892Y52337490D01*
X10923444Y52343430D01*
X10818626Y52423861D01*
X10818623Y52423862D01*
X10684712Y52479329D01*
X10684710Y52479330D01*
X10684709Y52479330D01*
X10612854Y52488790D01*
X10541001Y52498250D01*
X10540999Y52498250D01*
X10397291Y52479330D01*
X10397287Y52479329D01*
X10263377Y52423863D01*
X10148379Y52335621D01*
X10060137Y52220623D01*
X10004671Y52086713D01*
X10004670Y52086709D01*
X9985750Y51943001D01*
X9985750Y51943000D01*
X10004670Y51799292D01*
X10004671Y51799288D01*
X10060137Y51665378D01*
X10060138Y51665376D01*
X10060139Y51665375D01*
X10148379Y51550379D01*
X10263375Y51462139D01*
X10263376Y51462139D01*
X10263377Y51462138D01*
X10308013Y51443650D01*
X10397291Y51406670D01*
X10524280Y51389952D01*
X10540999Y51387750D01*
X10541000Y51387750D01*
X10541001Y51387750D01*
X10555977Y51389722D01*
X10684709Y51406670D01*
X10818625Y51462139D01*
X10891238Y51517857D01*
X10921635Y51541181D01*
X10986804Y51566375D01*
X10997121Y51566805D01*
X13348370Y51566805D01*
X13415409Y51547120D01*
X13461164Y51494316D01*
X13471108Y51425158D01*
X13462931Y51395353D01*
X13433671Y51324713D01*
X13433670Y51324709D01*
X13414750Y51181000D01*
X13430092Y51064465D01*
X13433670Y51037292D01*
X13433671Y51037288D01*
X13489137Y50903378D01*
X13489138Y50903377D01*
X13489139Y50903375D01*
X13577379Y50788379D01*
X13692375Y50700139D01*
X13826291Y50644670D01*
X13953280Y50627952D01*
X13969999Y50625750D01*
X13970000Y50625750D01*
X13970001Y50625750D01*
X13984977Y50627722D01*
X14113709Y50644670D01*
X14247625Y50700139D01*
X14348934Y50777878D01*
X14414101Y50803070D01*
X14424419Y50803500D01*
X14941807Y50803500D01*
X15008846Y50783815D01*
X15054601Y50731011D01*
X15064545Y50661853D01*
X15035520Y50598297D01*
X15010698Y50576398D01*
X14939042Y50528519D01*
X14939038Y50528516D01*
X14851088Y50440565D01*
X14851083Y50440560D01*
X14806714Y50374160D01*
X14791295Y50355373D01*
X11662443Y47226519D01*
X10646442Y46210518D01*
X10612300Y46176376D01*
X10558480Y46122557D01*
X10489375Y46019135D01*
X10489370Y46019126D01*
X10441768Y45904203D01*
X10441766Y45904195D01*
X10417500Y45782202D01*
X10417500Y44654460D01*
X10397815Y44587421D01*
X10345011Y44541666D01*
X10275853Y44531722D01*
X10212297Y44560747D01*
X10205819Y44566779D01*
X4557819Y50214779D01*
X4524334Y50276102D01*
X4521500Y50302460D01*
X4521500Y51605509D01*
X4521500Y51605511D01*
X4498977Y51689568D01*
X4455466Y51764932D01*
X4393932Y51826466D01*
X2824318Y53396080D01*
X12709499Y53396080D01*
X12738340Y53251093D01*
X12738343Y53251083D01*
X12794912Y53114512D01*
X12794919Y53114499D01*
X12877048Y52991585D01*
X12877051Y52991581D01*
X12981580Y52887052D01*
X12981584Y52887049D01*
X13104498Y52804920D01*
X13104511Y52804913D01*
X13241082Y52748344D01*
X13241087Y52748342D01*
X13241091Y52748342D01*
X13241092Y52748341D01*
X13386079Y52719500D01*
X13386082Y52719500D01*
X13533920Y52719500D01*
X13631462Y52738904D01*
X13678913Y52748342D01*
X13815495Y52804916D01*
X13938416Y52887049D01*
X14042951Y52991584D01*
X14125084Y53114505D01*
X14181658Y53251087D01*
X14210500Y53396080D01*
X21349499Y53396080D01*
X21378340Y53251093D01*
X21378343Y53251083D01*
X21434912Y53114512D01*
X21434919Y53114499D01*
X21517048Y52991585D01*
X21517051Y52991581D01*
X21621580Y52887052D01*
X21621584Y52887049D01*
X21744498Y52804920D01*
X21744511Y52804913D01*
X21881082Y52748344D01*
X21881087Y52748342D01*
X21881091Y52748342D01*
X21881092Y52748341D01*
X22026079Y52719500D01*
X22026082Y52719500D01*
X22173920Y52719500D01*
X22271462Y52738904D01*
X22318913Y52748342D01*
X22455495Y52804916D01*
X22578416Y52887049D01*
X22682951Y52991584D01*
X22765084Y53114505D01*
X22821658Y53251087D01*
X22850500Y53396082D01*
X22850500Y54643918D01*
X22850500Y54643921D01*
X22821659Y54788908D01*
X22821658Y54788909D01*
X22821658Y54788913D01*
X22795013Y54853241D01*
X22765087Y54925489D01*
X22765080Y54925502D01*
X22682951Y55048416D01*
X22682948Y55048420D01*
X22578419Y55152949D01*
X22578415Y55152952D01*
X22455501Y55235081D01*
X22455488Y55235088D01*
X22318917Y55291657D01*
X22318907Y55291660D01*
X22173920Y55320500D01*
X22173918Y55320500D01*
X22026082Y55320500D01*
X22026080Y55320500D01*
X21881092Y55291660D01*
X21881082Y55291657D01*
X21744511Y55235088D01*
X21744498Y55235081D01*
X21621584Y55152952D01*
X21621580Y55152949D01*
X21517051Y55048420D01*
X21517048Y55048416D01*
X21434919Y54925502D01*
X21434912Y54925489D01*
X21378343Y54788918D01*
X21378340Y54788908D01*
X21349500Y54643921D01*
X21349500Y54643918D01*
X21349500Y53396082D01*
X21349500Y53396080D01*
X21349499Y53396080D01*
X14210500Y53396080D01*
X14210500Y53396082D01*
X14210500Y54606018D01*
X14464500Y54606018D01*
X14464500Y54493982D01*
X14493497Y54385763D01*
X14549515Y54288737D01*
X14628737Y54209515D01*
X14725763Y54153497D01*
X14833982Y54124500D01*
X14833984Y54124500D01*
X14946016Y54124500D01*
X14946018Y54124500D01*
X15054237Y54153497D01*
X15151263Y54209515D01*
X15230485Y54288737D01*
X15286503Y54385763D01*
X15315500Y54493982D01*
X15315500Y54606018D01*
X20244500Y54606018D01*
X20244500Y54493982D01*
X20273497Y54385763D01*
X20329515Y54288737D01*
X20408737Y54209515D01*
X20505763Y54153497D01*
X20613982Y54124500D01*
X20613984Y54124500D01*
X20726016Y54124500D01*
X20726018Y54124500D01*
X20834237Y54153497D01*
X20931263Y54209515D01*
X21010485Y54288737D01*
X21066503Y54385763D01*
X21095500Y54493982D01*
X21095500Y54606018D01*
X21066503Y54714237D01*
X21010485Y54811263D01*
X20931263Y54890485D01*
X20834237Y54946503D01*
X20726018Y54975500D01*
X20613982Y54975500D01*
X20505763Y54946503D01*
X20505760Y54946502D01*
X20408740Y54890487D01*
X20408734Y54890483D01*
X20329517Y54811266D01*
X20329513Y54811260D01*
X20273498Y54714240D01*
X20273497Y54714237D01*
X20244500Y54606018D01*
X15315500Y54606018D01*
X15286503Y54714237D01*
X15230485Y54811263D01*
X15151263Y54890485D01*
X15054237Y54946503D01*
X14946018Y54975500D01*
X14833982Y54975500D01*
X14725763Y54946503D01*
X14725760Y54946502D01*
X14628740Y54890487D01*
X14628734Y54890483D01*
X14549517Y54811266D01*
X14549513Y54811260D01*
X14493498Y54714240D01*
X14493497Y54714237D01*
X14464500Y54606018D01*
X14210500Y54606018D01*
X14210500Y54643918D01*
X14210500Y54643921D01*
X14181659Y54788908D01*
X14181658Y54788909D01*
X14181658Y54788913D01*
X14155013Y54853241D01*
X14125087Y54925489D01*
X14125080Y54925502D01*
X14042951Y55048416D01*
X14042948Y55048420D01*
X13938419Y55152949D01*
X13938415Y55152952D01*
X13815501Y55235081D01*
X13815488Y55235088D01*
X13678917Y55291657D01*
X13678907Y55291660D01*
X13533920Y55320500D01*
X13533918Y55320500D01*
X13386082Y55320500D01*
X13386080Y55320500D01*
X13241092Y55291660D01*
X13241082Y55291657D01*
X13104511Y55235088D01*
X13104498Y55235081D01*
X12981584Y55152952D01*
X12981580Y55152949D01*
X12877051Y55048420D01*
X12877048Y55048416D01*
X12794919Y54925502D01*
X12794912Y54925489D01*
X12738343Y54788918D01*
X12738340Y54788908D01*
X12709500Y54643921D01*
X12709500Y54643918D01*
X12709500Y53396082D01*
X12709500Y53396080D01*
X12709499Y53396080D01*
X2824318Y53396080D01*
X2615932Y53604466D01*
X2540568Y53647977D01*
X2540569Y53647977D01*
X2510980Y53655905D01*
X2462404Y53668921D01*
X2402746Y53705285D01*
X2372217Y53768132D01*
X2370500Y53788695D01*
X2370500Y54214677D01*
X2370499Y54214679D01*
X2355967Y54287736D01*
X2355966Y54287740D01*
X2355297Y54288741D01*
X2300601Y54370601D01*
X2217740Y54425966D01*
X2217739Y54425967D01*
X2217735Y54425968D01*
X2144677Y54440500D01*
X2144674Y54440500D01*
X395326Y54440500D01*
X395323Y54440500D01*
X389261Y54439903D01*
X389052Y54442025D01*
X329059Y54447414D01*
X273897Y54490297D01*
X250675Y54556195D01*
X250500Y54562788D01*
X250500Y54607294D01*
X250618Y54612703D01*
X251981Y54643921D01*
X268642Y55025536D01*
X269582Y55036268D01*
X323166Y55443284D01*
X325037Y55453895D01*
X413894Y55854706D01*
X416681Y55865106D01*
X451168Y55974487D01*
X6419500Y55974487D01*
X6419500Y55785514D01*
X6449059Y55598882D01*
X6507454Y55419164D01*
X6572421Y55291660D01*
X6593240Y55250801D01*
X6704310Y55097927D01*
X6837927Y54964310D01*
X6990801Y54853240D01*
X7035488Y54830471D01*
X7159163Y54767455D01*
X7159165Y54767455D01*
X7159168Y54767453D01*
X7255497Y54736154D01*
X7338881Y54709060D01*
X7525514Y54679500D01*
X7525519Y54679500D01*
X7714486Y54679500D01*
X7901118Y54709060D01*
X7917060Y54714240D01*
X8080832Y54767453D01*
X8249199Y54853240D01*
X8402073Y54964310D01*
X8535690Y55097927D01*
X8646760Y55250801D01*
X8732547Y55419168D01*
X8790940Y55598882D01*
X8820500Y55785514D01*
X8820500Y55974487D01*
X26799500Y55974487D01*
X26799500Y55785514D01*
X26829059Y55598882D01*
X26887454Y55419164D01*
X26952421Y55291660D01*
X26973240Y55250801D01*
X27084310Y55097927D01*
X27217927Y54964310D01*
X27370801Y54853240D01*
X27415488Y54830471D01*
X27539163Y54767455D01*
X27539165Y54767455D01*
X27539168Y54767453D01*
X27635497Y54736154D01*
X27718881Y54709060D01*
X27905514Y54679500D01*
X27905519Y54679500D01*
X28094486Y54679500D01*
X28281118Y54709060D01*
X28297060Y54714240D01*
X28460832Y54767453D01*
X28629199Y54853240D01*
X28782073Y54964310D01*
X28915690Y55097927D01*
X29026760Y55250801D01*
X29112547Y55419168D01*
X29170940Y55598882D01*
X29200500Y55785514D01*
X29200500Y55974487D01*
X29170940Y56161119D01*
X29138231Y56261786D01*
X29112547Y56340832D01*
X29112545Y56340835D01*
X29112545Y56340837D01*
X29026759Y56509200D01*
X28915690Y56662073D01*
X28782073Y56795690D01*
X28629199Y56906760D01*
X28460836Y56992546D01*
X28281118Y57050941D01*
X28094486Y57080500D01*
X28094481Y57080500D01*
X27905519Y57080500D01*
X27905514Y57080500D01*
X27718881Y57050941D01*
X27539163Y56992546D01*
X27370800Y56906760D01*
X27283579Y56843390D01*
X27217927Y56795690D01*
X27217925Y56795688D01*
X27217924Y56795688D01*
X27084312Y56662076D01*
X27084312Y56662075D01*
X27084310Y56662073D01*
X27036610Y56596421D01*
X26973240Y56509200D01*
X26887454Y56340837D01*
X26829059Y56161119D01*
X26799500Y55974487D01*
X8820500Y55974487D01*
X8790940Y56161119D01*
X8758231Y56261786D01*
X8732547Y56340832D01*
X8732545Y56340835D01*
X8732545Y56340837D01*
X8646759Y56509200D01*
X8535690Y56662073D01*
X8402073Y56795690D01*
X8249199Y56906760D01*
X8080836Y56992546D01*
X7901118Y57050941D01*
X7714486Y57080500D01*
X7714481Y57080500D01*
X7525519Y57080500D01*
X7525514Y57080500D01*
X7338881Y57050941D01*
X7159163Y56992546D01*
X6990800Y56906760D01*
X6903579Y56843390D01*
X6837927Y56795690D01*
X6837925Y56795688D01*
X6837924Y56795688D01*
X6704312Y56662076D01*
X6704312Y56662075D01*
X6704310Y56662073D01*
X6656610Y56596421D01*
X6593240Y56509200D01*
X6507454Y56340837D01*
X6449059Y56161119D01*
X6419500Y55974487D01*
X451168Y55974487D01*
X540133Y56256648D01*
X543817Y56266769D01*
X700922Y56646052D01*
X705480Y56655826D01*
X895044Y57019976D01*
X900426Y57029297D01*
X1120999Y57375527D01*
X1127190Y57384370D01*
X1377101Y57710060D01*
X1384039Y57718329D01*
X1661380Y58020992D01*
X1669008Y58028620D01*
X1971671Y58305961D01*
X1979940Y58312899D01*
X2305630Y58562810D01*
X2314473Y58569001D01*
X2660703Y58789574D01*
X2670024Y58794956D01*
X3034174Y58984520D01*
X3043948Y58989078D01*
X3423231Y59146183D01*
X3433352Y59149867D01*
X3824894Y59273319D01*
X3835294Y59276106D01*
X4236105Y59364963D01*
X4246716Y59366834D01*
X4653732Y59420418D01*
X4664464Y59421358D01*
X5077297Y59439383D01*
X5082706Y59439500D01*
X5124170Y59439500D01*
X13143614Y59439500D01*
X13210653Y59419815D01*
G37*
%TD.AperFunction*%
%TA.AperFunction,Conductor*%
G36*
X12524503Y41312853D02*
G01*
X12530981Y41306821D01*
X12891981Y40945821D01*
X12925466Y40884498D01*
X12928300Y40858140D01*
X12928300Y30518664D01*
X12908615Y30451625D01*
X12855811Y30405870D01*
X12786653Y30395926D01*
X12728815Y30420287D01*
X12704011Y30439319D01*
X12687283Y30452155D01*
X12655425Y30465351D01*
X12553370Y30507623D01*
X12553368Y30507624D01*
X12553367Y30507624D01*
X12484893Y30516639D01*
X12427114Y30524246D01*
X12363218Y30552513D01*
X12324747Y30610837D01*
X12319300Y30647185D01*
X12319300Y41219140D01*
X12338985Y41286179D01*
X12391789Y41331934D01*
X12460947Y41341878D01*
X12524503Y41312853D01*
G37*
%TD.AperFunction*%
%TD*%
%TA.AperFunction,Conductor*%
%TO.N,+3V3*%
G36*
X5398154Y11573294D02*
G01*
X5404466Y11566942D01*
X5404820Y11559039D01*
X5260351Y11092241D01*
X5254631Y11085351D01*
X5249174Y11084000D01*
X5012426Y11084000D01*
X5004153Y11087427D01*
X5001249Y11092241D01*
X4856779Y11559039D01*
X4857607Y11567955D01*
X4863443Y11573293D01*
X5126290Y11683117D01*
X5135244Y11683143D01*
X5398154Y11573294D01*
G37*
%TD.AperFunction*%
%TD*%
%TA.AperFunction,Conductor*%
%TO.N,+3V3*%
G36*
X5257447Y9740573D02*
G01*
X5260351Y9735759D01*
X5404820Y9268962D01*
X5403992Y9260046D01*
X5398154Y9254707D01*
X5135311Y9144885D01*
X5126356Y9144858D01*
X5126289Y9144885D01*
X4863445Y9254707D01*
X4857133Y9261059D01*
X4856779Y9268961D01*
X5001249Y9735760D01*
X5006969Y9742649D01*
X5012426Y9744000D01*
X5249174Y9744000D01*
X5257447Y9740573D01*
G37*
%TD.AperFunction*%
%TD*%
%TA.AperFunction,Conductor*%
%TO.N,+3V3*%
G36*
X22321474Y26932971D02*
G01*
X22786046Y26736871D01*
X22792335Y26730497D01*
X22792319Y26721648D01*
X22684478Y26459017D01*
X22678166Y26452665D01*
X22678099Y26452638D01*
X22415468Y26344797D01*
X22406513Y26344824D01*
X22400245Y26351070D01*
X22357372Y26452638D01*
X22204145Y26815642D01*
X22204085Y26824597D01*
X22206649Y26828463D01*
X22308652Y26930466D01*
X22316924Y26933892D01*
X22321474Y26932971D01*
G37*
%TD.AperFunction*%
%TD*%
%TA.AperFunction,Conductor*%
%TO.N,+3V3*%
G36*
X3959284Y30336740D02*
G01*
X3965122Y30331401D01*
X4193042Y29899170D01*
X4193870Y29890254D01*
X4190966Y29885440D01*
X4023560Y29718034D01*
X4015287Y29714607D01*
X4009830Y29715958D01*
X3577599Y29943878D01*
X3571879Y29950768D01*
X3572233Y29958671D01*
X3680436Y30222185D01*
X3686746Y30228536D01*
X3950329Y30336767D01*
X3959284Y30336740D01*
G37*
%TD.AperFunction*%
%TD*%
%TA.AperFunction,Conductor*%
%TO.N,+3V3*%
G36*
X3610022Y30740673D02*
G01*
X3610264Y30740424D01*
X3887360Y30446379D01*
X3890540Y30438008D01*
X3887138Y30430101D01*
X3686446Y30228463D01*
X3678181Y30225017D01*
X3678114Y30225017D01*
X3394000Y30225964D01*
X3385738Y30229418D01*
X3382359Y30236981D01*
X3353522Y30731719D01*
X3356461Y30740178D01*
X3364521Y30744080D01*
X3365202Y30744100D01*
X3601749Y30744100D01*
X3610022Y30740673D01*
G37*
%TD.AperFunction*%
%TD*%
%TA.AperFunction,Conductor*%
%TO.N,+3V3*%
G36*
X14330039Y31684640D02*
G01*
X14715106Y31528164D01*
X14721479Y31521876D01*
X14722400Y31517326D01*
X14722400Y31373075D01*
X14718973Y31364802D01*
X14715105Y31362236D01*
X14247939Y31172399D01*
X14238984Y31172459D01*
X14232738Y31178727D01*
X14156064Y31362236D01*
X14123283Y31440691D01*
X14123257Y31449644D01*
X14123262Y31449658D01*
X14232738Y31711675D01*
X14239090Y31717986D01*
X14247939Y31718002D01*
X14330039Y31684640D01*
G37*
%TD.AperFunction*%
%TD*%
%TA.AperFunction,Conductor*%
%TO.N,+3V3*%
G36*
X22619553Y26481805D02*
G01*
X22678099Y26457765D01*
X22684451Y26451453D01*
X22684478Y26451386D01*
X22792390Y26188581D01*
X22792363Y26179626D01*
X22786293Y26173434D01*
X22329995Y25971965D01*
X22321042Y25971758D01*
X22316996Y25974395D01*
X22214981Y26076410D01*
X22211554Y26084683D01*
X22212389Y26089023D01*
X22400367Y26559046D01*
X22406620Y26565453D01*
X22415574Y26565562D01*
X22619553Y26481805D01*
G37*
%TD.AperFunction*%
%TD*%
%TA.AperFunction,Conductor*%
%TO.N,+3V3*%
G36*
X21588321Y32041406D02*
G01*
X21932205Y31697522D01*
X21935632Y31689249D01*
X21932813Y31681632D01*
X21556327Y31242625D01*
X21548340Y31238576D01*
X21539829Y31241361D01*
X21539200Y31241941D01*
X21335293Y31444493D01*
X21335238Y31444548D01*
X21132740Y31648401D01*
X21129341Y31656686D01*
X21132795Y31664948D01*
X21133410Y31665516D01*
X21572431Y32042015D01*
X21580942Y32044799D01*
X21588321Y32041406D01*
G37*
%TD.AperFunction*%
%TD*%
%TA.AperFunction,Conductor*%
%TO.N,+3V3*%
G36*
X17920537Y31860141D02*
G01*
X18182894Y31751860D01*
X18189233Y31745537D01*
X18189252Y31745490D01*
X18295861Y31485851D01*
X18295834Y31476896D01*
X18289482Y31470584D01*
X18287434Y31469955D01*
X17800852Y31368150D01*
X17792052Y31369810D01*
X17787004Y31377206D01*
X17786756Y31379602D01*
X17786756Y31523156D01*
X17787450Y31527125D01*
X17905083Y31853291D01*
X17911112Y31859909D01*
X17920057Y31860326D01*
X17920537Y31860141D01*
G37*
%TD.AperFunction*%
%TD*%
%TA.AperFunction,Conductor*%
%TO.N,+3V3*%
G36*
X21602473Y31334862D02*
G01*
X21608785Y31328510D01*
X21608801Y31319661D01*
X21418964Y30852495D01*
X21412675Y30846121D01*
X21408125Y30845200D01*
X21263875Y30845200D01*
X21255602Y30848627D01*
X21253036Y30852495D01*
X21063198Y31319661D01*
X21063258Y31328616D01*
X21069525Y31334862D01*
X21331490Y31444317D01*
X21340444Y31444343D01*
X21602473Y31334862D01*
G37*
%TD.AperFunction*%
%TD*%
%TA.AperFunction,Conductor*%
%TO.N,+3V3*%
G36*
X18461681Y31860322D02*
G01*
X18468004Y31853983D01*
X18509911Y31751842D01*
X18602024Y31527336D01*
X18602900Y31522895D01*
X18602900Y31379508D01*
X18599473Y31371235D01*
X18591200Y31367808D01*
X18588877Y31368041D01*
X18085473Y31470025D01*
X18078045Y31475026D01*
X18076329Y31483815D01*
X18076970Y31485928D01*
X18183548Y31745493D01*
X18189856Y31751840D01*
X18452728Y31860333D01*
X18461681Y31860322D01*
G37*
%TD.AperFunction*%
%TD*%
%TA.AperFunction,Conductor*%
%TO.N,+3V3*%
G36*
X18450330Y31640657D02*
G01*
X18456669Y31634334D01*
X18456680Y31625379D01*
X18455574Y31623314D01*
X18389600Y31525200D01*
X18389600Y31381512D01*
X18386173Y31373239D01*
X18377900Y31369812D01*
X18374149Y31370430D01*
X18083401Y31468840D01*
X18076663Y31474738D01*
X18076070Y31483673D01*
X18076329Y31484366D01*
X18093096Y31525200D01*
X18180949Y31739161D01*
X18187259Y31745510D01*
X18196214Y31745537D01*
X18450330Y31640657D01*
G37*
%TD.AperFunction*%
%TD*%
%TA.AperFunction,Conductor*%
%TO.N,+3V3*%
G36*
X24917047Y17411373D02*
G01*
X24919951Y17406559D01*
X25064420Y16939762D01*
X25063592Y16930846D01*
X25057754Y16925507D01*
X24794911Y16815685D01*
X24785956Y16815658D01*
X24785889Y16815685D01*
X24523045Y16925507D01*
X24516733Y16931859D01*
X24516379Y16939761D01*
X24660849Y17406560D01*
X24666569Y17413449D01*
X24672026Y17414800D01*
X24908774Y17414800D01*
X24917047Y17411373D01*
G37*
%TD.AperFunction*%
%TD*%
%TA.AperFunction,Conductor*%
%TO.N,+3V3*%
G36*
X5257447Y12280573D02*
G01*
X5260351Y12275759D01*
X5404820Y11808962D01*
X5403992Y11800046D01*
X5398154Y11794707D01*
X5135311Y11684885D01*
X5126356Y11684858D01*
X5126289Y11684885D01*
X4863445Y11794707D01*
X4857133Y11801059D01*
X4856779Y11808961D01*
X5001249Y12275760D01*
X5006969Y12282649D01*
X5012426Y12284000D01*
X5249174Y12284000D01*
X5257447Y12280573D01*
G37*
%TD.AperFunction*%
%TD*%
%TA.AperFunction,Conductor*%
%TO.N,+3V3*%
G36*
X21219415Y31717942D02*
G01*
X21225661Y31711674D01*
X21335115Y31449711D01*
X21335142Y31440756D01*
X21335115Y31440689D01*
X21225661Y31178727D01*
X21219309Y31172415D01*
X21210460Y31172399D01*
X20743295Y31362236D01*
X20736921Y31368525D01*
X20736000Y31373075D01*
X20736000Y31517326D01*
X20739427Y31525599D01*
X20743292Y31528164D01*
X21210460Y31718002D01*
X21219415Y31717942D01*
G37*
%TD.AperFunction*%
%TD*%
%TA.AperFunction,Conductor*%
%TO.N,+5V*%
G36*
X4952647Y33362573D02*
G01*
X4955551Y33357759D01*
X5100020Y32890962D01*
X5099192Y32882046D01*
X5093354Y32876707D01*
X4830511Y32766885D01*
X4821556Y32766858D01*
X4821489Y32766885D01*
X4558645Y32876707D01*
X4552333Y32883059D01*
X4551979Y32890961D01*
X4696449Y33357760D01*
X4702169Y33364649D01*
X4707626Y33366000D01*
X4944374Y33366000D01*
X4952647Y33362573D01*
G37*
%TD.AperFunction*%
%TD*%
%TA.AperFunction,Conductor*%
%TO.N,+5V*%
G36*
X8316099Y39488084D02*
G01*
X8322410Y39481733D01*
X8322596Y39473327D01*
X8156184Y39010873D01*
X8150158Y39004249D01*
X8145175Y39003135D01*
X7908404Y39003135D01*
X7900131Y39006562D01*
X7897094Y39011838D01*
X7881648Y39070129D01*
X7774648Y39473937D01*
X7775842Y39482810D01*
X7781445Y39487727D01*
X8044690Y39597717D01*
X8053644Y39597743D01*
X8316099Y39488084D01*
G37*
%TD.AperFunction*%
%TD*%
%TA.AperFunction,Conductor*%
%TO.N,~{RST}*%
G36*
X21323551Y14080406D02*
G01*
X21514239Y14002106D01*
X21586184Y13972564D01*
X21592536Y13966252D01*
X21592563Y13966185D01*
X21700404Y13703554D01*
X21700377Y13694599D01*
X21694131Y13688331D01*
X21229559Y13492231D01*
X21220604Y13492171D01*
X21216736Y13494737D01*
X21114736Y13596737D01*
X21111309Y13605010D01*
X21112230Y13609560D01*
X21262765Y13966185D01*
X21308331Y14074134D01*
X21314704Y14080421D01*
X21323551Y14080406D01*
G37*
%TD.AperFunction*%
%TD*%
%TA.AperFunction,Conductor*%
%TO.N,~{RST}*%
G36*
X21201263Y13683264D02*
G01*
X21303263Y13581264D01*
X21306690Y13572991D01*
X21305769Y13568441D01*
X21109669Y13103869D01*
X21103295Y13097580D01*
X21094446Y13097596D01*
X20831815Y13205437D01*
X20825463Y13211749D01*
X20825436Y13211816D01*
X20795894Y13283761D01*
X20717595Y13474449D01*
X20717622Y13483402D01*
X20723866Y13489669D01*
X21188440Y13685771D01*
X21197395Y13685830D01*
X21201263Y13683264D01*
G37*
%TD.AperFunction*%
%TD*%
%TA.AperFunction,Conductor*%
%TO.N,/N_USB_D+*%
G36*
X17643338Y44780239D02*
G01*
X17651600Y44776785D01*
X17654999Y44768539D01*
X17654999Y44271661D01*
X17651572Y44263388D01*
X17643299Y44259961D01*
X17459801Y44259961D01*
X17451582Y44263334D01*
X17433023Y44281654D01*
X17151228Y44559816D01*
X17147748Y44568065D01*
X17151121Y44576360D01*
X17351555Y44777739D01*
X17359817Y44781184D01*
X17643338Y44780239D01*
G37*
%TD.AperFunction*%
%TD*%
%TA.AperFunction,Conductor*%
%TO.N,/N_USB_D-*%
G36*
X18208398Y44777786D02*
G01*
X18217602Y44768539D01*
X18408844Y44576395D01*
X18412251Y44568113D01*
X18408805Y44559848D01*
X18408770Y44559814D01*
X18108418Y44263334D01*
X18100199Y44259961D01*
X17916701Y44259961D01*
X17908428Y44263388D01*
X17905001Y44271661D01*
X17905000Y44768539D01*
X17908427Y44776812D01*
X17916660Y44780239D01*
X18200114Y44781184D01*
X18208398Y44777786D01*
G37*
%TD.AperFunction*%
%TD*%
%TA.AperFunction,Conductor*%
%TO.N,QSPI_SS*%
G36*
X12826647Y13804573D02*
G01*
X12829551Y13799759D01*
X12974020Y13332962D01*
X12973192Y13324046D01*
X12967354Y13318707D01*
X12704511Y13208885D01*
X12695556Y13208858D01*
X12695489Y13208885D01*
X12432645Y13318707D01*
X12426333Y13325059D01*
X12425979Y13332961D01*
X12570449Y13799760D01*
X12576169Y13806649D01*
X12581626Y13808000D01*
X12818374Y13808000D01*
X12826647Y13804573D01*
G37*
%TD.AperFunction*%
%TD*%
M02*
